G04 #@! TF.GenerationSoftware,KiCad,Pcbnew,(5.0.2)-1*
G04 #@! TF.CreationDate,2018-12-27T21:36:54-05:00*
G04 #@! TF.ProjectId,WarthoggitClone,57617274-686f-4676-9769-74436c6f6e65,rev?*
G04 #@! TF.SameCoordinates,Original*
G04 #@! TF.FileFunction,Paste,Top*
G04 #@! TF.FilePolarity,Positive*
%FSLAX46Y46*%
G04 Gerber Fmt 4.6, Leading zero omitted, Abs format (unit mm)*
G04 Created by KiCad (PCBNEW (5.0.2)-1) date 12/27/2018 9:36:54 PM*
%MOMM*%
%LPD*%
G01*
G04 APERTURE LIST*
%ADD10C,0.100000*%
%ADD11C,0.975000*%
%ADD12R,1.500000X0.600000*%
G04 APERTURE END LIST*
D10*
G04 #@! TO.C,C1*
G36*
X122520142Y-71691174D02*
X122543803Y-71694684D01*
X122567007Y-71700496D01*
X122589529Y-71708554D01*
X122611153Y-71718782D01*
X122631670Y-71731079D01*
X122650883Y-71745329D01*
X122668607Y-71761393D01*
X122684671Y-71779117D01*
X122698921Y-71798330D01*
X122711218Y-71818847D01*
X122721446Y-71840471D01*
X122729504Y-71862993D01*
X122735316Y-71886197D01*
X122738826Y-71909858D01*
X122740000Y-71933750D01*
X122740000Y-72846250D01*
X122738826Y-72870142D01*
X122735316Y-72893803D01*
X122729504Y-72917007D01*
X122721446Y-72939529D01*
X122711218Y-72961153D01*
X122698921Y-72981670D01*
X122684671Y-73000883D01*
X122668607Y-73018607D01*
X122650883Y-73034671D01*
X122631670Y-73048921D01*
X122611153Y-73061218D01*
X122589529Y-73071446D01*
X122567007Y-73079504D01*
X122543803Y-73085316D01*
X122520142Y-73088826D01*
X122496250Y-73090000D01*
X122008750Y-73090000D01*
X121984858Y-73088826D01*
X121961197Y-73085316D01*
X121937993Y-73079504D01*
X121915471Y-73071446D01*
X121893847Y-73061218D01*
X121873330Y-73048921D01*
X121854117Y-73034671D01*
X121836393Y-73018607D01*
X121820329Y-73000883D01*
X121806079Y-72981670D01*
X121793782Y-72961153D01*
X121783554Y-72939529D01*
X121775496Y-72917007D01*
X121769684Y-72893803D01*
X121766174Y-72870142D01*
X121765000Y-72846250D01*
X121765000Y-71933750D01*
X121766174Y-71909858D01*
X121769684Y-71886197D01*
X121775496Y-71862993D01*
X121783554Y-71840471D01*
X121793782Y-71818847D01*
X121806079Y-71798330D01*
X121820329Y-71779117D01*
X121836393Y-71761393D01*
X121854117Y-71745329D01*
X121873330Y-71731079D01*
X121893847Y-71718782D01*
X121915471Y-71708554D01*
X121937993Y-71700496D01*
X121961197Y-71694684D01*
X121984858Y-71691174D01*
X122008750Y-71690000D01*
X122496250Y-71690000D01*
X122520142Y-71691174D01*
X122520142Y-71691174D01*
G37*
D11*
X122252500Y-72390000D03*
D10*
G36*
X124395142Y-71691174D02*
X124418803Y-71694684D01*
X124442007Y-71700496D01*
X124464529Y-71708554D01*
X124486153Y-71718782D01*
X124506670Y-71731079D01*
X124525883Y-71745329D01*
X124543607Y-71761393D01*
X124559671Y-71779117D01*
X124573921Y-71798330D01*
X124586218Y-71818847D01*
X124596446Y-71840471D01*
X124604504Y-71862993D01*
X124610316Y-71886197D01*
X124613826Y-71909858D01*
X124615000Y-71933750D01*
X124615000Y-72846250D01*
X124613826Y-72870142D01*
X124610316Y-72893803D01*
X124604504Y-72917007D01*
X124596446Y-72939529D01*
X124586218Y-72961153D01*
X124573921Y-72981670D01*
X124559671Y-73000883D01*
X124543607Y-73018607D01*
X124525883Y-73034671D01*
X124506670Y-73048921D01*
X124486153Y-73061218D01*
X124464529Y-73071446D01*
X124442007Y-73079504D01*
X124418803Y-73085316D01*
X124395142Y-73088826D01*
X124371250Y-73090000D01*
X123883750Y-73090000D01*
X123859858Y-73088826D01*
X123836197Y-73085316D01*
X123812993Y-73079504D01*
X123790471Y-73071446D01*
X123768847Y-73061218D01*
X123748330Y-73048921D01*
X123729117Y-73034671D01*
X123711393Y-73018607D01*
X123695329Y-73000883D01*
X123681079Y-72981670D01*
X123668782Y-72961153D01*
X123658554Y-72939529D01*
X123650496Y-72917007D01*
X123644684Y-72893803D01*
X123641174Y-72870142D01*
X123640000Y-72846250D01*
X123640000Y-71933750D01*
X123641174Y-71909858D01*
X123644684Y-71886197D01*
X123650496Y-71862993D01*
X123658554Y-71840471D01*
X123668782Y-71818847D01*
X123681079Y-71798330D01*
X123695329Y-71779117D01*
X123711393Y-71761393D01*
X123729117Y-71745329D01*
X123748330Y-71731079D01*
X123768847Y-71718782D01*
X123790471Y-71708554D01*
X123812993Y-71700496D01*
X123836197Y-71694684D01*
X123859858Y-71691174D01*
X123883750Y-71690000D01*
X124371250Y-71690000D01*
X124395142Y-71691174D01*
X124395142Y-71691174D01*
G37*
D11*
X124127500Y-72390000D03*
G04 #@! TD*
D10*
G04 #@! TO.C,C2*
G36*
X122520142Y-56451174D02*
X122543803Y-56454684D01*
X122567007Y-56460496D01*
X122589529Y-56468554D01*
X122611153Y-56478782D01*
X122631670Y-56491079D01*
X122650883Y-56505329D01*
X122668607Y-56521393D01*
X122684671Y-56539117D01*
X122698921Y-56558330D01*
X122711218Y-56578847D01*
X122721446Y-56600471D01*
X122729504Y-56622993D01*
X122735316Y-56646197D01*
X122738826Y-56669858D01*
X122740000Y-56693750D01*
X122740000Y-57606250D01*
X122738826Y-57630142D01*
X122735316Y-57653803D01*
X122729504Y-57677007D01*
X122721446Y-57699529D01*
X122711218Y-57721153D01*
X122698921Y-57741670D01*
X122684671Y-57760883D01*
X122668607Y-57778607D01*
X122650883Y-57794671D01*
X122631670Y-57808921D01*
X122611153Y-57821218D01*
X122589529Y-57831446D01*
X122567007Y-57839504D01*
X122543803Y-57845316D01*
X122520142Y-57848826D01*
X122496250Y-57850000D01*
X122008750Y-57850000D01*
X121984858Y-57848826D01*
X121961197Y-57845316D01*
X121937993Y-57839504D01*
X121915471Y-57831446D01*
X121893847Y-57821218D01*
X121873330Y-57808921D01*
X121854117Y-57794671D01*
X121836393Y-57778607D01*
X121820329Y-57760883D01*
X121806079Y-57741670D01*
X121793782Y-57721153D01*
X121783554Y-57699529D01*
X121775496Y-57677007D01*
X121769684Y-57653803D01*
X121766174Y-57630142D01*
X121765000Y-57606250D01*
X121765000Y-56693750D01*
X121766174Y-56669858D01*
X121769684Y-56646197D01*
X121775496Y-56622993D01*
X121783554Y-56600471D01*
X121793782Y-56578847D01*
X121806079Y-56558330D01*
X121820329Y-56539117D01*
X121836393Y-56521393D01*
X121854117Y-56505329D01*
X121873330Y-56491079D01*
X121893847Y-56478782D01*
X121915471Y-56468554D01*
X121937993Y-56460496D01*
X121961197Y-56454684D01*
X121984858Y-56451174D01*
X122008750Y-56450000D01*
X122496250Y-56450000D01*
X122520142Y-56451174D01*
X122520142Y-56451174D01*
G37*
D11*
X122252500Y-57150000D03*
D10*
G36*
X124395142Y-56451174D02*
X124418803Y-56454684D01*
X124442007Y-56460496D01*
X124464529Y-56468554D01*
X124486153Y-56478782D01*
X124506670Y-56491079D01*
X124525883Y-56505329D01*
X124543607Y-56521393D01*
X124559671Y-56539117D01*
X124573921Y-56558330D01*
X124586218Y-56578847D01*
X124596446Y-56600471D01*
X124604504Y-56622993D01*
X124610316Y-56646197D01*
X124613826Y-56669858D01*
X124615000Y-56693750D01*
X124615000Y-57606250D01*
X124613826Y-57630142D01*
X124610316Y-57653803D01*
X124604504Y-57677007D01*
X124596446Y-57699529D01*
X124586218Y-57721153D01*
X124573921Y-57741670D01*
X124559671Y-57760883D01*
X124543607Y-57778607D01*
X124525883Y-57794671D01*
X124506670Y-57808921D01*
X124486153Y-57821218D01*
X124464529Y-57831446D01*
X124442007Y-57839504D01*
X124418803Y-57845316D01*
X124395142Y-57848826D01*
X124371250Y-57850000D01*
X123883750Y-57850000D01*
X123859858Y-57848826D01*
X123836197Y-57845316D01*
X123812993Y-57839504D01*
X123790471Y-57831446D01*
X123768847Y-57821218D01*
X123748330Y-57808921D01*
X123729117Y-57794671D01*
X123711393Y-57778607D01*
X123695329Y-57760883D01*
X123681079Y-57741670D01*
X123668782Y-57721153D01*
X123658554Y-57699529D01*
X123650496Y-57677007D01*
X123644684Y-57653803D01*
X123641174Y-57630142D01*
X123640000Y-57606250D01*
X123640000Y-56693750D01*
X123641174Y-56669858D01*
X123644684Y-56646197D01*
X123650496Y-56622993D01*
X123658554Y-56600471D01*
X123668782Y-56578847D01*
X123681079Y-56558330D01*
X123695329Y-56539117D01*
X123711393Y-56521393D01*
X123729117Y-56505329D01*
X123748330Y-56491079D01*
X123768847Y-56478782D01*
X123790471Y-56468554D01*
X123812993Y-56460496D01*
X123836197Y-56454684D01*
X123859858Y-56451174D01*
X123883750Y-56450000D01*
X124371250Y-56450000D01*
X124395142Y-56451174D01*
X124395142Y-56451174D01*
G37*
D11*
X124127500Y-57150000D03*
G04 #@! TD*
D10*
G04 #@! TO.C,C3*
G36*
X124395142Y-41211174D02*
X124418803Y-41214684D01*
X124442007Y-41220496D01*
X124464529Y-41228554D01*
X124486153Y-41238782D01*
X124506670Y-41251079D01*
X124525883Y-41265329D01*
X124543607Y-41281393D01*
X124559671Y-41299117D01*
X124573921Y-41318330D01*
X124586218Y-41338847D01*
X124596446Y-41360471D01*
X124604504Y-41382993D01*
X124610316Y-41406197D01*
X124613826Y-41429858D01*
X124615000Y-41453750D01*
X124615000Y-42366250D01*
X124613826Y-42390142D01*
X124610316Y-42413803D01*
X124604504Y-42437007D01*
X124596446Y-42459529D01*
X124586218Y-42481153D01*
X124573921Y-42501670D01*
X124559671Y-42520883D01*
X124543607Y-42538607D01*
X124525883Y-42554671D01*
X124506670Y-42568921D01*
X124486153Y-42581218D01*
X124464529Y-42591446D01*
X124442007Y-42599504D01*
X124418803Y-42605316D01*
X124395142Y-42608826D01*
X124371250Y-42610000D01*
X123883750Y-42610000D01*
X123859858Y-42608826D01*
X123836197Y-42605316D01*
X123812993Y-42599504D01*
X123790471Y-42591446D01*
X123768847Y-42581218D01*
X123748330Y-42568921D01*
X123729117Y-42554671D01*
X123711393Y-42538607D01*
X123695329Y-42520883D01*
X123681079Y-42501670D01*
X123668782Y-42481153D01*
X123658554Y-42459529D01*
X123650496Y-42437007D01*
X123644684Y-42413803D01*
X123641174Y-42390142D01*
X123640000Y-42366250D01*
X123640000Y-41453750D01*
X123641174Y-41429858D01*
X123644684Y-41406197D01*
X123650496Y-41382993D01*
X123658554Y-41360471D01*
X123668782Y-41338847D01*
X123681079Y-41318330D01*
X123695329Y-41299117D01*
X123711393Y-41281393D01*
X123729117Y-41265329D01*
X123748330Y-41251079D01*
X123768847Y-41238782D01*
X123790471Y-41228554D01*
X123812993Y-41220496D01*
X123836197Y-41214684D01*
X123859858Y-41211174D01*
X123883750Y-41210000D01*
X124371250Y-41210000D01*
X124395142Y-41211174D01*
X124395142Y-41211174D01*
G37*
D11*
X124127500Y-41910000D03*
D10*
G36*
X122520142Y-41211174D02*
X122543803Y-41214684D01*
X122567007Y-41220496D01*
X122589529Y-41228554D01*
X122611153Y-41238782D01*
X122631670Y-41251079D01*
X122650883Y-41265329D01*
X122668607Y-41281393D01*
X122684671Y-41299117D01*
X122698921Y-41318330D01*
X122711218Y-41338847D01*
X122721446Y-41360471D01*
X122729504Y-41382993D01*
X122735316Y-41406197D01*
X122738826Y-41429858D01*
X122740000Y-41453750D01*
X122740000Y-42366250D01*
X122738826Y-42390142D01*
X122735316Y-42413803D01*
X122729504Y-42437007D01*
X122721446Y-42459529D01*
X122711218Y-42481153D01*
X122698921Y-42501670D01*
X122684671Y-42520883D01*
X122668607Y-42538607D01*
X122650883Y-42554671D01*
X122631670Y-42568921D01*
X122611153Y-42581218D01*
X122589529Y-42591446D01*
X122567007Y-42599504D01*
X122543803Y-42605316D01*
X122520142Y-42608826D01*
X122496250Y-42610000D01*
X122008750Y-42610000D01*
X121984858Y-42608826D01*
X121961197Y-42605316D01*
X121937993Y-42599504D01*
X121915471Y-42591446D01*
X121893847Y-42581218D01*
X121873330Y-42568921D01*
X121854117Y-42554671D01*
X121836393Y-42538607D01*
X121820329Y-42520883D01*
X121806079Y-42501670D01*
X121793782Y-42481153D01*
X121783554Y-42459529D01*
X121775496Y-42437007D01*
X121769684Y-42413803D01*
X121766174Y-42390142D01*
X121765000Y-42366250D01*
X121765000Y-41453750D01*
X121766174Y-41429858D01*
X121769684Y-41406197D01*
X121775496Y-41382993D01*
X121783554Y-41360471D01*
X121793782Y-41338847D01*
X121806079Y-41318330D01*
X121820329Y-41299117D01*
X121836393Y-41281393D01*
X121854117Y-41265329D01*
X121873330Y-41251079D01*
X121893847Y-41238782D01*
X121915471Y-41228554D01*
X121937993Y-41220496D01*
X121961197Y-41214684D01*
X121984858Y-41211174D01*
X122008750Y-41210000D01*
X122496250Y-41210000D01*
X122520142Y-41211174D01*
X122520142Y-41211174D01*
G37*
D11*
X122252500Y-41910000D03*
G04 #@! TD*
D10*
G04 #@! TO.C,R1*
G36*
X122520142Y-81216174D02*
X122543803Y-81219684D01*
X122567007Y-81225496D01*
X122589529Y-81233554D01*
X122611153Y-81243782D01*
X122631670Y-81256079D01*
X122650883Y-81270329D01*
X122668607Y-81286393D01*
X122684671Y-81304117D01*
X122698921Y-81323330D01*
X122711218Y-81343847D01*
X122721446Y-81365471D01*
X122729504Y-81387993D01*
X122735316Y-81411197D01*
X122738826Y-81434858D01*
X122740000Y-81458750D01*
X122740000Y-82371250D01*
X122738826Y-82395142D01*
X122735316Y-82418803D01*
X122729504Y-82442007D01*
X122721446Y-82464529D01*
X122711218Y-82486153D01*
X122698921Y-82506670D01*
X122684671Y-82525883D01*
X122668607Y-82543607D01*
X122650883Y-82559671D01*
X122631670Y-82573921D01*
X122611153Y-82586218D01*
X122589529Y-82596446D01*
X122567007Y-82604504D01*
X122543803Y-82610316D01*
X122520142Y-82613826D01*
X122496250Y-82615000D01*
X122008750Y-82615000D01*
X121984858Y-82613826D01*
X121961197Y-82610316D01*
X121937993Y-82604504D01*
X121915471Y-82596446D01*
X121893847Y-82586218D01*
X121873330Y-82573921D01*
X121854117Y-82559671D01*
X121836393Y-82543607D01*
X121820329Y-82525883D01*
X121806079Y-82506670D01*
X121793782Y-82486153D01*
X121783554Y-82464529D01*
X121775496Y-82442007D01*
X121769684Y-82418803D01*
X121766174Y-82395142D01*
X121765000Y-82371250D01*
X121765000Y-81458750D01*
X121766174Y-81434858D01*
X121769684Y-81411197D01*
X121775496Y-81387993D01*
X121783554Y-81365471D01*
X121793782Y-81343847D01*
X121806079Y-81323330D01*
X121820329Y-81304117D01*
X121836393Y-81286393D01*
X121854117Y-81270329D01*
X121873330Y-81256079D01*
X121893847Y-81243782D01*
X121915471Y-81233554D01*
X121937993Y-81225496D01*
X121961197Y-81219684D01*
X121984858Y-81216174D01*
X122008750Y-81215000D01*
X122496250Y-81215000D01*
X122520142Y-81216174D01*
X122520142Y-81216174D01*
G37*
D11*
X122252500Y-81915000D03*
D10*
G36*
X124395142Y-81216174D02*
X124418803Y-81219684D01*
X124442007Y-81225496D01*
X124464529Y-81233554D01*
X124486153Y-81243782D01*
X124506670Y-81256079D01*
X124525883Y-81270329D01*
X124543607Y-81286393D01*
X124559671Y-81304117D01*
X124573921Y-81323330D01*
X124586218Y-81343847D01*
X124596446Y-81365471D01*
X124604504Y-81387993D01*
X124610316Y-81411197D01*
X124613826Y-81434858D01*
X124615000Y-81458750D01*
X124615000Y-82371250D01*
X124613826Y-82395142D01*
X124610316Y-82418803D01*
X124604504Y-82442007D01*
X124596446Y-82464529D01*
X124586218Y-82486153D01*
X124573921Y-82506670D01*
X124559671Y-82525883D01*
X124543607Y-82543607D01*
X124525883Y-82559671D01*
X124506670Y-82573921D01*
X124486153Y-82586218D01*
X124464529Y-82596446D01*
X124442007Y-82604504D01*
X124418803Y-82610316D01*
X124395142Y-82613826D01*
X124371250Y-82615000D01*
X123883750Y-82615000D01*
X123859858Y-82613826D01*
X123836197Y-82610316D01*
X123812993Y-82604504D01*
X123790471Y-82596446D01*
X123768847Y-82586218D01*
X123748330Y-82573921D01*
X123729117Y-82559671D01*
X123711393Y-82543607D01*
X123695329Y-82525883D01*
X123681079Y-82506670D01*
X123668782Y-82486153D01*
X123658554Y-82464529D01*
X123650496Y-82442007D01*
X123644684Y-82418803D01*
X123641174Y-82395142D01*
X123640000Y-82371250D01*
X123640000Y-81458750D01*
X123641174Y-81434858D01*
X123644684Y-81411197D01*
X123650496Y-81387993D01*
X123658554Y-81365471D01*
X123668782Y-81343847D01*
X123681079Y-81323330D01*
X123695329Y-81304117D01*
X123711393Y-81286393D01*
X123729117Y-81270329D01*
X123748330Y-81256079D01*
X123768847Y-81243782D01*
X123790471Y-81233554D01*
X123812993Y-81225496D01*
X123836197Y-81219684D01*
X123859858Y-81216174D01*
X123883750Y-81215000D01*
X124371250Y-81215000D01*
X124395142Y-81216174D01*
X124395142Y-81216174D01*
G37*
D11*
X124127500Y-81915000D03*
G04 #@! TD*
D10*
G04 #@! TO.C,R2*
G36*
X109155142Y-80581174D02*
X109178803Y-80584684D01*
X109202007Y-80590496D01*
X109224529Y-80598554D01*
X109246153Y-80608782D01*
X109266670Y-80621079D01*
X109285883Y-80635329D01*
X109303607Y-80651393D01*
X109319671Y-80669117D01*
X109333921Y-80688330D01*
X109346218Y-80708847D01*
X109356446Y-80730471D01*
X109364504Y-80752993D01*
X109370316Y-80776197D01*
X109373826Y-80799858D01*
X109375000Y-80823750D01*
X109375000Y-81736250D01*
X109373826Y-81760142D01*
X109370316Y-81783803D01*
X109364504Y-81807007D01*
X109356446Y-81829529D01*
X109346218Y-81851153D01*
X109333921Y-81871670D01*
X109319671Y-81890883D01*
X109303607Y-81908607D01*
X109285883Y-81924671D01*
X109266670Y-81938921D01*
X109246153Y-81951218D01*
X109224529Y-81961446D01*
X109202007Y-81969504D01*
X109178803Y-81975316D01*
X109155142Y-81978826D01*
X109131250Y-81980000D01*
X108643750Y-81980000D01*
X108619858Y-81978826D01*
X108596197Y-81975316D01*
X108572993Y-81969504D01*
X108550471Y-81961446D01*
X108528847Y-81951218D01*
X108508330Y-81938921D01*
X108489117Y-81924671D01*
X108471393Y-81908607D01*
X108455329Y-81890883D01*
X108441079Y-81871670D01*
X108428782Y-81851153D01*
X108418554Y-81829529D01*
X108410496Y-81807007D01*
X108404684Y-81783803D01*
X108401174Y-81760142D01*
X108400000Y-81736250D01*
X108400000Y-80823750D01*
X108401174Y-80799858D01*
X108404684Y-80776197D01*
X108410496Y-80752993D01*
X108418554Y-80730471D01*
X108428782Y-80708847D01*
X108441079Y-80688330D01*
X108455329Y-80669117D01*
X108471393Y-80651393D01*
X108489117Y-80635329D01*
X108508330Y-80621079D01*
X108528847Y-80608782D01*
X108550471Y-80598554D01*
X108572993Y-80590496D01*
X108596197Y-80584684D01*
X108619858Y-80581174D01*
X108643750Y-80580000D01*
X109131250Y-80580000D01*
X109155142Y-80581174D01*
X109155142Y-80581174D01*
G37*
D11*
X108887500Y-81280000D03*
D10*
G36*
X107280142Y-80581174D02*
X107303803Y-80584684D01*
X107327007Y-80590496D01*
X107349529Y-80598554D01*
X107371153Y-80608782D01*
X107391670Y-80621079D01*
X107410883Y-80635329D01*
X107428607Y-80651393D01*
X107444671Y-80669117D01*
X107458921Y-80688330D01*
X107471218Y-80708847D01*
X107481446Y-80730471D01*
X107489504Y-80752993D01*
X107495316Y-80776197D01*
X107498826Y-80799858D01*
X107500000Y-80823750D01*
X107500000Y-81736250D01*
X107498826Y-81760142D01*
X107495316Y-81783803D01*
X107489504Y-81807007D01*
X107481446Y-81829529D01*
X107471218Y-81851153D01*
X107458921Y-81871670D01*
X107444671Y-81890883D01*
X107428607Y-81908607D01*
X107410883Y-81924671D01*
X107391670Y-81938921D01*
X107371153Y-81951218D01*
X107349529Y-81961446D01*
X107327007Y-81969504D01*
X107303803Y-81975316D01*
X107280142Y-81978826D01*
X107256250Y-81980000D01*
X106768750Y-81980000D01*
X106744858Y-81978826D01*
X106721197Y-81975316D01*
X106697993Y-81969504D01*
X106675471Y-81961446D01*
X106653847Y-81951218D01*
X106633330Y-81938921D01*
X106614117Y-81924671D01*
X106596393Y-81908607D01*
X106580329Y-81890883D01*
X106566079Y-81871670D01*
X106553782Y-81851153D01*
X106543554Y-81829529D01*
X106535496Y-81807007D01*
X106529684Y-81783803D01*
X106526174Y-81760142D01*
X106525000Y-81736250D01*
X106525000Y-80823750D01*
X106526174Y-80799858D01*
X106529684Y-80776197D01*
X106535496Y-80752993D01*
X106543554Y-80730471D01*
X106553782Y-80708847D01*
X106566079Y-80688330D01*
X106580329Y-80669117D01*
X106596393Y-80651393D01*
X106614117Y-80635329D01*
X106633330Y-80621079D01*
X106653847Y-80608782D01*
X106675471Y-80598554D01*
X106697993Y-80590496D01*
X106721197Y-80584684D01*
X106744858Y-80581174D01*
X106768750Y-80580000D01*
X107256250Y-80580000D01*
X107280142Y-80581174D01*
X107280142Y-80581174D01*
G37*
D11*
X107012500Y-81280000D03*
G04 #@! TD*
D10*
G04 #@! TO.C,R3*
G36*
X107280142Y-78676174D02*
X107303803Y-78679684D01*
X107327007Y-78685496D01*
X107349529Y-78693554D01*
X107371153Y-78703782D01*
X107391670Y-78716079D01*
X107410883Y-78730329D01*
X107428607Y-78746393D01*
X107444671Y-78764117D01*
X107458921Y-78783330D01*
X107471218Y-78803847D01*
X107481446Y-78825471D01*
X107489504Y-78847993D01*
X107495316Y-78871197D01*
X107498826Y-78894858D01*
X107500000Y-78918750D01*
X107500000Y-79831250D01*
X107498826Y-79855142D01*
X107495316Y-79878803D01*
X107489504Y-79902007D01*
X107481446Y-79924529D01*
X107471218Y-79946153D01*
X107458921Y-79966670D01*
X107444671Y-79985883D01*
X107428607Y-80003607D01*
X107410883Y-80019671D01*
X107391670Y-80033921D01*
X107371153Y-80046218D01*
X107349529Y-80056446D01*
X107327007Y-80064504D01*
X107303803Y-80070316D01*
X107280142Y-80073826D01*
X107256250Y-80075000D01*
X106768750Y-80075000D01*
X106744858Y-80073826D01*
X106721197Y-80070316D01*
X106697993Y-80064504D01*
X106675471Y-80056446D01*
X106653847Y-80046218D01*
X106633330Y-80033921D01*
X106614117Y-80019671D01*
X106596393Y-80003607D01*
X106580329Y-79985883D01*
X106566079Y-79966670D01*
X106553782Y-79946153D01*
X106543554Y-79924529D01*
X106535496Y-79902007D01*
X106529684Y-79878803D01*
X106526174Y-79855142D01*
X106525000Y-79831250D01*
X106525000Y-78918750D01*
X106526174Y-78894858D01*
X106529684Y-78871197D01*
X106535496Y-78847993D01*
X106543554Y-78825471D01*
X106553782Y-78803847D01*
X106566079Y-78783330D01*
X106580329Y-78764117D01*
X106596393Y-78746393D01*
X106614117Y-78730329D01*
X106633330Y-78716079D01*
X106653847Y-78703782D01*
X106675471Y-78693554D01*
X106697993Y-78685496D01*
X106721197Y-78679684D01*
X106744858Y-78676174D01*
X106768750Y-78675000D01*
X107256250Y-78675000D01*
X107280142Y-78676174D01*
X107280142Y-78676174D01*
G37*
D11*
X107012500Y-79375000D03*
D10*
G36*
X109155142Y-78676174D02*
X109178803Y-78679684D01*
X109202007Y-78685496D01*
X109224529Y-78693554D01*
X109246153Y-78703782D01*
X109266670Y-78716079D01*
X109285883Y-78730329D01*
X109303607Y-78746393D01*
X109319671Y-78764117D01*
X109333921Y-78783330D01*
X109346218Y-78803847D01*
X109356446Y-78825471D01*
X109364504Y-78847993D01*
X109370316Y-78871197D01*
X109373826Y-78894858D01*
X109375000Y-78918750D01*
X109375000Y-79831250D01*
X109373826Y-79855142D01*
X109370316Y-79878803D01*
X109364504Y-79902007D01*
X109356446Y-79924529D01*
X109346218Y-79946153D01*
X109333921Y-79966670D01*
X109319671Y-79985883D01*
X109303607Y-80003607D01*
X109285883Y-80019671D01*
X109266670Y-80033921D01*
X109246153Y-80046218D01*
X109224529Y-80056446D01*
X109202007Y-80064504D01*
X109178803Y-80070316D01*
X109155142Y-80073826D01*
X109131250Y-80075000D01*
X108643750Y-80075000D01*
X108619858Y-80073826D01*
X108596197Y-80070316D01*
X108572993Y-80064504D01*
X108550471Y-80056446D01*
X108528847Y-80046218D01*
X108508330Y-80033921D01*
X108489117Y-80019671D01*
X108471393Y-80003607D01*
X108455329Y-79985883D01*
X108441079Y-79966670D01*
X108428782Y-79946153D01*
X108418554Y-79924529D01*
X108410496Y-79902007D01*
X108404684Y-79878803D01*
X108401174Y-79855142D01*
X108400000Y-79831250D01*
X108400000Y-78918750D01*
X108401174Y-78894858D01*
X108404684Y-78871197D01*
X108410496Y-78847993D01*
X108418554Y-78825471D01*
X108428782Y-78803847D01*
X108441079Y-78783330D01*
X108455329Y-78764117D01*
X108471393Y-78746393D01*
X108489117Y-78730329D01*
X108508330Y-78716079D01*
X108528847Y-78703782D01*
X108550471Y-78693554D01*
X108572993Y-78685496D01*
X108596197Y-78679684D01*
X108619858Y-78676174D01*
X108643750Y-78675000D01*
X109131250Y-78675000D01*
X109155142Y-78676174D01*
X109155142Y-78676174D01*
G37*
D11*
X108887500Y-79375000D03*
G04 #@! TD*
D10*
G04 #@! TO.C,R4*
G36*
X109155142Y-76771174D02*
X109178803Y-76774684D01*
X109202007Y-76780496D01*
X109224529Y-76788554D01*
X109246153Y-76798782D01*
X109266670Y-76811079D01*
X109285883Y-76825329D01*
X109303607Y-76841393D01*
X109319671Y-76859117D01*
X109333921Y-76878330D01*
X109346218Y-76898847D01*
X109356446Y-76920471D01*
X109364504Y-76942993D01*
X109370316Y-76966197D01*
X109373826Y-76989858D01*
X109375000Y-77013750D01*
X109375000Y-77926250D01*
X109373826Y-77950142D01*
X109370316Y-77973803D01*
X109364504Y-77997007D01*
X109356446Y-78019529D01*
X109346218Y-78041153D01*
X109333921Y-78061670D01*
X109319671Y-78080883D01*
X109303607Y-78098607D01*
X109285883Y-78114671D01*
X109266670Y-78128921D01*
X109246153Y-78141218D01*
X109224529Y-78151446D01*
X109202007Y-78159504D01*
X109178803Y-78165316D01*
X109155142Y-78168826D01*
X109131250Y-78170000D01*
X108643750Y-78170000D01*
X108619858Y-78168826D01*
X108596197Y-78165316D01*
X108572993Y-78159504D01*
X108550471Y-78151446D01*
X108528847Y-78141218D01*
X108508330Y-78128921D01*
X108489117Y-78114671D01*
X108471393Y-78098607D01*
X108455329Y-78080883D01*
X108441079Y-78061670D01*
X108428782Y-78041153D01*
X108418554Y-78019529D01*
X108410496Y-77997007D01*
X108404684Y-77973803D01*
X108401174Y-77950142D01*
X108400000Y-77926250D01*
X108400000Y-77013750D01*
X108401174Y-76989858D01*
X108404684Y-76966197D01*
X108410496Y-76942993D01*
X108418554Y-76920471D01*
X108428782Y-76898847D01*
X108441079Y-76878330D01*
X108455329Y-76859117D01*
X108471393Y-76841393D01*
X108489117Y-76825329D01*
X108508330Y-76811079D01*
X108528847Y-76798782D01*
X108550471Y-76788554D01*
X108572993Y-76780496D01*
X108596197Y-76774684D01*
X108619858Y-76771174D01*
X108643750Y-76770000D01*
X109131250Y-76770000D01*
X109155142Y-76771174D01*
X109155142Y-76771174D01*
G37*
D11*
X108887500Y-77470000D03*
D10*
G36*
X107280142Y-76771174D02*
X107303803Y-76774684D01*
X107327007Y-76780496D01*
X107349529Y-76788554D01*
X107371153Y-76798782D01*
X107391670Y-76811079D01*
X107410883Y-76825329D01*
X107428607Y-76841393D01*
X107444671Y-76859117D01*
X107458921Y-76878330D01*
X107471218Y-76898847D01*
X107481446Y-76920471D01*
X107489504Y-76942993D01*
X107495316Y-76966197D01*
X107498826Y-76989858D01*
X107500000Y-77013750D01*
X107500000Y-77926250D01*
X107498826Y-77950142D01*
X107495316Y-77973803D01*
X107489504Y-77997007D01*
X107481446Y-78019529D01*
X107471218Y-78041153D01*
X107458921Y-78061670D01*
X107444671Y-78080883D01*
X107428607Y-78098607D01*
X107410883Y-78114671D01*
X107391670Y-78128921D01*
X107371153Y-78141218D01*
X107349529Y-78151446D01*
X107327007Y-78159504D01*
X107303803Y-78165316D01*
X107280142Y-78168826D01*
X107256250Y-78170000D01*
X106768750Y-78170000D01*
X106744858Y-78168826D01*
X106721197Y-78165316D01*
X106697993Y-78159504D01*
X106675471Y-78151446D01*
X106653847Y-78141218D01*
X106633330Y-78128921D01*
X106614117Y-78114671D01*
X106596393Y-78098607D01*
X106580329Y-78080883D01*
X106566079Y-78061670D01*
X106553782Y-78041153D01*
X106543554Y-78019529D01*
X106535496Y-77997007D01*
X106529684Y-77973803D01*
X106526174Y-77950142D01*
X106525000Y-77926250D01*
X106525000Y-77013750D01*
X106526174Y-76989858D01*
X106529684Y-76966197D01*
X106535496Y-76942993D01*
X106543554Y-76920471D01*
X106553782Y-76898847D01*
X106566079Y-76878330D01*
X106580329Y-76859117D01*
X106596393Y-76841393D01*
X106614117Y-76825329D01*
X106633330Y-76811079D01*
X106653847Y-76798782D01*
X106675471Y-76788554D01*
X106697993Y-76780496D01*
X106721197Y-76774684D01*
X106744858Y-76771174D01*
X106768750Y-76770000D01*
X107256250Y-76770000D01*
X107280142Y-76771174D01*
X107280142Y-76771174D01*
G37*
D11*
X107012500Y-77470000D03*
G04 #@! TD*
D10*
G04 #@! TO.C,R5*
G36*
X107280142Y-74866174D02*
X107303803Y-74869684D01*
X107327007Y-74875496D01*
X107349529Y-74883554D01*
X107371153Y-74893782D01*
X107391670Y-74906079D01*
X107410883Y-74920329D01*
X107428607Y-74936393D01*
X107444671Y-74954117D01*
X107458921Y-74973330D01*
X107471218Y-74993847D01*
X107481446Y-75015471D01*
X107489504Y-75037993D01*
X107495316Y-75061197D01*
X107498826Y-75084858D01*
X107500000Y-75108750D01*
X107500000Y-76021250D01*
X107498826Y-76045142D01*
X107495316Y-76068803D01*
X107489504Y-76092007D01*
X107481446Y-76114529D01*
X107471218Y-76136153D01*
X107458921Y-76156670D01*
X107444671Y-76175883D01*
X107428607Y-76193607D01*
X107410883Y-76209671D01*
X107391670Y-76223921D01*
X107371153Y-76236218D01*
X107349529Y-76246446D01*
X107327007Y-76254504D01*
X107303803Y-76260316D01*
X107280142Y-76263826D01*
X107256250Y-76265000D01*
X106768750Y-76265000D01*
X106744858Y-76263826D01*
X106721197Y-76260316D01*
X106697993Y-76254504D01*
X106675471Y-76246446D01*
X106653847Y-76236218D01*
X106633330Y-76223921D01*
X106614117Y-76209671D01*
X106596393Y-76193607D01*
X106580329Y-76175883D01*
X106566079Y-76156670D01*
X106553782Y-76136153D01*
X106543554Y-76114529D01*
X106535496Y-76092007D01*
X106529684Y-76068803D01*
X106526174Y-76045142D01*
X106525000Y-76021250D01*
X106525000Y-75108750D01*
X106526174Y-75084858D01*
X106529684Y-75061197D01*
X106535496Y-75037993D01*
X106543554Y-75015471D01*
X106553782Y-74993847D01*
X106566079Y-74973330D01*
X106580329Y-74954117D01*
X106596393Y-74936393D01*
X106614117Y-74920329D01*
X106633330Y-74906079D01*
X106653847Y-74893782D01*
X106675471Y-74883554D01*
X106697993Y-74875496D01*
X106721197Y-74869684D01*
X106744858Y-74866174D01*
X106768750Y-74865000D01*
X107256250Y-74865000D01*
X107280142Y-74866174D01*
X107280142Y-74866174D01*
G37*
D11*
X107012500Y-75565000D03*
D10*
G36*
X109155142Y-74866174D02*
X109178803Y-74869684D01*
X109202007Y-74875496D01*
X109224529Y-74883554D01*
X109246153Y-74893782D01*
X109266670Y-74906079D01*
X109285883Y-74920329D01*
X109303607Y-74936393D01*
X109319671Y-74954117D01*
X109333921Y-74973330D01*
X109346218Y-74993847D01*
X109356446Y-75015471D01*
X109364504Y-75037993D01*
X109370316Y-75061197D01*
X109373826Y-75084858D01*
X109375000Y-75108750D01*
X109375000Y-76021250D01*
X109373826Y-76045142D01*
X109370316Y-76068803D01*
X109364504Y-76092007D01*
X109356446Y-76114529D01*
X109346218Y-76136153D01*
X109333921Y-76156670D01*
X109319671Y-76175883D01*
X109303607Y-76193607D01*
X109285883Y-76209671D01*
X109266670Y-76223921D01*
X109246153Y-76236218D01*
X109224529Y-76246446D01*
X109202007Y-76254504D01*
X109178803Y-76260316D01*
X109155142Y-76263826D01*
X109131250Y-76265000D01*
X108643750Y-76265000D01*
X108619858Y-76263826D01*
X108596197Y-76260316D01*
X108572993Y-76254504D01*
X108550471Y-76246446D01*
X108528847Y-76236218D01*
X108508330Y-76223921D01*
X108489117Y-76209671D01*
X108471393Y-76193607D01*
X108455329Y-76175883D01*
X108441079Y-76156670D01*
X108428782Y-76136153D01*
X108418554Y-76114529D01*
X108410496Y-76092007D01*
X108404684Y-76068803D01*
X108401174Y-76045142D01*
X108400000Y-76021250D01*
X108400000Y-75108750D01*
X108401174Y-75084858D01*
X108404684Y-75061197D01*
X108410496Y-75037993D01*
X108418554Y-75015471D01*
X108428782Y-74993847D01*
X108441079Y-74973330D01*
X108455329Y-74954117D01*
X108471393Y-74936393D01*
X108489117Y-74920329D01*
X108508330Y-74906079D01*
X108528847Y-74893782D01*
X108550471Y-74883554D01*
X108572993Y-74875496D01*
X108596197Y-74869684D01*
X108619858Y-74866174D01*
X108643750Y-74865000D01*
X109131250Y-74865000D01*
X109155142Y-74866174D01*
X109155142Y-74866174D01*
G37*
D11*
X108887500Y-75565000D03*
G04 #@! TD*
D10*
G04 #@! TO.C,R6*
G36*
X122520142Y-77406174D02*
X122543803Y-77409684D01*
X122567007Y-77415496D01*
X122589529Y-77423554D01*
X122611153Y-77433782D01*
X122631670Y-77446079D01*
X122650883Y-77460329D01*
X122668607Y-77476393D01*
X122684671Y-77494117D01*
X122698921Y-77513330D01*
X122711218Y-77533847D01*
X122721446Y-77555471D01*
X122729504Y-77577993D01*
X122735316Y-77601197D01*
X122738826Y-77624858D01*
X122740000Y-77648750D01*
X122740000Y-78561250D01*
X122738826Y-78585142D01*
X122735316Y-78608803D01*
X122729504Y-78632007D01*
X122721446Y-78654529D01*
X122711218Y-78676153D01*
X122698921Y-78696670D01*
X122684671Y-78715883D01*
X122668607Y-78733607D01*
X122650883Y-78749671D01*
X122631670Y-78763921D01*
X122611153Y-78776218D01*
X122589529Y-78786446D01*
X122567007Y-78794504D01*
X122543803Y-78800316D01*
X122520142Y-78803826D01*
X122496250Y-78805000D01*
X122008750Y-78805000D01*
X121984858Y-78803826D01*
X121961197Y-78800316D01*
X121937993Y-78794504D01*
X121915471Y-78786446D01*
X121893847Y-78776218D01*
X121873330Y-78763921D01*
X121854117Y-78749671D01*
X121836393Y-78733607D01*
X121820329Y-78715883D01*
X121806079Y-78696670D01*
X121793782Y-78676153D01*
X121783554Y-78654529D01*
X121775496Y-78632007D01*
X121769684Y-78608803D01*
X121766174Y-78585142D01*
X121765000Y-78561250D01*
X121765000Y-77648750D01*
X121766174Y-77624858D01*
X121769684Y-77601197D01*
X121775496Y-77577993D01*
X121783554Y-77555471D01*
X121793782Y-77533847D01*
X121806079Y-77513330D01*
X121820329Y-77494117D01*
X121836393Y-77476393D01*
X121854117Y-77460329D01*
X121873330Y-77446079D01*
X121893847Y-77433782D01*
X121915471Y-77423554D01*
X121937993Y-77415496D01*
X121961197Y-77409684D01*
X121984858Y-77406174D01*
X122008750Y-77405000D01*
X122496250Y-77405000D01*
X122520142Y-77406174D01*
X122520142Y-77406174D01*
G37*
D11*
X122252500Y-78105000D03*
D10*
G36*
X124395142Y-77406174D02*
X124418803Y-77409684D01*
X124442007Y-77415496D01*
X124464529Y-77423554D01*
X124486153Y-77433782D01*
X124506670Y-77446079D01*
X124525883Y-77460329D01*
X124543607Y-77476393D01*
X124559671Y-77494117D01*
X124573921Y-77513330D01*
X124586218Y-77533847D01*
X124596446Y-77555471D01*
X124604504Y-77577993D01*
X124610316Y-77601197D01*
X124613826Y-77624858D01*
X124615000Y-77648750D01*
X124615000Y-78561250D01*
X124613826Y-78585142D01*
X124610316Y-78608803D01*
X124604504Y-78632007D01*
X124596446Y-78654529D01*
X124586218Y-78676153D01*
X124573921Y-78696670D01*
X124559671Y-78715883D01*
X124543607Y-78733607D01*
X124525883Y-78749671D01*
X124506670Y-78763921D01*
X124486153Y-78776218D01*
X124464529Y-78786446D01*
X124442007Y-78794504D01*
X124418803Y-78800316D01*
X124395142Y-78803826D01*
X124371250Y-78805000D01*
X123883750Y-78805000D01*
X123859858Y-78803826D01*
X123836197Y-78800316D01*
X123812993Y-78794504D01*
X123790471Y-78786446D01*
X123768847Y-78776218D01*
X123748330Y-78763921D01*
X123729117Y-78749671D01*
X123711393Y-78733607D01*
X123695329Y-78715883D01*
X123681079Y-78696670D01*
X123668782Y-78676153D01*
X123658554Y-78654529D01*
X123650496Y-78632007D01*
X123644684Y-78608803D01*
X123641174Y-78585142D01*
X123640000Y-78561250D01*
X123640000Y-77648750D01*
X123641174Y-77624858D01*
X123644684Y-77601197D01*
X123650496Y-77577993D01*
X123658554Y-77555471D01*
X123668782Y-77533847D01*
X123681079Y-77513330D01*
X123695329Y-77494117D01*
X123711393Y-77476393D01*
X123729117Y-77460329D01*
X123748330Y-77446079D01*
X123768847Y-77433782D01*
X123790471Y-77423554D01*
X123812993Y-77415496D01*
X123836197Y-77409684D01*
X123859858Y-77406174D01*
X123883750Y-77405000D01*
X124371250Y-77405000D01*
X124395142Y-77406174D01*
X124395142Y-77406174D01*
G37*
D11*
X124127500Y-78105000D03*
G04 #@! TD*
D10*
G04 #@! TO.C,R7*
G36*
X124395142Y-75501174D02*
X124418803Y-75504684D01*
X124442007Y-75510496D01*
X124464529Y-75518554D01*
X124486153Y-75528782D01*
X124506670Y-75541079D01*
X124525883Y-75555329D01*
X124543607Y-75571393D01*
X124559671Y-75589117D01*
X124573921Y-75608330D01*
X124586218Y-75628847D01*
X124596446Y-75650471D01*
X124604504Y-75672993D01*
X124610316Y-75696197D01*
X124613826Y-75719858D01*
X124615000Y-75743750D01*
X124615000Y-76656250D01*
X124613826Y-76680142D01*
X124610316Y-76703803D01*
X124604504Y-76727007D01*
X124596446Y-76749529D01*
X124586218Y-76771153D01*
X124573921Y-76791670D01*
X124559671Y-76810883D01*
X124543607Y-76828607D01*
X124525883Y-76844671D01*
X124506670Y-76858921D01*
X124486153Y-76871218D01*
X124464529Y-76881446D01*
X124442007Y-76889504D01*
X124418803Y-76895316D01*
X124395142Y-76898826D01*
X124371250Y-76900000D01*
X123883750Y-76900000D01*
X123859858Y-76898826D01*
X123836197Y-76895316D01*
X123812993Y-76889504D01*
X123790471Y-76881446D01*
X123768847Y-76871218D01*
X123748330Y-76858921D01*
X123729117Y-76844671D01*
X123711393Y-76828607D01*
X123695329Y-76810883D01*
X123681079Y-76791670D01*
X123668782Y-76771153D01*
X123658554Y-76749529D01*
X123650496Y-76727007D01*
X123644684Y-76703803D01*
X123641174Y-76680142D01*
X123640000Y-76656250D01*
X123640000Y-75743750D01*
X123641174Y-75719858D01*
X123644684Y-75696197D01*
X123650496Y-75672993D01*
X123658554Y-75650471D01*
X123668782Y-75628847D01*
X123681079Y-75608330D01*
X123695329Y-75589117D01*
X123711393Y-75571393D01*
X123729117Y-75555329D01*
X123748330Y-75541079D01*
X123768847Y-75528782D01*
X123790471Y-75518554D01*
X123812993Y-75510496D01*
X123836197Y-75504684D01*
X123859858Y-75501174D01*
X123883750Y-75500000D01*
X124371250Y-75500000D01*
X124395142Y-75501174D01*
X124395142Y-75501174D01*
G37*
D11*
X124127500Y-76200000D03*
D10*
G36*
X122520142Y-75501174D02*
X122543803Y-75504684D01*
X122567007Y-75510496D01*
X122589529Y-75518554D01*
X122611153Y-75528782D01*
X122631670Y-75541079D01*
X122650883Y-75555329D01*
X122668607Y-75571393D01*
X122684671Y-75589117D01*
X122698921Y-75608330D01*
X122711218Y-75628847D01*
X122721446Y-75650471D01*
X122729504Y-75672993D01*
X122735316Y-75696197D01*
X122738826Y-75719858D01*
X122740000Y-75743750D01*
X122740000Y-76656250D01*
X122738826Y-76680142D01*
X122735316Y-76703803D01*
X122729504Y-76727007D01*
X122721446Y-76749529D01*
X122711218Y-76771153D01*
X122698921Y-76791670D01*
X122684671Y-76810883D01*
X122668607Y-76828607D01*
X122650883Y-76844671D01*
X122631670Y-76858921D01*
X122611153Y-76871218D01*
X122589529Y-76881446D01*
X122567007Y-76889504D01*
X122543803Y-76895316D01*
X122520142Y-76898826D01*
X122496250Y-76900000D01*
X122008750Y-76900000D01*
X121984858Y-76898826D01*
X121961197Y-76895316D01*
X121937993Y-76889504D01*
X121915471Y-76881446D01*
X121893847Y-76871218D01*
X121873330Y-76858921D01*
X121854117Y-76844671D01*
X121836393Y-76828607D01*
X121820329Y-76810883D01*
X121806079Y-76791670D01*
X121793782Y-76771153D01*
X121783554Y-76749529D01*
X121775496Y-76727007D01*
X121769684Y-76703803D01*
X121766174Y-76680142D01*
X121765000Y-76656250D01*
X121765000Y-75743750D01*
X121766174Y-75719858D01*
X121769684Y-75696197D01*
X121775496Y-75672993D01*
X121783554Y-75650471D01*
X121793782Y-75628847D01*
X121806079Y-75608330D01*
X121820329Y-75589117D01*
X121836393Y-75571393D01*
X121854117Y-75555329D01*
X121873330Y-75541079D01*
X121893847Y-75528782D01*
X121915471Y-75518554D01*
X121937993Y-75510496D01*
X121961197Y-75504684D01*
X121984858Y-75501174D01*
X122008750Y-75500000D01*
X122496250Y-75500000D01*
X122520142Y-75501174D01*
X122520142Y-75501174D01*
G37*
D11*
X122252500Y-76200000D03*
G04 #@! TD*
D10*
G04 #@! TO.C,R8*
G36*
X122520142Y-73596174D02*
X122543803Y-73599684D01*
X122567007Y-73605496D01*
X122589529Y-73613554D01*
X122611153Y-73623782D01*
X122631670Y-73636079D01*
X122650883Y-73650329D01*
X122668607Y-73666393D01*
X122684671Y-73684117D01*
X122698921Y-73703330D01*
X122711218Y-73723847D01*
X122721446Y-73745471D01*
X122729504Y-73767993D01*
X122735316Y-73791197D01*
X122738826Y-73814858D01*
X122740000Y-73838750D01*
X122740000Y-74751250D01*
X122738826Y-74775142D01*
X122735316Y-74798803D01*
X122729504Y-74822007D01*
X122721446Y-74844529D01*
X122711218Y-74866153D01*
X122698921Y-74886670D01*
X122684671Y-74905883D01*
X122668607Y-74923607D01*
X122650883Y-74939671D01*
X122631670Y-74953921D01*
X122611153Y-74966218D01*
X122589529Y-74976446D01*
X122567007Y-74984504D01*
X122543803Y-74990316D01*
X122520142Y-74993826D01*
X122496250Y-74995000D01*
X122008750Y-74995000D01*
X121984858Y-74993826D01*
X121961197Y-74990316D01*
X121937993Y-74984504D01*
X121915471Y-74976446D01*
X121893847Y-74966218D01*
X121873330Y-74953921D01*
X121854117Y-74939671D01*
X121836393Y-74923607D01*
X121820329Y-74905883D01*
X121806079Y-74886670D01*
X121793782Y-74866153D01*
X121783554Y-74844529D01*
X121775496Y-74822007D01*
X121769684Y-74798803D01*
X121766174Y-74775142D01*
X121765000Y-74751250D01*
X121765000Y-73838750D01*
X121766174Y-73814858D01*
X121769684Y-73791197D01*
X121775496Y-73767993D01*
X121783554Y-73745471D01*
X121793782Y-73723847D01*
X121806079Y-73703330D01*
X121820329Y-73684117D01*
X121836393Y-73666393D01*
X121854117Y-73650329D01*
X121873330Y-73636079D01*
X121893847Y-73623782D01*
X121915471Y-73613554D01*
X121937993Y-73605496D01*
X121961197Y-73599684D01*
X121984858Y-73596174D01*
X122008750Y-73595000D01*
X122496250Y-73595000D01*
X122520142Y-73596174D01*
X122520142Y-73596174D01*
G37*
D11*
X122252500Y-74295000D03*
D10*
G36*
X124395142Y-73596174D02*
X124418803Y-73599684D01*
X124442007Y-73605496D01*
X124464529Y-73613554D01*
X124486153Y-73623782D01*
X124506670Y-73636079D01*
X124525883Y-73650329D01*
X124543607Y-73666393D01*
X124559671Y-73684117D01*
X124573921Y-73703330D01*
X124586218Y-73723847D01*
X124596446Y-73745471D01*
X124604504Y-73767993D01*
X124610316Y-73791197D01*
X124613826Y-73814858D01*
X124615000Y-73838750D01*
X124615000Y-74751250D01*
X124613826Y-74775142D01*
X124610316Y-74798803D01*
X124604504Y-74822007D01*
X124596446Y-74844529D01*
X124586218Y-74866153D01*
X124573921Y-74886670D01*
X124559671Y-74905883D01*
X124543607Y-74923607D01*
X124525883Y-74939671D01*
X124506670Y-74953921D01*
X124486153Y-74966218D01*
X124464529Y-74976446D01*
X124442007Y-74984504D01*
X124418803Y-74990316D01*
X124395142Y-74993826D01*
X124371250Y-74995000D01*
X123883750Y-74995000D01*
X123859858Y-74993826D01*
X123836197Y-74990316D01*
X123812993Y-74984504D01*
X123790471Y-74976446D01*
X123768847Y-74966218D01*
X123748330Y-74953921D01*
X123729117Y-74939671D01*
X123711393Y-74923607D01*
X123695329Y-74905883D01*
X123681079Y-74886670D01*
X123668782Y-74866153D01*
X123658554Y-74844529D01*
X123650496Y-74822007D01*
X123644684Y-74798803D01*
X123641174Y-74775142D01*
X123640000Y-74751250D01*
X123640000Y-73838750D01*
X123641174Y-73814858D01*
X123644684Y-73791197D01*
X123650496Y-73767993D01*
X123658554Y-73745471D01*
X123668782Y-73723847D01*
X123681079Y-73703330D01*
X123695329Y-73684117D01*
X123711393Y-73666393D01*
X123729117Y-73650329D01*
X123748330Y-73636079D01*
X123768847Y-73623782D01*
X123790471Y-73613554D01*
X123812993Y-73605496D01*
X123836197Y-73599684D01*
X123859858Y-73596174D01*
X123883750Y-73595000D01*
X124371250Y-73595000D01*
X124395142Y-73596174D01*
X124395142Y-73596174D01*
G37*
D11*
X124127500Y-74295000D03*
G04 #@! TD*
D10*
G04 #@! TO.C,R9*
G36*
X107280142Y-71056174D02*
X107303803Y-71059684D01*
X107327007Y-71065496D01*
X107349529Y-71073554D01*
X107371153Y-71083782D01*
X107391670Y-71096079D01*
X107410883Y-71110329D01*
X107428607Y-71126393D01*
X107444671Y-71144117D01*
X107458921Y-71163330D01*
X107471218Y-71183847D01*
X107481446Y-71205471D01*
X107489504Y-71227993D01*
X107495316Y-71251197D01*
X107498826Y-71274858D01*
X107500000Y-71298750D01*
X107500000Y-72211250D01*
X107498826Y-72235142D01*
X107495316Y-72258803D01*
X107489504Y-72282007D01*
X107481446Y-72304529D01*
X107471218Y-72326153D01*
X107458921Y-72346670D01*
X107444671Y-72365883D01*
X107428607Y-72383607D01*
X107410883Y-72399671D01*
X107391670Y-72413921D01*
X107371153Y-72426218D01*
X107349529Y-72436446D01*
X107327007Y-72444504D01*
X107303803Y-72450316D01*
X107280142Y-72453826D01*
X107256250Y-72455000D01*
X106768750Y-72455000D01*
X106744858Y-72453826D01*
X106721197Y-72450316D01*
X106697993Y-72444504D01*
X106675471Y-72436446D01*
X106653847Y-72426218D01*
X106633330Y-72413921D01*
X106614117Y-72399671D01*
X106596393Y-72383607D01*
X106580329Y-72365883D01*
X106566079Y-72346670D01*
X106553782Y-72326153D01*
X106543554Y-72304529D01*
X106535496Y-72282007D01*
X106529684Y-72258803D01*
X106526174Y-72235142D01*
X106525000Y-72211250D01*
X106525000Y-71298750D01*
X106526174Y-71274858D01*
X106529684Y-71251197D01*
X106535496Y-71227993D01*
X106543554Y-71205471D01*
X106553782Y-71183847D01*
X106566079Y-71163330D01*
X106580329Y-71144117D01*
X106596393Y-71126393D01*
X106614117Y-71110329D01*
X106633330Y-71096079D01*
X106653847Y-71083782D01*
X106675471Y-71073554D01*
X106697993Y-71065496D01*
X106721197Y-71059684D01*
X106744858Y-71056174D01*
X106768750Y-71055000D01*
X107256250Y-71055000D01*
X107280142Y-71056174D01*
X107280142Y-71056174D01*
G37*
D11*
X107012500Y-71755000D03*
D10*
G36*
X109155142Y-71056174D02*
X109178803Y-71059684D01*
X109202007Y-71065496D01*
X109224529Y-71073554D01*
X109246153Y-71083782D01*
X109266670Y-71096079D01*
X109285883Y-71110329D01*
X109303607Y-71126393D01*
X109319671Y-71144117D01*
X109333921Y-71163330D01*
X109346218Y-71183847D01*
X109356446Y-71205471D01*
X109364504Y-71227993D01*
X109370316Y-71251197D01*
X109373826Y-71274858D01*
X109375000Y-71298750D01*
X109375000Y-72211250D01*
X109373826Y-72235142D01*
X109370316Y-72258803D01*
X109364504Y-72282007D01*
X109356446Y-72304529D01*
X109346218Y-72326153D01*
X109333921Y-72346670D01*
X109319671Y-72365883D01*
X109303607Y-72383607D01*
X109285883Y-72399671D01*
X109266670Y-72413921D01*
X109246153Y-72426218D01*
X109224529Y-72436446D01*
X109202007Y-72444504D01*
X109178803Y-72450316D01*
X109155142Y-72453826D01*
X109131250Y-72455000D01*
X108643750Y-72455000D01*
X108619858Y-72453826D01*
X108596197Y-72450316D01*
X108572993Y-72444504D01*
X108550471Y-72436446D01*
X108528847Y-72426218D01*
X108508330Y-72413921D01*
X108489117Y-72399671D01*
X108471393Y-72383607D01*
X108455329Y-72365883D01*
X108441079Y-72346670D01*
X108428782Y-72326153D01*
X108418554Y-72304529D01*
X108410496Y-72282007D01*
X108404684Y-72258803D01*
X108401174Y-72235142D01*
X108400000Y-72211250D01*
X108400000Y-71298750D01*
X108401174Y-71274858D01*
X108404684Y-71251197D01*
X108410496Y-71227993D01*
X108418554Y-71205471D01*
X108428782Y-71183847D01*
X108441079Y-71163330D01*
X108455329Y-71144117D01*
X108471393Y-71126393D01*
X108489117Y-71110329D01*
X108508330Y-71096079D01*
X108528847Y-71083782D01*
X108550471Y-71073554D01*
X108572993Y-71065496D01*
X108596197Y-71059684D01*
X108619858Y-71056174D01*
X108643750Y-71055000D01*
X109131250Y-71055000D01*
X109155142Y-71056174D01*
X109155142Y-71056174D01*
G37*
D11*
X108887500Y-71755000D03*
G04 #@! TD*
D10*
G04 #@! TO.C,R11*
G36*
X107280142Y-65341174D02*
X107303803Y-65344684D01*
X107327007Y-65350496D01*
X107349529Y-65358554D01*
X107371153Y-65368782D01*
X107391670Y-65381079D01*
X107410883Y-65395329D01*
X107428607Y-65411393D01*
X107444671Y-65429117D01*
X107458921Y-65448330D01*
X107471218Y-65468847D01*
X107481446Y-65490471D01*
X107489504Y-65512993D01*
X107495316Y-65536197D01*
X107498826Y-65559858D01*
X107500000Y-65583750D01*
X107500000Y-66496250D01*
X107498826Y-66520142D01*
X107495316Y-66543803D01*
X107489504Y-66567007D01*
X107481446Y-66589529D01*
X107471218Y-66611153D01*
X107458921Y-66631670D01*
X107444671Y-66650883D01*
X107428607Y-66668607D01*
X107410883Y-66684671D01*
X107391670Y-66698921D01*
X107371153Y-66711218D01*
X107349529Y-66721446D01*
X107327007Y-66729504D01*
X107303803Y-66735316D01*
X107280142Y-66738826D01*
X107256250Y-66740000D01*
X106768750Y-66740000D01*
X106744858Y-66738826D01*
X106721197Y-66735316D01*
X106697993Y-66729504D01*
X106675471Y-66721446D01*
X106653847Y-66711218D01*
X106633330Y-66698921D01*
X106614117Y-66684671D01*
X106596393Y-66668607D01*
X106580329Y-66650883D01*
X106566079Y-66631670D01*
X106553782Y-66611153D01*
X106543554Y-66589529D01*
X106535496Y-66567007D01*
X106529684Y-66543803D01*
X106526174Y-66520142D01*
X106525000Y-66496250D01*
X106525000Y-65583750D01*
X106526174Y-65559858D01*
X106529684Y-65536197D01*
X106535496Y-65512993D01*
X106543554Y-65490471D01*
X106553782Y-65468847D01*
X106566079Y-65448330D01*
X106580329Y-65429117D01*
X106596393Y-65411393D01*
X106614117Y-65395329D01*
X106633330Y-65381079D01*
X106653847Y-65368782D01*
X106675471Y-65358554D01*
X106697993Y-65350496D01*
X106721197Y-65344684D01*
X106744858Y-65341174D01*
X106768750Y-65340000D01*
X107256250Y-65340000D01*
X107280142Y-65341174D01*
X107280142Y-65341174D01*
G37*
D11*
X107012500Y-66040000D03*
D10*
G36*
X109155142Y-65341174D02*
X109178803Y-65344684D01*
X109202007Y-65350496D01*
X109224529Y-65358554D01*
X109246153Y-65368782D01*
X109266670Y-65381079D01*
X109285883Y-65395329D01*
X109303607Y-65411393D01*
X109319671Y-65429117D01*
X109333921Y-65448330D01*
X109346218Y-65468847D01*
X109356446Y-65490471D01*
X109364504Y-65512993D01*
X109370316Y-65536197D01*
X109373826Y-65559858D01*
X109375000Y-65583750D01*
X109375000Y-66496250D01*
X109373826Y-66520142D01*
X109370316Y-66543803D01*
X109364504Y-66567007D01*
X109356446Y-66589529D01*
X109346218Y-66611153D01*
X109333921Y-66631670D01*
X109319671Y-66650883D01*
X109303607Y-66668607D01*
X109285883Y-66684671D01*
X109266670Y-66698921D01*
X109246153Y-66711218D01*
X109224529Y-66721446D01*
X109202007Y-66729504D01*
X109178803Y-66735316D01*
X109155142Y-66738826D01*
X109131250Y-66740000D01*
X108643750Y-66740000D01*
X108619858Y-66738826D01*
X108596197Y-66735316D01*
X108572993Y-66729504D01*
X108550471Y-66721446D01*
X108528847Y-66711218D01*
X108508330Y-66698921D01*
X108489117Y-66684671D01*
X108471393Y-66668607D01*
X108455329Y-66650883D01*
X108441079Y-66631670D01*
X108428782Y-66611153D01*
X108418554Y-66589529D01*
X108410496Y-66567007D01*
X108404684Y-66543803D01*
X108401174Y-66520142D01*
X108400000Y-66496250D01*
X108400000Y-65583750D01*
X108401174Y-65559858D01*
X108404684Y-65536197D01*
X108410496Y-65512993D01*
X108418554Y-65490471D01*
X108428782Y-65468847D01*
X108441079Y-65448330D01*
X108455329Y-65429117D01*
X108471393Y-65411393D01*
X108489117Y-65395329D01*
X108508330Y-65381079D01*
X108528847Y-65368782D01*
X108550471Y-65358554D01*
X108572993Y-65350496D01*
X108596197Y-65344684D01*
X108619858Y-65341174D01*
X108643750Y-65340000D01*
X109131250Y-65340000D01*
X109155142Y-65341174D01*
X109155142Y-65341174D01*
G37*
D11*
X108887500Y-66040000D03*
G04 #@! TD*
D10*
G04 #@! TO.C,R12*
G36*
X109155142Y-63436174D02*
X109178803Y-63439684D01*
X109202007Y-63445496D01*
X109224529Y-63453554D01*
X109246153Y-63463782D01*
X109266670Y-63476079D01*
X109285883Y-63490329D01*
X109303607Y-63506393D01*
X109319671Y-63524117D01*
X109333921Y-63543330D01*
X109346218Y-63563847D01*
X109356446Y-63585471D01*
X109364504Y-63607993D01*
X109370316Y-63631197D01*
X109373826Y-63654858D01*
X109375000Y-63678750D01*
X109375000Y-64591250D01*
X109373826Y-64615142D01*
X109370316Y-64638803D01*
X109364504Y-64662007D01*
X109356446Y-64684529D01*
X109346218Y-64706153D01*
X109333921Y-64726670D01*
X109319671Y-64745883D01*
X109303607Y-64763607D01*
X109285883Y-64779671D01*
X109266670Y-64793921D01*
X109246153Y-64806218D01*
X109224529Y-64816446D01*
X109202007Y-64824504D01*
X109178803Y-64830316D01*
X109155142Y-64833826D01*
X109131250Y-64835000D01*
X108643750Y-64835000D01*
X108619858Y-64833826D01*
X108596197Y-64830316D01*
X108572993Y-64824504D01*
X108550471Y-64816446D01*
X108528847Y-64806218D01*
X108508330Y-64793921D01*
X108489117Y-64779671D01*
X108471393Y-64763607D01*
X108455329Y-64745883D01*
X108441079Y-64726670D01*
X108428782Y-64706153D01*
X108418554Y-64684529D01*
X108410496Y-64662007D01*
X108404684Y-64638803D01*
X108401174Y-64615142D01*
X108400000Y-64591250D01*
X108400000Y-63678750D01*
X108401174Y-63654858D01*
X108404684Y-63631197D01*
X108410496Y-63607993D01*
X108418554Y-63585471D01*
X108428782Y-63563847D01*
X108441079Y-63543330D01*
X108455329Y-63524117D01*
X108471393Y-63506393D01*
X108489117Y-63490329D01*
X108508330Y-63476079D01*
X108528847Y-63463782D01*
X108550471Y-63453554D01*
X108572993Y-63445496D01*
X108596197Y-63439684D01*
X108619858Y-63436174D01*
X108643750Y-63435000D01*
X109131250Y-63435000D01*
X109155142Y-63436174D01*
X109155142Y-63436174D01*
G37*
D11*
X108887500Y-64135000D03*
D10*
G36*
X107280142Y-63436174D02*
X107303803Y-63439684D01*
X107327007Y-63445496D01*
X107349529Y-63453554D01*
X107371153Y-63463782D01*
X107391670Y-63476079D01*
X107410883Y-63490329D01*
X107428607Y-63506393D01*
X107444671Y-63524117D01*
X107458921Y-63543330D01*
X107471218Y-63563847D01*
X107481446Y-63585471D01*
X107489504Y-63607993D01*
X107495316Y-63631197D01*
X107498826Y-63654858D01*
X107500000Y-63678750D01*
X107500000Y-64591250D01*
X107498826Y-64615142D01*
X107495316Y-64638803D01*
X107489504Y-64662007D01*
X107481446Y-64684529D01*
X107471218Y-64706153D01*
X107458921Y-64726670D01*
X107444671Y-64745883D01*
X107428607Y-64763607D01*
X107410883Y-64779671D01*
X107391670Y-64793921D01*
X107371153Y-64806218D01*
X107349529Y-64816446D01*
X107327007Y-64824504D01*
X107303803Y-64830316D01*
X107280142Y-64833826D01*
X107256250Y-64835000D01*
X106768750Y-64835000D01*
X106744858Y-64833826D01*
X106721197Y-64830316D01*
X106697993Y-64824504D01*
X106675471Y-64816446D01*
X106653847Y-64806218D01*
X106633330Y-64793921D01*
X106614117Y-64779671D01*
X106596393Y-64763607D01*
X106580329Y-64745883D01*
X106566079Y-64726670D01*
X106553782Y-64706153D01*
X106543554Y-64684529D01*
X106535496Y-64662007D01*
X106529684Y-64638803D01*
X106526174Y-64615142D01*
X106525000Y-64591250D01*
X106525000Y-63678750D01*
X106526174Y-63654858D01*
X106529684Y-63631197D01*
X106535496Y-63607993D01*
X106543554Y-63585471D01*
X106553782Y-63563847D01*
X106566079Y-63543330D01*
X106580329Y-63524117D01*
X106596393Y-63506393D01*
X106614117Y-63490329D01*
X106633330Y-63476079D01*
X106653847Y-63463782D01*
X106675471Y-63453554D01*
X106697993Y-63445496D01*
X106721197Y-63439684D01*
X106744858Y-63436174D01*
X106768750Y-63435000D01*
X107256250Y-63435000D01*
X107280142Y-63436174D01*
X107280142Y-63436174D01*
G37*
D11*
X107012500Y-64135000D03*
G04 #@! TD*
D10*
G04 #@! TO.C,R13*
G36*
X107280142Y-61531174D02*
X107303803Y-61534684D01*
X107327007Y-61540496D01*
X107349529Y-61548554D01*
X107371153Y-61558782D01*
X107391670Y-61571079D01*
X107410883Y-61585329D01*
X107428607Y-61601393D01*
X107444671Y-61619117D01*
X107458921Y-61638330D01*
X107471218Y-61658847D01*
X107481446Y-61680471D01*
X107489504Y-61702993D01*
X107495316Y-61726197D01*
X107498826Y-61749858D01*
X107500000Y-61773750D01*
X107500000Y-62686250D01*
X107498826Y-62710142D01*
X107495316Y-62733803D01*
X107489504Y-62757007D01*
X107481446Y-62779529D01*
X107471218Y-62801153D01*
X107458921Y-62821670D01*
X107444671Y-62840883D01*
X107428607Y-62858607D01*
X107410883Y-62874671D01*
X107391670Y-62888921D01*
X107371153Y-62901218D01*
X107349529Y-62911446D01*
X107327007Y-62919504D01*
X107303803Y-62925316D01*
X107280142Y-62928826D01*
X107256250Y-62930000D01*
X106768750Y-62930000D01*
X106744858Y-62928826D01*
X106721197Y-62925316D01*
X106697993Y-62919504D01*
X106675471Y-62911446D01*
X106653847Y-62901218D01*
X106633330Y-62888921D01*
X106614117Y-62874671D01*
X106596393Y-62858607D01*
X106580329Y-62840883D01*
X106566079Y-62821670D01*
X106553782Y-62801153D01*
X106543554Y-62779529D01*
X106535496Y-62757007D01*
X106529684Y-62733803D01*
X106526174Y-62710142D01*
X106525000Y-62686250D01*
X106525000Y-61773750D01*
X106526174Y-61749858D01*
X106529684Y-61726197D01*
X106535496Y-61702993D01*
X106543554Y-61680471D01*
X106553782Y-61658847D01*
X106566079Y-61638330D01*
X106580329Y-61619117D01*
X106596393Y-61601393D01*
X106614117Y-61585329D01*
X106633330Y-61571079D01*
X106653847Y-61558782D01*
X106675471Y-61548554D01*
X106697993Y-61540496D01*
X106721197Y-61534684D01*
X106744858Y-61531174D01*
X106768750Y-61530000D01*
X107256250Y-61530000D01*
X107280142Y-61531174D01*
X107280142Y-61531174D01*
G37*
D11*
X107012500Y-62230000D03*
D10*
G36*
X109155142Y-61531174D02*
X109178803Y-61534684D01*
X109202007Y-61540496D01*
X109224529Y-61548554D01*
X109246153Y-61558782D01*
X109266670Y-61571079D01*
X109285883Y-61585329D01*
X109303607Y-61601393D01*
X109319671Y-61619117D01*
X109333921Y-61638330D01*
X109346218Y-61658847D01*
X109356446Y-61680471D01*
X109364504Y-61702993D01*
X109370316Y-61726197D01*
X109373826Y-61749858D01*
X109375000Y-61773750D01*
X109375000Y-62686250D01*
X109373826Y-62710142D01*
X109370316Y-62733803D01*
X109364504Y-62757007D01*
X109356446Y-62779529D01*
X109346218Y-62801153D01*
X109333921Y-62821670D01*
X109319671Y-62840883D01*
X109303607Y-62858607D01*
X109285883Y-62874671D01*
X109266670Y-62888921D01*
X109246153Y-62901218D01*
X109224529Y-62911446D01*
X109202007Y-62919504D01*
X109178803Y-62925316D01*
X109155142Y-62928826D01*
X109131250Y-62930000D01*
X108643750Y-62930000D01*
X108619858Y-62928826D01*
X108596197Y-62925316D01*
X108572993Y-62919504D01*
X108550471Y-62911446D01*
X108528847Y-62901218D01*
X108508330Y-62888921D01*
X108489117Y-62874671D01*
X108471393Y-62858607D01*
X108455329Y-62840883D01*
X108441079Y-62821670D01*
X108428782Y-62801153D01*
X108418554Y-62779529D01*
X108410496Y-62757007D01*
X108404684Y-62733803D01*
X108401174Y-62710142D01*
X108400000Y-62686250D01*
X108400000Y-61773750D01*
X108401174Y-61749858D01*
X108404684Y-61726197D01*
X108410496Y-61702993D01*
X108418554Y-61680471D01*
X108428782Y-61658847D01*
X108441079Y-61638330D01*
X108455329Y-61619117D01*
X108471393Y-61601393D01*
X108489117Y-61585329D01*
X108508330Y-61571079D01*
X108528847Y-61558782D01*
X108550471Y-61548554D01*
X108572993Y-61540496D01*
X108596197Y-61534684D01*
X108619858Y-61531174D01*
X108643750Y-61530000D01*
X109131250Y-61530000D01*
X109155142Y-61531174D01*
X109155142Y-61531174D01*
G37*
D11*
X108887500Y-62230000D03*
G04 #@! TD*
D10*
G04 #@! TO.C,R14*
G36*
X107280142Y-59626174D02*
X107303803Y-59629684D01*
X107327007Y-59635496D01*
X107349529Y-59643554D01*
X107371153Y-59653782D01*
X107391670Y-59666079D01*
X107410883Y-59680329D01*
X107428607Y-59696393D01*
X107444671Y-59714117D01*
X107458921Y-59733330D01*
X107471218Y-59753847D01*
X107481446Y-59775471D01*
X107489504Y-59797993D01*
X107495316Y-59821197D01*
X107498826Y-59844858D01*
X107500000Y-59868750D01*
X107500000Y-60781250D01*
X107498826Y-60805142D01*
X107495316Y-60828803D01*
X107489504Y-60852007D01*
X107481446Y-60874529D01*
X107471218Y-60896153D01*
X107458921Y-60916670D01*
X107444671Y-60935883D01*
X107428607Y-60953607D01*
X107410883Y-60969671D01*
X107391670Y-60983921D01*
X107371153Y-60996218D01*
X107349529Y-61006446D01*
X107327007Y-61014504D01*
X107303803Y-61020316D01*
X107280142Y-61023826D01*
X107256250Y-61025000D01*
X106768750Y-61025000D01*
X106744858Y-61023826D01*
X106721197Y-61020316D01*
X106697993Y-61014504D01*
X106675471Y-61006446D01*
X106653847Y-60996218D01*
X106633330Y-60983921D01*
X106614117Y-60969671D01*
X106596393Y-60953607D01*
X106580329Y-60935883D01*
X106566079Y-60916670D01*
X106553782Y-60896153D01*
X106543554Y-60874529D01*
X106535496Y-60852007D01*
X106529684Y-60828803D01*
X106526174Y-60805142D01*
X106525000Y-60781250D01*
X106525000Y-59868750D01*
X106526174Y-59844858D01*
X106529684Y-59821197D01*
X106535496Y-59797993D01*
X106543554Y-59775471D01*
X106553782Y-59753847D01*
X106566079Y-59733330D01*
X106580329Y-59714117D01*
X106596393Y-59696393D01*
X106614117Y-59680329D01*
X106633330Y-59666079D01*
X106653847Y-59653782D01*
X106675471Y-59643554D01*
X106697993Y-59635496D01*
X106721197Y-59629684D01*
X106744858Y-59626174D01*
X106768750Y-59625000D01*
X107256250Y-59625000D01*
X107280142Y-59626174D01*
X107280142Y-59626174D01*
G37*
D11*
X107012500Y-60325000D03*
D10*
G36*
X109155142Y-59626174D02*
X109178803Y-59629684D01*
X109202007Y-59635496D01*
X109224529Y-59643554D01*
X109246153Y-59653782D01*
X109266670Y-59666079D01*
X109285883Y-59680329D01*
X109303607Y-59696393D01*
X109319671Y-59714117D01*
X109333921Y-59733330D01*
X109346218Y-59753847D01*
X109356446Y-59775471D01*
X109364504Y-59797993D01*
X109370316Y-59821197D01*
X109373826Y-59844858D01*
X109375000Y-59868750D01*
X109375000Y-60781250D01*
X109373826Y-60805142D01*
X109370316Y-60828803D01*
X109364504Y-60852007D01*
X109356446Y-60874529D01*
X109346218Y-60896153D01*
X109333921Y-60916670D01*
X109319671Y-60935883D01*
X109303607Y-60953607D01*
X109285883Y-60969671D01*
X109266670Y-60983921D01*
X109246153Y-60996218D01*
X109224529Y-61006446D01*
X109202007Y-61014504D01*
X109178803Y-61020316D01*
X109155142Y-61023826D01*
X109131250Y-61025000D01*
X108643750Y-61025000D01*
X108619858Y-61023826D01*
X108596197Y-61020316D01*
X108572993Y-61014504D01*
X108550471Y-61006446D01*
X108528847Y-60996218D01*
X108508330Y-60983921D01*
X108489117Y-60969671D01*
X108471393Y-60953607D01*
X108455329Y-60935883D01*
X108441079Y-60916670D01*
X108428782Y-60896153D01*
X108418554Y-60874529D01*
X108410496Y-60852007D01*
X108404684Y-60828803D01*
X108401174Y-60805142D01*
X108400000Y-60781250D01*
X108400000Y-59868750D01*
X108401174Y-59844858D01*
X108404684Y-59821197D01*
X108410496Y-59797993D01*
X108418554Y-59775471D01*
X108428782Y-59753847D01*
X108441079Y-59733330D01*
X108455329Y-59714117D01*
X108471393Y-59696393D01*
X108489117Y-59680329D01*
X108508330Y-59666079D01*
X108528847Y-59653782D01*
X108550471Y-59643554D01*
X108572993Y-59635496D01*
X108596197Y-59629684D01*
X108619858Y-59626174D01*
X108643750Y-59625000D01*
X109131250Y-59625000D01*
X109155142Y-59626174D01*
X109155142Y-59626174D01*
G37*
D11*
X108887500Y-60325000D03*
G04 #@! TD*
D10*
G04 #@! TO.C,R15*
G36*
X124395142Y-62166174D02*
X124418803Y-62169684D01*
X124442007Y-62175496D01*
X124464529Y-62183554D01*
X124486153Y-62193782D01*
X124506670Y-62206079D01*
X124525883Y-62220329D01*
X124543607Y-62236393D01*
X124559671Y-62254117D01*
X124573921Y-62273330D01*
X124586218Y-62293847D01*
X124596446Y-62315471D01*
X124604504Y-62337993D01*
X124610316Y-62361197D01*
X124613826Y-62384858D01*
X124615000Y-62408750D01*
X124615000Y-63321250D01*
X124613826Y-63345142D01*
X124610316Y-63368803D01*
X124604504Y-63392007D01*
X124596446Y-63414529D01*
X124586218Y-63436153D01*
X124573921Y-63456670D01*
X124559671Y-63475883D01*
X124543607Y-63493607D01*
X124525883Y-63509671D01*
X124506670Y-63523921D01*
X124486153Y-63536218D01*
X124464529Y-63546446D01*
X124442007Y-63554504D01*
X124418803Y-63560316D01*
X124395142Y-63563826D01*
X124371250Y-63565000D01*
X123883750Y-63565000D01*
X123859858Y-63563826D01*
X123836197Y-63560316D01*
X123812993Y-63554504D01*
X123790471Y-63546446D01*
X123768847Y-63536218D01*
X123748330Y-63523921D01*
X123729117Y-63509671D01*
X123711393Y-63493607D01*
X123695329Y-63475883D01*
X123681079Y-63456670D01*
X123668782Y-63436153D01*
X123658554Y-63414529D01*
X123650496Y-63392007D01*
X123644684Y-63368803D01*
X123641174Y-63345142D01*
X123640000Y-63321250D01*
X123640000Y-62408750D01*
X123641174Y-62384858D01*
X123644684Y-62361197D01*
X123650496Y-62337993D01*
X123658554Y-62315471D01*
X123668782Y-62293847D01*
X123681079Y-62273330D01*
X123695329Y-62254117D01*
X123711393Y-62236393D01*
X123729117Y-62220329D01*
X123748330Y-62206079D01*
X123768847Y-62193782D01*
X123790471Y-62183554D01*
X123812993Y-62175496D01*
X123836197Y-62169684D01*
X123859858Y-62166174D01*
X123883750Y-62165000D01*
X124371250Y-62165000D01*
X124395142Y-62166174D01*
X124395142Y-62166174D01*
G37*
D11*
X124127500Y-62865000D03*
D10*
G36*
X122520142Y-62166174D02*
X122543803Y-62169684D01*
X122567007Y-62175496D01*
X122589529Y-62183554D01*
X122611153Y-62193782D01*
X122631670Y-62206079D01*
X122650883Y-62220329D01*
X122668607Y-62236393D01*
X122684671Y-62254117D01*
X122698921Y-62273330D01*
X122711218Y-62293847D01*
X122721446Y-62315471D01*
X122729504Y-62337993D01*
X122735316Y-62361197D01*
X122738826Y-62384858D01*
X122740000Y-62408750D01*
X122740000Y-63321250D01*
X122738826Y-63345142D01*
X122735316Y-63368803D01*
X122729504Y-63392007D01*
X122721446Y-63414529D01*
X122711218Y-63436153D01*
X122698921Y-63456670D01*
X122684671Y-63475883D01*
X122668607Y-63493607D01*
X122650883Y-63509671D01*
X122631670Y-63523921D01*
X122611153Y-63536218D01*
X122589529Y-63546446D01*
X122567007Y-63554504D01*
X122543803Y-63560316D01*
X122520142Y-63563826D01*
X122496250Y-63565000D01*
X122008750Y-63565000D01*
X121984858Y-63563826D01*
X121961197Y-63560316D01*
X121937993Y-63554504D01*
X121915471Y-63546446D01*
X121893847Y-63536218D01*
X121873330Y-63523921D01*
X121854117Y-63509671D01*
X121836393Y-63493607D01*
X121820329Y-63475883D01*
X121806079Y-63456670D01*
X121793782Y-63436153D01*
X121783554Y-63414529D01*
X121775496Y-63392007D01*
X121769684Y-63368803D01*
X121766174Y-63345142D01*
X121765000Y-63321250D01*
X121765000Y-62408750D01*
X121766174Y-62384858D01*
X121769684Y-62361197D01*
X121775496Y-62337993D01*
X121783554Y-62315471D01*
X121793782Y-62293847D01*
X121806079Y-62273330D01*
X121820329Y-62254117D01*
X121836393Y-62236393D01*
X121854117Y-62220329D01*
X121873330Y-62206079D01*
X121893847Y-62193782D01*
X121915471Y-62183554D01*
X121937993Y-62175496D01*
X121961197Y-62169684D01*
X121984858Y-62166174D01*
X122008750Y-62165000D01*
X122496250Y-62165000D01*
X122520142Y-62166174D01*
X122520142Y-62166174D01*
G37*
D11*
X122252500Y-62865000D03*
G04 #@! TD*
D10*
G04 #@! TO.C,R16*
G36*
X122520142Y-60261174D02*
X122543803Y-60264684D01*
X122567007Y-60270496D01*
X122589529Y-60278554D01*
X122611153Y-60288782D01*
X122631670Y-60301079D01*
X122650883Y-60315329D01*
X122668607Y-60331393D01*
X122684671Y-60349117D01*
X122698921Y-60368330D01*
X122711218Y-60388847D01*
X122721446Y-60410471D01*
X122729504Y-60432993D01*
X122735316Y-60456197D01*
X122738826Y-60479858D01*
X122740000Y-60503750D01*
X122740000Y-61416250D01*
X122738826Y-61440142D01*
X122735316Y-61463803D01*
X122729504Y-61487007D01*
X122721446Y-61509529D01*
X122711218Y-61531153D01*
X122698921Y-61551670D01*
X122684671Y-61570883D01*
X122668607Y-61588607D01*
X122650883Y-61604671D01*
X122631670Y-61618921D01*
X122611153Y-61631218D01*
X122589529Y-61641446D01*
X122567007Y-61649504D01*
X122543803Y-61655316D01*
X122520142Y-61658826D01*
X122496250Y-61660000D01*
X122008750Y-61660000D01*
X121984858Y-61658826D01*
X121961197Y-61655316D01*
X121937993Y-61649504D01*
X121915471Y-61641446D01*
X121893847Y-61631218D01*
X121873330Y-61618921D01*
X121854117Y-61604671D01*
X121836393Y-61588607D01*
X121820329Y-61570883D01*
X121806079Y-61551670D01*
X121793782Y-61531153D01*
X121783554Y-61509529D01*
X121775496Y-61487007D01*
X121769684Y-61463803D01*
X121766174Y-61440142D01*
X121765000Y-61416250D01*
X121765000Y-60503750D01*
X121766174Y-60479858D01*
X121769684Y-60456197D01*
X121775496Y-60432993D01*
X121783554Y-60410471D01*
X121793782Y-60388847D01*
X121806079Y-60368330D01*
X121820329Y-60349117D01*
X121836393Y-60331393D01*
X121854117Y-60315329D01*
X121873330Y-60301079D01*
X121893847Y-60288782D01*
X121915471Y-60278554D01*
X121937993Y-60270496D01*
X121961197Y-60264684D01*
X121984858Y-60261174D01*
X122008750Y-60260000D01*
X122496250Y-60260000D01*
X122520142Y-60261174D01*
X122520142Y-60261174D01*
G37*
D11*
X122252500Y-60960000D03*
D10*
G36*
X124395142Y-60261174D02*
X124418803Y-60264684D01*
X124442007Y-60270496D01*
X124464529Y-60278554D01*
X124486153Y-60288782D01*
X124506670Y-60301079D01*
X124525883Y-60315329D01*
X124543607Y-60331393D01*
X124559671Y-60349117D01*
X124573921Y-60368330D01*
X124586218Y-60388847D01*
X124596446Y-60410471D01*
X124604504Y-60432993D01*
X124610316Y-60456197D01*
X124613826Y-60479858D01*
X124615000Y-60503750D01*
X124615000Y-61416250D01*
X124613826Y-61440142D01*
X124610316Y-61463803D01*
X124604504Y-61487007D01*
X124596446Y-61509529D01*
X124586218Y-61531153D01*
X124573921Y-61551670D01*
X124559671Y-61570883D01*
X124543607Y-61588607D01*
X124525883Y-61604671D01*
X124506670Y-61618921D01*
X124486153Y-61631218D01*
X124464529Y-61641446D01*
X124442007Y-61649504D01*
X124418803Y-61655316D01*
X124395142Y-61658826D01*
X124371250Y-61660000D01*
X123883750Y-61660000D01*
X123859858Y-61658826D01*
X123836197Y-61655316D01*
X123812993Y-61649504D01*
X123790471Y-61641446D01*
X123768847Y-61631218D01*
X123748330Y-61618921D01*
X123729117Y-61604671D01*
X123711393Y-61588607D01*
X123695329Y-61570883D01*
X123681079Y-61551670D01*
X123668782Y-61531153D01*
X123658554Y-61509529D01*
X123650496Y-61487007D01*
X123644684Y-61463803D01*
X123641174Y-61440142D01*
X123640000Y-61416250D01*
X123640000Y-60503750D01*
X123641174Y-60479858D01*
X123644684Y-60456197D01*
X123650496Y-60432993D01*
X123658554Y-60410471D01*
X123668782Y-60388847D01*
X123681079Y-60368330D01*
X123695329Y-60349117D01*
X123711393Y-60331393D01*
X123729117Y-60315329D01*
X123748330Y-60301079D01*
X123768847Y-60288782D01*
X123790471Y-60278554D01*
X123812993Y-60270496D01*
X123836197Y-60264684D01*
X123859858Y-60261174D01*
X123883750Y-60260000D01*
X124371250Y-60260000D01*
X124395142Y-60261174D01*
X124395142Y-60261174D01*
G37*
D11*
X124127500Y-60960000D03*
G04 #@! TD*
D10*
G04 #@! TO.C,R17*
G36*
X124395142Y-58356174D02*
X124418803Y-58359684D01*
X124442007Y-58365496D01*
X124464529Y-58373554D01*
X124486153Y-58383782D01*
X124506670Y-58396079D01*
X124525883Y-58410329D01*
X124543607Y-58426393D01*
X124559671Y-58444117D01*
X124573921Y-58463330D01*
X124586218Y-58483847D01*
X124596446Y-58505471D01*
X124604504Y-58527993D01*
X124610316Y-58551197D01*
X124613826Y-58574858D01*
X124615000Y-58598750D01*
X124615000Y-59511250D01*
X124613826Y-59535142D01*
X124610316Y-59558803D01*
X124604504Y-59582007D01*
X124596446Y-59604529D01*
X124586218Y-59626153D01*
X124573921Y-59646670D01*
X124559671Y-59665883D01*
X124543607Y-59683607D01*
X124525883Y-59699671D01*
X124506670Y-59713921D01*
X124486153Y-59726218D01*
X124464529Y-59736446D01*
X124442007Y-59744504D01*
X124418803Y-59750316D01*
X124395142Y-59753826D01*
X124371250Y-59755000D01*
X123883750Y-59755000D01*
X123859858Y-59753826D01*
X123836197Y-59750316D01*
X123812993Y-59744504D01*
X123790471Y-59736446D01*
X123768847Y-59726218D01*
X123748330Y-59713921D01*
X123729117Y-59699671D01*
X123711393Y-59683607D01*
X123695329Y-59665883D01*
X123681079Y-59646670D01*
X123668782Y-59626153D01*
X123658554Y-59604529D01*
X123650496Y-59582007D01*
X123644684Y-59558803D01*
X123641174Y-59535142D01*
X123640000Y-59511250D01*
X123640000Y-58598750D01*
X123641174Y-58574858D01*
X123644684Y-58551197D01*
X123650496Y-58527993D01*
X123658554Y-58505471D01*
X123668782Y-58483847D01*
X123681079Y-58463330D01*
X123695329Y-58444117D01*
X123711393Y-58426393D01*
X123729117Y-58410329D01*
X123748330Y-58396079D01*
X123768847Y-58383782D01*
X123790471Y-58373554D01*
X123812993Y-58365496D01*
X123836197Y-58359684D01*
X123859858Y-58356174D01*
X123883750Y-58355000D01*
X124371250Y-58355000D01*
X124395142Y-58356174D01*
X124395142Y-58356174D01*
G37*
D11*
X124127500Y-59055000D03*
D10*
G36*
X122520142Y-58356174D02*
X122543803Y-58359684D01*
X122567007Y-58365496D01*
X122589529Y-58373554D01*
X122611153Y-58383782D01*
X122631670Y-58396079D01*
X122650883Y-58410329D01*
X122668607Y-58426393D01*
X122684671Y-58444117D01*
X122698921Y-58463330D01*
X122711218Y-58483847D01*
X122721446Y-58505471D01*
X122729504Y-58527993D01*
X122735316Y-58551197D01*
X122738826Y-58574858D01*
X122740000Y-58598750D01*
X122740000Y-59511250D01*
X122738826Y-59535142D01*
X122735316Y-59558803D01*
X122729504Y-59582007D01*
X122721446Y-59604529D01*
X122711218Y-59626153D01*
X122698921Y-59646670D01*
X122684671Y-59665883D01*
X122668607Y-59683607D01*
X122650883Y-59699671D01*
X122631670Y-59713921D01*
X122611153Y-59726218D01*
X122589529Y-59736446D01*
X122567007Y-59744504D01*
X122543803Y-59750316D01*
X122520142Y-59753826D01*
X122496250Y-59755000D01*
X122008750Y-59755000D01*
X121984858Y-59753826D01*
X121961197Y-59750316D01*
X121937993Y-59744504D01*
X121915471Y-59736446D01*
X121893847Y-59726218D01*
X121873330Y-59713921D01*
X121854117Y-59699671D01*
X121836393Y-59683607D01*
X121820329Y-59665883D01*
X121806079Y-59646670D01*
X121793782Y-59626153D01*
X121783554Y-59604529D01*
X121775496Y-59582007D01*
X121769684Y-59558803D01*
X121766174Y-59535142D01*
X121765000Y-59511250D01*
X121765000Y-58598750D01*
X121766174Y-58574858D01*
X121769684Y-58551197D01*
X121775496Y-58527993D01*
X121783554Y-58505471D01*
X121793782Y-58483847D01*
X121806079Y-58463330D01*
X121820329Y-58444117D01*
X121836393Y-58426393D01*
X121854117Y-58410329D01*
X121873330Y-58396079D01*
X121893847Y-58383782D01*
X121915471Y-58373554D01*
X121937993Y-58365496D01*
X121961197Y-58359684D01*
X121984858Y-58356174D01*
X122008750Y-58355000D01*
X122496250Y-58355000D01*
X122520142Y-58356174D01*
X122520142Y-58356174D01*
G37*
D11*
X122252500Y-59055000D03*
G04 #@! TD*
D10*
G04 #@! TO.C,R18*
G36*
X107280142Y-55816174D02*
X107303803Y-55819684D01*
X107327007Y-55825496D01*
X107349529Y-55833554D01*
X107371153Y-55843782D01*
X107391670Y-55856079D01*
X107410883Y-55870329D01*
X107428607Y-55886393D01*
X107444671Y-55904117D01*
X107458921Y-55923330D01*
X107471218Y-55943847D01*
X107481446Y-55965471D01*
X107489504Y-55987993D01*
X107495316Y-56011197D01*
X107498826Y-56034858D01*
X107500000Y-56058750D01*
X107500000Y-56971250D01*
X107498826Y-56995142D01*
X107495316Y-57018803D01*
X107489504Y-57042007D01*
X107481446Y-57064529D01*
X107471218Y-57086153D01*
X107458921Y-57106670D01*
X107444671Y-57125883D01*
X107428607Y-57143607D01*
X107410883Y-57159671D01*
X107391670Y-57173921D01*
X107371153Y-57186218D01*
X107349529Y-57196446D01*
X107327007Y-57204504D01*
X107303803Y-57210316D01*
X107280142Y-57213826D01*
X107256250Y-57215000D01*
X106768750Y-57215000D01*
X106744858Y-57213826D01*
X106721197Y-57210316D01*
X106697993Y-57204504D01*
X106675471Y-57196446D01*
X106653847Y-57186218D01*
X106633330Y-57173921D01*
X106614117Y-57159671D01*
X106596393Y-57143607D01*
X106580329Y-57125883D01*
X106566079Y-57106670D01*
X106553782Y-57086153D01*
X106543554Y-57064529D01*
X106535496Y-57042007D01*
X106529684Y-57018803D01*
X106526174Y-56995142D01*
X106525000Y-56971250D01*
X106525000Y-56058750D01*
X106526174Y-56034858D01*
X106529684Y-56011197D01*
X106535496Y-55987993D01*
X106543554Y-55965471D01*
X106553782Y-55943847D01*
X106566079Y-55923330D01*
X106580329Y-55904117D01*
X106596393Y-55886393D01*
X106614117Y-55870329D01*
X106633330Y-55856079D01*
X106653847Y-55843782D01*
X106675471Y-55833554D01*
X106697993Y-55825496D01*
X106721197Y-55819684D01*
X106744858Y-55816174D01*
X106768750Y-55815000D01*
X107256250Y-55815000D01*
X107280142Y-55816174D01*
X107280142Y-55816174D01*
G37*
D11*
X107012500Y-56515000D03*
D10*
G36*
X109155142Y-55816174D02*
X109178803Y-55819684D01*
X109202007Y-55825496D01*
X109224529Y-55833554D01*
X109246153Y-55843782D01*
X109266670Y-55856079D01*
X109285883Y-55870329D01*
X109303607Y-55886393D01*
X109319671Y-55904117D01*
X109333921Y-55923330D01*
X109346218Y-55943847D01*
X109356446Y-55965471D01*
X109364504Y-55987993D01*
X109370316Y-56011197D01*
X109373826Y-56034858D01*
X109375000Y-56058750D01*
X109375000Y-56971250D01*
X109373826Y-56995142D01*
X109370316Y-57018803D01*
X109364504Y-57042007D01*
X109356446Y-57064529D01*
X109346218Y-57086153D01*
X109333921Y-57106670D01*
X109319671Y-57125883D01*
X109303607Y-57143607D01*
X109285883Y-57159671D01*
X109266670Y-57173921D01*
X109246153Y-57186218D01*
X109224529Y-57196446D01*
X109202007Y-57204504D01*
X109178803Y-57210316D01*
X109155142Y-57213826D01*
X109131250Y-57215000D01*
X108643750Y-57215000D01*
X108619858Y-57213826D01*
X108596197Y-57210316D01*
X108572993Y-57204504D01*
X108550471Y-57196446D01*
X108528847Y-57186218D01*
X108508330Y-57173921D01*
X108489117Y-57159671D01*
X108471393Y-57143607D01*
X108455329Y-57125883D01*
X108441079Y-57106670D01*
X108428782Y-57086153D01*
X108418554Y-57064529D01*
X108410496Y-57042007D01*
X108404684Y-57018803D01*
X108401174Y-56995142D01*
X108400000Y-56971250D01*
X108400000Y-56058750D01*
X108401174Y-56034858D01*
X108404684Y-56011197D01*
X108410496Y-55987993D01*
X108418554Y-55965471D01*
X108428782Y-55943847D01*
X108441079Y-55923330D01*
X108455329Y-55904117D01*
X108471393Y-55886393D01*
X108489117Y-55870329D01*
X108508330Y-55856079D01*
X108528847Y-55843782D01*
X108550471Y-55833554D01*
X108572993Y-55825496D01*
X108596197Y-55819684D01*
X108619858Y-55816174D01*
X108643750Y-55815000D01*
X109131250Y-55815000D01*
X109155142Y-55816174D01*
X109155142Y-55816174D01*
G37*
D11*
X108887500Y-56515000D03*
G04 #@! TD*
D10*
G04 #@! TO.C,R20*
G36*
X109155142Y-50101174D02*
X109178803Y-50104684D01*
X109202007Y-50110496D01*
X109224529Y-50118554D01*
X109246153Y-50128782D01*
X109266670Y-50141079D01*
X109285883Y-50155329D01*
X109303607Y-50171393D01*
X109319671Y-50189117D01*
X109333921Y-50208330D01*
X109346218Y-50228847D01*
X109356446Y-50250471D01*
X109364504Y-50272993D01*
X109370316Y-50296197D01*
X109373826Y-50319858D01*
X109375000Y-50343750D01*
X109375000Y-51256250D01*
X109373826Y-51280142D01*
X109370316Y-51303803D01*
X109364504Y-51327007D01*
X109356446Y-51349529D01*
X109346218Y-51371153D01*
X109333921Y-51391670D01*
X109319671Y-51410883D01*
X109303607Y-51428607D01*
X109285883Y-51444671D01*
X109266670Y-51458921D01*
X109246153Y-51471218D01*
X109224529Y-51481446D01*
X109202007Y-51489504D01*
X109178803Y-51495316D01*
X109155142Y-51498826D01*
X109131250Y-51500000D01*
X108643750Y-51500000D01*
X108619858Y-51498826D01*
X108596197Y-51495316D01*
X108572993Y-51489504D01*
X108550471Y-51481446D01*
X108528847Y-51471218D01*
X108508330Y-51458921D01*
X108489117Y-51444671D01*
X108471393Y-51428607D01*
X108455329Y-51410883D01*
X108441079Y-51391670D01*
X108428782Y-51371153D01*
X108418554Y-51349529D01*
X108410496Y-51327007D01*
X108404684Y-51303803D01*
X108401174Y-51280142D01*
X108400000Y-51256250D01*
X108400000Y-50343750D01*
X108401174Y-50319858D01*
X108404684Y-50296197D01*
X108410496Y-50272993D01*
X108418554Y-50250471D01*
X108428782Y-50228847D01*
X108441079Y-50208330D01*
X108455329Y-50189117D01*
X108471393Y-50171393D01*
X108489117Y-50155329D01*
X108508330Y-50141079D01*
X108528847Y-50128782D01*
X108550471Y-50118554D01*
X108572993Y-50110496D01*
X108596197Y-50104684D01*
X108619858Y-50101174D01*
X108643750Y-50100000D01*
X109131250Y-50100000D01*
X109155142Y-50101174D01*
X109155142Y-50101174D01*
G37*
D11*
X108887500Y-50800000D03*
D10*
G36*
X107280142Y-50101174D02*
X107303803Y-50104684D01*
X107327007Y-50110496D01*
X107349529Y-50118554D01*
X107371153Y-50128782D01*
X107391670Y-50141079D01*
X107410883Y-50155329D01*
X107428607Y-50171393D01*
X107444671Y-50189117D01*
X107458921Y-50208330D01*
X107471218Y-50228847D01*
X107481446Y-50250471D01*
X107489504Y-50272993D01*
X107495316Y-50296197D01*
X107498826Y-50319858D01*
X107500000Y-50343750D01*
X107500000Y-51256250D01*
X107498826Y-51280142D01*
X107495316Y-51303803D01*
X107489504Y-51327007D01*
X107481446Y-51349529D01*
X107471218Y-51371153D01*
X107458921Y-51391670D01*
X107444671Y-51410883D01*
X107428607Y-51428607D01*
X107410883Y-51444671D01*
X107391670Y-51458921D01*
X107371153Y-51471218D01*
X107349529Y-51481446D01*
X107327007Y-51489504D01*
X107303803Y-51495316D01*
X107280142Y-51498826D01*
X107256250Y-51500000D01*
X106768750Y-51500000D01*
X106744858Y-51498826D01*
X106721197Y-51495316D01*
X106697993Y-51489504D01*
X106675471Y-51481446D01*
X106653847Y-51471218D01*
X106633330Y-51458921D01*
X106614117Y-51444671D01*
X106596393Y-51428607D01*
X106580329Y-51410883D01*
X106566079Y-51391670D01*
X106553782Y-51371153D01*
X106543554Y-51349529D01*
X106535496Y-51327007D01*
X106529684Y-51303803D01*
X106526174Y-51280142D01*
X106525000Y-51256250D01*
X106525000Y-50343750D01*
X106526174Y-50319858D01*
X106529684Y-50296197D01*
X106535496Y-50272993D01*
X106543554Y-50250471D01*
X106553782Y-50228847D01*
X106566079Y-50208330D01*
X106580329Y-50189117D01*
X106596393Y-50171393D01*
X106614117Y-50155329D01*
X106633330Y-50141079D01*
X106653847Y-50128782D01*
X106675471Y-50118554D01*
X106697993Y-50110496D01*
X106721197Y-50104684D01*
X106744858Y-50101174D01*
X106768750Y-50100000D01*
X107256250Y-50100000D01*
X107280142Y-50101174D01*
X107280142Y-50101174D01*
G37*
D11*
X107012500Y-50800000D03*
G04 #@! TD*
D10*
G04 #@! TO.C,R21*
G36*
X107280142Y-48196174D02*
X107303803Y-48199684D01*
X107327007Y-48205496D01*
X107349529Y-48213554D01*
X107371153Y-48223782D01*
X107391670Y-48236079D01*
X107410883Y-48250329D01*
X107428607Y-48266393D01*
X107444671Y-48284117D01*
X107458921Y-48303330D01*
X107471218Y-48323847D01*
X107481446Y-48345471D01*
X107489504Y-48367993D01*
X107495316Y-48391197D01*
X107498826Y-48414858D01*
X107500000Y-48438750D01*
X107500000Y-49351250D01*
X107498826Y-49375142D01*
X107495316Y-49398803D01*
X107489504Y-49422007D01*
X107481446Y-49444529D01*
X107471218Y-49466153D01*
X107458921Y-49486670D01*
X107444671Y-49505883D01*
X107428607Y-49523607D01*
X107410883Y-49539671D01*
X107391670Y-49553921D01*
X107371153Y-49566218D01*
X107349529Y-49576446D01*
X107327007Y-49584504D01*
X107303803Y-49590316D01*
X107280142Y-49593826D01*
X107256250Y-49595000D01*
X106768750Y-49595000D01*
X106744858Y-49593826D01*
X106721197Y-49590316D01*
X106697993Y-49584504D01*
X106675471Y-49576446D01*
X106653847Y-49566218D01*
X106633330Y-49553921D01*
X106614117Y-49539671D01*
X106596393Y-49523607D01*
X106580329Y-49505883D01*
X106566079Y-49486670D01*
X106553782Y-49466153D01*
X106543554Y-49444529D01*
X106535496Y-49422007D01*
X106529684Y-49398803D01*
X106526174Y-49375142D01*
X106525000Y-49351250D01*
X106525000Y-48438750D01*
X106526174Y-48414858D01*
X106529684Y-48391197D01*
X106535496Y-48367993D01*
X106543554Y-48345471D01*
X106553782Y-48323847D01*
X106566079Y-48303330D01*
X106580329Y-48284117D01*
X106596393Y-48266393D01*
X106614117Y-48250329D01*
X106633330Y-48236079D01*
X106653847Y-48223782D01*
X106675471Y-48213554D01*
X106697993Y-48205496D01*
X106721197Y-48199684D01*
X106744858Y-48196174D01*
X106768750Y-48195000D01*
X107256250Y-48195000D01*
X107280142Y-48196174D01*
X107280142Y-48196174D01*
G37*
D11*
X107012500Y-48895000D03*
D10*
G36*
X109155142Y-48196174D02*
X109178803Y-48199684D01*
X109202007Y-48205496D01*
X109224529Y-48213554D01*
X109246153Y-48223782D01*
X109266670Y-48236079D01*
X109285883Y-48250329D01*
X109303607Y-48266393D01*
X109319671Y-48284117D01*
X109333921Y-48303330D01*
X109346218Y-48323847D01*
X109356446Y-48345471D01*
X109364504Y-48367993D01*
X109370316Y-48391197D01*
X109373826Y-48414858D01*
X109375000Y-48438750D01*
X109375000Y-49351250D01*
X109373826Y-49375142D01*
X109370316Y-49398803D01*
X109364504Y-49422007D01*
X109356446Y-49444529D01*
X109346218Y-49466153D01*
X109333921Y-49486670D01*
X109319671Y-49505883D01*
X109303607Y-49523607D01*
X109285883Y-49539671D01*
X109266670Y-49553921D01*
X109246153Y-49566218D01*
X109224529Y-49576446D01*
X109202007Y-49584504D01*
X109178803Y-49590316D01*
X109155142Y-49593826D01*
X109131250Y-49595000D01*
X108643750Y-49595000D01*
X108619858Y-49593826D01*
X108596197Y-49590316D01*
X108572993Y-49584504D01*
X108550471Y-49576446D01*
X108528847Y-49566218D01*
X108508330Y-49553921D01*
X108489117Y-49539671D01*
X108471393Y-49523607D01*
X108455329Y-49505883D01*
X108441079Y-49486670D01*
X108428782Y-49466153D01*
X108418554Y-49444529D01*
X108410496Y-49422007D01*
X108404684Y-49398803D01*
X108401174Y-49375142D01*
X108400000Y-49351250D01*
X108400000Y-48438750D01*
X108401174Y-48414858D01*
X108404684Y-48391197D01*
X108410496Y-48367993D01*
X108418554Y-48345471D01*
X108428782Y-48323847D01*
X108441079Y-48303330D01*
X108455329Y-48284117D01*
X108471393Y-48266393D01*
X108489117Y-48250329D01*
X108508330Y-48236079D01*
X108528847Y-48223782D01*
X108550471Y-48213554D01*
X108572993Y-48205496D01*
X108596197Y-48199684D01*
X108619858Y-48196174D01*
X108643750Y-48195000D01*
X109131250Y-48195000D01*
X109155142Y-48196174D01*
X109155142Y-48196174D01*
G37*
D11*
X108887500Y-48895000D03*
G04 #@! TD*
D10*
G04 #@! TO.C,R22*
G36*
X109155142Y-46291174D02*
X109178803Y-46294684D01*
X109202007Y-46300496D01*
X109224529Y-46308554D01*
X109246153Y-46318782D01*
X109266670Y-46331079D01*
X109285883Y-46345329D01*
X109303607Y-46361393D01*
X109319671Y-46379117D01*
X109333921Y-46398330D01*
X109346218Y-46418847D01*
X109356446Y-46440471D01*
X109364504Y-46462993D01*
X109370316Y-46486197D01*
X109373826Y-46509858D01*
X109375000Y-46533750D01*
X109375000Y-47446250D01*
X109373826Y-47470142D01*
X109370316Y-47493803D01*
X109364504Y-47517007D01*
X109356446Y-47539529D01*
X109346218Y-47561153D01*
X109333921Y-47581670D01*
X109319671Y-47600883D01*
X109303607Y-47618607D01*
X109285883Y-47634671D01*
X109266670Y-47648921D01*
X109246153Y-47661218D01*
X109224529Y-47671446D01*
X109202007Y-47679504D01*
X109178803Y-47685316D01*
X109155142Y-47688826D01*
X109131250Y-47690000D01*
X108643750Y-47690000D01*
X108619858Y-47688826D01*
X108596197Y-47685316D01*
X108572993Y-47679504D01*
X108550471Y-47671446D01*
X108528847Y-47661218D01*
X108508330Y-47648921D01*
X108489117Y-47634671D01*
X108471393Y-47618607D01*
X108455329Y-47600883D01*
X108441079Y-47581670D01*
X108428782Y-47561153D01*
X108418554Y-47539529D01*
X108410496Y-47517007D01*
X108404684Y-47493803D01*
X108401174Y-47470142D01*
X108400000Y-47446250D01*
X108400000Y-46533750D01*
X108401174Y-46509858D01*
X108404684Y-46486197D01*
X108410496Y-46462993D01*
X108418554Y-46440471D01*
X108428782Y-46418847D01*
X108441079Y-46398330D01*
X108455329Y-46379117D01*
X108471393Y-46361393D01*
X108489117Y-46345329D01*
X108508330Y-46331079D01*
X108528847Y-46318782D01*
X108550471Y-46308554D01*
X108572993Y-46300496D01*
X108596197Y-46294684D01*
X108619858Y-46291174D01*
X108643750Y-46290000D01*
X109131250Y-46290000D01*
X109155142Y-46291174D01*
X109155142Y-46291174D01*
G37*
D11*
X108887500Y-46990000D03*
D10*
G36*
X107280142Y-46291174D02*
X107303803Y-46294684D01*
X107327007Y-46300496D01*
X107349529Y-46308554D01*
X107371153Y-46318782D01*
X107391670Y-46331079D01*
X107410883Y-46345329D01*
X107428607Y-46361393D01*
X107444671Y-46379117D01*
X107458921Y-46398330D01*
X107471218Y-46418847D01*
X107481446Y-46440471D01*
X107489504Y-46462993D01*
X107495316Y-46486197D01*
X107498826Y-46509858D01*
X107500000Y-46533750D01*
X107500000Y-47446250D01*
X107498826Y-47470142D01*
X107495316Y-47493803D01*
X107489504Y-47517007D01*
X107481446Y-47539529D01*
X107471218Y-47561153D01*
X107458921Y-47581670D01*
X107444671Y-47600883D01*
X107428607Y-47618607D01*
X107410883Y-47634671D01*
X107391670Y-47648921D01*
X107371153Y-47661218D01*
X107349529Y-47671446D01*
X107327007Y-47679504D01*
X107303803Y-47685316D01*
X107280142Y-47688826D01*
X107256250Y-47690000D01*
X106768750Y-47690000D01*
X106744858Y-47688826D01*
X106721197Y-47685316D01*
X106697993Y-47679504D01*
X106675471Y-47671446D01*
X106653847Y-47661218D01*
X106633330Y-47648921D01*
X106614117Y-47634671D01*
X106596393Y-47618607D01*
X106580329Y-47600883D01*
X106566079Y-47581670D01*
X106553782Y-47561153D01*
X106543554Y-47539529D01*
X106535496Y-47517007D01*
X106529684Y-47493803D01*
X106526174Y-47470142D01*
X106525000Y-47446250D01*
X106525000Y-46533750D01*
X106526174Y-46509858D01*
X106529684Y-46486197D01*
X106535496Y-46462993D01*
X106543554Y-46440471D01*
X106553782Y-46418847D01*
X106566079Y-46398330D01*
X106580329Y-46379117D01*
X106596393Y-46361393D01*
X106614117Y-46345329D01*
X106633330Y-46331079D01*
X106653847Y-46318782D01*
X106675471Y-46308554D01*
X106697993Y-46300496D01*
X106721197Y-46294684D01*
X106744858Y-46291174D01*
X106768750Y-46290000D01*
X107256250Y-46290000D01*
X107280142Y-46291174D01*
X107280142Y-46291174D01*
G37*
D11*
X107012500Y-46990000D03*
G04 #@! TD*
D10*
G04 #@! TO.C,R23*
G36*
X109155142Y-44386174D02*
X109178803Y-44389684D01*
X109202007Y-44395496D01*
X109224529Y-44403554D01*
X109246153Y-44413782D01*
X109266670Y-44426079D01*
X109285883Y-44440329D01*
X109303607Y-44456393D01*
X109319671Y-44474117D01*
X109333921Y-44493330D01*
X109346218Y-44513847D01*
X109356446Y-44535471D01*
X109364504Y-44557993D01*
X109370316Y-44581197D01*
X109373826Y-44604858D01*
X109375000Y-44628750D01*
X109375000Y-45541250D01*
X109373826Y-45565142D01*
X109370316Y-45588803D01*
X109364504Y-45612007D01*
X109356446Y-45634529D01*
X109346218Y-45656153D01*
X109333921Y-45676670D01*
X109319671Y-45695883D01*
X109303607Y-45713607D01*
X109285883Y-45729671D01*
X109266670Y-45743921D01*
X109246153Y-45756218D01*
X109224529Y-45766446D01*
X109202007Y-45774504D01*
X109178803Y-45780316D01*
X109155142Y-45783826D01*
X109131250Y-45785000D01*
X108643750Y-45785000D01*
X108619858Y-45783826D01*
X108596197Y-45780316D01*
X108572993Y-45774504D01*
X108550471Y-45766446D01*
X108528847Y-45756218D01*
X108508330Y-45743921D01*
X108489117Y-45729671D01*
X108471393Y-45713607D01*
X108455329Y-45695883D01*
X108441079Y-45676670D01*
X108428782Y-45656153D01*
X108418554Y-45634529D01*
X108410496Y-45612007D01*
X108404684Y-45588803D01*
X108401174Y-45565142D01*
X108400000Y-45541250D01*
X108400000Y-44628750D01*
X108401174Y-44604858D01*
X108404684Y-44581197D01*
X108410496Y-44557993D01*
X108418554Y-44535471D01*
X108428782Y-44513847D01*
X108441079Y-44493330D01*
X108455329Y-44474117D01*
X108471393Y-44456393D01*
X108489117Y-44440329D01*
X108508330Y-44426079D01*
X108528847Y-44413782D01*
X108550471Y-44403554D01*
X108572993Y-44395496D01*
X108596197Y-44389684D01*
X108619858Y-44386174D01*
X108643750Y-44385000D01*
X109131250Y-44385000D01*
X109155142Y-44386174D01*
X109155142Y-44386174D01*
G37*
D11*
X108887500Y-45085000D03*
D10*
G36*
X107280142Y-44386174D02*
X107303803Y-44389684D01*
X107327007Y-44395496D01*
X107349529Y-44403554D01*
X107371153Y-44413782D01*
X107391670Y-44426079D01*
X107410883Y-44440329D01*
X107428607Y-44456393D01*
X107444671Y-44474117D01*
X107458921Y-44493330D01*
X107471218Y-44513847D01*
X107481446Y-44535471D01*
X107489504Y-44557993D01*
X107495316Y-44581197D01*
X107498826Y-44604858D01*
X107500000Y-44628750D01*
X107500000Y-45541250D01*
X107498826Y-45565142D01*
X107495316Y-45588803D01*
X107489504Y-45612007D01*
X107481446Y-45634529D01*
X107471218Y-45656153D01*
X107458921Y-45676670D01*
X107444671Y-45695883D01*
X107428607Y-45713607D01*
X107410883Y-45729671D01*
X107391670Y-45743921D01*
X107371153Y-45756218D01*
X107349529Y-45766446D01*
X107327007Y-45774504D01*
X107303803Y-45780316D01*
X107280142Y-45783826D01*
X107256250Y-45785000D01*
X106768750Y-45785000D01*
X106744858Y-45783826D01*
X106721197Y-45780316D01*
X106697993Y-45774504D01*
X106675471Y-45766446D01*
X106653847Y-45756218D01*
X106633330Y-45743921D01*
X106614117Y-45729671D01*
X106596393Y-45713607D01*
X106580329Y-45695883D01*
X106566079Y-45676670D01*
X106553782Y-45656153D01*
X106543554Y-45634529D01*
X106535496Y-45612007D01*
X106529684Y-45588803D01*
X106526174Y-45565142D01*
X106525000Y-45541250D01*
X106525000Y-44628750D01*
X106526174Y-44604858D01*
X106529684Y-44581197D01*
X106535496Y-44557993D01*
X106543554Y-44535471D01*
X106553782Y-44513847D01*
X106566079Y-44493330D01*
X106580329Y-44474117D01*
X106596393Y-44456393D01*
X106614117Y-44440329D01*
X106633330Y-44426079D01*
X106653847Y-44413782D01*
X106675471Y-44403554D01*
X106697993Y-44395496D01*
X106721197Y-44389684D01*
X106744858Y-44386174D01*
X106768750Y-44385000D01*
X107256250Y-44385000D01*
X107280142Y-44386174D01*
X107280142Y-44386174D01*
G37*
D11*
X107012500Y-45085000D03*
G04 #@! TD*
D10*
G04 #@! TO.C,R24*
G36*
X122520142Y-46926174D02*
X122543803Y-46929684D01*
X122567007Y-46935496D01*
X122589529Y-46943554D01*
X122611153Y-46953782D01*
X122631670Y-46966079D01*
X122650883Y-46980329D01*
X122668607Y-46996393D01*
X122684671Y-47014117D01*
X122698921Y-47033330D01*
X122711218Y-47053847D01*
X122721446Y-47075471D01*
X122729504Y-47097993D01*
X122735316Y-47121197D01*
X122738826Y-47144858D01*
X122740000Y-47168750D01*
X122740000Y-48081250D01*
X122738826Y-48105142D01*
X122735316Y-48128803D01*
X122729504Y-48152007D01*
X122721446Y-48174529D01*
X122711218Y-48196153D01*
X122698921Y-48216670D01*
X122684671Y-48235883D01*
X122668607Y-48253607D01*
X122650883Y-48269671D01*
X122631670Y-48283921D01*
X122611153Y-48296218D01*
X122589529Y-48306446D01*
X122567007Y-48314504D01*
X122543803Y-48320316D01*
X122520142Y-48323826D01*
X122496250Y-48325000D01*
X122008750Y-48325000D01*
X121984858Y-48323826D01*
X121961197Y-48320316D01*
X121937993Y-48314504D01*
X121915471Y-48306446D01*
X121893847Y-48296218D01*
X121873330Y-48283921D01*
X121854117Y-48269671D01*
X121836393Y-48253607D01*
X121820329Y-48235883D01*
X121806079Y-48216670D01*
X121793782Y-48196153D01*
X121783554Y-48174529D01*
X121775496Y-48152007D01*
X121769684Y-48128803D01*
X121766174Y-48105142D01*
X121765000Y-48081250D01*
X121765000Y-47168750D01*
X121766174Y-47144858D01*
X121769684Y-47121197D01*
X121775496Y-47097993D01*
X121783554Y-47075471D01*
X121793782Y-47053847D01*
X121806079Y-47033330D01*
X121820329Y-47014117D01*
X121836393Y-46996393D01*
X121854117Y-46980329D01*
X121873330Y-46966079D01*
X121893847Y-46953782D01*
X121915471Y-46943554D01*
X121937993Y-46935496D01*
X121961197Y-46929684D01*
X121984858Y-46926174D01*
X122008750Y-46925000D01*
X122496250Y-46925000D01*
X122520142Y-46926174D01*
X122520142Y-46926174D01*
G37*
D11*
X122252500Y-47625000D03*
D10*
G36*
X124395142Y-46926174D02*
X124418803Y-46929684D01*
X124442007Y-46935496D01*
X124464529Y-46943554D01*
X124486153Y-46953782D01*
X124506670Y-46966079D01*
X124525883Y-46980329D01*
X124543607Y-46996393D01*
X124559671Y-47014117D01*
X124573921Y-47033330D01*
X124586218Y-47053847D01*
X124596446Y-47075471D01*
X124604504Y-47097993D01*
X124610316Y-47121197D01*
X124613826Y-47144858D01*
X124615000Y-47168750D01*
X124615000Y-48081250D01*
X124613826Y-48105142D01*
X124610316Y-48128803D01*
X124604504Y-48152007D01*
X124596446Y-48174529D01*
X124586218Y-48196153D01*
X124573921Y-48216670D01*
X124559671Y-48235883D01*
X124543607Y-48253607D01*
X124525883Y-48269671D01*
X124506670Y-48283921D01*
X124486153Y-48296218D01*
X124464529Y-48306446D01*
X124442007Y-48314504D01*
X124418803Y-48320316D01*
X124395142Y-48323826D01*
X124371250Y-48325000D01*
X123883750Y-48325000D01*
X123859858Y-48323826D01*
X123836197Y-48320316D01*
X123812993Y-48314504D01*
X123790471Y-48306446D01*
X123768847Y-48296218D01*
X123748330Y-48283921D01*
X123729117Y-48269671D01*
X123711393Y-48253607D01*
X123695329Y-48235883D01*
X123681079Y-48216670D01*
X123668782Y-48196153D01*
X123658554Y-48174529D01*
X123650496Y-48152007D01*
X123644684Y-48128803D01*
X123641174Y-48105142D01*
X123640000Y-48081250D01*
X123640000Y-47168750D01*
X123641174Y-47144858D01*
X123644684Y-47121197D01*
X123650496Y-47097993D01*
X123658554Y-47075471D01*
X123668782Y-47053847D01*
X123681079Y-47033330D01*
X123695329Y-47014117D01*
X123711393Y-46996393D01*
X123729117Y-46980329D01*
X123748330Y-46966079D01*
X123768847Y-46953782D01*
X123790471Y-46943554D01*
X123812993Y-46935496D01*
X123836197Y-46929684D01*
X123859858Y-46926174D01*
X123883750Y-46925000D01*
X124371250Y-46925000D01*
X124395142Y-46926174D01*
X124395142Y-46926174D01*
G37*
D11*
X124127500Y-47625000D03*
G04 #@! TD*
D10*
G04 #@! TO.C,R25*
G36*
X124395142Y-45021174D02*
X124418803Y-45024684D01*
X124442007Y-45030496D01*
X124464529Y-45038554D01*
X124486153Y-45048782D01*
X124506670Y-45061079D01*
X124525883Y-45075329D01*
X124543607Y-45091393D01*
X124559671Y-45109117D01*
X124573921Y-45128330D01*
X124586218Y-45148847D01*
X124596446Y-45170471D01*
X124604504Y-45192993D01*
X124610316Y-45216197D01*
X124613826Y-45239858D01*
X124615000Y-45263750D01*
X124615000Y-46176250D01*
X124613826Y-46200142D01*
X124610316Y-46223803D01*
X124604504Y-46247007D01*
X124596446Y-46269529D01*
X124586218Y-46291153D01*
X124573921Y-46311670D01*
X124559671Y-46330883D01*
X124543607Y-46348607D01*
X124525883Y-46364671D01*
X124506670Y-46378921D01*
X124486153Y-46391218D01*
X124464529Y-46401446D01*
X124442007Y-46409504D01*
X124418803Y-46415316D01*
X124395142Y-46418826D01*
X124371250Y-46420000D01*
X123883750Y-46420000D01*
X123859858Y-46418826D01*
X123836197Y-46415316D01*
X123812993Y-46409504D01*
X123790471Y-46401446D01*
X123768847Y-46391218D01*
X123748330Y-46378921D01*
X123729117Y-46364671D01*
X123711393Y-46348607D01*
X123695329Y-46330883D01*
X123681079Y-46311670D01*
X123668782Y-46291153D01*
X123658554Y-46269529D01*
X123650496Y-46247007D01*
X123644684Y-46223803D01*
X123641174Y-46200142D01*
X123640000Y-46176250D01*
X123640000Y-45263750D01*
X123641174Y-45239858D01*
X123644684Y-45216197D01*
X123650496Y-45192993D01*
X123658554Y-45170471D01*
X123668782Y-45148847D01*
X123681079Y-45128330D01*
X123695329Y-45109117D01*
X123711393Y-45091393D01*
X123729117Y-45075329D01*
X123748330Y-45061079D01*
X123768847Y-45048782D01*
X123790471Y-45038554D01*
X123812993Y-45030496D01*
X123836197Y-45024684D01*
X123859858Y-45021174D01*
X123883750Y-45020000D01*
X124371250Y-45020000D01*
X124395142Y-45021174D01*
X124395142Y-45021174D01*
G37*
D11*
X124127500Y-45720000D03*
D10*
G36*
X122520142Y-45021174D02*
X122543803Y-45024684D01*
X122567007Y-45030496D01*
X122589529Y-45038554D01*
X122611153Y-45048782D01*
X122631670Y-45061079D01*
X122650883Y-45075329D01*
X122668607Y-45091393D01*
X122684671Y-45109117D01*
X122698921Y-45128330D01*
X122711218Y-45148847D01*
X122721446Y-45170471D01*
X122729504Y-45192993D01*
X122735316Y-45216197D01*
X122738826Y-45239858D01*
X122740000Y-45263750D01*
X122740000Y-46176250D01*
X122738826Y-46200142D01*
X122735316Y-46223803D01*
X122729504Y-46247007D01*
X122721446Y-46269529D01*
X122711218Y-46291153D01*
X122698921Y-46311670D01*
X122684671Y-46330883D01*
X122668607Y-46348607D01*
X122650883Y-46364671D01*
X122631670Y-46378921D01*
X122611153Y-46391218D01*
X122589529Y-46401446D01*
X122567007Y-46409504D01*
X122543803Y-46415316D01*
X122520142Y-46418826D01*
X122496250Y-46420000D01*
X122008750Y-46420000D01*
X121984858Y-46418826D01*
X121961197Y-46415316D01*
X121937993Y-46409504D01*
X121915471Y-46401446D01*
X121893847Y-46391218D01*
X121873330Y-46378921D01*
X121854117Y-46364671D01*
X121836393Y-46348607D01*
X121820329Y-46330883D01*
X121806079Y-46311670D01*
X121793782Y-46291153D01*
X121783554Y-46269529D01*
X121775496Y-46247007D01*
X121769684Y-46223803D01*
X121766174Y-46200142D01*
X121765000Y-46176250D01*
X121765000Y-45263750D01*
X121766174Y-45239858D01*
X121769684Y-45216197D01*
X121775496Y-45192993D01*
X121783554Y-45170471D01*
X121793782Y-45148847D01*
X121806079Y-45128330D01*
X121820329Y-45109117D01*
X121836393Y-45091393D01*
X121854117Y-45075329D01*
X121873330Y-45061079D01*
X121893847Y-45048782D01*
X121915471Y-45038554D01*
X121937993Y-45030496D01*
X121961197Y-45024684D01*
X121984858Y-45021174D01*
X122008750Y-45020000D01*
X122496250Y-45020000D01*
X122520142Y-45021174D01*
X122520142Y-45021174D01*
G37*
D11*
X122252500Y-45720000D03*
G04 #@! TD*
D10*
G04 #@! TO.C,R26*
G36*
X122520142Y-43116174D02*
X122543803Y-43119684D01*
X122567007Y-43125496D01*
X122589529Y-43133554D01*
X122611153Y-43143782D01*
X122631670Y-43156079D01*
X122650883Y-43170329D01*
X122668607Y-43186393D01*
X122684671Y-43204117D01*
X122698921Y-43223330D01*
X122711218Y-43243847D01*
X122721446Y-43265471D01*
X122729504Y-43287993D01*
X122735316Y-43311197D01*
X122738826Y-43334858D01*
X122740000Y-43358750D01*
X122740000Y-44271250D01*
X122738826Y-44295142D01*
X122735316Y-44318803D01*
X122729504Y-44342007D01*
X122721446Y-44364529D01*
X122711218Y-44386153D01*
X122698921Y-44406670D01*
X122684671Y-44425883D01*
X122668607Y-44443607D01*
X122650883Y-44459671D01*
X122631670Y-44473921D01*
X122611153Y-44486218D01*
X122589529Y-44496446D01*
X122567007Y-44504504D01*
X122543803Y-44510316D01*
X122520142Y-44513826D01*
X122496250Y-44515000D01*
X122008750Y-44515000D01*
X121984858Y-44513826D01*
X121961197Y-44510316D01*
X121937993Y-44504504D01*
X121915471Y-44496446D01*
X121893847Y-44486218D01*
X121873330Y-44473921D01*
X121854117Y-44459671D01*
X121836393Y-44443607D01*
X121820329Y-44425883D01*
X121806079Y-44406670D01*
X121793782Y-44386153D01*
X121783554Y-44364529D01*
X121775496Y-44342007D01*
X121769684Y-44318803D01*
X121766174Y-44295142D01*
X121765000Y-44271250D01*
X121765000Y-43358750D01*
X121766174Y-43334858D01*
X121769684Y-43311197D01*
X121775496Y-43287993D01*
X121783554Y-43265471D01*
X121793782Y-43243847D01*
X121806079Y-43223330D01*
X121820329Y-43204117D01*
X121836393Y-43186393D01*
X121854117Y-43170329D01*
X121873330Y-43156079D01*
X121893847Y-43143782D01*
X121915471Y-43133554D01*
X121937993Y-43125496D01*
X121961197Y-43119684D01*
X121984858Y-43116174D01*
X122008750Y-43115000D01*
X122496250Y-43115000D01*
X122520142Y-43116174D01*
X122520142Y-43116174D01*
G37*
D11*
X122252500Y-43815000D03*
D10*
G36*
X124395142Y-43116174D02*
X124418803Y-43119684D01*
X124442007Y-43125496D01*
X124464529Y-43133554D01*
X124486153Y-43143782D01*
X124506670Y-43156079D01*
X124525883Y-43170329D01*
X124543607Y-43186393D01*
X124559671Y-43204117D01*
X124573921Y-43223330D01*
X124586218Y-43243847D01*
X124596446Y-43265471D01*
X124604504Y-43287993D01*
X124610316Y-43311197D01*
X124613826Y-43334858D01*
X124615000Y-43358750D01*
X124615000Y-44271250D01*
X124613826Y-44295142D01*
X124610316Y-44318803D01*
X124604504Y-44342007D01*
X124596446Y-44364529D01*
X124586218Y-44386153D01*
X124573921Y-44406670D01*
X124559671Y-44425883D01*
X124543607Y-44443607D01*
X124525883Y-44459671D01*
X124506670Y-44473921D01*
X124486153Y-44486218D01*
X124464529Y-44496446D01*
X124442007Y-44504504D01*
X124418803Y-44510316D01*
X124395142Y-44513826D01*
X124371250Y-44515000D01*
X123883750Y-44515000D01*
X123859858Y-44513826D01*
X123836197Y-44510316D01*
X123812993Y-44504504D01*
X123790471Y-44496446D01*
X123768847Y-44486218D01*
X123748330Y-44473921D01*
X123729117Y-44459671D01*
X123711393Y-44443607D01*
X123695329Y-44425883D01*
X123681079Y-44406670D01*
X123668782Y-44386153D01*
X123658554Y-44364529D01*
X123650496Y-44342007D01*
X123644684Y-44318803D01*
X123641174Y-44295142D01*
X123640000Y-44271250D01*
X123640000Y-43358750D01*
X123641174Y-43334858D01*
X123644684Y-43311197D01*
X123650496Y-43287993D01*
X123658554Y-43265471D01*
X123668782Y-43243847D01*
X123681079Y-43223330D01*
X123695329Y-43204117D01*
X123711393Y-43186393D01*
X123729117Y-43170329D01*
X123748330Y-43156079D01*
X123768847Y-43143782D01*
X123790471Y-43133554D01*
X123812993Y-43125496D01*
X123836197Y-43119684D01*
X123859858Y-43116174D01*
X123883750Y-43115000D01*
X124371250Y-43115000D01*
X124395142Y-43116174D01*
X124395142Y-43116174D01*
G37*
D11*
X124127500Y-43815000D03*
G04 #@! TD*
D10*
G04 #@! TO.C,R27*
G36*
X109155142Y-40576174D02*
X109178803Y-40579684D01*
X109202007Y-40585496D01*
X109224529Y-40593554D01*
X109246153Y-40603782D01*
X109266670Y-40616079D01*
X109285883Y-40630329D01*
X109303607Y-40646393D01*
X109319671Y-40664117D01*
X109333921Y-40683330D01*
X109346218Y-40703847D01*
X109356446Y-40725471D01*
X109364504Y-40747993D01*
X109370316Y-40771197D01*
X109373826Y-40794858D01*
X109375000Y-40818750D01*
X109375000Y-41731250D01*
X109373826Y-41755142D01*
X109370316Y-41778803D01*
X109364504Y-41802007D01*
X109356446Y-41824529D01*
X109346218Y-41846153D01*
X109333921Y-41866670D01*
X109319671Y-41885883D01*
X109303607Y-41903607D01*
X109285883Y-41919671D01*
X109266670Y-41933921D01*
X109246153Y-41946218D01*
X109224529Y-41956446D01*
X109202007Y-41964504D01*
X109178803Y-41970316D01*
X109155142Y-41973826D01*
X109131250Y-41975000D01*
X108643750Y-41975000D01*
X108619858Y-41973826D01*
X108596197Y-41970316D01*
X108572993Y-41964504D01*
X108550471Y-41956446D01*
X108528847Y-41946218D01*
X108508330Y-41933921D01*
X108489117Y-41919671D01*
X108471393Y-41903607D01*
X108455329Y-41885883D01*
X108441079Y-41866670D01*
X108428782Y-41846153D01*
X108418554Y-41824529D01*
X108410496Y-41802007D01*
X108404684Y-41778803D01*
X108401174Y-41755142D01*
X108400000Y-41731250D01*
X108400000Y-40818750D01*
X108401174Y-40794858D01*
X108404684Y-40771197D01*
X108410496Y-40747993D01*
X108418554Y-40725471D01*
X108428782Y-40703847D01*
X108441079Y-40683330D01*
X108455329Y-40664117D01*
X108471393Y-40646393D01*
X108489117Y-40630329D01*
X108508330Y-40616079D01*
X108528847Y-40603782D01*
X108550471Y-40593554D01*
X108572993Y-40585496D01*
X108596197Y-40579684D01*
X108619858Y-40576174D01*
X108643750Y-40575000D01*
X109131250Y-40575000D01*
X109155142Y-40576174D01*
X109155142Y-40576174D01*
G37*
D11*
X108887500Y-41275000D03*
D10*
G36*
X107280142Y-40576174D02*
X107303803Y-40579684D01*
X107327007Y-40585496D01*
X107349529Y-40593554D01*
X107371153Y-40603782D01*
X107391670Y-40616079D01*
X107410883Y-40630329D01*
X107428607Y-40646393D01*
X107444671Y-40664117D01*
X107458921Y-40683330D01*
X107471218Y-40703847D01*
X107481446Y-40725471D01*
X107489504Y-40747993D01*
X107495316Y-40771197D01*
X107498826Y-40794858D01*
X107500000Y-40818750D01*
X107500000Y-41731250D01*
X107498826Y-41755142D01*
X107495316Y-41778803D01*
X107489504Y-41802007D01*
X107481446Y-41824529D01*
X107471218Y-41846153D01*
X107458921Y-41866670D01*
X107444671Y-41885883D01*
X107428607Y-41903607D01*
X107410883Y-41919671D01*
X107391670Y-41933921D01*
X107371153Y-41946218D01*
X107349529Y-41956446D01*
X107327007Y-41964504D01*
X107303803Y-41970316D01*
X107280142Y-41973826D01*
X107256250Y-41975000D01*
X106768750Y-41975000D01*
X106744858Y-41973826D01*
X106721197Y-41970316D01*
X106697993Y-41964504D01*
X106675471Y-41956446D01*
X106653847Y-41946218D01*
X106633330Y-41933921D01*
X106614117Y-41919671D01*
X106596393Y-41903607D01*
X106580329Y-41885883D01*
X106566079Y-41866670D01*
X106553782Y-41846153D01*
X106543554Y-41824529D01*
X106535496Y-41802007D01*
X106529684Y-41778803D01*
X106526174Y-41755142D01*
X106525000Y-41731250D01*
X106525000Y-40818750D01*
X106526174Y-40794858D01*
X106529684Y-40771197D01*
X106535496Y-40747993D01*
X106543554Y-40725471D01*
X106553782Y-40703847D01*
X106566079Y-40683330D01*
X106580329Y-40664117D01*
X106596393Y-40646393D01*
X106614117Y-40630329D01*
X106633330Y-40616079D01*
X106653847Y-40603782D01*
X106675471Y-40593554D01*
X106697993Y-40585496D01*
X106721197Y-40579684D01*
X106744858Y-40576174D01*
X106768750Y-40575000D01*
X107256250Y-40575000D01*
X107280142Y-40576174D01*
X107280142Y-40576174D01*
G37*
D11*
X107012500Y-41275000D03*
G04 #@! TD*
D10*
G04 #@! TO.C,R28*
G36*
X109155142Y-72961174D02*
X109178803Y-72964684D01*
X109202007Y-72970496D01*
X109224529Y-72978554D01*
X109246153Y-72988782D01*
X109266670Y-73001079D01*
X109285883Y-73015329D01*
X109303607Y-73031393D01*
X109319671Y-73049117D01*
X109333921Y-73068330D01*
X109346218Y-73088847D01*
X109356446Y-73110471D01*
X109364504Y-73132993D01*
X109370316Y-73156197D01*
X109373826Y-73179858D01*
X109375000Y-73203750D01*
X109375000Y-74116250D01*
X109373826Y-74140142D01*
X109370316Y-74163803D01*
X109364504Y-74187007D01*
X109356446Y-74209529D01*
X109346218Y-74231153D01*
X109333921Y-74251670D01*
X109319671Y-74270883D01*
X109303607Y-74288607D01*
X109285883Y-74304671D01*
X109266670Y-74318921D01*
X109246153Y-74331218D01*
X109224529Y-74341446D01*
X109202007Y-74349504D01*
X109178803Y-74355316D01*
X109155142Y-74358826D01*
X109131250Y-74360000D01*
X108643750Y-74360000D01*
X108619858Y-74358826D01*
X108596197Y-74355316D01*
X108572993Y-74349504D01*
X108550471Y-74341446D01*
X108528847Y-74331218D01*
X108508330Y-74318921D01*
X108489117Y-74304671D01*
X108471393Y-74288607D01*
X108455329Y-74270883D01*
X108441079Y-74251670D01*
X108428782Y-74231153D01*
X108418554Y-74209529D01*
X108410496Y-74187007D01*
X108404684Y-74163803D01*
X108401174Y-74140142D01*
X108400000Y-74116250D01*
X108400000Y-73203750D01*
X108401174Y-73179858D01*
X108404684Y-73156197D01*
X108410496Y-73132993D01*
X108418554Y-73110471D01*
X108428782Y-73088847D01*
X108441079Y-73068330D01*
X108455329Y-73049117D01*
X108471393Y-73031393D01*
X108489117Y-73015329D01*
X108508330Y-73001079D01*
X108528847Y-72988782D01*
X108550471Y-72978554D01*
X108572993Y-72970496D01*
X108596197Y-72964684D01*
X108619858Y-72961174D01*
X108643750Y-72960000D01*
X109131250Y-72960000D01*
X109155142Y-72961174D01*
X109155142Y-72961174D01*
G37*
D11*
X108887500Y-73660000D03*
D10*
G36*
X107280142Y-72961174D02*
X107303803Y-72964684D01*
X107327007Y-72970496D01*
X107349529Y-72978554D01*
X107371153Y-72988782D01*
X107391670Y-73001079D01*
X107410883Y-73015329D01*
X107428607Y-73031393D01*
X107444671Y-73049117D01*
X107458921Y-73068330D01*
X107471218Y-73088847D01*
X107481446Y-73110471D01*
X107489504Y-73132993D01*
X107495316Y-73156197D01*
X107498826Y-73179858D01*
X107500000Y-73203750D01*
X107500000Y-74116250D01*
X107498826Y-74140142D01*
X107495316Y-74163803D01*
X107489504Y-74187007D01*
X107481446Y-74209529D01*
X107471218Y-74231153D01*
X107458921Y-74251670D01*
X107444671Y-74270883D01*
X107428607Y-74288607D01*
X107410883Y-74304671D01*
X107391670Y-74318921D01*
X107371153Y-74331218D01*
X107349529Y-74341446D01*
X107327007Y-74349504D01*
X107303803Y-74355316D01*
X107280142Y-74358826D01*
X107256250Y-74360000D01*
X106768750Y-74360000D01*
X106744858Y-74358826D01*
X106721197Y-74355316D01*
X106697993Y-74349504D01*
X106675471Y-74341446D01*
X106653847Y-74331218D01*
X106633330Y-74318921D01*
X106614117Y-74304671D01*
X106596393Y-74288607D01*
X106580329Y-74270883D01*
X106566079Y-74251670D01*
X106553782Y-74231153D01*
X106543554Y-74209529D01*
X106535496Y-74187007D01*
X106529684Y-74163803D01*
X106526174Y-74140142D01*
X106525000Y-74116250D01*
X106525000Y-73203750D01*
X106526174Y-73179858D01*
X106529684Y-73156197D01*
X106535496Y-73132993D01*
X106543554Y-73110471D01*
X106553782Y-73088847D01*
X106566079Y-73068330D01*
X106580329Y-73049117D01*
X106596393Y-73031393D01*
X106614117Y-73015329D01*
X106633330Y-73001079D01*
X106653847Y-72988782D01*
X106675471Y-72978554D01*
X106697993Y-72970496D01*
X106721197Y-72964684D01*
X106744858Y-72961174D01*
X106768750Y-72960000D01*
X107256250Y-72960000D01*
X107280142Y-72961174D01*
X107280142Y-72961174D01*
G37*
D11*
X107012500Y-73660000D03*
G04 #@! TD*
D10*
G04 #@! TO.C,R29*
G36*
X122520142Y-79311174D02*
X122543803Y-79314684D01*
X122567007Y-79320496D01*
X122589529Y-79328554D01*
X122611153Y-79338782D01*
X122631670Y-79351079D01*
X122650883Y-79365329D01*
X122668607Y-79381393D01*
X122684671Y-79399117D01*
X122698921Y-79418330D01*
X122711218Y-79438847D01*
X122721446Y-79460471D01*
X122729504Y-79482993D01*
X122735316Y-79506197D01*
X122738826Y-79529858D01*
X122740000Y-79553750D01*
X122740000Y-80466250D01*
X122738826Y-80490142D01*
X122735316Y-80513803D01*
X122729504Y-80537007D01*
X122721446Y-80559529D01*
X122711218Y-80581153D01*
X122698921Y-80601670D01*
X122684671Y-80620883D01*
X122668607Y-80638607D01*
X122650883Y-80654671D01*
X122631670Y-80668921D01*
X122611153Y-80681218D01*
X122589529Y-80691446D01*
X122567007Y-80699504D01*
X122543803Y-80705316D01*
X122520142Y-80708826D01*
X122496250Y-80710000D01*
X122008750Y-80710000D01*
X121984858Y-80708826D01*
X121961197Y-80705316D01*
X121937993Y-80699504D01*
X121915471Y-80691446D01*
X121893847Y-80681218D01*
X121873330Y-80668921D01*
X121854117Y-80654671D01*
X121836393Y-80638607D01*
X121820329Y-80620883D01*
X121806079Y-80601670D01*
X121793782Y-80581153D01*
X121783554Y-80559529D01*
X121775496Y-80537007D01*
X121769684Y-80513803D01*
X121766174Y-80490142D01*
X121765000Y-80466250D01*
X121765000Y-79553750D01*
X121766174Y-79529858D01*
X121769684Y-79506197D01*
X121775496Y-79482993D01*
X121783554Y-79460471D01*
X121793782Y-79438847D01*
X121806079Y-79418330D01*
X121820329Y-79399117D01*
X121836393Y-79381393D01*
X121854117Y-79365329D01*
X121873330Y-79351079D01*
X121893847Y-79338782D01*
X121915471Y-79328554D01*
X121937993Y-79320496D01*
X121961197Y-79314684D01*
X121984858Y-79311174D01*
X122008750Y-79310000D01*
X122496250Y-79310000D01*
X122520142Y-79311174D01*
X122520142Y-79311174D01*
G37*
D11*
X122252500Y-80010000D03*
D10*
G36*
X124395142Y-79311174D02*
X124418803Y-79314684D01*
X124442007Y-79320496D01*
X124464529Y-79328554D01*
X124486153Y-79338782D01*
X124506670Y-79351079D01*
X124525883Y-79365329D01*
X124543607Y-79381393D01*
X124559671Y-79399117D01*
X124573921Y-79418330D01*
X124586218Y-79438847D01*
X124596446Y-79460471D01*
X124604504Y-79482993D01*
X124610316Y-79506197D01*
X124613826Y-79529858D01*
X124615000Y-79553750D01*
X124615000Y-80466250D01*
X124613826Y-80490142D01*
X124610316Y-80513803D01*
X124604504Y-80537007D01*
X124596446Y-80559529D01*
X124586218Y-80581153D01*
X124573921Y-80601670D01*
X124559671Y-80620883D01*
X124543607Y-80638607D01*
X124525883Y-80654671D01*
X124506670Y-80668921D01*
X124486153Y-80681218D01*
X124464529Y-80691446D01*
X124442007Y-80699504D01*
X124418803Y-80705316D01*
X124395142Y-80708826D01*
X124371250Y-80710000D01*
X123883750Y-80710000D01*
X123859858Y-80708826D01*
X123836197Y-80705316D01*
X123812993Y-80699504D01*
X123790471Y-80691446D01*
X123768847Y-80681218D01*
X123748330Y-80668921D01*
X123729117Y-80654671D01*
X123711393Y-80638607D01*
X123695329Y-80620883D01*
X123681079Y-80601670D01*
X123668782Y-80581153D01*
X123658554Y-80559529D01*
X123650496Y-80537007D01*
X123644684Y-80513803D01*
X123641174Y-80490142D01*
X123640000Y-80466250D01*
X123640000Y-79553750D01*
X123641174Y-79529858D01*
X123644684Y-79506197D01*
X123650496Y-79482993D01*
X123658554Y-79460471D01*
X123668782Y-79438847D01*
X123681079Y-79418330D01*
X123695329Y-79399117D01*
X123711393Y-79381393D01*
X123729117Y-79365329D01*
X123748330Y-79351079D01*
X123768847Y-79338782D01*
X123790471Y-79328554D01*
X123812993Y-79320496D01*
X123836197Y-79314684D01*
X123859858Y-79311174D01*
X123883750Y-79310000D01*
X124371250Y-79310000D01*
X124395142Y-79311174D01*
X124395142Y-79311174D01*
G37*
D11*
X124127500Y-80010000D03*
G04 #@! TD*
D10*
G04 #@! TO.C,R30*
G36*
X109155142Y-57721174D02*
X109178803Y-57724684D01*
X109202007Y-57730496D01*
X109224529Y-57738554D01*
X109246153Y-57748782D01*
X109266670Y-57761079D01*
X109285883Y-57775329D01*
X109303607Y-57791393D01*
X109319671Y-57809117D01*
X109333921Y-57828330D01*
X109346218Y-57848847D01*
X109356446Y-57870471D01*
X109364504Y-57892993D01*
X109370316Y-57916197D01*
X109373826Y-57939858D01*
X109375000Y-57963750D01*
X109375000Y-58876250D01*
X109373826Y-58900142D01*
X109370316Y-58923803D01*
X109364504Y-58947007D01*
X109356446Y-58969529D01*
X109346218Y-58991153D01*
X109333921Y-59011670D01*
X109319671Y-59030883D01*
X109303607Y-59048607D01*
X109285883Y-59064671D01*
X109266670Y-59078921D01*
X109246153Y-59091218D01*
X109224529Y-59101446D01*
X109202007Y-59109504D01*
X109178803Y-59115316D01*
X109155142Y-59118826D01*
X109131250Y-59120000D01*
X108643750Y-59120000D01*
X108619858Y-59118826D01*
X108596197Y-59115316D01*
X108572993Y-59109504D01*
X108550471Y-59101446D01*
X108528847Y-59091218D01*
X108508330Y-59078921D01*
X108489117Y-59064671D01*
X108471393Y-59048607D01*
X108455329Y-59030883D01*
X108441079Y-59011670D01*
X108428782Y-58991153D01*
X108418554Y-58969529D01*
X108410496Y-58947007D01*
X108404684Y-58923803D01*
X108401174Y-58900142D01*
X108400000Y-58876250D01*
X108400000Y-57963750D01*
X108401174Y-57939858D01*
X108404684Y-57916197D01*
X108410496Y-57892993D01*
X108418554Y-57870471D01*
X108428782Y-57848847D01*
X108441079Y-57828330D01*
X108455329Y-57809117D01*
X108471393Y-57791393D01*
X108489117Y-57775329D01*
X108508330Y-57761079D01*
X108528847Y-57748782D01*
X108550471Y-57738554D01*
X108572993Y-57730496D01*
X108596197Y-57724684D01*
X108619858Y-57721174D01*
X108643750Y-57720000D01*
X109131250Y-57720000D01*
X109155142Y-57721174D01*
X109155142Y-57721174D01*
G37*
D11*
X108887500Y-58420000D03*
D10*
G36*
X107280142Y-57721174D02*
X107303803Y-57724684D01*
X107327007Y-57730496D01*
X107349529Y-57738554D01*
X107371153Y-57748782D01*
X107391670Y-57761079D01*
X107410883Y-57775329D01*
X107428607Y-57791393D01*
X107444671Y-57809117D01*
X107458921Y-57828330D01*
X107471218Y-57848847D01*
X107481446Y-57870471D01*
X107489504Y-57892993D01*
X107495316Y-57916197D01*
X107498826Y-57939858D01*
X107500000Y-57963750D01*
X107500000Y-58876250D01*
X107498826Y-58900142D01*
X107495316Y-58923803D01*
X107489504Y-58947007D01*
X107481446Y-58969529D01*
X107471218Y-58991153D01*
X107458921Y-59011670D01*
X107444671Y-59030883D01*
X107428607Y-59048607D01*
X107410883Y-59064671D01*
X107391670Y-59078921D01*
X107371153Y-59091218D01*
X107349529Y-59101446D01*
X107327007Y-59109504D01*
X107303803Y-59115316D01*
X107280142Y-59118826D01*
X107256250Y-59120000D01*
X106768750Y-59120000D01*
X106744858Y-59118826D01*
X106721197Y-59115316D01*
X106697993Y-59109504D01*
X106675471Y-59101446D01*
X106653847Y-59091218D01*
X106633330Y-59078921D01*
X106614117Y-59064671D01*
X106596393Y-59048607D01*
X106580329Y-59030883D01*
X106566079Y-59011670D01*
X106553782Y-58991153D01*
X106543554Y-58969529D01*
X106535496Y-58947007D01*
X106529684Y-58923803D01*
X106526174Y-58900142D01*
X106525000Y-58876250D01*
X106525000Y-57963750D01*
X106526174Y-57939858D01*
X106529684Y-57916197D01*
X106535496Y-57892993D01*
X106543554Y-57870471D01*
X106553782Y-57848847D01*
X106566079Y-57828330D01*
X106580329Y-57809117D01*
X106596393Y-57791393D01*
X106614117Y-57775329D01*
X106633330Y-57761079D01*
X106653847Y-57748782D01*
X106675471Y-57738554D01*
X106697993Y-57730496D01*
X106721197Y-57724684D01*
X106744858Y-57721174D01*
X106768750Y-57720000D01*
X107256250Y-57720000D01*
X107280142Y-57721174D01*
X107280142Y-57721174D01*
G37*
D11*
X107012500Y-58420000D03*
G04 #@! TD*
D10*
G04 #@! TO.C,R31*
G36*
X124395142Y-64071174D02*
X124418803Y-64074684D01*
X124442007Y-64080496D01*
X124464529Y-64088554D01*
X124486153Y-64098782D01*
X124506670Y-64111079D01*
X124525883Y-64125329D01*
X124543607Y-64141393D01*
X124559671Y-64159117D01*
X124573921Y-64178330D01*
X124586218Y-64198847D01*
X124596446Y-64220471D01*
X124604504Y-64242993D01*
X124610316Y-64266197D01*
X124613826Y-64289858D01*
X124615000Y-64313750D01*
X124615000Y-65226250D01*
X124613826Y-65250142D01*
X124610316Y-65273803D01*
X124604504Y-65297007D01*
X124596446Y-65319529D01*
X124586218Y-65341153D01*
X124573921Y-65361670D01*
X124559671Y-65380883D01*
X124543607Y-65398607D01*
X124525883Y-65414671D01*
X124506670Y-65428921D01*
X124486153Y-65441218D01*
X124464529Y-65451446D01*
X124442007Y-65459504D01*
X124418803Y-65465316D01*
X124395142Y-65468826D01*
X124371250Y-65470000D01*
X123883750Y-65470000D01*
X123859858Y-65468826D01*
X123836197Y-65465316D01*
X123812993Y-65459504D01*
X123790471Y-65451446D01*
X123768847Y-65441218D01*
X123748330Y-65428921D01*
X123729117Y-65414671D01*
X123711393Y-65398607D01*
X123695329Y-65380883D01*
X123681079Y-65361670D01*
X123668782Y-65341153D01*
X123658554Y-65319529D01*
X123650496Y-65297007D01*
X123644684Y-65273803D01*
X123641174Y-65250142D01*
X123640000Y-65226250D01*
X123640000Y-64313750D01*
X123641174Y-64289858D01*
X123644684Y-64266197D01*
X123650496Y-64242993D01*
X123658554Y-64220471D01*
X123668782Y-64198847D01*
X123681079Y-64178330D01*
X123695329Y-64159117D01*
X123711393Y-64141393D01*
X123729117Y-64125329D01*
X123748330Y-64111079D01*
X123768847Y-64098782D01*
X123790471Y-64088554D01*
X123812993Y-64080496D01*
X123836197Y-64074684D01*
X123859858Y-64071174D01*
X123883750Y-64070000D01*
X124371250Y-64070000D01*
X124395142Y-64071174D01*
X124395142Y-64071174D01*
G37*
D11*
X124127500Y-64770000D03*
D10*
G36*
X122520142Y-64071174D02*
X122543803Y-64074684D01*
X122567007Y-64080496D01*
X122589529Y-64088554D01*
X122611153Y-64098782D01*
X122631670Y-64111079D01*
X122650883Y-64125329D01*
X122668607Y-64141393D01*
X122684671Y-64159117D01*
X122698921Y-64178330D01*
X122711218Y-64198847D01*
X122721446Y-64220471D01*
X122729504Y-64242993D01*
X122735316Y-64266197D01*
X122738826Y-64289858D01*
X122740000Y-64313750D01*
X122740000Y-65226250D01*
X122738826Y-65250142D01*
X122735316Y-65273803D01*
X122729504Y-65297007D01*
X122721446Y-65319529D01*
X122711218Y-65341153D01*
X122698921Y-65361670D01*
X122684671Y-65380883D01*
X122668607Y-65398607D01*
X122650883Y-65414671D01*
X122631670Y-65428921D01*
X122611153Y-65441218D01*
X122589529Y-65451446D01*
X122567007Y-65459504D01*
X122543803Y-65465316D01*
X122520142Y-65468826D01*
X122496250Y-65470000D01*
X122008750Y-65470000D01*
X121984858Y-65468826D01*
X121961197Y-65465316D01*
X121937993Y-65459504D01*
X121915471Y-65451446D01*
X121893847Y-65441218D01*
X121873330Y-65428921D01*
X121854117Y-65414671D01*
X121836393Y-65398607D01*
X121820329Y-65380883D01*
X121806079Y-65361670D01*
X121793782Y-65341153D01*
X121783554Y-65319529D01*
X121775496Y-65297007D01*
X121769684Y-65273803D01*
X121766174Y-65250142D01*
X121765000Y-65226250D01*
X121765000Y-64313750D01*
X121766174Y-64289858D01*
X121769684Y-64266197D01*
X121775496Y-64242993D01*
X121783554Y-64220471D01*
X121793782Y-64198847D01*
X121806079Y-64178330D01*
X121820329Y-64159117D01*
X121836393Y-64141393D01*
X121854117Y-64125329D01*
X121873330Y-64111079D01*
X121893847Y-64098782D01*
X121915471Y-64088554D01*
X121937993Y-64080496D01*
X121961197Y-64074684D01*
X121984858Y-64071174D01*
X122008750Y-64070000D01*
X122496250Y-64070000D01*
X122520142Y-64071174D01*
X122520142Y-64071174D01*
G37*
D11*
X122252500Y-64770000D03*
G04 #@! TD*
D10*
G04 #@! TO.C,R32*
G36*
X109155142Y-42481174D02*
X109178803Y-42484684D01*
X109202007Y-42490496D01*
X109224529Y-42498554D01*
X109246153Y-42508782D01*
X109266670Y-42521079D01*
X109285883Y-42535329D01*
X109303607Y-42551393D01*
X109319671Y-42569117D01*
X109333921Y-42588330D01*
X109346218Y-42608847D01*
X109356446Y-42630471D01*
X109364504Y-42652993D01*
X109370316Y-42676197D01*
X109373826Y-42699858D01*
X109375000Y-42723750D01*
X109375000Y-43636250D01*
X109373826Y-43660142D01*
X109370316Y-43683803D01*
X109364504Y-43707007D01*
X109356446Y-43729529D01*
X109346218Y-43751153D01*
X109333921Y-43771670D01*
X109319671Y-43790883D01*
X109303607Y-43808607D01*
X109285883Y-43824671D01*
X109266670Y-43838921D01*
X109246153Y-43851218D01*
X109224529Y-43861446D01*
X109202007Y-43869504D01*
X109178803Y-43875316D01*
X109155142Y-43878826D01*
X109131250Y-43880000D01*
X108643750Y-43880000D01*
X108619858Y-43878826D01*
X108596197Y-43875316D01*
X108572993Y-43869504D01*
X108550471Y-43861446D01*
X108528847Y-43851218D01*
X108508330Y-43838921D01*
X108489117Y-43824671D01*
X108471393Y-43808607D01*
X108455329Y-43790883D01*
X108441079Y-43771670D01*
X108428782Y-43751153D01*
X108418554Y-43729529D01*
X108410496Y-43707007D01*
X108404684Y-43683803D01*
X108401174Y-43660142D01*
X108400000Y-43636250D01*
X108400000Y-42723750D01*
X108401174Y-42699858D01*
X108404684Y-42676197D01*
X108410496Y-42652993D01*
X108418554Y-42630471D01*
X108428782Y-42608847D01*
X108441079Y-42588330D01*
X108455329Y-42569117D01*
X108471393Y-42551393D01*
X108489117Y-42535329D01*
X108508330Y-42521079D01*
X108528847Y-42508782D01*
X108550471Y-42498554D01*
X108572993Y-42490496D01*
X108596197Y-42484684D01*
X108619858Y-42481174D01*
X108643750Y-42480000D01*
X109131250Y-42480000D01*
X109155142Y-42481174D01*
X109155142Y-42481174D01*
G37*
D11*
X108887500Y-43180000D03*
D10*
G36*
X107280142Y-42481174D02*
X107303803Y-42484684D01*
X107327007Y-42490496D01*
X107349529Y-42498554D01*
X107371153Y-42508782D01*
X107391670Y-42521079D01*
X107410883Y-42535329D01*
X107428607Y-42551393D01*
X107444671Y-42569117D01*
X107458921Y-42588330D01*
X107471218Y-42608847D01*
X107481446Y-42630471D01*
X107489504Y-42652993D01*
X107495316Y-42676197D01*
X107498826Y-42699858D01*
X107500000Y-42723750D01*
X107500000Y-43636250D01*
X107498826Y-43660142D01*
X107495316Y-43683803D01*
X107489504Y-43707007D01*
X107481446Y-43729529D01*
X107471218Y-43751153D01*
X107458921Y-43771670D01*
X107444671Y-43790883D01*
X107428607Y-43808607D01*
X107410883Y-43824671D01*
X107391670Y-43838921D01*
X107371153Y-43851218D01*
X107349529Y-43861446D01*
X107327007Y-43869504D01*
X107303803Y-43875316D01*
X107280142Y-43878826D01*
X107256250Y-43880000D01*
X106768750Y-43880000D01*
X106744858Y-43878826D01*
X106721197Y-43875316D01*
X106697993Y-43869504D01*
X106675471Y-43861446D01*
X106653847Y-43851218D01*
X106633330Y-43838921D01*
X106614117Y-43824671D01*
X106596393Y-43808607D01*
X106580329Y-43790883D01*
X106566079Y-43771670D01*
X106553782Y-43751153D01*
X106543554Y-43729529D01*
X106535496Y-43707007D01*
X106529684Y-43683803D01*
X106526174Y-43660142D01*
X106525000Y-43636250D01*
X106525000Y-42723750D01*
X106526174Y-42699858D01*
X106529684Y-42676197D01*
X106535496Y-42652993D01*
X106543554Y-42630471D01*
X106553782Y-42608847D01*
X106566079Y-42588330D01*
X106580329Y-42569117D01*
X106596393Y-42551393D01*
X106614117Y-42535329D01*
X106633330Y-42521079D01*
X106653847Y-42508782D01*
X106675471Y-42498554D01*
X106697993Y-42490496D01*
X106721197Y-42484684D01*
X106744858Y-42481174D01*
X106768750Y-42480000D01*
X107256250Y-42480000D01*
X107280142Y-42481174D01*
X107280142Y-42481174D01*
G37*
D11*
X107012500Y-43180000D03*
G04 #@! TD*
D10*
G04 #@! TO.C,R33*
G36*
X124395142Y-48831174D02*
X124418803Y-48834684D01*
X124442007Y-48840496D01*
X124464529Y-48848554D01*
X124486153Y-48858782D01*
X124506670Y-48871079D01*
X124525883Y-48885329D01*
X124543607Y-48901393D01*
X124559671Y-48919117D01*
X124573921Y-48938330D01*
X124586218Y-48958847D01*
X124596446Y-48980471D01*
X124604504Y-49002993D01*
X124610316Y-49026197D01*
X124613826Y-49049858D01*
X124615000Y-49073750D01*
X124615000Y-49986250D01*
X124613826Y-50010142D01*
X124610316Y-50033803D01*
X124604504Y-50057007D01*
X124596446Y-50079529D01*
X124586218Y-50101153D01*
X124573921Y-50121670D01*
X124559671Y-50140883D01*
X124543607Y-50158607D01*
X124525883Y-50174671D01*
X124506670Y-50188921D01*
X124486153Y-50201218D01*
X124464529Y-50211446D01*
X124442007Y-50219504D01*
X124418803Y-50225316D01*
X124395142Y-50228826D01*
X124371250Y-50230000D01*
X123883750Y-50230000D01*
X123859858Y-50228826D01*
X123836197Y-50225316D01*
X123812993Y-50219504D01*
X123790471Y-50211446D01*
X123768847Y-50201218D01*
X123748330Y-50188921D01*
X123729117Y-50174671D01*
X123711393Y-50158607D01*
X123695329Y-50140883D01*
X123681079Y-50121670D01*
X123668782Y-50101153D01*
X123658554Y-50079529D01*
X123650496Y-50057007D01*
X123644684Y-50033803D01*
X123641174Y-50010142D01*
X123640000Y-49986250D01*
X123640000Y-49073750D01*
X123641174Y-49049858D01*
X123644684Y-49026197D01*
X123650496Y-49002993D01*
X123658554Y-48980471D01*
X123668782Y-48958847D01*
X123681079Y-48938330D01*
X123695329Y-48919117D01*
X123711393Y-48901393D01*
X123729117Y-48885329D01*
X123748330Y-48871079D01*
X123768847Y-48858782D01*
X123790471Y-48848554D01*
X123812993Y-48840496D01*
X123836197Y-48834684D01*
X123859858Y-48831174D01*
X123883750Y-48830000D01*
X124371250Y-48830000D01*
X124395142Y-48831174D01*
X124395142Y-48831174D01*
G37*
D11*
X124127500Y-49530000D03*
D10*
G36*
X122520142Y-48831174D02*
X122543803Y-48834684D01*
X122567007Y-48840496D01*
X122589529Y-48848554D01*
X122611153Y-48858782D01*
X122631670Y-48871079D01*
X122650883Y-48885329D01*
X122668607Y-48901393D01*
X122684671Y-48919117D01*
X122698921Y-48938330D01*
X122711218Y-48958847D01*
X122721446Y-48980471D01*
X122729504Y-49002993D01*
X122735316Y-49026197D01*
X122738826Y-49049858D01*
X122740000Y-49073750D01*
X122740000Y-49986250D01*
X122738826Y-50010142D01*
X122735316Y-50033803D01*
X122729504Y-50057007D01*
X122721446Y-50079529D01*
X122711218Y-50101153D01*
X122698921Y-50121670D01*
X122684671Y-50140883D01*
X122668607Y-50158607D01*
X122650883Y-50174671D01*
X122631670Y-50188921D01*
X122611153Y-50201218D01*
X122589529Y-50211446D01*
X122567007Y-50219504D01*
X122543803Y-50225316D01*
X122520142Y-50228826D01*
X122496250Y-50230000D01*
X122008750Y-50230000D01*
X121984858Y-50228826D01*
X121961197Y-50225316D01*
X121937993Y-50219504D01*
X121915471Y-50211446D01*
X121893847Y-50201218D01*
X121873330Y-50188921D01*
X121854117Y-50174671D01*
X121836393Y-50158607D01*
X121820329Y-50140883D01*
X121806079Y-50121670D01*
X121793782Y-50101153D01*
X121783554Y-50079529D01*
X121775496Y-50057007D01*
X121769684Y-50033803D01*
X121766174Y-50010142D01*
X121765000Y-49986250D01*
X121765000Y-49073750D01*
X121766174Y-49049858D01*
X121769684Y-49026197D01*
X121775496Y-49002993D01*
X121783554Y-48980471D01*
X121793782Y-48958847D01*
X121806079Y-48938330D01*
X121820329Y-48919117D01*
X121836393Y-48901393D01*
X121854117Y-48885329D01*
X121873330Y-48871079D01*
X121893847Y-48858782D01*
X121915471Y-48848554D01*
X121937993Y-48840496D01*
X121961197Y-48834684D01*
X121984858Y-48831174D01*
X122008750Y-48830000D01*
X122496250Y-48830000D01*
X122520142Y-48831174D01*
X122520142Y-48831174D01*
G37*
D11*
X122252500Y-49530000D03*
G04 #@! TD*
D12*
G04 #@! TO.C,U1*
X117795000Y-72390000D03*
X117795000Y-73660000D03*
X117795000Y-74930000D03*
X117795000Y-76200000D03*
X117795000Y-77470000D03*
X117795000Y-78740000D03*
X117795000Y-80010000D03*
X117795000Y-81280000D03*
X112395000Y-81280000D03*
X112395000Y-80010000D03*
X112395000Y-78740000D03*
X112395000Y-77470000D03*
X112395000Y-76200000D03*
X112395000Y-74930000D03*
X112395000Y-73660000D03*
X112395000Y-72390000D03*
G04 #@! TD*
G04 #@! TO.C,U2*
X112395000Y-57150000D03*
X112395000Y-58420000D03*
X112395000Y-59690000D03*
X112395000Y-60960000D03*
X112395000Y-62230000D03*
X112395000Y-63500000D03*
X112395000Y-64770000D03*
X112395000Y-66040000D03*
X117795000Y-66040000D03*
X117795000Y-64770000D03*
X117795000Y-63500000D03*
X117795000Y-62230000D03*
X117795000Y-60960000D03*
X117795000Y-59690000D03*
X117795000Y-58420000D03*
X117795000Y-57150000D03*
G04 #@! TD*
G04 #@! TO.C,U3*
X112395000Y-41910000D03*
X112395000Y-43180000D03*
X112395000Y-44450000D03*
X112395000Y-45720000D03*
X112395000Y-46990000D03*
X112395000Y-48260000D03*
X112395000Y-49530000D03*
X112395000Y-50800000D03*
X117795000Y-50800000D03*
X117795000Y-49530000D03*
X117795000Y-48260000D03*
X117795000Y-46990000D03*
X117795000Y-45720000D03*
X117795000Y-44450000D03*
X117795000Y-43180000D03*
X117795000Y-41910000D03*
G04 #@! TD*
M02*
