G04 #@! TF.GenerationSoftware,KiCad,Pcbnew,(5.0.2)-1*
G04 #@! TF.CreationDate,2018-12-27T21:36:54-05:00*
G04 #@! TF.ProjectId,WarthoggitClone,57617274-686f-4676-9769-74436c6f6e65,rev?*
G04 #@! TF.SameCoordinates,Original*
G04 #@! TF.FileFunction,Legend,Top*
G04 #@! TF.FilePolarity,Positive*
%FSLAX46Y46*%
G04 Gerber Fmt 4.6, Leading zero omitted, Abs format (unit mm)*
G04 Created by KiCad (PCBNEW (5.0.2)-1) date 12/27/2018 9:36:54 PM*
%MOMM*%
%LPD*%
G01*
G04 APERTURE LIST*
%ADD10C,0.150000*%
%ADD11C,0.120000*%
G04 APERTURE END LIST*
D10*
X120856666Y-67873619D02*
X120904285Y-67826000D01*
X120999523Y-67778380D01*
X121237619Y-67778380D01*
X121332857Y-67826000D01*
X121380476Y-67873619D01*
X121428095Y-67968857D01*
X121428095Y-68064095D01*
X121380476Y-68206952D01*
X120809047Y-68778380D01*
X121428095Y-68778380D01*
X121856666Y-68683142D02*
X121904285Y-68730761D01*
X121856666Y-68778380D01*
X121809047Y-68730761D01*
X121856666Y-68683142D01*
X121856666Y-68778380D01*
X122809047Y-67778380D02*
X122332857Y-67778380D01*
X122285238Y-68254571D01*
X122332857Y-68206952D01*
X122428095Y-68159333D01*
X122666190Y-68159333D01*
X122761428Y-68206952D01*
X122809047Y-68254571D01*
X122856666Y-68349809D01*
X122856666Y-68587904D01*
X122809047Y-68683142D01*
X122761428Y-68730761D01*
X122666190Y-68778380D01*
X122428095Y-68778380D01*
X122332857Y-68730761D01*
X122285238Y-68683142D01*
X123285238Y-68778380D02*
X123285238Y-68111714D01*
X123285238Y-68206952D02*
X123332857Y-68159333D01*
X123428095Y-68111714D01*
X123570952Y-68111714D01*
X123666190Y-68159333D01*
X123713809Y-68254571D01*
X123713809Y-68778380D01*
X123713809Y-68254571D02*
X123761428Y-68159333D01*
X123856666Y-68111714D01*
X123999523Y-68111714D01*
X124094761Y-68159333D01*
X124142380Y-68254571D01*
X124142380Y-68778380D01*
X124618571Y-68778380D02*
X124618571Y-68111714D01*
X124618571Y-68206952D02*
X124666190Y-68159333D01*
X124761428Y-68111714D01*
X124904285Y-68111714D01*
X124999523Y-68159333D01*
X125047142Y-68254571D01*
X125047142Y-68778380D01*
X125047142Y-68254571D02*
X125094761Y-68159333D01*
X125190000Y-68111714D01*
X125332857Y-68111714D01*
X125428095Y-68159333D01*
X125475714Y-68254571D01*
X125475714Y-68778380D01*
D11*
G04 #@! TO.C,J2*
X129795000Y-51115000D02*
X126375000Y-51115000D01*
X126375000Y-51115000D02*
X126375000Y-55585000D01*
X126375000Y-55585000D02*
X129795000Y-55585000D01*
X129795000Y-55585000D02*
X129795000Y-51115000D01*
X126885000Y-53350000D02*
X126885000Y-51625000D01*
X126885000Y-51625000D02*
X127635000Y-51625000D01*
X127635000Y-51625000D02*
X127635000Y-51425000D01*
X127635000Y-51425000D02*
X128435000Y-51425000D01*
X128435000Y-51425000D02*
X128435000Y-51625000D01*
X128435000Y-51625000D02*
X129285000Y-51625000D01*
X129285000Y-51625000D02*
X129285000Y-53350000D01*
X126885000Y-53350000D02*
X126885000Y-55075000D01*
X126885000Y-55075000D02*
X127635000Y-55075000D01*
X127635000Y-55075000D02*
X127635000Y-55275000D01*
X127635000Y-55275000D02*
X128435000Y-55275000D01*
X128435000Y-55275000D02*
X128435000Y-55075000D01*
X128435000Y-55075000D02*
X129285000Y-55075000D01*
X129285000Y-55075000D02*
X129285000Y-53350000D01*
X126085000Y-50825000D02*
X127085000Y-50825000D01*
X126085000Y-50825000D02*
X126085000Y-51825000D01*
G04 #@! TO.C,J1*
X100685000Y-47630000D02*
X100685000Y-48630000D01*
X100685000Y-47630000D02*
X101685000Y-47630000D01*
X103885000Y-51880000D02*
X103885000Y-50155000D01*
X103035000Y-51880000D02*
X103885000Y-51880000D01*
X103035000Y-52080000D02*
X103035000Y-51880000D01*
X102235000Y-52080000D02*
X103035000Y-52080000D01*
X102235000Y-51880000D02*
X102235000Y-52080000D01*
X101485000Y-51880000D02*
X102235000Y-51880000D01*
X101485000Y-50155000D02*
X101485000Y-51880000D01*
X103885000Y-48430000D02*
X103885000Y-50155000D01*
X103035000Y-48430000D02*
X103885000Y-48430000D01*
X103035000Y-48230000D02*
X103035000Y-48430000D01*
X102235000Y-48230000D02*
X103035000Y-48230000D01*
X102235000Y-48430000D02*
X102235000Y-48230000D01*
X101485000Y-48430000D02*
X102235000Y-48430000D01*
X101485000Y-50155000D02*
X101485000Y-48430000D01*
X104395000Y-52390000D02*
X104395000Y-47920000D01*
X100975000Y-52390000D02*
X104395000Y-52390000D01*
X100975000Y-47920000D02*
X100975000Y-52390000D01*
X104395000Y-47920000D02*
X100975000Y-47920000D01*
G04 #@! TO.C,J3*
X104395000Y-42205000D02*
X100975000Y-42205000D01*
X100975000Y-42205000D02*
X100975000Y-46675000D01*
X100975000Y-46675000D02*
X104395000Y-46675000D01*
X104395000Y-46675000D02*
X104395000Y-42205000D01*
X101485000Y-44440000D02*
X101485000Y-42715000D01*
X101485000Y-42715000D02*
X102235000Y-42715000D01*
X102235000Y-42715000D02*
X102235000Y-42515000D01*
X102235000Y-42515000D02*
X103035000Y-42515000D01*
X103035000Y-42515000D02*
X103035000Y-42715000D01*
X103035000Y-42715000D02*
X103885000Y-42715000D01*
X103885000Y-42715000D02*
X103885000Y-44440000D01*
X101485000Y-44440000D02*
X101485000Y-46165000D01*
X101485000Y-46165000D02*
X102235000Y-46165000D01*
X102235000Y-46165000D02*
X102235000Y-46365000D01*
X102235000Y-46365000D02*
X103035000Y-46365000D01*
X103035000Y-46365000D02*
X103035000Y-46165000D01*
X103035000Y-46165000D02*
X103885000Y-46165000D01*
X103885000Y-46165000D02*
X103885000Y-44440000D01*
X100685000Y-41915000D02*
X101685000Y-41915000D01*
X100685000Y-41915000D02*
X100685000Y-42915000D01*
G04 #@! TO.C,J5*
X126085000Y-45110000D02*
X126085000Y-46110000D01*
X126085000Y-45110000D02*
X127085000Y-45110000D01*
X129285000Y-49360000D02*
X129285000Y-47635000D01*
X128435000Y-49360000D02*
X129285000Y-49360000D01*
X128435000Y-49560000D02*
X128435000Y-49360000D01*
X127635000Y-49560000D02*
X128435000Y-49560000D01*
X127635000Y-49360000D02*
X127635000Y-49560000D01*
X126885000Y-49360000D02*
X127635000Y-49360000D01*
X126885000Y-47635000D02*
X126885000Y-49360000D01*
X129285000Y-45910000D02*
X129285000Y-47635000D01*
X128435000Y-45910000D02*
X129285000Y-45910000D01*
X128435000Y-45710000D02*
X128435000Y-45910000D01*
X127635000Y-45710000D02*
X128435000Y-45710000D01*
X127635000Y-45910000D02*
X127635000Y-45710000D01*
X126885000Y-45910000D02*
X127635000Y-45910000D01*
X126885000Y-47635000D02*
X126885000Y-45910000D01*
X129795000Y-49870000D02*
X129795000Y-45400000D01*
X126375000Y-49870000D02*
X129795000Y-49870000D01*
X126375000Y-45400000D02*
X126375000Y-49870000D01*
X129795000Y-45400000D02*
X126375000Y-45400000D01*
G04 #@! TO.C,J6*
X129795000Y-39665000D02*
X126375000Y-39665000D01*
X126375000Y-39665000D02*
X126375000Y-44135000D01*
X126375000Y-44135000D02*
X129795000Y-44135000D01*
X129795000Y-44135000D02*
X129795000Y-39665000D01*
X126885000Y-41900000D02*
X126885000Y-40175000D01*
X126885000Y-40175000D02*
X127635000Y-40175000D01*
X127635000Y-40175000D02*
X127635000Y-39975000D01*
X127635000Y-39975000D02*
X128435000Y-39975000D01*
X128435000Y-39975000D02*
X128435000Y-40175000D01*
X128435000Y-40175000D02*
X129285000Y-40175000D01*
X129285000Y-40175000D02*
X129285000Y-41900000D01*
X126885000Y-41900000D02*
X126885000Y-43625000D01*
X126885000Y-43625000D02*
X127635000Y-43625000D01*
X127635000Y-43625000D02*
X127635000Y-43825000D01*
X127635000Y-43825000D02*
X128435000Y-43825000D01*
X128435000Y-43825000D02*
X128435000Y-43625000D01*
X128435000Y-43625000D02*
X129285000Y-43625000D01*
X129285000Y-43625000D02*
X129285000Y-41900000D01*
X126085000Y-39375000D02*
X127085000Y-39375000D01*
X126085000Y-39375000D02*
X126085000Y-40375000D01*
G04 #@! TO.C,J4*
X100685000Y-36200000D02*
X100685000Y-37200000D01*
X100685000Y-36200000D02*
X101685000Y-36200000D01*
X103885000Y-40450000D02*
X103885000Y-38725000D01*
X103035000Y-40450000D02*
X103885000Y-40450000D01*
X103035000Y-40650000D02*
X103035000Y-40450000D01*
X102235000Y-40650000D02*
X103035000Y-40650000D01*
X102235000Y-40450000D02*
X102235000Y-40650000D01*
X101485000Y-40450000D02*
X102235000Y-40450000D01*
X101485000Y-38725000D02*
X101485000Y-40450000D01*
X103885000Y-37000000D02*
X103885000Y-38725000D01*
X103035000Y-37000000D02*
X103885000Y-37000000D01*
X103035000Y-36800000D02*
X103035000Y-37000000D01*
X102235000Y-36800000D02*
X103035000Y-36800000D01*
X102235000Y-37000000D02*
X102235000Y-36800000D01*
X101485000Y-37000000D02*
X102235000Y-37000000D01*
X101485000Y-38725000D02*
X101485000Y-37000000D01*
X104395000Y-40960000D02*
X104395000Y-36490000D01*
X100975000Y-40960000D02*
X104395000Y-40960000D01*
X100975000Y-36490000D02*
X100975000Y-40960000D01*
X104395000Y-36490000D02*
X100975000Y-36490000D01*
G04 #@! TO.C,J7*
X110175000Y-38990000D02*
X110175000Y-35570000D01*
X110175000Y-35570000D02*
X105705000Y-35570000D01*
X105705000Y-35570000D02*
X105705000Y-38990000D01*
X105705000Y-38990000D02*
X110175000Y-38990000D01*
X107940000Y-36080000D02*
X109665000Y-36080000D01*
X109665000Y-36080000D02*
X109665000Y-36830000D01*
X109665000Y-36830000D02*
X109865000Y-36830000D01*
X109865000Y-36830000D02*
X109865000Y-37630000D01*
X109865000Y-37630000D02*
X109665000Y-37630000D01*
X109665000Y-37630000D02*
X109665000Y-38480000D01*
X109665000Y-38480000D02*
X107940000Y-38480000D01*
X107940000Y-36080000D02*
X106215000Y-36080000D01*
X106215000Y-36080000D02*
X106215000Y-36830000D01*
X106215000Y-36830000D02*
X106015000Y-36830000D01*
X106015000Y-36830000D02*
X106015000Y-37630000D01*
X106015000Y-37630000D02*
X106215000Y-37630000D01*
X106215000Y-37630000D02*
X106215000Y-38480000D01*
X106215000Y-38480000D02*
X107940000Y-38480000D01*
X110465000Y-35280000D02*
X110465000Y-36280000D01*
X110465000Y-35280000D02*
X109465000Y-35280000D01*
G04 #@! TO.C,J11*
X100685000Y-56520000D02*
X100685000Y-57520000D01*
X100685000Y-56520000D02*
X101685000Y-56520000D01*
X103885000Y-64520000D02*
X103885000Y-60920000D01*
X103035000Y-64520000D02*
X103885000Y-64520000D01*
X103035000Y-64720000D02*
X103035000Y-64520000D01*
X102235000Y-64720000D02*
X103035000Y-64720000D01*
X102235000Y-64520000D02*
X102235000Y-64720000D01*
X101485000Y-64520000D02*
X102235000Y-64520000D01*
X101485000Y-60920000D02*
X101485000Y-64520000D01*
X103885000Y-57320000D02*
X103885000Y-60920000D01*
X103035000Y-57320000D02*
X103885000Y-57320000D01*
X103035000Y-57120000D02*
X103035000Y-57320000D01*
X102235000Y-57120000D02*
X103035000Y-57120000D01*
X102235000Y-57320000D02*
X102235000Y-57120000D01*
X101485000Y-57320000D02*
X102235000Y-57320000D01*
X101485000Y-60920000D02*
X101485000Y-57320000D01*
X104395000Y-65030000D02*
X104395000Y-56810000D01*
X100975000Y-65030000D02*
X104395000Y-65030000D01*
X100975000Y-56810000D02*
X100975000Y-65030000D01*
X104395000Y-56810000D02*
X100975000Y-56810000D01*
G04 #@! TO.C,J12*
X129795000Y-56890000D02*
X126375000Y-56890000D01*
X126375000Y-56890000D02*
X126375000Y-65110000D01*
X126375000Y-65110000D02*
X129795000Y-65110000D01*
X129795000Y-65110000D02*
X129795000Y-56890000D01*
X126885000Y-61000000D02*
X126885000Y-57400000D01*
X126885000Y-57400000D02*
X127635000Y-57400000D01*
X127635000Y-57400000D02*
X127635000Y-57200000D01*
X127635000Y-57200000D02*
X128435000Y-57200000D01*
X128435000Y-57200000D02*
X128435000Y-57400000D01*
X128435000Y-57400000D02*
X129285000Y-57400000D01*
X129285000Y-57400000D02*
X129285000Y-61000000D01*
X126885000Y-61000000D02*
X126885000Y-64600000D01*
X126885000Y-64600000D02*
X127635000Y-64600000D01*
X127635000Y-64600000D02*
X127635000Y-64800000D01*
X127635000Y-64800000D02*
X128435000Y-64800000D01*
X128435000Y-64800000D02*
X128435000Y-64600000D01*
X128435000Y-64600000D02*
X129285000Y-64600000D01*
X129285000Y-64600000D02*
X129285000Y-61000000D01*
X126085000Y-56600000D02*
X127085000Y-56600000D01*
X126085000Y-56600000D02*
X126085000Y-57600000D01*
G04 #@! TO.C,J8*
X119930000Y-35280000D02*
X118930000Y-35280000D01*
X119930000Y-35280000D02*
X119930000Y-36280000D01*
X111930000Y-38480000D02*
X115530000Y-38480000D01*
X111930000Y-37630000D02*
X111930000Y-38480000D01*
X111730000Y-37630000D02*
X111930000Y-37630000D01*
X111730000Y-36830000D02*
X111730000Y-37630000D01*
X111930000Y-36830000D02*
X111730000Y-36830000D01*
X111930000Y-36080000D02*
X111930000Y-36830000D01*
X115530000Y-36080000D02*
X111930000Y-36080000D01*
X119130000Y-38480000D02*
X115530000Y-38480000D01*
X119130000Y-37630000D02*
X119130000Y-38480000D01*
X119330000Y-37630000D02*
X119130000Y-37630000D01*
X119330000Y-36830000D02*
X119330000Y-37630000D01*
X119130000Y-36830000D02*
X119330000Y-36830000D01*
X119130000Y-36080000D02*
X119130000Y-36830000D01*
X115530000Y-36080000D02*
X119130000Y-36080000D01*
X111420000Y-38990000D02*
X119640000Y-38990000D01*
X111420000Y-35570000D02*
X111420000Y-38990000D01*
X119640000Y-35570000D02*
X111420000Y-35570000D01*
X119640000Y-38990000D02*
X119640000Y-35570000D01*
G04 #@! TO.C,J9*
X104395000Y-72050000D02*
X100975000Y-72050000D01*
X100975000Y-72050000D02*
X100975000Y-80270000D01*
X100975000Y-80270000D02*
X104395000Y-80270000D01*
X104395000Y-80270000D02*
X104395000Y-72050000D01*
X101485000Y-76160000D02*
X101485000Y-72560000D01*
X101485000Y-72560000D02*
X102235000Y-72560000D01*
X102235000Y-72560000D02*
X102235000Y-72360000D01*
X102235000Y-72360000D02*
X103035000Y-72360000D01*
X103035000Y-72360000D02*
X103035000Y-72560000D01*
X103035000Y-72560000D02*
X103885000Y-72560000D01*
X103885000Y-72560000D02*
X103885000Y-76160000D01*
X101485000Y-76160000D02*
X101485000Y-79760000D01*
X101485000Y-79760000D02*
X102235000Y-79760000D01*
X102235000Y-79760000D02*
X102235000Y-79960000D01*
X102235000Y-79960000D02*
X103035000Y-79960000D01*
X103035000Y-79960000D02*
X103035000Y-79760000D01*
X103035000Y-79760000D02*
X103885000Y-79760000D01*
X103885000Y-79760000D02*
X103885000Y-76160000D01*
X100685000Y-71760000D02*
X101685000Y-71760000D01*
X100685000Y-71760000D02*
X100685000Y-72760000D01*
G04 #@! TO.C,J10*
X126085000Y-71840000D02*
X126085000Y-72840000D01*
X126085000Y-71840000D02*
X127085000Y-71840000D01*
X129285000Y-79840000D02*
X129285000Y-76240000D01*
X128435000Y-79840000D02*
X129285000Y-79840000D01*
X128435000Y-80040000D02*
X128435000Y-79840000D01*
X127635000Y-80040000D02*
X128435000Y-80040000D01*
X127635000Y-79840000D02*
X127635000Y-80040000D01*
X126885000Y-79840000D02*
X127635000Y-79840000D01*
X126885000Y-76240000D02*
X126885000Y-79840000D01*
X129285000Y-72640000D02*
X129285000Y-76240000D01*
X128435000Y-72640000D02*
X129285000Y-72640000D01*
X128435000Y-72440000D02*
X128435000Y-72640000D01*
X127635000Y-72440000D02*
X128435000Y-72440000D01*
X127635000Y-72640000D02*
X127635000Y-72440000D01*
X126885000Y-72640000D02*
X127635000Y-72640000D01*
X126885000Y-76240000D02*
X126885000Y-72640000D01*
X129795000Y-80350000D02*
X129795000Y-72130000D01*
X126375000Y-80350000D02*
X129795000Y-80350000D01*
X126375000Y-72130000D02*
X126375000Y-80350000D01*
X129795000Y-72130000D02*
X126375000Y-72130000D01*
G04 #@! TO.C,C1*
X122931422Y-71680000D02*
X123448578Y-71680000D01*
X122931422Y-73100000D02*
X123448578Y-73100000D01*
G04 #@! TO.C,C2*
X122931422Y-56440000D02*
X123448578Y-56440000D01*
X122931422Y-57860000D02*
X123448578Y-57860000D01*
G04 #@! TO.C,C3*
X122931422Y-42620000D02*
X123448578Y-42620000D01*
X122931422Y-41200000D02*
X123448578Y-41200000D01*
G04 #@! TO.C,R1*
X122931422Y-81205000D02*
X123448578Y-81205000D01*
X122931422Y-82625000D02*
X123448578Y-82625000D01*
G04 #@! TO.C,R2*
X108208578Y-81990000D02*
X107691422Y-81990000D01*
X108208578Y-80570000D02*
X107691422Y-80570000D01*
G04 #@! TO.C,R3*
X108208578Y-78665000D02*
X107691422Y-78665000D01*
X108208578Y-80085000D02*
X107691422Y-80085000D01*
G04 #@! TO.C,R4*
X108208578Y-78180000D02*
X107691422Y-78180000D01*
X108208578Y-76760000D02*
X107691422Y-76760000D01*
G04 #@! TO.C,R5*
X108208578Y-74855000D02*
X107691422Y-74855000D01*
X108208578Y-76275000D02*
X107691422Y-76275000D01*
G04 #@! TO.C,R6*
X122931422Y-77395000D02*
X123448578Y-77395000D01*
X122931422Y-78815000D02*
X123448578Y-78815000D01*
G04 #@! TO.C,R7*
X122931422Y-76910000D02*
X123448578Y-76910000D01*
X122931422Y-75490000D02*
X123448578Y-75490000D01*
G04 #@! TO.C,R8*
X122931422Y-73585000D02*
X123448578Y-73585000D01*
X122931422Y-75005000D02*
X123448578Y-75005000D01*
G04 #@! TO.C,R9*
X108208578Y-71045000D02*
X107691422Y-71045000D01*
X108208578Y-72465000D02*
X107691422Y-72465000D01*
G04 #@! TO.C,R11*
X108208578Y-65330000D02*
X107691422Y-65330000D01*
X108208578Y-66750000D02*
X107691422Y-66750000D01*
G04 #@! TO.C,R12*
X108208578Y-64845000D02*
X107691422Y-64845000D01*
X108208578Y-63425000D02*
X107691422Y-63425000D01*
G04 #@! TO.C,R13*
X108208578Y-61520000D02*
X107691422Y-61520000D01*
X108208578Y-62940000D02*
X107691422Y-62940000D01*
G04 #@! TO.C,R14*
X108208578Y-59615000D02*
X107691422Y-59615000D01*
X108208578Y-61035000D02*
X107691422Y-61035000D01*
G04 #@! TO.C,R15*
X122931422Y-63575000D02*
X123448578Y-63575000D01*
X122931422Y-62155000D02*
X123448578Y-62155000D01*
G04 #@! TO.C,R16*
X122931422Y-60250000D02*
X123448578Y-60250000D01*
X122931422Y-61670000D02*
X123448578Y-61670000D01*
G04 #@! TO.C,R17*
X122931422Y-59765000D02*
X123448578Y-59765000D01*
X122931422Y-58345000D02*
X123448578Y-58345000D01*
G04 #@! TO.C,R18*
X108208578Y-55805000D02*
X107691422Y-55805000D01*
X108208578Y-57225000D02*
X107691422Y-57225000D01*
G04 #@! TO.C,R20*
X108208578Y-51510000D02*
X107691422Y-51510000D01*
X108208578Y-50090000D02*
X107691422Y-50090000D01*
G04 #@! TO.C,R21*
X108208578Y-48185000D02*
X107691422Y-48185000D01*
X108208578Y-49605000D02*
X107691422Y-49605000D01*
G04 #@! TO.C,R22*
X108208578Y-47700000D02*
X107691422Y-47700000D01*
X108208578Y-46280000D02*
X107691422Y-46280000D01*
G04 #@! TO.C,R23*
X108208578Y-45795000D02*
X107691422Y-45795000D01*
X108208578Y-44375000D02*
X107691422Y-44375000D01*
G04 #@! TO.C,R24*
X122931422Y-46915000D02*
X123448578Y-46915000D01*
X122931422Y-48335000D02*
X123448578Y-48335000D01*
G04 #@! TO.C,R25*
X122931422Y-46430000D02*
X123448578Y-46430000D01*
X122931422Y-45010000D02*
X123448578Y-45010000D01*
G04 #@! TO.C,R26*
X122931422Y-43105000D02*
X123448578Y-43105000D01*
X122931422Y-44525000D02*
X123448578Y-44525000D01*
G04 #@! TO.C,R27*
X108208578Y-41985000D02*
X107691422Y-41985000D01*
X108208578Y-40565000D02*
X107691422Y-40565000D01*
G04 #@! TO.C,R28*
X107691422Y-74370000D02*
X108208578Y-74370000D01*
X107691422Y-72950000D02*
X108208578Y-72950000D01*
G04 #@! TO.C,R29*
X123448578Y-79300000D02*
X122931422Y-79300000D01*
X123448578Y-80720000D02*
X122931422Y-80720000D01*
G04 #@! TO.C,R30*
X107691422Y-59130000D02*
X108208578Y-59130000D01*
X107691422Y-57710000D02*
X108208578Y-57710000D01*
G04 #@! TO.C,R31*
X123448578Y-65480000D02*
X122931422Y-65480000D01*
X123448578Y-64060000D02*
X122931422Y-64060000D01*
G04 #@! TO.C,R32*
X107691422Y-43890000D02*
X108208578Y-43890000D01*
X107691422Y-42470000D02*
X108208578Y-42470000D01*
G04 #@! TO.C,R33*
X123448578Y-50240000D02*
X122931422Y-50240000D01*
X123448578Y-48820000D02*
X122931422Y-48820000D01*
D10*
G04 #@! TO.C,U1*
X113020000Y-71785000D02*
X111645000Y-71785000D01*
X113020000Y-81910000D02*
X117170000Y-81910000D01*
X113020000Y-71760000D02*
X117170000Y-71760000D01*
X113020000Y-81910000D02*
X113020000Y-81805000D01*
X117170000Y-81910000D02*
X117170000Y-81805000D01*
X117170000Y-71760000D02*
X117170000Y-71865000D01*
X113020000Y-71760000D02*
X113020000Y-71785000D01*
G04 #@! TO.C,U2*
X113020000Y-56520000D02*
X113020000Y-56545000D01*
X117170000Y-56520000D02*
X117170000Y-56625000D01*
X117170000Y-66670000D02*
X117170000Y-66565000D01*
X113020000Y-66670000D02*
X113020000Y-66565000D01*
X113020000Y-56520000D02*
X117170000Y-56520000D01*
X113020000Y-66670000D02*
X117170000Y-66670000D01*
X113020000Y-56545000D02*
X111645000Y-56545000D01*
G04 #@! TO.C,U3*
X113020000Y-41280000D02*
X113020000Y-41305000D01*
X117170000Y-41280000D02*
X117170000Y-41385000D01*
X117170000Y-51430000D02*
X117170000Y-51325000D01*
X113020000Y-51430000D02*
X113020000Y-51325000D01*
X113020000Y-41280000D02*
X117170000Y-41280000D01*
X113020000Y-51430000D02*
X117170000Y-51430000D01*
X113020000Y-41305000D02*
X111645000Y-41305000D01*
G04 #@! TO.C,J2*
X124991880Y-53927333D02*
X125706166Y-53927333D01*
X125849023Y-53974952D01*
X125944261Y-54070190D01*
X125991880Y-54213047D01*
X125991880Y-54308285D01*
X125087119Y-53498761D02*
X125039500Y-53451142D01*
X124991880Y-53355904D01*
X124991880Y-53117809D01*
X125039500Y-53022571D01*
X125087119Y-52974952D01*
X125182357Y-52927333D01*
X125277595Y-52927333D01*
X125420452Y-52974952D01*
X125991880Y-53546380D01*
X125991880Y-52927333D01*
G04 #@! TO.C,J1*
X104862380Y-48847333D02*
X105576666Y-48847333D01*
X105719523Y-48894952D01*
X105814761Y-48990190D01*
X105862380Y-49133047D01*
X105862380Y-49228285D01*
X105862380Y-47847333D02*
X105862380Y-48418761D01*
X105862380Y-48133047D02*
X104862380Y-48133047D01*
X105005238Y-48228285D01*
X105100476Y-48323523D01*
X105148095Y-48418761D01*
G04 #@! TO.C,J3*
X104989380Y-42941833D02*
X105703666Y-42941833D01*
X105846523Y-42989452D01*
X105941761Y-43084690D01*
X105989380Y-43227547D01*
X105989380Y-43322785D01*
X104989380Y-42560880D02*
X104989380Y-41941833D01*
X105370333Y-42275166D01*
X105370333Y-42132309D01*
X105417952Y-42037071D01*
X105465571Y-41989452D01*
X105560809Y-41941833D01*
X105798904Y-41941833D01*
X105894142Y-41989452D01*
X105941761Y-42037071D01*
X105989380Y-42132309D01*
X105989380Y-42418023D01*
X105941761Y-42513261D01*
X105894142Y-42560880D01*
G04 #@! TO.C,J5*
X124864880Y-45291333D02*
X125579166Y-45291333D01*
X125722023Y-45338952D01*
X125817261Y-45434190D01*
X125864880Y-45577047D01*
X125864880Y-45672285D01*
X124864880Y-44338952D02*
X124864880Y-44815142D01*
X125341071Y-44862761D01*
X125293452Y-44815142D01*
X125245833Y-44719904D01*
X125245833Y-44481809D01*
X125293452Y-44386571D01*
X125341071Y-44338952D01*
X125436309Y-44291333D01*
X125674404Y-44291333D01*
X125769642Y-44338952D01*
X125817261Y-44386571D01*
X125864880Y-44481809D01*
X125864880Y-44719904D01*
X125817261Y-44815142D01*
X125769642Y-44862761D01*
G04 #@! TO.C,J6*
X127936666Y-38187380D02*
X127936666Y-38901666D01*
X127889047Y-39044523D01*
X127793809Y-39139761D01*
X127650952Y-39187380D01*
X127555714Y-39187380D01*
X128841428Y-38187380D02*
X128650952Y-38187380D01*
X128555714Y-38235000D01*
X128508095Y-38282619D01*
X128412857Y-38425476D01*
X128365238Y-38615952D01*
X128365238Y-38996904D01*
X128412857Y-39092142D01*
X128460476Y-39139761D01*
X128555714Y-39187380D01*
X128746190Y-39187380D01*
X128841428Y-39139761D01*
X128889047Y-39092142D01*
X128936666Y-38996904D01*
X128936666Y-38758809D01*
X128889047Y-38663571D01*
X128841428Y-38615952D01*
X128746190Y-38568333D01*
X128555714Y-38568333D01*
X128460476Y-38615952D01*
X128412857Y-38663571D01*
X128365238Y-38758809D01*
G04 #@! TO.C,J4*
X100949166Y-34758380D02*
X100949166Y-35472666D01*
X100901547Y-35615523D01*
X100806309Y-35710761D01*
X100663452Y-35758380D01*
X100568214Y-35758380D01*
X101853928Y-35091714D02*
X101853928Y-35758380D01*
X101615833Y-34710761D02*
X101377738Y-35425047D01*
X101996785Y-35425047D01*
G04 #@! TO.C,J7*
X104759166Y-34567880D02*
X104759166Y-35282166D01*
X104711547Y-35425023D01*
X104616309Y-35520261D01*
X104473452Y-35567880D01*
X104378214Y-35567880D01*
X105140119Y-34567880D02*
X105806785Y-34567880D01*
X105378214Y-35567880D01*
G04 #@! TO.C,J11*
X101996976Y-55205380D02*
X101996976Y-55919666D01*
X101949357Y-56062523D01*
X101854119Y-56157761D01*
X101711261Y-56205380D01*
X101616023Y-56205380D01*
X102996976Y-56205380D02*
X102425547Y-56205380D01*
X102711261Y-56205380D02*
X102711261Y-55205380D01*
X102616023Y-55348238D01*
X102520785Y-55443476D01*
X102425547Y-55491095D01*
X103949357Y-56205380D02*
X103377928Y-56205380D01*
X103663642Y-56205380D02*
X103663642Y-55205380D01*
X103568404Y-55348238D01*
X103473166Y-55443476D01*
X103377928Y-55491095D01*
G04 #@! TO.C,J12*
X128476476Y-65492380D02*
X128476476Y-66206666D01*
X128428857Y-66349523D01*
X128333619Y-66444761D01*
X128190761Y-66492380D01*
X128095523Y-66492380D01*
X129476476Y-66492380D02*
X128905047Y-66492380D01*
X129190761Y-66492380D02*
X129190761Y-65492380D01*
X129095523Y-65635238D01*
X129000285Y-65730476D01*
X128905047Y-65778095D01*
X129857428Y-65587619D02*
X129905047Y-65540000D01*
X130000285Y-65492380D01*
X130238380Y-65492380D01*
X130333619Y-65540000D01*
X130381238Y-65587619D01*
X130428857Y-65682857D01*
X130428857Y-65778095D01*
X130381238Y-65920952D01*
X129809809Y-66492380D01*
X130428857Y-66492380D01*
G04 #@! TO.C,J8*
X118411666Y-39393880D02*
X118411666Y-40108166D01*
X118364047Y-40251023D01*
X118268809Y-40346261D01*
X118125952Y-40393880D01*
X118030714Y-40393880D01*
X119030714Y-39822452D02*
X118935476Y-39774833D01*
X118887857Y-39727214D01*
X118840238Y-39631976D01*
X118840238Y-39584357D01*
X118887857Y-39489119D01*
X118935476Y-39441500D01*
X119030714Y-39393880D01*
X119221190Y-39393880D01*
X119316428Y-39441500D01*
X119364047Y-39489119D01*
X119411666Y-39584357D01*
X119411666Y-39631976D01*
X119364047Y-39727214D01*
X119316428Y-39774833D01*
X119221190Y-39822452D01*
X119030714Y-39822452D01*
X118935476Y-39870071D01*
X118887857Y-39917690D01*
X118840238Y-40012928D01*
X118840238Y-40203404D01*
X118887857Y-40298642D01*
X118935476Y-40346261D01*
X119030714Y-40393880D01*
X119221190Y-40393880D01*
X119316428Y-40346261D01*
X119364047Y-40298642D01*
X119411666Y-40203404D01*
X119411666Y-40012928D01*
X119364047Y-39917690D01*
X119316428Y-39870071D01*
X119221190Y-39822452D01*
G04 #@! TO.C,J9*
X102536666Y-80652380D02*
X102536666Y-81366666D01*
X102489047Y-81509523D01*
X102393809Y-81604761D01*
X102250952Y-81652380D01*
X102155714Y-81652380D01*
X103060476Y-81652380D02*
X103250952Y-81652380D01*
X103346190Y-81604761D01*
X103393809Y-81557142D01*
X103489047Y-81414285D01*
X103536666Y-81223809D01*
X103536666Y-80842857D01*
X103489047Y-80747619D01*
X103441428Y-80700000D01*
X103346190Y-80652380D01*
X103155714Y-80652380D01*
X103060476Y-80700000D01*
X103012857Y-80747619D01*
X102965238Y-80842857D01*
X102965238Y-81080952D01*
X103012857Y-81176190D01*
X103060476Y-81223809D01*
X103155714Y-81271428D01*
X103346190Y-81271428D01*
X103441428Y-81223809D01*
X103489047Y-81176190D01*
X103536666Y-81080952D01*
G04 #@! TO.C,J10*
X127460476Y-80732380D02*
X127460476Y-81446666D01*
X127412857Y-81589523D01*
X127317619Y-81684761D01*
X127174761Y-81732380D01*
X127079523Y-81732380D01*
X128460476Y-81732380D02*
X127889047Y-81732380D01*
X128174761Y-81732380D02*
X128174761Y-80732380D01*
X128079523Y-80875238D01*
X127984285Y-80970476D01*
X127889047Y-81018095D01*
X129079523Y-80732380D02*
X129174761Y-80732380D01*
X129270000Y-80780000D01*
X129317619Y-80827619D01*
X129365238Y-80922857D01*
X129412857Y-81113333D01*
X129412857Y-81351428D01*
X129365238Y-81541904D01*
X129317619Y-81637142D01*
X129270000Y-81684761D01*
X129174761Y-81732380D01*
X129079523Y-81732380D01*
X128984285Y-81684761D01*
X128936666Y-81637142D01*
X128889047Y-81541904D01*
X128841428Y-81351428D01*
X128841428Y-81113333D01*
X128889047Y-80922857D01*
X128936666Y-80827619D01*
X128984285Y-80780000D01*
X129079523Y-80732380D01*
G04 #@! TO.C,C1*
X119848333Y-72747142D02*
X119800714Y-72794761D01*
X119657857Y-72842380D01*
X119562619Y-72842380D01*
X119419761Y-72794761D01*
X119324523Y-72699523D01*
X119276904Y-72604285D01*
X119229285Y-72413809D01*
X119229285Y-72270952D01*
X119276904Y-72080476D01*
X119324523Y-71985238D01*
X119419761Y-71890000D01*
X119562619Y-71842380D01*
X119657857Y-71842380D01*
X119800714Y-71890000D01*
X119848333Y-71937619D01*
X120800714Y-72842380D02*
X120229285Y-72842380D01*
X120515000Y-72842380D02*
X120515000Y-71842380D01*
X120419761Y-71985238D01*
X120324523Y-72080476D01*
X120229285Y-72128095D01*
G04 #@! TO.C,C2*
X119848333Y-57507142D02*
X119800714Y-57554761D01*
X119657857Y-57602380D01*
X119562619Y-57602380D01*
X119419761Y-57554761D01*
X119324523Y-57459523D01*
X119276904Y-57364285D01*
X119229285Y-57173809D01*
X119229285Y-57030952D01*
X119276904Y-56840476D01*
X119324523Y-56745238D01*
X119419761Y-56650000D01*
X119562619Y-56602380D01*
X119657857Y-56602380D01*
X119800714Y-56650000D01*
X119848333Y-56697619D01*
X120229285Y-56697619D02*
X120276904Y-56650000D01*
X120372142Y-56602380D01*
X120610238Y-56602380D01*
X120705476Y-56650000D01*
X120753095Y-56697619D01*
X120800714Y-56792857D01*
X120800714Y-56888095D01*
X120753095Y-57030952D01*
X120181666Y-57602380D01*
X120800714Y-57602380D01*
G04 #@! TO.C,C3*
X119848333Y-42267142D02*
X119800714Y-42314761D01*
X119657857Y-42362380D01*
X119562619Y-42362380D01*
X119419761Y-42314761D01*
X119324523Y-42219523D01*
X119276904Y-42124285D01*
X119229285Y-41933809D01*
X119229285Y-41790952D01*
X119276904Y-41600476D01*
X119324523Y-41505238D01*
X119419761Y-41410000D01*
X119562619Y-41362380D01*
X119657857Y-41362380D01*
X119800714Y-41410000D01*
X119848333Y-41457619D01*
X120181666Y-41362380D02*
X120800714Y-41362380D01*
X120467380Y-41743333D01*
X120610238Y-41743333D01*
X120705476Y-41790952D01*
X120753095Y-41838571D01*
X120800714Y-41933809D01*
X120800714Y-42171904D01*
X120753095Y-42267142D01*
X120705476Y-42314761D01*
X120610238Y-42362380D01*
X120324523Y-42362380D01*
X120229285Y-42314761D01*
X120181666Y-42267142D01*
G04 #@! TO.C,R1*
X119848333Y-80462380D02*
X119515000Y-79986190D01*
X119276904Y-80462380D02*
X119276904Y-79462380D01*
X119657857Y-79462380D01*
X119753095Y-79510000D01*
X119800714Y-79557619D01*
X119848333Y-79652857D01*
X119848333Y-79795714D01*
X119800714Y-79890952D01*
X119753095Y-79938571D01*
X119657857Y-79986190D01*
X119276904Y-79986190D01*
X120800714Y-80462380D02*
X120229285Y-80462380D01*
X120515000Y-80462380D02*
X120515000Y-79462380D01*
X120419761Y-79605238D01*
X120324523Y-79700476D01*
X120229285Y-79748095D01*
G04 #@! TO.C,R2*
D11*
X110365000Y-81619285D02*
X110115000Y-81262142D01*
X109936428Y-81619285D02*
X109936428Y-80869285D01*
X110222142Y-80869285D01*
X110293571Y-80905000D01*
X110329285Y-80940714D01*
X110365000Y-81012142D01*
X110365000Y-81119285D01*
X110329285Y-81190714D01*
X110293571Y-81226428D01*
X110222142Y-81262142D01*
X109936428Y-81262142D01*
X110650714Y-80940714D02*
X110686428Y-80905000D01*
X110757857Y-80869285D01*
X110936428Y-80869285D01*
X111007857Y-80905000D01*
X111043571Y-80940714D01*
X111079285Y-81012142D01*
X111079285Y-81083571D01*
X111043571Y-81190714D01*
X110615000Y-81619285D01*
X111079285Y-81619285D01*
G04 #@! TO.C,R3*
X110365000Y-79714285D02*
X110115000Y-79357142D01*
X109936428Y-79714285D02*
X109936428Y-78964285D01*
X110222142Y-78964285D01*
X110293571Y-79000000D01*
X110329285Y-79035714D01*
X110365000Y-79107142D01*
X110365000Y-79214285D01*
X110329285Y-79285714D01*
X110293571Y-79321428D01*
X110222142Y-79357142D01*
X109936428Y-79357142D01*
X110615000Y-78964285D02*
X111079285Y-78964285D01*
X110829285Y-79250000D01*
X110936428Y-79250000D01*
X111007857Y-79285714D01*
X111043571Y-79321428D01*
X111079285Y-79392857D01*
X111079285Y-79571428D01*
X111043571Y-79642857D01*
X111007857Y-79678571D01*
X110936428Y-79714285D01*
X110722142Y-79714285D01*
X110650714Y-79678571D01*
X110615000Y-79642857D01*
G04 #@! TO.C,R4*
X110365000Y-77809285D02*
X110115000Y-77452142D01*
X109936428Y-77809285D02*
X109936428Y-77059285D01*
X110222142Y-77059285D01*
X110293571Y-77095000D01*
X110329285Y-77130714D01*
X110365000Y-77202142D01*
X110365000Y-77309285D01*
X110329285Y-77380714D01*
X110293571Y-77416428D01*
X110222142Y-77452142D01*
X109936428Y-77452142D01*
X111007857Y-77309285D02*
X111007857Y-77809285D01*
X110829285Y-77023571D02*
X110650714Y-77559285D01*
X111115000Y-77559285D01*
G04 #@! TO.C,R5*
X110365000Y-75904285D02*
X110115000Y-75547142D01*
X109936428Y-75904285D02*
X109936428Y-75154285D01*
X110222142Y-75154285D01*
X110293571Y-75190000D01*
X110329285Y-75225714D01*
X110365000Y-75297142D01*
X110365000Y-75404285D01*
X110329285Y-75475714D01*
X110293571Y-75511428D01*
X110222142Y-75547142D01*
X109936428Y-75547142D01*
X111043571Y-75154285D02*
X110686428Y-75154285D01*
X110650714Y-75511428D01*
X110686428Y-75475714D01*
X110757857Y-75440000D01*
X110936428Y-75440000D01*
X111007857Y-75475714D01*
X111043571Y-75511428D01*
X111079285Y-75582857D01*
X111079285Y-75761428D01*
X111043571Y-75832857D01*
X111007857Y-75868571D01*
X110936428Y-75904285D01*
X110757857Y-75904285D01*
X110686428Y-75868571D01*
X110650714Y-75832857D01*
G04 #@! TO.C,R6*
D10*
X119848333Y-78557380D02*
X119515000Y-78081190D01*
X119276904Y-78557380D02*
X119276904Y-77557380D01*
X119657857Y-77557380D01*
X119753095Y-77605000D01*
X119800714Y-77652619D01*
X119848333Y-77747857D01*
X119848333Y-77890714D01*
X119800714Y-77985952D01*
X119753095Y-78033571D01*
X119657857Y-78081190D01*
X119276904Y-78081190D01*
X120705476Y-77557380D02*
X120515000Y-77557380D01*
X120419761Y-77605000D01*
X120372142Y-77652619D01*
X120276904Y-77795476D01*
X120229285Y-77985952D01*
X120229285Y-78366904D01*
X120276904Y-78462142D01*
X120324523Y-78509761D01*
X120419761Y-78557380D01*
X120610238Y-78557380D01*
X120705476Y-78509761D01*
X120753095Y-78462142D01*
X120800714Y-78366904D01*
X120800714Y-78128809D01*
X120753095Y-78033571D01*
X120705476Y-77985952D01*
X120610238Y-77938333D01*
X120419761Y-77938333D01*
X120324523Y-77985952D01*
X120276904Y-78033571D01*
X120229285Y-78128809D01*
G04 #@! TO.C,R7*
X119848333Y-76652380D02*
X119515000Y-76176190D01*
X119276904Y-76652380D02*
X119276904Y-75652380D01*
X119657857Y-75652380D01*
X119753095Y-75700000D01*
X119800714Y-75747619D01*
X119848333Y-75842857D01*
X119848333Y-75985714D01*
X119800714Y-76080952D01*
X119753095Y-76128571D01*
X119657857Y-76176190D01*
X119276904Y-76176190D01*
X120181666Y-75652380D02*
X120848333Y-75652380D01*
X120419761Y-76652380D01*
G04 #@! TO.C,R8*
X119848333Y-74747380D02*
X119515000Y-74271190D01*
X119276904Y-74747380D02*
X119276904Y-73747380D01*
X119657857Y-73747380D01*
X119753095Y-73795000D01*
X119800714Y-73842619D01*
X119848333Y-73937857D01*
X119848333Y-74080714D01*
X119800714Y-74175952D01*
X119753095Y-74223571D01*
X119657857Y-74271190D01*
X119276904Y-74271190D01*
X120419761Y-74175952D02*
X120324523Y-74128333D01*
X120276904Y-74080714D01*
X120229285Y-73985476D01*
X120229285Y-73937857D01*
X120276904Y-73842619D01*
X120324523Y-73795000D01*
X120419761Y-73747380D01*
X120610238Y-73747380D01*
X120705476Y-73795000D01*
X120753095Y-73842619D01*
X120800714Y-73937857D01*
X120800714Y-73985476D01*
X120753095Y-74080714D01*
X120705476Y-74128333D01*
X120610238Y-74175952D01*
X120419761Y-74175952D01*
X120324523Y-74223571D01*
X120276904Y-74271190D01*
X120229285Y-74366428D01*
X120229285Y-74556904D01*
X120276904Y-74652142D01*
X120324523Y-74699761D01*
X120419761Y-74747380D01*
X120610238Y-74747380D01*
X120705476Y-74699761D01*
X120753095Y-74652142D01*
X120800714Y-74556904D01*
X120800714Y-74366428D01*
X120753095Y-74271190D01*
X120705476Y-74223571D01*
X120610238Y-74175952D01*
G04 #@! TO.C,R9*
D11*
X110365000Y-72094285D02*
X110115000Y-71737142D01*
X109936428Y-72094285D02*
X109936428Y-71344285D01*
X110222142Y-71344285D01*
X110293571Y-71380000D01*
X110329285Y-71415714D01*
X110365000Y-71487142D01*
X110365000Y-71594285D01*
X110329285Y-71665714D01*
X110293571Y-71701428D01*
X110222142Y-71737142D01*
X109936428Y-71737142D01*
X110722142Y-72094285D02*
X110865000Y-72094285D01*
X110936428Y-72058571D01*
X110972142Y-72022857D01*
X111043571Y-71915714D01*
X111079285Y-71772857D01*
X111079285Y-71487142D01*
X111043571Y-71415714D01*
X111007857Y-71380000D01*
X110936428Y-71344285D01*
X110793571Y-71344285D01*
X110722142Y-71380000D01*
X110686428Y-71415714D01*
X110650714Y-71487142D01*
X110650714Y-71665714D01*
X110686428Y-71737142D01*
X110722142Y-71772857D01*
X110793571Y-71808571D01*
X110936428Y-71808571D01*
X111007857Y-71772857D01*
X111043571Y-71737142D01*
X111079285Y-71665714D01*
G04 #@! TO.C,R11*
X110007857Y-66379285D02*
X109757857Y-66022142D01*
X109579285Y-66379285D02*
X109579285Y-65629285D01*
X109865000Y-65629285D01*
X109936428Y-65665000D01*
X109972142Y-65700714D01*
X110007857Y-65772142D01*
X110007857Y-65879285D01*
X109972142Y-65950714D01*
X109936428Y-65986428D01*
X109865000Y-66022142D01*
X109579285Y-66022142D01*
X110722142Y-66379285D02*
X110293571Y-66379285D01*
X110507857Y-66379285D02*
X110507857Y-65629285D01*
X110436428Y-65736428D01*
X110365000Y-65807857D01*
X110293571Y-65843571D01*
X111436428Y-66379285D02*
X111007857Y-66379285D01*
X111222142Y-66379285D02*
X111222142Y-65629285D01*
X111150714Y-65736428D01*
X111079285Y-65807857D01*
X111007857Y-65843571D01*
G04 #@! TO.C,R12*
X110007857Y-64474285D02*
X109757857Y-64117142D01*
X109579285Y-64474285D02*
X109579285Y-63724285D01*
X109865000Y-63724285D01*
X109936428Y-63760000D01*
X109972142Y-63795714D01*
X110007857Y-63867142D01*
X110007857Y-63974285D01*
X109972142Y-64045714D01*
X109936428Y-64081428D01*
X109865000Y-64117142D01*
X109579285Y-64117142D01*
X110722142Y-64474285D02*
X110293571Y-64474285D01*
X110507857Y-64474285D02*
X110507857Y-63724285D01*
X110436428Y-63831428D01*
X110365000Y-63902857D01*
X110293571Y-63938571D01*
X111007857Y-63795714D02*
X111043571Y-63760000D01*
X111115000Y-63724285D01*
X111293571Y-63724285D01*
X111365000Y-63760000D01*
X111400714Y-63795714D01*
X111436428Y-63867142D01*
X111436428Y-63938571D01*
X111400714Y-64045714D01*
X110972142Y-64474285D01*
X111436428Y-64474285D01*
G04 #@! TO.C,R13*
X110007857Y-62569285D02*
X109757857Y-62212142D01*
X109579285Y-62569285D02*
X109579285Y-61819285D01*
X109865000Y-61819285D01*
X109936428Y-61855000D01*
X109972142Y-61890714D01*
X110007857Y-61962142D01*
X110007857Y-62069285D01*
X109972142Y-62140714D01*
X109936428Y-62176428D01*
X109865000Y-62212142D01*
X109579285Y-62212142D01*
X110722142Y-62569285D02*
X110293571Y-62569285D01*
X110507857Y-62569285D02*
X110507857Y-61819285D01*
X110436428Y-61926428D01*
X110365000Y-61997857D01*
X110293571Y-62033571D01*
X110972142Y-61819285D02*
X111436428Y-61819285D01*
X111186428Y-62105000D01*
X111293571Y-62105000D01*
X111365000Y-62140714D01*
X111400714Y-62176428D01*
X111436428Y-62247857D01*
X111436428Y-62426428D01*
X111400714Y-62497857D01*
X111365000Y-62533571D01*
X111293571Y-62569285D01*
X111079285Y-62569285D01*
X111007857Y-62533571D01*
X110972142Y-62497857D01*
G04 #@! TO.C,R14*
X110007857Y-60664285D02*
X109757857Y-60307142D01*
X109579285Y-60664285D02*
X109579285Y-59914285D01*
X109865000Y-59914285D01*
X109936428Y-59950000D01*
X109972142Y-59985714D01*
X110007857Y-60057142D01*
X110007857Y-60164285D01*
X109972142Y-60235714D01*
X109936428Y-60271428D01*
X109865000Y-60307142D01*
X109579285Y-60307142D01*
X110722142Y-60664285D02*
X110293571Y-60664285D01*
X110507857Y-60664285D02*
X110507857Y-59914285D01*
X110436428Y-60021428D01*
X110365000Y-60092857D01*
X110293571Y-60128571D01*
X111365000Y-60164285D02*
X111365000Y-60664285D01*
X111186428Y-59878571D02*
X111007857Y-60414285D01*
X111472142Y-60414285D01*
G04 #@! TO.C,R15*
D10*
X119372142Y-63317380D02*
X119038809Y-62841190D01*
X118800714Y-63317380D02*
X118800714Y-62317380D01*
X119181666Y-62317380D01*
X119276904Y-62365000D01*
X119324523Y-62412619D01*
X119372142Y-62507857D01*
X119372142Y-62650714D01*
X119324523Y-62745952D01*
X119276904Y-62793571D01*
X119181666Y-62841190D01*
X118800714Y-62841190D01*
X120324523Y-63317380D02*
X119753095Y-63317380D01*
X120038809Y-63317380D02*
X120038809Y-62317380D01*
X119943571Y-62460238D01*
X119848333Y-62555476D01*
X119753095Y-62603095D01*
X121229285Y-62317380D02*
X120753095Y-62317380D01*
X120705476Y-62793571D01*
X120753095Y-62745952D01*
X120848333Y-62698333D01*
X121086428Y-62698333D01*
X121181666Y-62745952D01*
X121229285Y-62793571D01*
X121276904Y-62888809D01*
X121276904Y-63126904D01*
X121229285Y-63222142D01*
X121181666Y-63269761D01*
X121086428Y-63317380D01*
X120848333Y-63317380D01*
X120753095Y-63269761D01*
X120705476Y-63222142D01*
G04 #@! TO.C,R16*
X119372142Y-61412380D02*
X119038809Y-60936190D01*
X118800714Y-61412380D02*
X118800714Y-60412380D01*
X119181666Y-60412380D01*
X119276904Y-60460000D01*
X119324523Y-60507619D01*
X119372142Y-60602857D01*
X119372142Y-60745714D01*
X119324523Y-60840952D01*
X119276904Y-60888571D01*
X119181666Y-60936190D01*
X118800714Y-60936190D01*
X120324523Y-61412380D02*
X119753095Y-61412380D01*
X120038809Y-61412380D02*
X120038809Y-60412380D01*
X119943571Y-60555238D01*
X119848333Y-60650476D01*
X119753095Y-60698095D01*
X121181666Y-60412380D02*
X120991190Y-60412380D01*
X120895952Y-60460000D01*
X120848333Y-60507619D01*
X120753095Y-60650476D01*
X120705476Y-60840952D01*
X120705476Y-61221904D01*
X120753095Y-61317142D01*
X120800714Y-61364761D01*
X120895952Y-61412380D01*
X121086428Y-61412380D01*
X121181666Y-61364761D01*
X121229285Y-61317142D01*
X121276904Y-61221904D01*
X121276904Y-60983809D01*
X121229285Y-60888571D01*
X121181666Y-60840952D01*
X121086428Y-60793333D01*
X120895952Y-60793333D01*
X120800714Y-60840952D01*
X120753095Y-60888571D01*
X120705476Y-60983809D01*
G04 #@! TO.C,R17*
X119372142Y-59507380D02*
X119038809Y-59031190D01*
X118800714Y-59507380D02*
X118800714Y-58507380D01*
X119181666Y-58507380D01*
X119276904Y-58555000D01*
X119324523Y-58602619D01*
X119372142Y-58697857D01*
X119372142Y-58840714D01*
X119324523Y-58935952D01*
X119276904Y-58983571D01*
X119181666Y-59031190D01*
X118800714Y-59031190D01*
X120324523Y-59507380D02*
X119753095Y-59507380D01*
X120038809Y-59507380D02*
X120038809Y-58507380D01*
X119943571Y-58650238D01*
X119848333Y-58745476D01*
X119753095Y-58793095D01*
X120657857Y-58507380D02*
X121324523Y-58507380D01*
X120895952Y-59507380D01*
G04 #@! TO.C,R18*
D11*
X110007857Y-56854285D02*
X109757857Y-56497142D01*
X109579285Y-56854285D02*
X109579285Y-56104285D01*
X109865000Y-56104285D01*
X109936428Y-56140000D01*
X109972142Y-56175714D01*
X110007857Y-56247142D01*
X110007857Y-56354285D01*
X109972142Y-56425714D01*
X109936428Y-56461428D01*
X109865000Y-56497142D01*
X109579285Y-56497142D01*
X110722142Y-56854285D02*
X110293571Y-56854285D01*
X110507857Y-56854285D02*
X110507857Y-56104285D01*
X110436428Y-56211428D01*
X110365000Y-56282857D01*
X110293571Y-56318571D01*
X111150714Y-56425714D02*
X111079285Y-56390000D01*
X111043571Y-56354285D01*
X111007857Y-56282857D01*
X111007857Y-56247142D01*
X111043571Y-56175714D01*
X111079285Y-56140000D01*
X111150714Y-56104285D01*
X111293571Y-56104285D01*
X111365000Y-56140000D01*
X111400714Y-56175714D01*
X111436428Y-56247142D01*
X111436428Y-56282857D01*
X111400714Y-56354285D01*
X111365000Y-56390000D01*
X111293571Y-56425714D01*
X111150714Y-56425714D01*
X111079285Y-56461428D01*
X111043571Y-56497142D01*
X111007857Y-56568571D01*
X111007857Y-56711428D01*
X111043571Y-56782857D01*
X111079285Y-56818571D01*
X111150714Y-56854285D01*
X111293571Y-56854285D01*
X111365000Y-56818571D01*
X111400714Y-56782857D01*
X111436428Y-56711428D01*
X111436428Y-56568571D01*
X111400714Y-56497142D01*
X111365000Y-56461428D01*
X111293571Y-56425714D01*
G04 #@! TO.C,R20*
X110007857Y-51139285D02*
X109757857Y-50782142D01*
X109579285Y-51139285D02*
X109579285Y-50389285D01*
X109865000Y-50389285D01*
X109936428Y-50425000D01*
X109972142Y-50460714D01*
X110007857Y-50532142D01*
X110007857Y-50639285D01*
X109972142Y-50710714D01*
X109936428Y-50746428D01*
X109865000Y-50782142D01*
X109579285Y-50782142D01*
X110293571Y-50460714D02*
X110329285Y-50425000D01*
X110400714Y-50389285D01*
X110579285Y-50389285D01*
X110650714Y-50425000D01*
X110686428Y-50460714D01*
X110722142Y-50532142D01*
X110722142Y-50603571D01*
X110686428Y-50710714D01*
X110257857Y-51139285D01*
X110722142Y-51139285D01*
X111186428Y-50389285D02*
X111257857Y-50389285D01*
X111329285Y-50425000D01*
X111365000Y-50460714D01*
X111400714Y-50532142D01*
X111436428Y-50675000D01*
X111436428Y-50853571D01*
X111400714Y-50996428D01*
X111365000Y-51067857D01*
X111329285Y-51103571D01*
X111257857Y-51139285D01*
X111186428Y-51139285D01*
X111115000Y-51103571D01*
X111079285Y-51067857D01*
X111043571Y-50996428D01*
X111007857Y-50853571D01*
X111007857Y-50675000D01*
X111043571Y-50532142D01*
X111079285Y-50460714D01*
X111115000Y-50425000D01*
X111186428Y-50389285D01*
G04 #@! TO.C,R21*
X110007857Y-49234285D02*
X109757857Y-48877142D01*
X109579285Y-49234285D02*
X109579285Y-48484285D01*
X109865000Y-48484285D01*
X109936428Y-48520000D01*
X109972142Y-48555714D01*
X110007857Y-48627142D01*
X110007857Y-48734285D01*
X109972142Y-48805714D01*
X109936428Y-48841428D01*
X109865000Y-48877142D01*
X109579285Y-48877142D01*
X110293571Y-48555714D02*
X110329285Y-48520000D01*
X110400714Y-48484285D01*
X110579285Y-48484285D01*
X110650714Y-48520000D01*
X110686428Y-48555714D01*
X110722142Y-48627142D01*
X110722142Y-48698571D01*
X110686428Y-48805714D01*
X110257857Y-49234285D01*
X110722142Y-49234285D01*
X111436428Y-49234285D02*
X111007857Y-49234285D01*
X111222142Y-49234285D02*
X111222142Y-48484285D01*
X111150714Y-48591428D01*
X111079285Y-48662857D01*
X111007857Y-48698571D01*
G04 #@! TO.C,R22*
X110007857Y-47329285D02*
X109757857Y-46972142D01*
X109579285Y-47329285D02*
X109579285Y-46579285D01*
X109865000Y-46579285D01*
X109936428Y-46615000D01*
X109972142Y-46650714D01*
X110007857Y-46722142D01*
X110007857Y-46829285D01*
X109972142Y-46900714D01*
X109936428Y-46936428D01*
X109865000Y-46972142D01*
X109579285Y-46972142D01*
X110293571Y-46650714D02*
X110329285Y-46615000D01*
X110400714Y-46579285D01*
X110579285Y-46579285D01*
X110650714Y-46615000D01*
X110686428Y-46650714D01*
X110722142Y-46722142D01*
X110722142Y-46793571D01*
X110686428Y-46900714D01*
X110257857Y-47329285D01*
X110722142Y-47329285D01*
X111007857Y-46650714D02*
X111043571Y-46615000D01*
X111115000Y-46579285D01*
X111293571Y-46579285D01*
X111365000Y-46615000D01*
X111400714Y-46650714D01*
X111436428Y-46722142D01*
X111436428Y-46793571D01*
X111400714Y-46900714D01*
X110972142Y-47329285D01*
X111436428Y-47329285D01*
G04 #@! TO.C,R23*
X110007857Y-45424285D02*
X109757857Y-45067142D01*
X109579285Y-45424285D02*
X109579285Y-44674285D01*
X109865000Y-44674285D01*
X109936428Y-44710000D01*
X109972142Y-44745714D01*
X110007857Y-44817142D01*
X110007857Y-44924285D01*
X109972142Y-44995714D01*
X109936428Y-45031428D01*
X109865000Y-45067142D01*
X109579285Y-45067142D01*
X110293571Y-44745714D02*
X110329285Y-44710000D01*
X110400714Y-44674285D01*
X110579285Y-44674285D01*
X110650714Y-44710000D01*
X110686428Y-44745714D01*
X110722142Y-44817142D01*
X110722142Y-44888571D01*
X110686428Y-44995714D01*
X110257857Y-45424285D01*
X110722142Y-45424285D01*
X110972142Y-44674285D02*
X111436428Y-44674285D01*
X111186428Y-44960000D01*
X111293571Y-44960000D01*
X111365000Y-44995714D01*
X111400714Y-45031428D01*
X111436428Y-45102857D01*
X111436428Y-45281428D01*
X111400714Y-45352857D01*
X111365000Y-45388571D01*
X111293571Y-45424285D01*
X111079285Y-45424285D01*
X111007857Y-45388571D01*
X110972142Y-45352857D01*
G04 #@! TO.C,R24*
D10*
X119372142Y-48077380D02*
X119038809Y-47601190D01*
X118800714Y-48077380D02*
X118800714Y-47077380D01*
X119181666Y-47077380D01*
X119276904Y-47125000D01*
X119324523Y-47172619D01*
X119372142Y-47267857D01*
X119372142Y-47410714D01*
X119324523Y-47505952D01*
X119276904Y-47553571D01*
X119181666Y-47601190D01*
X118800714Y-47601190D01*
X119753095Y-47172619D02*
X119800714Y-47125000D01*
X119895952Y-47077380D01*
X120134047Y-47077380D01*
X120229285Y-47125000D01*
X120276904Y-47172619D01*
X120324523Y-47267857D01*
X120324523Y-47363095D01*
X120276904Y-47505952D01*
X119705476Y-48077380D01*
X120324523Y-48077380D01*
X121181666Y-47410714D02*
X121181666Y-48077380D01*
X120943571Y-47029761D02*
X120705476Y-47744047D01*
X121324523Y-47744047D01*
G04 #@! TO.C,R25*
X119372142Y-46172380D02*
X119038809Y-45696190D01*
X118800714Y-46172380D02*
X118800714Y-45172380D01*
X119181666Y-45172380D01*
X119276904Y-45220000D01*
X119324523Y-45267619D01*
X119372142Y-45362857D01*
X119372142Y-45505714D01*
X119324523Y-45600952D01*
X119276904Y-45648571D01*
X119181666Y-45696190D01*
X118800714Y-45696190D01*
X119753095Y-45267619D02*
X119800714Y-45220000D01*
X119895952Y-45172380D01*
X120134047Y-45172380D01*
X120229285Y-45220000D01*
X120276904Y-45267619D01*
X120324523Y-45362857D01*
X120324523Y-45458095D01*
X120276904Y-45600952D01*
X119705476Y-46172380D01*
X120324523Y-46172380D01*
X121229285Y-45172380D02*
X120753095Y-45172380D01*
X120705476Y-45648571D01*
X120753095Y-45600952D01*
X120848333Y-45553333D01*
X121086428Y-45553333D01*
X121181666Y-45600952D01*
X121229285Y-45648571D01*
X121276904Y-45743809D01*
X121276904Y-45981904D01*
X121229285Y-46077142D01*
X121181666Y-46124761D01*
X121086428Y-46172380D01*
X120848333Y-46172380D01*
X120753095Y-46124761D01*
X120705476Y-46077142D01*
G04 #@! TO.C,R26*
X119372142Y-44267380D02*
X119038809Y-43791190D01*
X118800714Y-44267380D02*
X118800714Y-43267380D01*
X119181666Y-43267380D01*
X119276904Y-43315000D01*
X119324523Y-43362619D01*
X119372142Y-43457857D01*
X119372142Y-43600714D01*
X119324523Y-43695952D01*
X119276904Y-43743571D01*
X119181666Y-43791190D01*
X118800714Y-43791190D01*
X119753095Y-43362619D02*
X119800714Y-43315000D01*
X119895952Y-43267380D01*
X120134047Y-43267380D01*
X120229285Y-43315000D01*
X120276904Y-43362619D01*
X120324523Y-43457857D01*
X120324523Y-43553095D01*
X120276904Y-43695952D01*
X119705476Y-44267380D01*
X120324523Y-44267380D01*
X121181666Y-43267380D02*
X120991190Y-43267380D01*
X120895952Y-43315000D01*
X120848333Y-43362619D01*
X120753095Y-43505476D01*
X120705476Y-43695952D01*
X120705476Y-44076904D01*
X120753095Y-44172142D01*
X120800714Y-44219761D01*
X120895952Y-44267380D01*
X121086428Y-44267380D01*
X121181666Y-44219761D01*
X121229285Y-44172142D01*
X121276904Y-44076904D01*
X121276904Y-43838809D01*
X121229285Y-43743571D01*
X121181666Y-43695952D01*
X121086428Y-43648333D01*
X120895952Y-43648333D01*
X120800714Y-43695952D01*
X120753095Y-43743571D01*
X120705476Y-43838809D01*
G04 #@! TO.C,R27*
D11*
X110007857Y-41614285D02*
X109757857Y-41257142D01*
X109579285Y-41614285D02*
X109579285Y-40864285D01*
X109865000Y-40864285D01*
X109936428Y-40900000D01*
X109972142Y-40935714D01*
X110007857Y-41007142D01*
X110007857Y-41114285D01*
X109972142Y-41185714D01*
X109936428Y-41221428D01*
X109865000Y-41257142D01*
X109579285Y-41257142D01*
X110293571Y-40935714D02*
X110329285Y-40900000D01*
X110400714Y-40864285D01*
X110579285Y-40864285D01*
X110650714Y-40900000D01*
X110686428Y-40935714D01*
X110722142Y-41007142D01*
X110722142Y-41078571D01*
X110686428Y-41185714D01*
X110257857Y-41614285D01*
X110722142Y-41614285D01*
X110972142Y-40864285D02*
X111472142Y-40864285D01*
X111150714Y-41614285D01*
G04 #@! TO.C,R28*
X110007857Y-73999285D02*
X109757857Y-73642142D01*
X109579285Y-73999285D02*
X109579285Y-73249285D01*
X109865000Y-73249285D01*
X109936428Y-73285000D01*
X109972142Y-73320714D01*
X110007857Y-73392142D01*
X110007857Y-73499285D01*
X109972142Y-73570714D01*
X109936428Y-73606428D01*
X109865000Y-73642142D01*
X109579285Y-73642142D01*
X110293571Y-73320714D02*
X110329285Y-73285000D01*
X110400714Y-73249285D01*
X110579285Y-73249285D01*
X110650714Y-73285000D01*
X110686428Y-73320714D01*
X110722142Y-73392142D01*
X110722142Y-73463571D01*
X110686428Y-73570714D01*
X110257857Y-73999285D01*
X110722142Y-73999285D01*
X111150714Y-73570714D02*
X111079285Y-73535000D01*
X111043571Y-73499285D01*
X111007857Y-73427857D01*
X111007857Y-73392142D01*
X111043571Y-73320714D01*
X111079285Y-73285000D01*
X111150714Y-73249285D01*
X111293571Y-73249285D01*
X111365000Y-73285000D01*
X111400714Y-73320714D01*
X111436428Y-73392142D01*
X111436428Y-73427857D01*
X111400714Y-73499285D01*
X111365000Y-73535000D01*
X111293571Y-73570714D01*
X111150714Y-73570714D01*
X111079285Y-73606428D01*
X111043571Y-73642142D01*
X111007857Y-73713571D01*
X111007857Y-73856428D01*
X111043571Y-73927857D01*
X111079285Y-73963571D01*
X111150714Y-73999285D01*
X111293571Y-73999285D01*
X111365000Y-73963571D01*
X111400714Y-73927857D01*
X111436428Y-73856428D01*
X111436428Y-73713571D01*
X111400714Y-73642142D01*
X111365000Y-73606428D01*
X111293571Y-73570714D01*
G04 #@! TO.C,R29*
D10*
X119372142Y-82367380D02*
X119038809Y-81891190D01*
X118800714Y-82367380D02*
X118800714Y-81367380D01*
X119181666Y-81367380D01*
X119276904Y-81415000D01*
X119324523Y-81462619D01*
X119372142Y-81557857D01*
X119372142Y-81700714D01*
X119324523Y-81795952D01*
X119276904Y-81843571D01*
X119181666Y-81891190D01*
X118800714Y-81891190D01*
X119753095Y-81462619D02*
X119800714Y-81415000D01*
X119895952Y-81367380D01*
X120134047Y-81367380D01*
X120229285Y-81415000D01*
X120276904Y-81462619D01*
X120324523Y-81557857D01*
X120324523Y-81653095D01*
X120276904Y-81795952D01*
X119705476Y-82367380D01*
X120324523Y-82367380D01*
X120800714Y-82367380D02*
X120991190Y-82367380D01*
X121086428Y-82319761D01*
X121134047Y-82272142D01*
X121229285Y-82129285D01*
X121276904Y-81938809D01*
X121276904Y-81557857D01*
X121229285Y-81462619D01*
X121181666Y-81415000D01*
X121086428Y-81367380D01*
X120895952Y-81367380D01*
X120800714Y-81415000D01*
X120753095Y-81462619D01*
X120705476Y-81557857D01*
X120705476Y-81795952D01*
X120753095Y-81891190D01*
X120800714Y-81938809D01*
X120895952Y-81986428D01*
X121086428Y-81986428D01*
X121181666Y-81938809D01*
X121229285Y-81891190D01*
X121276904Y-81795952D01*
G04 #@! TO.C,R30*
D11*
X110007857Y-58759285D02*
X109757857Y-58402142D01*
X109579285Y-58759285D02*
X109579285Y-58009285D01*
X109865000Y-58009285D01*
X109936428Y-58045000D01*
X109972142Y-58080714D01*
X110007857Y-58152142D01*
X110007857Y-58259285D01*
X109972142Y-58330714D01*
X109936428Y-58366428D01*
X109865000Y-58402142D01*
X109579285Y-58402142D01*
X110257857Y-58009285D02*
X110722142Y-58009285D01*
X110472142Y-58295000D01*
X110579285Y-58295000D01*
X110650714Y-58330714D01*
X110686428Y-58366428D01*
X110722142Y-58437857D01*
X110722142Y-58616428D01*
X110686428Y-58687857D01*
X110650714Y-58723571D01*
X110579285Y-58759285D01*
X110365000Y-58759285D01*
X110293571Y-58723571D01*
X110257857Y-58687857D01*
X111186428Y-58009285D02*
X111257857Y-58009285D01*
X111329285Y-58045000D01*
X111365000Y-58080714D01*
X111400714Y-58152142D01*
X111436428Y-58295000D01*
X111436428Y-58473571D01*
X111400714Y-58616428D01*
X111365000Y-58687857D01*
X111329285Y-58723571D01*
X111257857Y-58759285D01*
X111186428Y-58759285D01*
X111115000Y-58723571D01*
X111079285Y-58687857D01*
X111043571Y-58616428D01*
X111007857Y-58473571D01*
X111007857Y-58295000D01*
X111043571Y-58152142D01*
X111079285Y-58080714D01*
X111115000Y-58045000D01*
X111186428Y-58009285D01*
G04 #@! TO.C,R31*
D10*
X119372142Y-65222380D02*
X119038809Y-64746190D01*
X118800714Y-65222380D02*
X118800714Y-64222380D01*
X119181666Y-64222380D01*
X119276904Y-64270000D01*
X119324523Y-64317619D01*
X119372142Y-64412857D01*
X119372142Y-64555714D01*
X119324523Y-64650952D01*
X119276904Y-64698571D01*
X119181666Y-64746190D01*
X118800714Y-64746190D01*
X119705476Y-64222380D02*
X120324523Y-64222380D01*
X119991190Y-64603333D01*
X120134047Y-64603333D01*
X120229285Y-64650952D01*
X120276904Y-64698571D01*
X120324523Y-64793809D01*
X120324523Y-65031904D01*
X120276904Y-65127142D01*
X120229285Y-65174761D01*
X120134047Y-65222380D01*
X119848333Y-65222380D01*
X119753095Y-65174761D01*
X119705476Y-65127142D01*
X121276904Y-65222380D02*
X120705476Y-65222380D01*
X120991190Y-65222380D02*
X120991190Y-64222380D01*
X120895952Y-64365238D01*
X120800714Y-64460476D01*
X120705476Y-64508095D01*
G04 #@! TO.C,R32*
D11*
X110007857Y-43519285D02*
X109757857Y-43162142D01*
X109579285Y-43519285D02*
X109579285Y-42769285D01*
X109865000Y-42769285D01*
X109936428Y-42805000D01*
X109972142Y-42840714D01*
X110007857Y-42912142D01*
X110007857Y-43019285D01*
X109972142Y-43090714D01*
X109936428Y-43126428D01*
X109865000Y-43162142D01*
X109579285Y-43162142D01*
X110257857Y-42769285D02*
X110722142Y-42769285D01*
X110472142Y-43055000D01*
X110579285Y-43055000D01*
X110650714Y-43090714D01*
X110686428Y-43126428D01*
X110722142Y-43197857D01*
X110722142Y-43376428D01*
X110686428Y-43447857D01*
X110650714Y-43483571D01*
X110579285Y-43519285D01*
X110365000Y-43519285D01*
X110293571Y-43483571D01*
X110257857Y-43447857D01*
X111007857Y-42840714D02*
X111043571Y-42805000D01*
X111115000Y-42769285D01*
X111293571Y-42769285D01*
X111365000Y-42805000D01*
X111400714Y-42840714D01*
X111436428Y-42912142D01*
X111436428Y-42983571D01*
X111400714Y-43090714D01*
X110972142Y-43519285D01*
X111436428Y-43519285D01*
G04 #@! TO.C,R33*
D10*
X119372142Y-49982380D02*
X119038809Y-49506190D01*
X118800714Y-49982380D02*
X118800714Y-48982380D01*
X119181666Y-48982380D01*
X119276904Y-49030000D01*
X119324523Y-49077619D01*
X119372142Y-49172857D01*
X119372142Y-49315714D01*
X119324523Y-49410952D01*
X119276904Y-49458571D01*
X119181666Y-49506190D01*
X118800714Y-49506190D01*
X119705476Y-48982380D02*
X120324523Y-48982380D01*
X119991190Y-49363333D01*
X120134047Y-49363333D01*
X120229285Y-49410952D01*
X120276904Y-49458571D01*
X120324523Y-49553809D01*
X120324523Y-49791904D01*
X120276904Y-49887142D01*
X120229285Y-49934761D01*
X120134047Y-49982380D01*
X119848333Y-49982380D01*
X119753095Y-49934761D01*
X119705476Y-49887142D01*
X120657857Y-48982380D02*
X121276904Y-48982380D01*
X120943571Y-49363333D01*
X121086428Y-49363333D01*
X121181666Y-49410952D01*
X121229285Y-49458571D01*
X121276904Y-49553809D01*
X121276904Y-49791904D01*
X121229285Y-49887142D01*
X121181666Y-49934761D01*
X121086428Y-49982380D01*
X120800714Y-49982380D01*
X120705476Y-49934761D01*
X120657857Y-49887142D01*
G04 #@! TO.C,U1*
X114333095Y-70287380D02*
X114333095Y-71096904D01*
X114380714Y-71192142D01*
X114428333Y-71239761D01*
X114523571Y-71287380D01*
X114714047Y-71287380D01*
X114809285Y-71239761D01*
X114856904Y-71192142D01*
X114904523Y-71096904D01*
X114904523Y-70287380D01*
X115904523Y-71287380D02*
X115333095Y-71287380D01*
X115618809Y-71287380D02*
X115618809Y-70287380D01*
X115523571Y-70430238D01*
X115428333Y-70525476D01*
X115333095Y-70573095D01*
G04 #@! TO.C,U2*
X114333095Y-55047380D02*
X114333095Y-55856904D01*
X114380714Y-55952142D01*
X114428333Y-55999761D01*
X114523571Y-56047380D01*
X114714047Y-56047380D01*
X114809285Y-55999761D01*
X114856904Y-55952142D01*
X114904523Y-55856904D01*
X114904523Y-55047380D01*
X115333095Y-55142619D02*
X115380714Y-55095000D01*
X115475952Y-55047380D01*
X115714047Y-55047380D01*
X115809285Y-55095000D01*
X115856904Y-55142619D01*
X115904523Y-55237857D01*
X115904523Y-55333095D01*
X115856904Y-55475952D01*
X115285476Y-56047380D01*
X115904523Y-56047380D01*
G04 #@! TO.C,U3*
X114333095Y-39807380D02*
X114333095Y-40616904D01*
X114380714Y-40712142D01*
X114428333Y-40759761D01*
X114523571Y-40807380D01*
X114714047Y-40807380D01*
X114809285Y-40759761D01*
X114856904Y-40712142D01*
X114904523Y-40616904D01*
X114904523Y-39807380D01*
X115285476Y-39807380D02*
X115904523Y-39807380D01*
X115571190Y-40188333D01*
X115714047Y-40188333D01*
X115809285Y-40235952D01*
X115856904Y-40283571D01*
X115904523Y-40378809D01*
X115904523Y-40616904D01*
X115856904Y-40712142D01*
X115809285Y-40759761D01*
X115714047Y-40807380D01*
X115428333Y-40807380D01*
X115333095Y-40759761D01*
X115285476Y-40712142D01*
G04 #@! TD*
M02*
