G04 #@! TF.GenerationSoftware,KiCad,Pcbnew,(5.0.2)-1*
G04 #@! TF.CreationDate,2018-12-27T21:36:54-05:00*
G04 #@! TF.ProjectId,WarthoggitClone,57617274-686f-4676-9769-74436c6f6e65,rev?*
G04 #@! TF.SameCoordinates,Original*
G04 #@! TF.FileFunction,Soldermask,Top*
G04 #@! TF.FilePolarity,Negative*
%FSLAX46Y46*%
G04 Gerber Fmt 4.6, Leading zero omitted, Abs format (unit mm)*
G04 Created by KiCad (PCBNEW (5.0.2)-1) date 12/27/2018 9:36:54 PM*
%MOMM*%
%LPD*%
G01*
G04 APERTURE LIST*
%ADD10C,0.100000*%
G04 APERTURE END LIST*
D10*
G36*
X124499466Y-81168565D02*
X124538137Y-81180296D01*
X124573779Y-81199348D01*
X124605017Y-81224983D01*
X124630652Y-81256221D01*
X124649704Y-81291863D01*
X124661435Y-81330534D01*
X124666000Y-81376888D01*
X124666000Y-82453112D01*
X124661435Y-82499466D01*
X124649704Y-82538137D01*
X124630652Y-82573779D01*
X124605017Y-82605017D01*
X124573779Y-82630652D01*
X124538137Y-82649704D01*
X124499466Y-82661435D01*
X124453112Y-82666000D01*
X123801888Y-82666000D01*
X123755534Y-82661435D01*
X123716863Y-82649704D01*
X123681221Y-82630652D01*
X123649983Y-82605017D01*
X123624348Y-82573779D01*
X123605296Y-82538137D01*
X123593565Y-82499466D01*
X123589000Y-82453112D01*
X123589000Y-81376888D01*
X123593565Y-81330534D01*
X123605296Y-81291863D01*
X123624348Y-81256221D01*
X123649983Y-81224983D01*
X123681221Y-81199348D01*
X123716863Y-81180296D01*
X123755534Y-81168565D01*
X123801888Y-81164000D01*
X124453112Y-81164000D01*
X124499466Y-81168565D01*
X124499466Y-81168565D01*
G37*
G36*
X122624466Y-81168565D02*
X122663137Y-81180296D01*
X122698779Y-81199348D01*
X122730017Y-81224983D01*
X122755652Y-81256221D01*
X122774704Y-81291863D01*
X122786435Y-81330534D01*
X122791000Y-81376888D01*
X122791000Y-82453112D01*
X122786435Y-82499466D01*
X122774704Y-82538137D01*
X122755652Y-82573779D01*
X122730017Y-82605017D01*
X122698779Y-82630652D01*
X122663137Y-82649704D01*
X122624466Y-82661435D01*
X122578112Y-82666000D01*
X121926888Y-82666000D01*
X121880534Y-82661435D01*
X121841863Y-82649704D01*
X121806221Y-82630652D01*
X121774983Y-82605017D01*
X121749348Y-82573779D01*
X121730296Y-82538137D01*
X121718565Y-82499466D01*
X121714000Y-82453112D01*
X121714000Y-81376888D01*
X121718565Y-81330534D01*
X121730296Y-81291863D01*
X121749348Y-81256221D01*
X121774983Y-81224983D01*
X121806221Y-81199348D01*
X121841863Y-81180296D01*
X121880534Y-81168565D01*
X121926888Y-81164000D01*
X122578112Y-81164000D01*
X122624466Y-81168565D01*
X122624466Y-81168565D01*
G37*
G36*
X109259466Y-80533565D02*
X109298137Y-80545296D01*
X109333779Y-80564348D01*
X109365017Y-80589983D01*
X109390652Y-80621221D01*
X109409704Y-80656863D01*
X109421435Y-80695534D01*
X109426000Y-80741888D01*
X109426000Y-81818112D01*
X109421435Y-81864466D01*
X109409704Y-81903137D01*
X109390652Y-81938779D01*
X109365017Y-81970017D01*
X109333779Y-81995652D01*
X109298137Y-82014704D01*
X109259466Y-82026435D01*
X109213112Y-82031000D01*
X108561888Y-82031000D01*
X108515534Y-82026435D01*
X108476863Y-82014704D01*
X108441221Y-81995652D01*
X108409983Y-81970017D01*
X108384348Y-81938779D01*
X108365296Y-81903137D01*
X108353565Y-81864466D01*
X108349000Y-81818112D01*
X108349000Y-80741888D01*
X108353565Y-80695534D01*
X108365296Y-80656863D01*
X108384348Y-80621221D01*
X108409983Y-80589983D01*
X108441221Y-80564348D01*
X108476863Y-80545296D01*
X108515534Y-80533565D01*
X108561888Y-80529000D01*
X109213112Y-80529000D01*
X109259466Y-80533565D01*
X109259466Y-80533565D01*
G37*
G36*
X107384466Y-80533565D02*
X107423137Y-80545296D01*
X107458779Y-80564348D01*
X107490017Y-80589983D01*
X107515652Y-80621221D01*
X107534704Y-80656863D01*
X107546435Y-80695534D01*
X107551000Y-80741888D01*
X107551000Y-81818112D01*
X107546435Y-81864466D01*
X107534704Y-81903137D01*
X107515652Y-81938779D01*
X107490017Y-81970017D01*
X107458779Y-81995652D01*
X107423137Y-82014704D01*
X107384466Y-82026435D01*
X107338112Y-82031000D01*
X106686888Y-82031000D01*
X106640534Y-82026435D01*
X106601863Y-82014704D01*
X106566221Y-81995652D01*
X106534983Y-81970017D01*
X106509348Y-81938779D01*
X106490296Y-81903137D01*
X106478565Y-81864466D01*
X106474000Y-81818112D01*
X106474000Y-80741888D01*
X106478565Y-80695534D01*
X106490296Y-80656863D01*
X106509348Y-80621221D01*
X106534983Y-80589983D01*
X106566221Y-80564348D01*
X106601863Y-80545296D01*
X106640534Y-80533565D01*
X106686888Y-80529000D01*
X107338112Y-80529000D01*
X107384466Y-80533565D01*
X107384466Y-80533565D01*
G37*
G36*
X118596000Y-81631000D02*
X116994000Y-81631000D01*
X116994000Y-80929000D01*
X118596000Y-80929000D01*
X118596000Y-81631000D01*
X118596000Y-81631000D01*
G37*
G36*
X113196000Y-81631000D02*
X111594000Y-81631000D01*
X111594000Y-80929000D01*
X113196000Y-80929000D01*
X113196000Y-81631000D01*
X113196000Y-81631000D01*
G37*
G36*
X122624466Y-79263565D02*
X122663137Y-79275296D01*
X122698779Y-79294348D01*
X122730017Y-79319983D01*
X122755652Y-79351221D01*
X122774704Y-79386863D01*
X122786435Y-79425534D01*
X122791000Y-79471888D01*
X122791000Y-80548112D01*
X122786435Y-80594466D01*
X122774704Y-80633137D01*
X122755652Y-80668779D01*
X122730017Y-80700017D01*
X122698779Y-80725652D01*
X122663137Y-80744704D01*
X122624466Y-80756435D01*
X122578112Y-80761000D01*
X121926888Y-80761000D01*
X121880534Y-80756435D01*
X121841863Y-80744704D01*
X121806221Y-80725652D01*
X121774983Y-80700017D01*
X121749348Y-80668779D01*
X121730296Y-80633137D01*
X121718565Y-80594466D01*
X121714000Y-80548112D01*
X121714000Y-79471888D01*
X121718565Y-79425534D01*
X121730296Y-79386863D01*
X121749348Y-79351221D01*
X121774983Y-79319983D01*
X121806221Y-79294348D01*
X121841863Y-79275296D01*
X121880534Y-79263565D01*
X121926888Y-79259000D01*
X122578112Y-79259000D01*
X122624466Y-79263565D01*
X122624466Y-79263565D01*
G37*
G36*
X124499466Y-79263565D02*
X124538137Y-79275296D01*
X124573779Y-79294348D01*
X124605017Y-79319983D01*
X124630652Y-79351221D01*
X124649704Y-79386863D01*
X124661435Y-79425534D01*
X124666000Y-79471888D01*
X124666000Y-80548112D01*
X124661435Y-80594466D01*
X124649704Y-80633137D01*
X124630652Y-80668779D01*
X124605017Y-80700017D01*
X124573779Y-80725652D01*
X124538137Y-80744704D01*
X124499466Y-80756435D01*
X124453112Y-80761000D01*
X123801888Y-80761000D01*
X123755534Y-80756435D01*
X123716863Y-80744704D01*
X123681221Y-80725652D01*
X123649983Y-80700017D01*
X123624348Y-80668779D01*
X123605296Y-80633137D01*
X123593565Y-80594466D01*
X123589000Y-80548112D01*
X123589000Y-79471888D01*
X123593565Y-79425534D01*
X123605296Y-79386863D01*
X123624348Y-79351221D01*
X123649983Y-79319983D01*
X123681221Y-79294348D01*
X123716863Y-79275296D01*
X123755534Y-79263565D01*
X123801888Y-79259000D01*
X124453112Y-79259000D01*
X124499466Y-79263565D01*
X124499466Y-79263565D01*
G37*
G36*
X113196000Y-80361000D02*
X111594000Y-80361000D01*
X111594000Y-79659000D01*
X113196000Y-79659000D01*
X113196000Y-80361000D01*
X113196000Y-80361000D01*
G37*
G36*
X118596000Y-80361000D02*
X116994000Y-80361000D01*
X116994000Y-79659000D01*
X118596000Y-79659000D01*
X118596000Y-80361000D01*
X118596000Y-80361000D01*
G37*
G36*
X109259466Y-78628565D02*
X109298137Y-78640296D01*
X109333779Y-78659348D01*
X109365017Y-78684983D01*
X109390652Y-78716221D01*
X109409704Y-78751863D01*
X109421435Y-78790534D01*
X109426000Y-78836888D01*
X109426000Y-79913112D01*
X109421435Y-79959466D01*
X109409704Y-79998137D01*
X109390652Y-80033779D01*
X109365017Y-80065017D01*
X109333779Y-80090652D01*
X109298137Y-80109704D01*
X109259466Y-80121435D01*
X109213112Y-80126000D01*
X108561888Y-80126000D01*
X108515534Y-80121435D01*
X108476863Y-80109704D01*
X108441221Y-80090652D01*
X108409983Y-80065017D01*
X108384348Y-80033779D01*
X108365296Y-79998137D01*
X108353565Y-79959466D01*
X108349000Y-79913112D01*
X108349000Y-78836888D01*
X108353565Y-78790534D01*
X108365296Y-78751863D01*
X108384348Y-78716221D01*
X108409983Y-78684983D01*
X108441221Y-78659348D01*
X108476863Y-78640296D01*
X108515534Y-78628565D01*
X108561888Y-78624000D01*
X109213112Y-78624000D01*
X109259466Y-78628565D01*
X109259466Y-78628565D01*
G37*
G36*
X107384466Y-78628565D02*
X107423137Y-78640296D01*
X107458779Y-78659348D01*
X107490017Y-78684983D01*
X107515652Y-78716221D01*
X107534704Y-78751863D01*
X107546435Y-78790534D01*
X107551000Y-78836888D01*
X107551000Y-79913112D01*
X107546435Y-79959466D01*
X107534704Y-79998137D01*
X107515652Y-80033779D01*
X107490017Y-80065017D01*
X107458779Y-80090652D01*
X107423137Y-80109704D01*
X107384466Y-80121435D01*
X107338112Y-80126000D01*
X106686888Y-80126000D01*
X106640534Y-80121435D01*
X106601863Y-80109704D01*
X106566221Y-80090652D01*
X106534983Y-80065017D01*
X106509348Y-80033779D01*
X106490296Y-79998137D01*
X106478565Y-79959466D01*
X106474000Y-79913112D01*
X106474000Y-78836888D01*
X106478565Y-78790534D01*
X106490296Y-78751863D01*
X106509348Y-78716221D01*
X106534983Y-78684983D01*
X106566221Y-78659348D01*
X106601863Y-78640296D01*
X106640534Y-78628565D01*
X106686888Y-78624000D01*
X107338112Y-78624000D01*
X107384466Y-78628565D01*
X107384466Y-78628565D01*
G37*
G36*
X127973413Y-78295525D02*
X128048456Y-78318290D01*
X128058425Y-78321314D01*
X128136774Y-78363193D01*
X128205448Y-78419552D01*
X128261807Y-78488226D01*
X128303686Y-78566575D01*
X128303687Y-78566579D01*
X128329475Y-78651587D01*
X128338182Y-78740000D01*
X128329475Y-78828413D01*
X128309806Y-78893250D01*
X128303686Y-78913425D01*
X128261807Y-78991774D01*
X128205448Y-79060448D01*
X128136774Y-79116807D01*
X128058425Y-79158686D01*
X128048456Y-79161710D01*
X127973413Y-79184475D01*
X127907158Y-79191000D01*
X127362842Y-79191000D01*
X127296587Y-79184475D01*
X127221544Y-79161710D01*
X127211575Y-79158686D01*
X127133226Y-79116807D01*
X127064552Y-79060448D01*
X127008193Y-78991774D01*
X126966314Y-78913425D01*
X126960194Y-78893250D01*
X126940525Y-78828413D01*
X126931818Y-78740000D01*
X126940525Y-78651587D01*
X126966313Y-78566579D01*
X126966314Y-78566575D01*
X127008193Y-78488226D01*
X127064552Y-78419552D01*
X127133226Y-78363193D01*
X127211575Y-78321314D01*
X127221544Y-78318290D01*
X127296587Y-78295525D01*
X127362842Y-78289000D01*
X127907158Y-78289000D01*
X127973413Y-78295525D01*
X127973413Y-78295525D01*
G37*
G36*
X102573413Y-78215525D02*
X102648456Y-78238290D01*
X102658425Y-78241314D01*
X102736774Y-78283193D01*
X102805448Y-78339552D01*
X102861807Y-78408226D01*
X102903686Y-78486575D01*
X102904187Y-78488226D01*
X102929475Y-78571587D01*
X102938182Y-78660000D01*
X102929475Y-78748413D01*
X102915337Y-78795017D01*
X102903686Y-78833425D01*
X102861807Y-78911774D01*
X102805448Y-78980448D01*
X102736774Y-79036807D01*
X102658425Y-79078686D01*
X102648456Y-79081710D01*
X102573413Y-79104475D01*
X102507158Y-79111000D01*
X101962842Y-79111000D01*
X101896587Y-79104475D01*
X101821544Y-79081710D01*
X101811575Y-79078686D01*
X101733226Y-79036807D01*
X101664552Y-78980448D01*
X101608193Y-78911774D01*
X101566314Y-78833425D01*
X101554663Y-78795017D01*
X101540525Y-78748413D01*
X101531818Y-78660000D01*
X101540525Y-78571587D01*
X101565813Y-78488226D01*
X101566314Y-78486575D01*
X101608193Y-78408226D01*
X101664552Y-78339552D01*
X101733226Y-78283193D01*
X101811575Y-78241314D01*
X101821544Y-78238290D01*
X101896587Y-78215525D01*
X101962842Y-78209000D01*
X102507158Y-78209000D01*
X102573413Y-78215525D01*
X102573413Y-78215525D01*
G37*
G36*
X118596000Y-79091000D02*
X116994000Y-79091000D01*
X116994000Y-78389000D01*
X118596000Y-78389000D01*
X118596000Y-79091000D01*
X118596000Y-79091000D01*
G37*
G36*
X113196000Y-79091000D02*
X111594000Y-79091000D01*
X111594000Y-78389000D01*
X113196000Y-78389000D01*
X113196000Y-79091000D01*
X113196000Y-79091000D01*
G37*
G36*
X124499466Y-77358565D02*
X124538137Y-77370296D01*
X124573779Y-77389348D01*
X124605017Y-77414983D01*
X124630652Y-77446221D01*
X124649704Y-77481863D01*
X124661435Y-77520534D01*
X124666000Y-77566888D01*
X124666000Y-78643112D01*
X124661435Y-78689466D01*
X124649704Y-78728137D01*
X124630652Y-78763779D01*
X124605017Y-78795017D01*
X124573779Y-78820652D01*
X124538137Y-78839704D01*
X124499466Y-78851435D01*
X124453112Y-78856000D01*
X123801888Y-78856000D01*
X123755534Y-78851435D01*
X123716863Y-78839704D01*
X123681221Y-78820652D01*
X123649983Y-78795017D01*
X123624348Y-78763779D01*
X123605296Y-78728137D01*
X123593565Y-78689466D01*
X123589000Y-78643112D01*
X123589000Y-77566888D01*
X123593565Y-77520534D01*
X123605296Y-77481863D01*
X123624348Y-77446221D01*
X123649983Y-77414983D01*
X123681221Y-77389348D01*
X123716863Y-77370296D01*
X123755534Y-77358565D01*
X123801888Y-77354000D01*
X124453112Y-77354000D01*
X124499466Y-77358565D01*
X124499466Y-77358565D01*
G37*
G36*
X122624466Y-77358565D02*
X122663137Y-77370296D01*
X122698779Y-77389348D01*
X122730017Y-77414983D01*
X122755652Y-77446221D01*
X122774704Y-77481863D01*
X122786435Y-77520534D01*
X122791000Y-77566888D01*
X122791000Y-78643112D01*
X122786435Y-78689466D01*
X122774704Y-78728137D01*
X122755652Y-78763779D01*
X122730017Y-78795017D01*
X122698779Y-78820652D01*
X122663137Y-78839704D01*
X122624466Y-78851435D01*
X122578112Y-78856000D01*
X121926888Y-78856000D01*
X121880534Y-78851435D01*
X121841863Y-78839704D01*
X121806221Y-78820652D01*
X121774983Y-78795017D01*
X121749348Y-78763779D01*
X121730296Y-78728137D01*
X121718565Y-78689466D01*
X121714000Y-78643112D01*
X121714000Y-77566888D01*
X121718565Y-77520534D01*
X121730296Y-77481863D01*
X121749348Y-77446221D01*
X121774983Y-77414983D01*
X121806221Y-77389348D01*
X121841863Y-77370296D01*
X121880534Y-77358565D01*
X121926888Y-77354000D01*
X122578112Y-77354000D01*
X122624466Y-77358565D01*
X122624466Y-77358565D01*
G37*
G36*
X109259466Y-76723565D02*
X109298137Y-76735296D01*
X109333779Y-76754348D01*
X109365017Y-76779983D01*
X109390652Y-76811221D01*
X109409704Y-76846863D01*
X109421435Y-76885534D01*
X109426000Y-76931888D01*
X109426000Y-78008112D01*
X109421435Y-78054466D01*
X109409704Y-78093137D01*
X109390652Y-78128779D01*
X109365017Y-78160017D01*
X109333779Y-78185652D01*
X109298137Y-78204704D01*
X109259466Y-78216435D01*
X109213112Y-78221000D01*
X108561888Y-78221000D01*
X108515534Y-78216435D01*
X108476863Y-78204704D01*
X108441221Y-78185652D01*
X108409983Y-78160017D01*
X108384348Y-78128779D01*
X108365296Y-78093137D01*
X108353565Y-78054466D01*
X108349000Y-78008112D01*
X108349000Y-76931888D01*
X108353565Y-76885534D01*
X108365296Y-76846863D01*
X108384348Y-76811221D01*
X108409983Y-76779983D01*
X108441221Y-76754348D01*
X108476863Y-76735296D01*
X108515534Y-76723565D01*
X108561888Y-76719000D01*
X109213112Y-76719000D01*
X109259466Y-76723565D01*
X109259466Y-76723565D01*
G37*
G36*
X107384466Y-76723565D02*
X107423137Y-76735296D01*
X107458779Y-76754348D01*
X107490017Y-76779983D01*
X107515652Y-76811221D01*
X107534704Y-76846863D01*
X107546435Y-76885534D01*
X107551000Y-76931888D01*
X107551000Y-78008112D01*
X107546435Y-78054466D01*
X107534704Y-78093137D01*
X107515652Y-78128779D01*
X107490017Y-78160017D01*
X107458779Y-78185652D01*
X107423137Y-78204704D01*
X107384466Y-78216435D01*
X107338112Y-78221000D01*
X106686888Y-78221000D01*
X106640534Y-78216435D01*
X106601863Y-78204704D01*
X106566221Y-78185652D01*
X106534983Y-78160017D01*
X106509348Y-78128779D01*
X106490296Y-78093137D01*
X106478565Y-78054466D01*
X106474000Y-78008112D01*
X106474000Y-76931888D01*
X106478565Y-76885534D01*
X106490296Y-76846863D01*
X106509348Y-76811221D01*
X106534983Y-76779983D01*
X106566221Y-76754348D01*
X106601863Y-76735296D01*
X106640534Y-76723565D01*
X106686888Y-76719000D01*
X107338112Y-76719000D01*
X107384466Y-76723565D01*
X107384466Y-76723565D01*
G37*
G36*
X127973413Y-77045525D02*
X128048456Y-77068290D01*
X128058425Y-77071314D01*
X128136774Y-77113193D01*
X128205448Y-77169552D01*
X128261807Y-77238226D01*
X128303686Y-77316575D01*
X128303687Y-77316579D01*
X128329475Y-77401587D01*
X128338182Y-77490000D01*
X128329475Y-77578413D01*
X128315873Y-77623250D01*
X128303686Y-77663425D01*
X128261807Y-77741774D01*
X128205448Y-77810448D01*
X128136774Y-77866807D01*
X128058425Y-77908686D01*
X128048456Y-77911710D01*
X127973413Y-77934475D01*
X127907158Y-77941000D01*
X127362842Y-77941000D01*
X127296587Y-77934475D01*
X127221544Y-77911710D01*
X127211575Y-77908686D01*
X127133226Y-77866807D01*
X127064552Y-77810448D01*
X127008193Y-77741774D01*
X126966314Y-77663425D01*
X126954127Y-77623250D01*
X126940525Y-77578413D01*
X126931818Y-77490000D01*
X126940525Y-77401587D01*
X126966313Y-77316579D01*
X126966314Y-77316575D01*
X127008193Y-77238226D01*
X127064552Y-77169552D01*
X127133226Y-77113193D01*
X127211575Y-77071314D01*
X127221544Y-77068290D01*
X127296587Y-77045525D01*
X127362842Y-77039000D01*
X127907158Y-77039000D01*
X127973413Y-77045525D01*
X127973413Y-77045525D01*
G37*
G36*
X102573413Y-76965525D02*
X102648324Y-76988250D01*
X102658425Y-76991314D01*
X102736774Y-77033193D01*
X102805448Y-77089552D01*
X102861807Y-77158226D01*
X102903686Y-77236575D01*
X102904187Y-77238226D01*
X102929475Y-77321587D01*
X102938182Y-77410000D01*
X102929475Y-77498413D01*
X102908702Y-77566888D01*
X102903686Y-77583425D01*
X102861807Y-77661774D01*
X102805448Y-77730448D01*
X102736774Y-77786807D01*
X102658425Y-77828686D01*
X102648456Y-77831710D01*
X102573413Y-77854475D01*
X102507158Y-77861000D01*
X101962842Y-77861000D01*
X101896587Y-77854475D01*
X101821544Y-77831710D01*
X101811575Y-77828686D01*
X101733226Y-77786807D01*
X101664552Y-77730448D01*
X101608193Y-77661774D01*
X101566314Y-77583425D01*
X101561298Y-77566888D01*
X101540525Y-77498413D01*
X101531818Y-77410000D01*
X101540525Y-77321587D01*
X101565813Y-77238226D01*
X101566314Y-77236575D01*
X101608193Y-77158226D01*
X101664552Y-77089552D01*
X101733226Y-77033193D01*
X101811575Y-76991314D01*
X101821676Y-76988250D01*
X101896587Y-76965525D01*
X101962842Y-76959000D01*
X102507158Y-76959000D01*
X102573413Y-76965525D01*
X102573413Y-76965525D01*
G37*
G36*
X118596000Y-77821000D02*
X116994000Y-77821000D01*
X116994000Y-77119000D01*
X118596000Y-77119000D01*
X118596000Y-77821000D01*
X118596000Y-77821000D01*
G37*
G36*
X113196000Y-77821000D02*
X111594000Y-77821000D01*
X111594000Y-77119000D01*
X113196000Y-77119000D01*
X113196000Y-77821000D01*
X113196000Y-77821000D01*
G37*
G36*
X124499466Y-75453565D02*
X124538137Y-75465296D01*
X124573779Y-75484348D01*
X124605017Y-75509983D01*
X124630652Y-75541221D01*
X124649704Y-75576863D01*
X124661435Y-75615534D01*
X124666000Y-75661888D01*
X124666000Y-76738112D01*
X124661435Y-76784466D01*
X124649704Y-76823137D01*
X124630652Y-76858779D01*
X124605017Y-76890017D01*
X124573779Y-76915652D01*
X124538137Y-76934704D01*
X124499466Y-76946435D01*
X124453112Y-76951000D01*
X123801888Y-76951000D01*
X123755534Y-76946435D01*
X123716863Y-76934704D01*
X123681221Y-76915652D01*
X123649983Y-76890017D01*
X123624348Y-76858779D01*
X123605296Y-76823137D01*
X123593565Y-76784466D01*
X123589000Y-76738112D01*
X123589000Y-75661888D01*
X123593565Y-75615534D01*
X123605296Y-75576863D01*
X123624348Y-75541221D01*
X123649983Y-75509983D01*
X123681221Y-75484348D01*
X123716863Y-75465296D01*
X123755534Y-75453565D01*
X123801888Y-75449000D01*
X124453112Y-75449000D01*
X124499466Y-75453565D01*
X124499466Y-75453565D01*
G37*
G36*
X122624466Y-75453565D02*
X122663137Y-75465296D01*
X122698779Y-75484348D01*
X122730017Y-75509983D01*
X122755652Y-75541221D01*
X122774704Y-75576863D01*
X122786435Y-75615534D01*
X122791000Y-75661888D01*
X122791000Y-76738112D01*
X122786435Y-76784466D01*
X122774704Y-76823137D01*
X122755652Y-76858779D01*
X122730017Y-76890017D01*
X122698779Y-76915652D01*
X122663137Y-76934704D01*
X122624466Y-76946435D01*
X122578112Y-76951000D01*
X121926888Y-76951000D01*
X121880534Y-76946435D01*
X121841863Y-76934704D01*
X121806221Y-76915652D01*
X121774983Y-76890017D01*
X121749348Y-76858779D01*
X121730296Y-76823137D01*
X121718565Y-76784466D01*
X121714000Y-76738112D01*
X121714000Y-75661888D01*
X121718565Y-75615534D01*
X121730296Y-75576863D01*
X121749348Y-75541221D01*
X121774983Y-75509983D01*
X121806221Y-75484348D01*
X121841863Y-75465296D01*
X121880534Y-75453565D01*
X121926888Y-75449000D01*
X122578112Y-75449000D01*
X122624466Y-75453565D01*
X122624466Y-75453565D01*
G37*
G36*
X127973413Y-75795525D02*
X128048456Y-75818290D01*
X128058425Y-75821314D01*
X128136774Y-75863193D01*
X128205448Y-75919552D01*
X128261807Y-75988226D01*
X128303686Y-76066575D01*
X128303687Y-76066579D01*
X128329475Y-76151587D01*
X128338182Y-76240000D01*
X128329475Y-76328413D01*
X128306710Y-76403456D01*
X128303686Y-76413425D01*
X128261807Y-76491774D01*
X128205448Y-76560448D01*
X128136774Y-76616807D01*
X128058425Y-76658686D01*
X128048456Y-76661710D01*
X127973413Y-76684475D01*
X127907158Y-76691000D01*
X127362842Y-76691000D01*
X127296587Y-76684475D01*
X127221544Y-76661710D01*
X127211575Y-76658686D01*
X127133226Y-76616807D01*
X127064552Y-76560448D01*
X127008193Y-76491774D01*
X126966314Y-76413425D01*
X126963290Y-76403456D01*
X126940525Y-76328413D01*
X126931818Y-76240000D01*
X126940525Y-76151587D01*
X126966313Y-76066579D01*
X126966314Y-76066575D01*
X127008193Y-75988226D01*
X127064552Y-75919552D01*
X127133226Y-75863193D01*
X127211575Y-75821314D01*
X127221544Y-75818290D01*
X127296587Y-75795525D01*
X127362842Y-75789000D01*
X127907158Y-75789000D01*
X127973413Y-75795525D01*
X127973413Y-75795525D01*
G37*
G36*
X102573413Y-75715525D02*
X102648456Y-75738290D01*
X102658425Y-75741314D01*
X102736774Y-75783193D01*
X102805448Y-75839552D01*
X102861807Y-75908226D01*
X102903686Y-75986575D01*
X102904187Y-75988226D01*
X102929475Y-76071587D01*
X102938182Y-76160000D01*
X102929475Y-76248413D01*
X102908972Y-76316000D01*
X102903686Y-76333425D01*
X102861807Y-76411774D01*
X102805448Y-76480448D01*
X102736774Y-76536807D01*
X102658425Y-76578686D01*
X102648456Y-76581710D01*
X102573413Y-76604475D01*
X102507158Y-76611000D01*
X101962842Y-76611000D01*
X101896587Y-76604475D01*
X101821544Y-76581710D01*
X101811575Y-76578686D01*
X101733226Y-76536807D01*
X101664552Y-76480448D01*
X101608193Y-76411774D01*
X101566314Y-76333425D01*
X101561028Y-76316000D01*
X101540525Y-76248413D01*
X101531818Y-76160000D01*
X101540525Y-76071587D01*
X101565813Y-75988226D01*
X101566314Y-75986575D01*
X101608193Y-75908226D01*
X101664552Y-75839552D01*
X101733226Y-75783193D01*
X101811575Y-75741314D01*
X101821544Y-75738290D01*
X101896587Y-75715525D01*
X101962842Y-75709000D01*
X102507158Y-75709000D01*
X102573413Y-75715525D01*
X102573413Y-75715525D01*
G37*
G36*
X118596000Y-76551000D02*
X116994000Y-76551000D01*
X116994000Y-75849000D01*
X118596000Y-75849000D01*
X118596000Y-76551000D01*
X118596000Y-76551000D01*
G37*
G36*
X113196000Y-76551000D02*
X111594000Y-76551000D01*
X111594000Y-75849000D01*
X113196000Y-75849000D01*
X113196000Y-76551000D01*
X113196000Y-76551000D01*
G37*
G36*
X107384466Y-74818565D02*
X107423137Y-74830296D01*
X107458779Y-74849348D01*
X107490017Y-74874983D01*
X107515652Y-74906221D01*
X107534704Y-74941863D01*
X107546435Y-74980534D01*
X107551000Y-75026888D01*
X107551000Y-76103112D01*
X107546435Y-76149466D01*
X107534704Y-76188137D01*
X107515652Y-76223779D01*
X107490017Y-76255017D01*
X107458779Y-76280652D01*
X107423137Y-76299704D01*
X107384466Y-76311435D01*
X107338112Y-76316000D01*
X106686888Y-76316000D01*
X106640534Y-76311435D01*
X106601863Y-76299704D01*
X106566221Y-76280652D01*
X106534983Y-76255017D01*
X106509348Y-76223779D01*
X106490296Y-76188137D01*
X106478565Y-76149466D01*
X106474000Y-76103112D01*
X106474000Y-75026888D01*
X106478565Y-74980534D01*
X106490296Y-74941863D01*
X106509348Y-74906221D01*
X106534983Y-74874983D01*
X106566221Y-74849348D01*
X106601863Y-74830296D01*
X106640534Y-74818565D01*
X106686888Y-74814000D01*
X107338112Y-74814000D01*
X107384466Y-74818565D01*
X107384466Y-74818565D01*
G37*
G36*
X109259466Y-74818565D02*
X109298137Y-74830296D01*
X109333779Y-74849348D01*
X109365017Y-74874983D01*
X109390652Y-74906221D01*
X109409704Y-74941863D01*
X109421435Y-74980534D01*
X109426000Y-75026888D01*
X109426000Y-76103112D01*
X109421435Y-76149466D01*
X109409704Y-76188137D01*
X109390652Y-76223779D01*
X109365017Y-76255017D01*
X109333779Y-76280652D01*
X109298137Y-76299704D01*
X109259466Y-76311435D01*
X109213112Y-76316000D01*
X108561888Y-76316000D01*
X108515534Y-76311435D01*
X108476863Y-76299704D01*
X108441221Y-76280652D01*
X108409983Y-76255017D01*
X108384348Y-76223779D01*
X108365296Y-76188137D01*
X108353565Y-76149466D01*
X108349000Y-76103112D01*
X108349000Y-75026888D01*
X108353565Y-74980534D01*
X108365296Y-74941863D01*
X108384348Y-74906221D01*
X108409983Y-74874983D01*
X108441221Y-74849348D01*
X108476863Y-74830296D01*
X108515534Y-74818565D01*
X108561888Y-74814000D01*
X109213112Y-74814000D01*
X109259466Y-74818565D01*
X109259466Y-74818565D01*
G37*
G36*
X127973413Y-74545525D02*
X128048456Y-74568290D01*
X128058425Y-74571314D01*
X128136774Y-74613193D01*
X128205448Y-74669552D01*
X128261807Y-74738226D01*
X128303686Y-74816575D01*
X128304474Y-74819174D01*
X128329475Y-74901587D01*
X128338182Y-74990000D01*
X128329475Y-75078413D01*
X128306710Y-75153456D01*
X128303686Y-75163425D01*
X128261807Y-75241774D01*
X128205448Y-75310448D01*
X128136774Y-75366807D01*
X128058425Y-75408686D01*
X128048456Y-75411710D01*
X127973413Y-75434475D01*
X127907158Y-75441000D01*
X127362842Y-75441000D01*
X127296587Y-75434475D01*
X127221544Y-75411710D01*
X127211575Y-75408686D01*
X127133226Y-75366807D01*
X127064552Y-75310448D01*
X127008193Y-75241774D01*
X126966314Y-75163425D01*
X126963290Y-75153456D01*
X126940525Y-75078413D01*
X126931818Y-74990000D01*
X126940525Y-74901587D01*
X126965526Y-74819174D01*
X126966314Y-74816575D01*
X127008193Y-74738226D01*
X127064552Y-74669552D01*
X127133226Y-74613193D01*
X127211575Y-74571314D01*
X127221544Y-74568290D01*
X127296587Y-74545525D01*
X127362842Y-74539000D01*
X127907158Y-74539000D01*
X127973413Y-74545525D01*
X127973413Y-74545525D01*
G37*
G36*
X102573413Y-74465525D02*
X102648456Y-74488290D01*
X102658425Y-74491314D01*
X102736774Y-74533193D01*
X102805448Y-74589552D01*
X102861807Y-74658226D01*
X102903686Y-74736575D01*
X102904187Y-74738226D01*
X102929475Y-74821587D01*
X102938182Y-74910000D01*
X102929475Y-74998413D01*
X102906710Y-75073456D01*
X102903686Y-75083425D01*
X102861807Y-75161774D01*
X102805448Y-75230448D01*
X102736774Y-75286807D01*
X102658425Y-75328686D01*
X102648456Y-75331710D01*
X102573413Y-75354475D01*
X102507158Y-75361000D01*
X101962842Y-75361000D01*
X101896587Y-75354475D01*
X101821544Y-75331710D01*
X101811575Y-75328686D01*
X101733226Y-75286807D01*
X101664552Y-75230448D01*
X101608193Y-75161774D01*
X101566314Y-75083425D01*
X101563290Y-75073456D01*
X101540525Y-74998413D01*
X101531818Y-74910000D01*
X101540525Y-74821587D01*
X101565813Y-74738226D01*
X101566314Y-74736575D01*
X101608193Y-74658226D01*
X101664552Y-74589552D01*
X101733226Y-74533193D01*
X101811575Y-74491314D01*
X101821544Y-74488290D01*
X101896587Y-74465525D01*
X101962842Y-74459000D01*
X102507158Y-74459000D01*
X102573413Y-74465525D01*
X102573413Y-74465525D01*
G37*
G36*
X113196000Y-75281000D02*
X111594000Y-75281000D01*
X111594000Y-74579000D01*
X113196000Y-74579000D01*
X113196000Y-75281000D01*
X113196000Y-75281000D01*
G37*
G36*
X118596000Y-75281000D02*
X116994000Y-75281000D01*
X116994000Y-74579000D01*
X118596000Y-74579000D01*
X118596000Y-75281000D01*
X118596000Y-75281000D01*
G37*
G36*
X124499466Y-73548565D02*
X124538137Y-73560296D01*
X124573779Y-73579348D01*
X124605017Y-73604983D01*
X124630652Y-73636221D01*
X124649704Y-73671863D01*
X124661435Y-73710534D01*
X124666000Y-73756888D01*
X124666000Y-74833112D01*
X124661435Y-74879466D01*
X124649704Y-74918137D01*
X124630652Y-74953779D01*
X124605017Y-74985017D01*
X124573779Y-75010652D01*
X124538137Y-75029704D01*
X124499466Y-75041435D01*
X124453112Y-75046000D01*
X123801888Y-75046000D01*
X123755534Y-75041435D01*
X123716863Y-75029704D01*
X123681221Y-75010652D01*
X123649983Y-74985017D01*
X123624348Y-74953779D01*
X123605296Y-74918137D01*
X123593565Y-74879466D01*
X123589000Y-74833112D01*
X123589000Y-73756888D01*
X123593565Y-73710534D01*
X123605296Y-73671863D01*
X123624348Y-73636221D01*
X123649983Y-73604983D01*
X123681221Y-73579348D01*
X123716863Y-73560296D01*
X123755534Y-73548565D01*
X123801888Y-73544000D01*
X124453112Y-73544000D01*
X124499466Y-73548565D01*
X124499466Y-73548565D01*
G37*
G36*
X122624466Y-73548565D02*
X122663137Y-73560296D01*
X122698779Y-73579348D01*
X122730017Y-73604983D01*
X122755652Y-73636221D01*
X122774704Y-73671863D01*
X122786435Y-73710534D01*
X122791000Y-73756888D01*
X122791000Y-74833112D01*
X122786435Y-74879466D01*
X122774704Y-74918137D01*
X122755652Y-74953779D01*
X122730017Y-74985017D01*
X122698779Y-75010652D01*
X122663137Y-75029704D01*
X122624466Y-75041435D01*
X122578112Y-75046000D01*
X121926888Y-75046000D01*
X121880534Y-75041435D01*
X121841863Y-75029704D01*
X121806221Y-75010652D01*
X121774983Y-74985017D01*
X121749348Y-74953779D01*
X121730296Y-74918137D01*
X121718565Y-74879466D01*
X121714000Y-74833112D01*
X121714000Y-73756888D01*
X121718565Y-73710534D01*
X121730296Y-73671863D01*
X121749348Y-73636221D01*
X121774983Y-73604983D01*
X121806221Y-73579348D01*
X121841863Y-73560296D01*
X121880534Y-73548565D01*
X121926888Y-73544000D01*
X122578112Y-73544000D01*
X122624466Y-73548565D01*
X122624466Y-73548565D01*
G37*
G36*
X109259466Y-72913565D02*
X109298137Y-72925296D01*
X109333779Y-72944348D01*
X109365017Y-72969983D01*
X109390652Y-73001221D01*
X109409704Y-73036863D01*
X109421435Y-73075534D01*
X109426000Y-73121888D01*
X109426000Y-74198112D01*
X109421435Y-74244466D01*
X109409704Y-74283137D01*
X109390652Y-74318779D01*
X109365017Y-74350017D01*
X109333779Y-74375652D01*
X109298137Y-74394704D01*
X109259466Y-74406435D01*
X109213112Y-74411000D01*
X108561888Y-74411000D01*
X108515534Y-74406435D01*
X108476863Y-74394704D01*
X108441221Y-74375652D01*
X108409983Y-74350017D01*
X108384348Y-74318779D01*
X108365296Y-74283137D01*
X108353565Y-74244466D01*
X108349000Y-74198112D01*
X108349000Y-73121888D01*
X108353565Y-73075534D01*
X108365296Y-73036863D01*
X108384348Y-73001221D01*
X108409983Y-72969983D01*
X108441221Y-72944348D01*
X108476863Y-72925296D01*
X108515534Y-72913565D01*
X108561888Y-72909000D01*
X109213112Y-72909000D01*
X109259466Y-72913565D01*
X109259466Y-72913565D01*
G37*
G36*
X107384466Y-72913565D02*
X107423137Y-72925296D01*
X107458779Y-72944348D01*
X107490017Y-72969983D01*
X107515652Y-73001221D01*
X107534704Y-73036863D01*
X107546435Y-73075534D01*
X107551000Y-73121888D01*
X107551000Y-74198112D01*
X107546435Y-74244466D01*
X107534704Y-74283137D01*
X107515652Y-74318779D01*
X107490017Y-74350017D01*
X107458779Y-74375652D01*
X107423137Y-74394704D01*
X107384466Y-74406435D01*
X107338112Y-74411000D01*
X106686888Y-74411000D01*
X106640534Y-74406435D01*
X106601863Y-74394704D01*
X106566221Y-74375652D01*
X106534983Y-74350017D01*
X106509348Y-74318779D01*
X106490296Y-74283137D01*
X106478565Y-74244466D01*
X106474000Y-74198112D01*
X106474000Y-73121888D01*
X106478565Y-73075534D01*
X106490296Y-73036863D01*
X106509348Y-73001221D01*
X106534983Y-72969983D01*
X106566221Y-72944348D01*
X106601863Y-72925296D01*
X106640534Y-72913565D01*
X106686888Y-72909000D01*
X107338112Y-72909000D01*
X107384466Y-72913565D01*
X107384466Y-72913565D01*
G37*
G36*
X128204683Y-73292725D02*
X128235144Y-73301966D01*
X128263223Y-73316975D01*
X128287831Y-73337169D01*
X128308025Y-73361777D01*
X128323034Y-73389856D01*
X128332275Y-73420317D01*
X128336000Y-73458140D01*
X128336000Y-74021860D01*
X128332275Y-74059683D01*
X128323034Y-74090144D01*
X128308025Y-74118223D01*
X128287831Y-74142831D01*
X128263223Y-74163025D01*
X128235144Y-74178034D01*
X128204683Y-74187275D01*
X128166860Y-74191000D01*
X127103140Y-74191000D01*
X127065317Y-74187275D01*
X127034856Y-74178034D01*
X127006777Y-74163025D01*
X126982169Y-74142831D01*
X126961975Y-74118223D01*
X126946966Y-74090144D01*
X126937725Y-74059683D01*
X126934000Y-74021860D01*
X126934000Y-73458140D01*
X126937725Y-73420317D01*
X126946966Y-73389856D01*
X126961975Y-73361777D01*
X126982169Y-73337169D01*
X127006777Y-73316975D01*
X127034856Y-73301966D01*
X127065317Y-73292725D01*
X127103140Y-73289000D01*
X128166860Y-73289000D01*
X128204683Y-73292725D01*
X128204683Y-73292725D01*
G37*
G36*
X102804683Y-73212725D02*
X102835144Y-73221966D01*
X102863223Y-73236975D01*
X102887831Y-73257169D01*
X102908025Y-73281777D01*
X102923034Y-73309856D01*
X102932275Y-73340317D01*
X102936000Y-73378140D01*
X102936000Y-73941860D01*
X102932275Y-73979683D01*
X102923034Y-74010144D01*
X102908025Y-74038223D01*
X102887831Y-74062831D01*
X102863223Y-74083025D01*
X102835144Y-74098034D01*
X102804683Y-74107275D01*
X102766860Y-74111000D01*
X101703140Y-74111000D01*
X101665317Y-74107275D01*
X101634856Y-74098034D01*
X101606777Y-74083025D01*
X101582169Y-74062831D01*
X101561975Y-74038223D01*
X101546966Y-74010144D01*
X101537725Y-73979683D01*
X101534000Y-73941860D01*
X101534000Y-73378140D01*
X101537725Y-73340317D01*
X101546966Y-73309856D01*
X101561975Y-73281777D01*
X101582169Y-73257169D01*
X101606777Y-73236975D01*
X101634856Y-73221966D01*
X101665317Y-73212725D01*
X101703140Y-73209000D01*
X102766860Y-73209000D01*
X102804683Y-73212725D01*
X102804683Y-73212725D01*
G37*
G36*
X113196000Y-74011000D02*
X111594000Y-74011000D01*
X111594000Y-73309000D01*
X113196000Y-73309000D01*
X113196000Y-74011000D01*
X113196000Y-74011000D01*
G37*
G36*
X118596000Y-74011000D02*
X116994000Y-74011000D01*
X116994000Y-73309000D01*
X118596000Y-73309000D01*
X118596000Y-74011000D01*
X118596000Y-74011000D01*
G37*
G36*
X124499466Y-71643565D02*
X124538137Y-71655296D01*
X124573779Y-71674348D01*
X124605017Y-71699983D01*
X124630652Y-71731221D01*
X124649704Y-71766863D01*
X124661435Y-71805534D01*
X124666000Y-71851888D01*
X124666000Y-72928112D01*
X124661435Y-72974466D01*
X124649704Y-73013137D01*
X124630652Y-73048779D01*
X124605017Y-73080017D01*
X124573779Y-73105652D01*
X124538137Y-73124704D01*
X124499466Y-73136435D01*
X124453112Y-73141000D01*
X123801888Y-73141000D01*
X123755534Y-73136435D01*
X123716863Y-73124704D01*
X123681221Y-73105652D01*
X123649983Y-73080017D01*
X123624348Y-73048779D01*
X123605296Y-73013137D01*
X123593565Y-72974466D01*
X123589000Y-72928112D01*
X123589000Y-71851888D01*
X123593565Y-71805534D01*
X123605296Y-71766863D01*
X123624348Y-71731221D01*
X123649983Y-71699983D01*
X123681221Y-71674348D01*
X123716863Y-71655296D01*
X123755534Y-71643565D01*
X123801888Y-71639000D01*
X124453112Y-71639000D01*
X124499466Y-71643565D01*
X124499466Y-71643565D01*
G37*
G36*
X122624466Y-71643565D02*
X122663137Y-71655296D01*
X122698779Y-71674348D01*
X122730017Y-71699983D01*
X122755652Y-71731221D01*
X122774704Y-71766863D01*
X122786435Y-71805534D01*
X122791000Y-71851888D01*
X122791000Y-72928112D01*
X122786435Y-72974466D01*
X122774704Y-73013137D01*
X122755652Y-73048779D01*
X122730017Y-73080017D01*
X122698779Y-73105652D01*
X122663137Y-73124704D01*
X122624466Y-73136435D01*
X122578112Y-73141000D01*
X121926888Y-73141000D01*
X121880534Y-73136435D01*
X121841863Y-73124704D01*
X121806221Y-73105652D01*
X121774983Y-73080017D01*
X121749348Y-73048779D01*
X121730296Y-73013137D01*
X121718565Y-72974466D01*
X121714000Y-72928112D01*
X121714000Y-71851888D01*
X121718565Y-71805534D01*
X121730296Y-71766863D01*
X121749348Y-71731221D01*
X121774983Y-71699983D01*
X121806221Y-71674348D01*
X121841863Y-71655296D01*
X121880534Y-71643565D01*
X121926888Y-71639000D01*
X122578112Y-71639000D01*
X122624466Y-71643565D01*
X122624466Y-71643565D01*
G37*
G36*
X113196000Y-72741000D02*
X111594000Y-72741000D01*
X111594000Y-72039000D01*
X113196000Y-72039000D01*
X113196000Y-72741000D01*
X113196000Y-72741000D01*
G37*
G36*
X118596000Y-72741000D02*
X116994000Y-72741000D01*
X116994000Y-72039000D01*
X118596000Y-72039000D01*
X118596000Y-72741000D01*
X118596000Y-72741000D01*
G37*
G36*
X109259466Y-71008565D02*
X109298137Y-71020296D01*
X109333779Y-71039348D01*
X109365017Y-71064983D01*
X109390652Y-71096221D01*
X109409704Y-71131863D01*
X109421435Y-71170534D01*
X109426000Y-71216888D01*
X109426000Y-72293112D01*
X109421435Y-72339466D01*
X109409704Y-72378137D01*
X109390652Y-72413779D01*
X109365017Y-72445017D01*
X109333779Y-72470652D01*
X109298137Y-72489704D01*
X109259466Y-72501435D01*
X109213112Y-72506000D01*
X108561888Y-72506000D01*
X108515534Y-72501435D01*
X108476863Y-72489704D01*
X108441221Y-72470652D01*
X108409983Y-72445017D01*
X108384348Y-72413779D01*
X108365296Y-72378137D01*
X108353565Y-72339466D01*
X108349000Y-72293112D01*
X108349000Y-71216888D01*
X108353565Y-71170534D01*
X108365296Y-71131863D01*
X108384348Y-71096221D01*
X108409983Y-71064983D01*
X108441221Y-71039348D01*
X108476863Y-71020296D01*
X108515534Y-71008565D01*
X108561888Y-71004000D01*
X109213112Y-71004000D01*
X109259466Y-71008565D01*
X109259466Y-71008565D01*
G37*
G36*
X107384466Y-71008565D02*
X107423137Y-71020296D01*
X107458779Y-71039348D01*
X107490017Y-71064983D01*
X107515652Y-71096221D01*
X107534704Y-71131863D01*
X107546435Y-71170534D01*
X107551000Y-71216888D01*
X107551000Y-72293112D01*
X107546435Y-72339466D01*
X107534704Y-72378137D01*
X107515652Y-72413779D01*
X107490017Y-72445017D01*
X107458779Y-72470652D01*
X107423137Y-72489704D01*
X107384466Y-72501435D01*
X107338112Y-72506000D01*
X106686888Y-72506000D01*
X106640534Y-72501435D01*
X106601863Y-72489704D01*
X106566221Y-72470652D01*
X106534983Y-72445017D01*
X106509348Y-72413779D01*
X106490296Y-72378137D01*
X106478565Y-72339466D01*
X106474000Y-72293112D01*
X106474000Y-71216888D01*
X106478565Y-71170534D01*
X106490296Y-71131863D01*
X106509348Y-71096221D01*
X106534983Y-71064983D01*
X106566221Y-71039348D01*
X106601863Y-71020296D01*
X106640534Y-71008565D01*
X106686888Y-71004000D01*
X107338112Y-71004000D01*
X107384466Y-71008565D01*
X107384466Y-71008565D01*
G37*
G36*
X103950433Y-67214893D02*
X104040657Y-67232839D01*
X104146267Y-67276585D01*
X104295621Y-67338449D01*
X104525089Y-67491774D01*
X104720226Y-67686911D01*
X104873551Y-67916379D01*
X104979161Y-68171344D01*
X105033000Y-68442012D01*
X105033000Y-68717988D01*
X104979161Y-68988656D01*
X104873551Y-69243621D01*
X104720226Y-69473089D01*
X104525089Y-69668226D01*
X104295621Y-69821551D01*
X104146267Y-69883415D01*
X104040657Y-69927161D01*
X103950433Y-69945107D01*
X103769988Y-69981000D01*
X103494012Y-69981000D01*
X103313567Y-69945107D01*
X103223343Y-69927161D01*
X103117733Y-69883415D01*
X102968379Y-69821551D01*
X102738911Y-69668226D01*
X102543774Y-69473089D01*
X102390449Y-69243621D01*
X102284839Y-68988656D01*
X102231000Y-68717988D01*
X102231000Y-68442012D01*
X102284839Y-68171344D01*
X102390449Y-67916379D01*
X102543774Y-67686911D01*
X102738911Y-67491774D01*
X102968379Y-67338449D01*
X103117733Y-67276585D01*
X103223343Y-67232839D01*
X103313567Y-67214893D01*
X103494012Y-67179000D01*
X103769988Y-67179000D01*
X103950433Y-67214893D01*
X103950433Y-67214893D01*
G37*
G36*
X127826433Y-67214893D02*
X127916657Y-67232839D01*
X128022267Y-67276585D01*
X128171621Y-67338449D01*
X128401089Y-67491774D01*
X128596226Y-67686911D01*
X128749551Y-67916379D01*
X128855161Y-68171344D01*
X128909000Y-68442012D01*
X128909000Y-68717988D01*
X128855161Y-68988656D01*
X128749551Y-69243621D01*
X128596226Y-69473089D01*
X128401089Y-69668226D01*
X128171621Y-69821551D01*
X128022267Y-69883415D01*
X127916657Y-69927161D01*
X127826433Y-69945107D01*
X127645988Y-69981000D01*
X127370012Y-69981000D01*
X127189567Y-69945107D01*
X127099343Y-69927161D01*
X126993733Y-69883415D01*
X126844379Y-69821551D01*
X126614911Y-69668226D01*
X126419774Y-69473089D01*
X126266449Y-69243621D01*
X126160839Y-68988656D01*
X126107000Y-68717988D01*
X126107000Y-68442012D01*
X126160839Y-68171344D01*
X126266449Y-67916379D01*
X126419774Y-67686911D01*
X126614911Y-67491774D01*
X126844379Y-67338449D01*
X126993733Y-67276585D01*
X127099343Y-67232839D01*
X127189567Y-67214893D01*
X127370012Y-67179000D01*
X127645988Y-67179000D01*
X127826433Y-67214893D01*
X127826433Y-67214893D01*
G37*
G36*
X109259466Y-65293565D02*
X109298137Y-65305296D01*
X109333779Y-65324348D01*
X109365017Y-65349983D01*
X109390652Y-65381221D01*
X109409704Y-65416863D01*
X109421435Y-65455534D01*
X109426000Y-65501888D01*
X109426000Y-66578112D01*
X109421435Y-66624466D01*
X109409704Y-66663137D01*
X109390652Y-66698779D01*
X109365017Y-66730017D01*
X109333779Y-66755652D01*
X109298137Y-66774704D01*
X109259466Y-66786435D01*
X109213112Y-66791000D01*
X108561888Y-66791000D01*
X108515534Y-66786435D01*
X108476863Y-66774704D01*
X108441221Y-66755652D01*
X108409983Y-66730017D01*
X108384348Y-66698779D01*
X108365296Y-66663137D01*
X108353565Y-66624466D01*
X108349000Y-66578112D01*
X108349000Y-65501888D01*
X108353565Y-65455534D01*
X108365296Y-65416863D01*
X108384348Y-65381221D01*
X108409983Y-65349983D01*
X108441221Y-65324348D01*
X108476863Y-65305296D01*
X108515534Y-65293565D01*
X108561888Y-65289000D01*
X109213112Y-65289000D01*
X109259466Y-65293565D01*
X109259466Y-65293565D01*
G37*
G36*
X107384466Y-65293565D02*
X107423137Y-65305296D01*
X107458779Y-65324348D01*
X107490017Y-65349983D01*
X107515652Y-65381221D01*
X107534704Y-65416863D01*
X107546435Y-65455534D01*
X107551000Y-65501888D01*
X107551000Y-66578112D01*
X107546435Y-66624466D01*
X107534704Y-66663137D01*
X107515652Y-66698779D01*
X107490017Y-66730017D01*
X107458779Y-66755652D01*
X107423137Y-66774704D01*
X107384466Y-66786435D01*
X107338112Y-66791000D01*
X106686888Y-66791000D01*
X106640534Y-66786435D01*
X106601863Y-66774704D01*
X106566221Y-66755652D01*
X106534983Y-66730017D01*
X106509348Y-66698779D01*
X106490296Y-66663137D01*
X106478565Y-66624466D01*
X106474000Y-66578112D01*
X106474000Y-65501888D01*
X106478565Y-65455534D01*
X106490296Y-65416863D01*
X106509348Y-65381221D01*
X106534983Y-65349983D01*
X106566221Y-65324348D01*
X106601863Y-65305296D01*
X106640534Y-65293565D01*
X106686888Y-65289000D01*
X107338112Y-65289000D01*
X107384466Y-65293565D01*
X107384466Y-65293565D01*
G37*
G36*
X113196000Y-66391000D02*
X111594000Y-66391000D01*
X111594000Y-65689000D01*
X113196000Y-65689000D01*
X113196000Y-66391000D01*
X113196000Y-66391000D01*
G37*
G36*
X118596000Y-66391000D02*
X116994000Y-66391000D01*
X116994000Y-65689000D01*
X118596000Y-65689000D01*
X118596000Y-66391000D01*
X118596000Y-66391000D01*
G37*
G36*
X122624466Y-64023565D02*
X122663137Y-64035296D01*
X122698779Y-64054348D01*
X122730017Y-64079983D01*
X122755652Y-64111221D01*
X122774704Y-64146863D01*
X122786435Y-64185534D01*
X122791000Y-64231888D01*
X122791000Y-65308112D01*
X122786435Y-65354466D01*
X122774704Y-65393137D01*
X122755652Y-65428779D01*
X122730017Y-65460017D01*
X122698779Y-65485652D01*
X122663137Y-65504704D01*
X122624466Y-65516435D01*
X122578112Y-65521000D01*
X121926888Y-65521000D01*
X121880534Y-65516435D01*
X121841863Y-65504704D01*
X121806221Y-65485652D01*
X121774983Y-65460017D01*
X121749348Y-65428779D01*
X121730296Y-65393137D01*
X121718565Y-65354466D01*
X121714000Y-65308112D01*
X121714000Y-64231888D01*
X121718565Y-64185534D01*
X121730296Y-64146863D01*
X121749348Y-64111221D01*
X121774983Y-64079983D01*
X121806221Y-64054348D01*
X121841863Y-64035296D01*
X121880534Y-64023565D01*
X121926888Y-64019000D01*
X122578112Y-64019000D01*
X122624466Y-64023565D01*
X122624466Y-64023565D01*
G37*
G36*
X124499466Y-64023565D02*
X124538137Y-64035296D01*
X124573779Y-64054348D01*
X124605017Y-64079983D01*
X124630652Y-64111221D01*
X124649704Y-64146863D01*
X124661435Y-64185534D01*
X124666000Y-64231888D01*
X124666000Y-65308112D01*
X124661435Y-65354466D01*
X124649704Y-65393137D01*
X124630652Y-65428779D01*
X124605017Y-65460017D01*
X124573779Y-65485652D01*
X124538137Y-65504704D01*
X124499466Y-65516435D01*
X124453112Y-65521000D01*
X123801888Y-65521000D01*
X123755534Y-65516435D01*
X123716863Y-65504704D01*
X123681221Y-65485652D01*
X123649983Y-65460017D01*
X123624348Y-65428779D01*
X123605296Y-65393137D01*
X123593565Y-65354466D01*
X123589000Y-65308112D01*
X123589000Y-64231888D01*
X123593565Y-64185534D01*
X123605296Y-64146863D01*
X123624348Y-64111221D01*
X123649983Y-64079983D01*
X123681221Y-64054348D01*
X123716863Y-64035296D01*
X123755534Y-64023565D01*
X123801888Y-64019000D01*
X124453112Y-64019000D01*
X124499466Y-64023565D01*
X124499466Y-64023565D01*
G37*
G36*
X113196000Y-65121000D02*
X111594000Y-65121000D01*
X111594000Y-64419000D01*
X113196000Y-64419000D01*
X113196000Y-65121000D01*
X113196000Y-65121000D01*
G37*
G36*
X118596000Y-65121000D02*
X116994000Y-65121000D01*
X116994000Y-64419000D01*
X118596000Y-64419000D01*
X118596000Y-65121000D01*
X118596000Y-65121000D01*
G37*
G36*
X109259466Y-63388565D02*
X109298137Y-63400296D01*
X109333779Y-63419348D01*
X109365017Y-63444983D01*
X109390652Y-63476221D01*
X109409704Y-63511863D01*
X109421435Y-63550534D01*
X109426000Y-63596888D01*
X109426000Y-64673112D01*
X109421435Y-64719466D01*
X109409704Y-64758137D01*
X109390652Y-64793779D01*
X109365017Y-64825017D01*
X109333779Y-64850652D01*
X109298137Y-64869704D01*
X109259466Y-64881435D01*
X109213112Y-64886000D01*
X108561888Y-64886000D01*
X108515534Y-64881435D01*
X108476863Y-64869704D01*
X108441221Y-64850652D01*
X108409983Y-64825017D01*
X108384348Y-64793779D01*
X108365296Y-64758137D01*
X108353565Y-64719466D01*
X108349000Y-64673112D01*
X108349000Y-63596888D01*
X108353565Y-63550534D01*
X108365296Y-63511863D01*
X108384348Y-63476221D01*
X108409983Y-63444983D01*
X108441221Y-63419348D01*
X108476863Y-63400296D01*
X108515534Y-63388565D01*
X108561888Y-63384000D01*
X109213112Y-63384000D01*
X109259466Y-63388565D01*
X109259466Y-63388565D01*
G37*
G36*
X107384466Y-63388565D02*
X107423137Y-63400296D01*
X107458779Y-63419348D01*
X107490017Y-63444983D01*
X107515652Y-63476221D01*
X107534704Y-63511863D01*
X107546435Y-63550534D01*
X107551000Y-63596888D01*
X107551000Y-64673112D01*
X107546435Y-64719466D01*
X107534704Y-64758137D01*
X107515652Y-64793779D01*
X107490017Y-64825017D01*
X107458779Y-64850652D01*
X107423137Y-64869704D01*
X107384466Y-64881435D01*
X107338112Y-64886000D01*
X106686888Y-64886000D01*
X106640534Y-64881435D01*
X106601863Y-64869704D01*
X106566221Y-64850652D01*
X106534983Y-64825017D01*
X106509348Y-64793779D01*
X106490296Y-64758137D01*
X106478565Y-64719466D01*
X106474000Y-64673112D01*
X106474000Y-63596888D01*
X106478565Y-63550534D01*
X106490296Y-63511863D01*
X106509348Y-63476221D01*
X106534983Y-63444983D01*
X106566221Y-63419348D01*
X106601863Y-63400296D01*
X106640534Y-63388565D01*
X106686888Y-63384000D01*
X107338112Y-63384000D01*
X107384466Y-63388565D01*
X107384466Y-63388565D01*
G37*
G36*
X127973413Y-63055525D02*
X128048456Y-63078290D01*
X128058425Y-63081314D01*
X128136774Y-63123193D01*
X128205448Y-63179552D01*
X128261807Y-63248226D01*
X128303686Y-63326575D01*
X128303687Y-63326579D01*
X128329475Y-63411587D01*
X128338182Y-63500000D01*
X128329475Y-63588413D01*
X128309806Y-63653250D01*
X128303686Y-63673425D01*
X128261807Y-63751774D01*
X128205448Y-63820448D01*
X128136774Y-63876807D01*
X128058425Y-63918686D01*
X128048456Y-63921710D01*
X127973413Y-63944475D01*
X127907158Y-63951000D01*
X127362842Y-63951000D01*
X127296587Y-63944475D01*
X127221544Y-63921710D01*
X127211575Y-63918686D01*
X127133226Y-63876807D01*
X127064552Y-63820448D01*
X127008193Y-63751774D01*
X126966314Y-63673425D01*
X126960194Y-63653250D01*
X126940525Y-63588413D01*
X126931818Y-63500000D01*
X126940525Y-63411587D01*
X126966313Y-63326579D01*
X126966314Y-63326575D01*
X127008193Y-63248226D01*
X127064552Y-63179552D01*
X127133226Y-63123193D01*
X127211575Y-63081314D01*
X127221544Y-63078290D01*
X127296587Y-63055525D01*
X127362842Y-63049000D01*
X127907158Y-63049000D01*
X127973413Y-63055525D01*
X127973413Y-63055525D01*
G37*
G36*
X102573413Y-62975525D02*
X102648456Y-62998290D01*
X102658425Y-63001314D01*
X102736774Y-63043193D01*
X102805448Y-63099552D01*
X102861807Y-63168226D01*
X102903686Y-63246575D01*
X102904187Y-63248226D01*
X102929475Y-63331587D01*
X102938182Y-63420000D01*
X102929475Y-63508413D01*
X102915337Y-63555017D01*
X102903686Y-63593425D01*
X102861807Y-63671774D01*
X102805448Y-63740448D01*
X102736774Y-63796807D01*
X102658425Y-63838686D01*
X102648456Y-63841710D01*
X102573413Y-63864475D01*
X102507158Y-63871000D01*
X101962842Y-63871000D01*
X101896587Y-63864475D01*
X101821544Y-63841710D01*
X101811575Y-63838686D01*
X101733226Y-63796807D01*
X101664552Y-63740448D01*
X101608193Y-63671774D01*
X101566314Y-63593425D01*
X101554663Y-63555017D01*
X101540525Y-63508413D01*
X101531818Y-63420000D01*
X101540525Y-63331587D01*
X101565813Y-63248226D01*
X101566314Y-63246575D01*
X101608193Y-63168226D01*
X101664552Y-63099552D01*
X101733226Y-63043193D01*
X101811575Y-63001314D01*
X101821544Y-62998290D01*
X101896587Y-62975525D01*
X101962842Y-62969000D01*
X102507158Y-62969000D01*
X102573413Y-62975525D01*
X102573413Y-62975525D01*
G37*
G36*
X118596000Y-63851000D02*
X116994000Y-63851000D01*
X116994000Y-63149000D01*
X118596000Y-63149000D01*
X118596000Y-63851000D01*
X118596000Y-63851000D01*
G37*
G36*
X113196000Y-63851000D02*
X111594000Y-63851000D01*
X111594000Y-63149000D01*
X113196000Y-63149000D01*
X113196000Y-63851000D01*
X113196000Y-63851000D01*
G37*
G36*
X122624466Y-62118565D02*
X122663137Y-62130296D01*
X122698779Y-62149348D01*
X122730017Y-62174983D01*
X122755652Y-62206221D01*
X122774704Y-62241863D01*
X122786435Y-62280534D01*
X122791000Y-62326888D01*
X122791000Y-63403112D01*
X122786435Y-63449466D01*
X122774704Y-63488137D01*
X122755652Y-63523779D01*
X122730017Y-63555017D01*
X122698779Y-63580652D01*
X122663137Y-63599704D01*
X122624466Y-63611435D01*
X122578112Y-63616000D01*
X121926888Y-63616000D01*
X121880534Y-63611435D01*
X121841863Y-63599704D01*
X121806221Y-63580652D01*
X121774983Y-63555017D01*
X121749348Y-63523779D01*
X121730296Y-63488137D01*
X121718565Y-63449466D01*
X121714000Y-63403112D01*
X121714000Y-62326888D01*
X121718565Y-62280534D01*
X121730296Y-62241863D01*
X121749348Y-62206221D01*
X121774983Y-62174983D01*
X121806221Y-62149348D01*
X121841863Y-62130296D01*
X121880534Y-62118565D01*
X121926888Y-62114000D01*
X122578112Y-62114000D01*
X122624466Y-62118565D01*
X122624466Y-62118565D01*
G37*
G36*
X124499466Y-62118565D02*
X124538137Y-62130296D01*
X124573779Y-62149348D01*
X124605017Y-62174983D01*
X124630652Y-62206221D01*
X124649704Y-62241863D01*
X124661435Y-62280534D01*
X124666000Y-62326888D01*
X124666000Y-63403112D01*
X124661435Y-63449466D01*
X124649704Y-63488137D01*
X124630652Y-63523779D01*
X124605017Y-63555017D01*
X124573779Y-63580652D01*
X124538137Y-63599704D01*
X124499466Y-63611435D01*
X124453112Y-63616000D01*
X123801888Y-63616000D01*
X123755534Y-63611435D01*
X123716863Y-63599704D01*
X123681221Y-63580652D01*
X123649983Y-63555017D01*
X123624348Y-63523779D01*
X123605296Y-63488137D01*
X123593565Y-63449466D01*
X123589000Y-63403112D01*
X123589000Y-62326888D01*
X123593565Y-62280534D01*
X123605296Y-62241863D01*
X123624348Y-62206221D01*
X123649983Y-62174983D01*
X123681221Y-62149348D01*
X123716863Y-62130296D01*
X123755534Y-62118565D01*
X123801888Y-62114000D01*
X124453112Y-62114000D01*
X124499466Y-62118565D01*
X124499466Y-62118565D01*
G37*
G36*
X107384466Y-61483565D02*
X107423137Y-61495296D01*
X107458779Y-61514348D01*
X107490017Y-61539983D01*
X107515652Y-61571221D01*
X107534704Y-61606863D01*
X107546435Y-61645534D01*
X107551000Y-61691888D01*
X107551000Y-62768112D01*
X107546435Y-62814466D01*
X107534704Y-62853137D01*
X107515652Y-62888779D01*
X107490017Y-62920017D01*
X107458779Y-62945652D01*
X107423137Y-62964704D01*
X107384466Y-62976435D01*
X107338112Y-62981000D01*
X106686888Y-62981000D01*
X106640534Y-62976435D01*
X106601863Y-62964704D01*
X106566221Y-62945652D01*
X106534983Y-62920017D01*
X106509348Y-62888779D01*
X106490296Y-62853137D01*
X106478565Y-62814466D01*
X106474000Y-62768112D01*
X106474000Y-61691888D01*
X106478565Y-61645534D01*
X106490296Y-61606863D01*
X106509348Y-61571221D01*
X106534983Y-61539983D01*
X106566221Y-61514348D01*
X106601863Y-61495296D01*
X106640534Y-61483565D01*
X106686888Y-61479000D01*
X107338112Y-61479000D01*
X107384466Y-61483565D01*
X107384466Y-61483565D01*
G37*
G36*
X109259466Y-61483565D02*
X109298137Y-61495296D01*
X109333779Y-61514348D01*
X109365017Y-61539983D01*
X109390652Y-61571221D01*
X109409704Y-61606863D01*
X109421435Y-61645534D01*
X109426000Y-61691888D01*
X109426000Y-62768112D01*
X109421435Y-62814466D01*
X109409704Y-62853137D01*
X109390652Y-62888779D01*
X109365017Y-62920017D01*
X109333779Y-62945652D01*
X109298137Y-62964704D01*
X109259466Y-62976435D01*
X109213112Y-62981000D01*
X108561888Y-62981000D01*
X108515534Y-62976435D01*
X108476863Y-62964704D01*
X108441221Y-62945652D01*
X108409983Y-62920017D01*
X108384348Y-62888779D01*
X108365296Y-62853137D01*
X108353565Y-62814466D01*
X108349000Y-62768112D01*
X108349000Y-61691888D01*
X108353565Y-61645534D01*
X108365296Y-61606863D01*
X108384348Y-61571221D01*
X108409983Y-61539983D01*
X108441221Y-61514348D01*
X108476863Y-61495296D01*
X108515534Y-61483565D01*
X108561888Y-61479000D01*
X109213112Y-61479000D01*
X109259466Y-61483565D01*
X109259466Y-61483565D01*
G37*
G36*
X127973413Y-61805525D02*
X128048456Y-61828290D01*
X128058425Y-61831314D01*
X128136774Y-61873193D01*
X128205448Y-61929552D01*
X128261807Y-61998226D01*
X128303686Y-62076575D01*
X128303687Y-62076579D01*
X128329475Y-62161587D01*
X128338182Y-62250000D01*
X128329475Y-62338413D01*
X128315873Y-62383250D01*
X128303686Y-62423425D01*
X128261807Y-62501774D01*
X128205448Y-62570448D01*
X128136774Y-62626807D01*
X128058425Y-62668686D01*
X128048456Y-62671710D01*
X127973413Y-62694475D01*
X127907158Y-62701000D01*
X127362842Y-62701000D01*
X127296587Y-62694475D01*
X127221544Y-62671710D01*
X127211575Y-62668686D01*
X127133226Y-62626807D01*
X127064552Y-62570448D01*
X127008193Y-62501774D01*
X126966314Y-62423425D01*
X126954127Y-62383250D01*
X126940525Y-62338413D01*
X126931818Y-62250000D01*
X126940525Y-62161587D01*
X126966313Y-62076579D01*
X126966314Y-62076575D01*
X127008193Y-61998226D01*
X127064552Y-61929552D01*
X127133226Y-61873193D01*
X127211575Y-61831314D01*
X127221544Y-61828290D01*
X127296587Y-61805525D01*
X127362842Y-61799000D01*
X127907158Y-61799000D01*
X127973413Y-61805525D01*
X127973413Y-61805525D01*
G37*
G36*
X102573413Y-61725525D02*
X102648324Y-61748250D01*
X102658425Y-61751314D01*
X102736774Y-61793193D01*
X102805448Y-61849552D01*
X102861807Y-61918226D01*
X102903686Y-61996575D01*
X102904187Y-61998226D01*
X102929475Y-62081587D01*
X102938182Y-62170000D01*
X102929475Y-62258413D01*
X102908702Y-62326888D01*
X102903686Y-62343425D01*
X102861807Y-62421774D01*
X102805448Y-62490448D01*
X102736774Y-62546807D01*
X102658425Y-62588686D01*
X102648456Y-62591710D01*
X102573413Y-62614475D01*
X102507158Y-62621000D01*
X101962842Y-62621000D01*
X101896587Y-62614475D01*
X101821544Y-62591710D01*
X101811575Y-62588686D01*
X101733226Y-62546807D01*
X101664552Y-62490448D01*
X101608193Y-62421774D01*
X101566314Y-62343425D01*
X101561298Y-62326888D01*
X101540525Y-62258413D01*
X101531818Y-62170000D01*
X101540525Y-62081587D01*
X101565813Y-61998226D01*
X101566314Y-61996575D01*
X101608193Y-61918226D01*
X101664552Y-61849552D01*
X101733226Y-61793193D01*
X101811575Y-61751314D01*
X101821676Y-61748250D01*
X101896587Y-61725525D01*
X101962842Y-61719000D01*
X102507158Y-61719000D01*
X102573413Y-61725525D01*
X102573413Y-61725525D01*
G37*
G36*
X118596000Y-62581000D02*
X116994000Y-62581000D01*
X116994000Y-61879000D01*
X118596000Y-61879000D01*
X118596000Y-62581000D01*
X118596000Y-62581000D01*
G37*
G36*
X113196000Y-62581000D02*
X111594000Y-62581000D01*
X111594000Y-61879000D01*
X113196000Y-61879000D01*
X113196000Y-62581000D01*
X113196000Y-62581000D01*
G37*
G36*
X122624466Y-60213565D02*
X122663137Y-60225296D01*
X122698779Y-60244348D01*
X122730017Y-60269983D01*
X122755652Y-60301221D01*
X122774704Y-60336863D01*
X122786435Y-60375534D01*
X122791000Y-60421888D01*
X122791000Y-61498112D01*
X122786435Y-61544466D01*
X122774704Y-61583137D01*
X122755652Y-61618779D01*
X122730017Y-61650017D01*
X122698779Y-61675652D01*
X122663137Y-61694704D01*
X122624466Y-61706435D01*
X122578112Y-61711000D01*
X121926888Y-61711000D01*
X121880534Y-61706435D01*
X121841863Y-61694704D01*
X121806221Y-61675652D01*
X121774983Y-61650017D01*
X121749348Y-61618779D01*
X121730296Y-61583137D01*
X121718565Y-61544466D01*
X121714000Y-61498112D01*
X121714000Y-60421888D01*
X121718565Y-60375534D01*
X121730296Y-60336863D01*
X121749348Y-60301221D01*
X121774983Y-60269983D01*
X121806221Y-60244348D01*
X121841863Y-60225296D01*
X121880534Y-60213565D01*
X121926888Y-60209000D01*
X122578112Y-60209000D01*
X122624466Y-60213565D01*
X122624466Y-60213565D01*
G37*
G36*
X124499466Y-60213565D02*
X124538137Y-60225296D01*
X124573779Y-60244348D01*
X124605017Y-60269983D01*
X124630652Y-60301221D01*
X124649704Y-60336863D01*
X124661435Y-60375534D01*
X124666000Y-60421888D01*
X124666000Y-61498112D01*
X124661435Y-61544466D01*
X124649704Y-61583137D01*
X124630652Y-61618779D01*
X124605017Y-61650017D01*
X124573779Y-61675652D01*
X124538137Y-61694704D01*
X124499466Y-61706435D01*
X124453112Y-61711000D01*
X123801888Y-61711000D01*
X123755534Y-61706435D01*
X123716863Y-61694704D01*
X123681221Y-61675652D01*
X123649983Y-61650017D01*
X123624348Y-61618779D01*
X123605296Y-61583137D01*
X123593565Y-61544466D01*
X123589000Y-61498112D01*
X123589000Y-60421888D01*
X123593565Y-60375534D01*
X123605296Y-60336863D01*
X123624348Y-60301221D01*
X123649983Y-60269983D01*
X123681221Y-60244348D01*
X123716863Y-60225296D01*
X123755534Y-60213565D01*
X123801888Y-60209000D01*
X124453112Y-60209000D01*
X124499466Y-60213565D01*
X124499466Y-60213565D01*
G37*
G36*
X127973413Y-60555525D02*
X128048456Y-60578290D01*
X128058425Y-60581314D01*
X128136774Y-60623193D01*
X128205448Y-60679552D01*
X128261807Y-60748226D01*
X128303686Y-60826575D01*
X128303687Y-60826579D01*
X128329475Y-60911587D01*
X128338182Y-61000000D01*
X128329475Y-61088413D01*
X128306710Y-61163456D01*
X128303686Y-61173425D01*
X128261807Y-61251774D01*
X128205448Y-61320448D01*
X128136774Y-61376807D01*
X128058425Y-61418686D01*
X128048456Y-61421710D01*
X127973413Y-61444475D01*
X127907158Y-61451000D01*
X127362842Y-61451000D01*
X127296587Y-61444475D01*
X127221544Y-61421710D01*
X127211575Y-61418686D01*
X127133226Y-61376807D01*
X127064552Y-61320448D01*
X127008193Y-61251774D01*
X126966314Y-61173425D01*
X126963290Y-61163456D01*
X126940525Y-61088413D01*
X126931818Y-61000000D01*
X126940525Y-60911587D01*
X126966313Y-60826579D01*
X126966314Y-60826575D01*
X127008193Y-60748226D01*
X127064552Y-60679552D01*
X127133226Y-60623193D01*
X127211575Y-60581314D01*
X127221544Y-60578290D01*
X127296587Y-60555525D01*
X127362842Y-60549000D01*
X127907158Y-60549000D01*
X127973413Y-60555525D01*
X127973413Y-60555525D01*
G37*
G36*
X102573413Y-60475525D02*
X102648456Y-60498290D01*
X102658425Y-60501314D01*
X102736774Y-60543193D01*
X102805448Y-60599552D01*
X102861807Y-60668226D01*
X102903686Y-60746575D01*
X102904187Y-60748226D01*
X102929475Y-60831587D01*
X102938182Y-60920000D01*
X102929475Y-61008413D01*
X102908972Y-61076000D01*
X102903686Y-61093425D01*
X102861807Y-61171774D01*
X102805448Y-61240448D01*
X102736774Y-61296807D01*
X102658425Y-61338686D01*
X102648456Y-61341710D01*
X102573413Y-61364475D01*
X102507158Y-61371000D01*
X101962842Y-61371000D01*
X101896587Y-61364475D01*
X101821544Y-61341710D01*
X101811575Y-61338686D01*
X101733226Y-61296807D01*
X101664552Y-61240448D01*
X101608193Y-61171774D01*
X101566314Y-61093425D01*
X101561028Y-61076000D01*
X101540525Y-61008413D01*
X101531818Y-60920000D01*
X101540525Y-60831587D01*
X101565813Y-60748226D01*
X101566314Y-60746575D01*
X101608193Y-60668226D01*
X101664552Y-60599552D01*
X101733226Y-60543193D01*
X101811575Y-60501314D01*
X101821544Y-60498290D01*
X101896587Y-60475525D01*
X101962842Y-60469000D01*
X102507158Y-60469000D01*
X102573413Y-60475525D01*
X102573413Y-60475525D01*
G37*
G36*
X118596000Y-61311000D02*
X116994000Y-61311000D01*
X116994000Y-60609000D01*
X118596000Y-60609000D01*
X118596000Y-61311000D01*
X118596000Y-61311000D01*
G37*
G36*
X113196000Y-61311000D02*
X111594000Y-61311000D01*
X111594000Y-60609000D01*
X113196000Y-60609000D01*
X113196000Y-61311000D01*
X113196000Y-61311000D01*
G37*
G36*
X107384466Y-59578565D02*
X107423137Y-59590296D01*
X107458779Y-59609348D01*
X107490017Y-59634983D01*
X107515652Y-59666221D01*
X107534704Y-59701863D01*
X107546435Y-59740534D01*
X107551000Y-59786888D01*
X107551000Y-60863112D01*
X107546435Y-60909466D01*
X107534704Y-60948137D01*
X107515652Y-60983779D01*
X107490017Y-61015017D01*
X107458779Y-61040652D01*
X107423137Y-61059704D01*
X107384466Y-61071435D01*
X107338112Y-61076000D01*
X106686888Y-61076000D01*
X106640534Y-61071435D01*
X106601863Y-61059704D01*
X106566221Y-61040652D01*
X106534983Y-61015017D01*
X106509348Y-60983779D01*
X106490296Y-60948137D01*
X106478565Y-60909466D01*
X106474000Y-60863112D01*
X106474000Y-59786888D01*
X106478565Y-59740534D01*
X106490296Y-59701863D01*
X106509348Y-59666221D01*
X106534983Y-59634983D01*
X106566221Y-59609348D01*
X106601863Y-59590296D01*
X106640534Y-59578565D01*
X106686888Y-59574000D01*
X107338112Y-59574000D01*
X107384466Y-59578565D01*
X107384466Y-59578565D01*
G37*
G36*
X109259466Y-59578565D02*
X109298137Y-59590296D01*
X109333779Y-59609348D01*
X109365017Y-59634983D01*
X109390652Y-59666221D01*
X109409704Y-59701863D01*
X109421435Y-59740534D01*
X109426000Y-59786888D01*
X109426000Y-60863112D01*
X109421435Y-60909466D01*
X109409704Y-60948137D01*
X109390652Y-60983779D01*
X109365017Y-61015017D01*
X109333779Y-61040652D01*
X109298137Y-61059704D01*
X109259466Y-61071435D01*
X109213112Y-61076000D01*
X108561888Y-61076000D01*
X108515534Y-61071435D01*
X108476863Y-61059704D01*
X108441221Y-61040652D01*
X108409983Y-61015017D01*
X108384348Y-60983779D01*
X108365296Y-60948137D01*
X108353565Y-60909466D01*
X108349000Y-60863112D01*
X108349000Y-59786888D01*
X108353565Y-59740534D01*
X108365296Y-59701863D01*
X108384348Y-59666221D01*
X108409983Y-59634983D01*
X108441221Y-59609348D01*
X108476863Y-59590296D01*
X108515534Y-59578565D01*
X108561888Y-59574000D01*
X109213112Y-59574000D01*
X109259466Y-59578565D01*
X109259466Y-59578565D01*
G37*
G36*
X127973413Y-59305525D02*
X128048456Y-59328290D01*
X128058425Y-59331314D01*
X128136774Y-59373193D01*
X128205448Y-59429552D01*
X128261807Y-59498226D01*
X128303686Y-59576575D01*
X128304474Y-59579174D01*
X128329475Y-59661587D01*
X128338182Y-59750000D01*
X128329475Y-59838413D01*
X128306710Y-59913456D01*
X128303686Y-59923425D01*
X128261807Y-60001774D01*
X128205448Y-60070448D01*
X128136774Y-60126807D01*
X128058425Y-60168686D01*
X128048456Y-60171710D01*
X127973413Y-60194475D01*
X127907158Y-60201000D01*
X127362842Y-60201000D01*
X127296587Y-60194475D01*
X127221544Y-60171710D01*
X127211575Y-60168686D01*
X127133226Y-60126807D01*
X127064552Y-60070448D01*
X127008193Y-60001774D01*
X126966314Y-59923425D01*
X126963290Y-59913456D01*
X126940525Y-59838413D01*
X126931818Y-59750000D01*
X126940525Y-59661587D01*
X126965526Y-59579174D01*
X126966314Y-59576575D01*
X127008193Y-59498226D01*
X127064552Y-59429552D01*
X127133226Y-59373193D01*
X127211575Y-59331314D01*
X127221544Y-59328290D01*
X127296587Y-59305525D01*
X127362842Y-59299000D01*
X127907158Y-59299000D01*
X127973413Y-59305525D01*
X127973413Y-59305525D01*
G37*
G36*
X102573413Y-59225525D02*
X102648456Y-59248290D01*
X102658425Y-59251314D01*
X102736774Y-59293193D01*
X102805448Y-59349552D01*
X102861807Y-59418226D01*
X102903686Y-59496575D01*
X102904187Y-59498226D01*
X102929475Y-59581587D01*
X102938182Y-59670000D01*
X102929475Y-59758413D01*
X102906710Y-59833456D01*
X102903686Y-59843425D01*
X102861807Y-59921774D01*
X102805448Y-59990448D01*
X102736774Y-60046807D01*
X102658425Y-60088686D01*
X102648456Y-60091710D01*
X102573413Y-60114475D01*
X102507158Y-60121000D01*
X101962842Y-60121000D01*
X101896587Y-60114475D01*
X101821544Y-60091710D01*
X101811575Y-60088686D01*
X101733226Y-60046807D01*
X101664552Y-59990448D01*
X101608193Y-59921774D01*
X101566314Y-59843425D01*
X101563290Y-59833456D01*
X101540525Y-59758413D01*
X101531818Y-59670000D01*
X101540525Y-59581587D01*
X101565813Y-59498226D01*
X101566314Y-59496575D01*
X101608193Y-59418226D01*
X101664552Y-59349552D01*
X101733226Y-59293193D01*
X101811575Y-59251314D01*
X101821544Y-59248290D01*
X101896587Y-59225525D01*
X101962842Y-59219000D01*
X102507158Y-59219000D01*
X102573413Y-59225525D01*
X102573413Y-59225525D01*
G37*
G36*
X118596000Y-60041000D02*
X116994000Y-60041000D01*
X116994000Y-59339000D01*
X118596000Y-59339000D01*
X118596000Y-60041000D01*
X118596000Y-60041000D01*
G37*
G36*
X113196000Y-60041000D02*
X111594000Y-60041000D01*
X111594000Y-59339000D01*
X113196000Y-59339000D01*
X113196000Y-60041000D01*
X113196000Y-60041000D01*
G37*
G36*
X122624466Y-58308565D02*
X122663137Y-58320296D01*
X122698779Y-58339348D01*
X122730017Y-58364983D01*
X122755652Y-58396221D01*
X122774704Y-58431863D01*
X122786435Y-58470534D01*
X122791000Y-58516888D01*
X122791000Y-59593112D01*
X122786435Y-59639466D01*
X122774704Y-59678137D01*
X122755652Y-59713779D01*
X122730017Y-59745017D01*
X122698779Y-59770652D01*
X122663137Y-59789704D01*
X122624466Y-59801435D01*
X122578112Y-59806000D01*
X121926888Y-59806000D01*
X121880534Y-59801435D01*
X121841863Y-59789704D01*
X121806221Y-59770652D01*
X121774983Y-59745017D01*
X121749348Y-59713779D01*
X121730296Y-59678137D01*
X121718565Y-59639466D01*
X121714000Y-59593112D01*
X121714000Y-58516888D01*
X121718565Y-58470534D01*
X121730296Y-58431863D01*
X121749348Y-58396221D01*
X121774983Y-58364983D01*
X121806221Y-58339348D01*
X121841863Y-58320296D01*
X121880534Y-58308565D01*
X121926888Y-58304000D01*
X122578112Y-58304000D01*
X122624466Y-58308565D01*
X122624466Y-58308565D01*
G37*
G36*
X124499466Y-58308565D02*
X124538137Y-58320296D01*
X124573779Y-58339348D01*
X124605017Y-58364983D01*
X124630652Y-58396221D01*
X124649704Y-58431863D01*
X124661435Y-58470534D01*
X124666000Y-58516888D01*
X124666000Y-59593112D01*
X124661435Y-59639466D01*
X124649704Y-59678137D01*
X124630652Y-59713779D01*
X124605017Y-59745017D01*
X124573779Y-59770652D01*
X124538137Y-59789704D01*
X124499466Y-59801435D01*
X124453112Y-59806000D01*
X123801888Y-59806000D01*
X123755534Y-59801435D01*
X123716863Y-59789704D01*
X123681221Y-59770652D01*
X123649983Y-59745017D01*
X123624348Y-59713779D01*
X123605296Y-59678137D01*
X123593565Y-59639466D01*
X123589000Y-59593112D01*
X123589000Y-58516888D01*
X123593565Y-58470534D01*
X123605296Y-58431863D01*
X123624348Y-58396221D01*
X123649983Y-58364983D01*
X123681221Y-58339348D01*
X123716863Y-58320296D01*
X123755534Y-58308565D01*
X123801888Y-58304000D01*
X124453112Y-58304000D01*
X124499466Y-58308565D01*
X124499466Y-58308565D01*
G37*
G36*
X107384466Y-57673565D02*
X107423137Y-57685296D01*
X107458779Y-57704348D01*
X107490017Y-57729983D01*
X107515652Y-57761221D01*
X107534704Y-57796863D01*
X107546435Y-57835534D01*
X107551000Y-57881888D01*
X107551000Y-58958112D01*
X107546435Y-59004466D01*
X107534704Y-59043137D01*
X107515652Y-59078779D01*
X107490017Y-59110017D01*
X107458779Y-59135652D01*
X107423137Y-59154704D01*
X107384466Y-59166435D01*
X107338112Y-59171000D01*
X106686888Y-59171000D01*
X106640534Y-59166435D01*
X106601863Y-59154704D01*
X106566221Y-59135652D01*
X106534983Y-59110017D01*
X106509348Y-59078779D01*
X106490296Y-59043137D01*
X106478565Y-59004466D01*
X106474000Y-58958112D01*
X106474000Y-57881888D01*
X106478565Y-57835534D01*
X106490296Y-57796863D01*
X106509348Y-57761221D01*
X106534983Y-57729983D01*
X106566221Y-57704348D01*
X106601863Y-57685296D01*
X106640534Y-57673565D01*
X106686888Y-57669000D01*
X107338112Y-57669000D01*
X107384466Y-57673565D01*
X107384466Y-57673565D01*
G37*
G36*
X109259466Y-57673565D02*
X109298137Y-57685296D01*
X109333779Y-57704348D01*
X109365017Y-57729983D01*
X109390652Y-57761221D01*
X109409704Y-57796863D01*
X109421435Y-57835534D01*
X109426000Y-57881888D01*
X109426000Y-58958112D01*
X109421435Y-59004466D01*
X109409704Y-59043137D01*
X109390652Y-59078779D01*
X109365017Y-59110017D01*
X109333779Y-59135652D01*
X109298137Y-59154704D01*
X109259466Y-59166435D01*
X109213112Y-59171000D01*
X108561888Y-59171000D01*
X108515534Y-59166435D01*
X108476863Y-59154704D01*
X108441221Y-59135652D01*
X108409983Y-59110017D01*
X108384348Y-59078779D01*
X108365296Y-59043137D01*
X108353565Y-59004466D01*
X108349000Y-58958112D01*
X108349000Y-57881888D01*
X108353565Y-57835534D01*
X108365296Y-57796863D01*
X108384348Y-57761221D01*
X108409983Y-57729983D01*
X108441221Y-57704348D01*
X108476863Y-57685296D01*
X108515534Y-57673565D01*
X108561888Y-57669000D01*
X109213112Y-57669000D01*
X109259466Y-57673565D01*
X109259466Y-57673565D01*
G37*
G36*
X128204683Y-58052725D02*
X128235144Y-58061966D01*
X128263223Y-58076975D01*
X128287831Y-58097169D01*
X128308025Y-58121777D01*
X128323034Y-58149856D01*
X128332275Y-58180317D01*
X128336000Y-58218140D01*
X128336000Y-58781860D01*
X128332275Y-58819683D01*
X128323034Y-58850144D01*
X128308025Y-58878223D01*
X128287831Y-58902831D01*
X128263223Y-58923025D01*
X128235144Y-58938034D01*
X128204683Y-58947275D01*
X128166860Y-58951000D01*
X127103140Y-58951000D01*
X127065317Y-58947275D01*
X127034856Y-58938034D01*
X127006777Y-58923025D01*
X126982169Y-58902831D01*
X126961975Y-58878223D01*
X126946966Y-58850144D01*
X126937725Y-58819683D01*
X126934000Y-58781860D01*
X126934000Y-58218140D01*
X126937725Y-58180317D01*
X126946966Y-58149856D01*
X126961975Y-58121777D01*
X126982169Y-58097169D01*
X127006777Y-58076975D01*
X127034856Y-58061966D01*
X127065317Y-58052725D01*
X127103140Y-58049000D01*
X128166860Y-58049000D01*
X128204683Y-58052725D01*
X128204683Y-58052725D01*
G37*
G36*
X102804683Y-57972725D02*
X102835144Y-57981966D01*
X102863223Y-57996975D01*
X102887831Y-58017169D01*
X102908025Y-58041777D01*
X102923034Y-58069856D01*
X102932275Y-58100317D01*
X102936000Y-58138140D01*
X102936000Y-58701860D01*
X102932275Y-58739683D01*
X102923034Y-58770144D01*
X102908025Y-58798223D01*
X102887831Y-58822831D01*
X102863223Y-58843025D01*
X102835144Y-58858034D01*
X102804683Y-58867275D01*
X102766860Y-58871000D01*
X101703140Y-58871000D01*
X101665317Y-58867275D01*
X101634856Y-58858034D01*
X101606777Y-58843025D01*
X101582169Y-58822831D01*
X101561975Y-58798223D01*
X101546966Y-58770144D01*
X101537725Y-58739683D01*
X101534000Y-58701860D01*
X101534000Y-58138140D01*
X101537725Y-58100317D01*
X101546966Y-58069856D01*
X101561975Y-58041777D01*
X101582169Y-58017169D01*
X101606777Y-57996975D01*
X101634856Y-57981966D01*
X101665317Y-57972725D01*
X101703140Y-57969000D01*
X102766860Y-57969000D01*
X102804683Y-57972725D01*
X102804683Y-57972725D01*
G37*
G36*
X118596000Y-58771000D02*
X116994000Y-58771000D01*
X116994000Y-58069000D01*
X118596000Y-58069000D01*
X118596000Y-58771000D01*
X118596000Y-58771000D01*
G37*
G36*
X113196000Y-58771000D02*
X111594000Y-58771000D01*
X111594000Y-58069000D01*
X113196000Y-58069000D01*
X113196000Y-58771000D01*
X113196000Y-58771000D01*
G37*
G36*
X122624466Y-56403565D02*
X122663137Y-56415296D01*
X122698779Y-56434348D01*
X122730017Y-56459983D01*
X122755652Y-56491221D01*
X122774704Y-56526863D01*
X122786435Y-56565534D01*
X122791000Y-56611888D01*
X122791000Y-57688112D01*
X122786435Y-57734466D01*
X122774704Y-57773137D01*
X122755652Y-57808779D01*
X122730017Y-57840017D01*
X122698779Y-57865652D01*
X122663137Y-57884704D01*
X122624466Y-57896435D01*
X122578112Y-57901000D01*
X121926888Y-57901000D01*
X121880534Y-57896435D01*
X121841863Y-57884704D01*
X121806221Y-57865652D01*
X121774983Y-57840017D01*
X121749348Y-57808779D01*
X121730296Y-57773137D01*
X121718565Y-57734466D01*
X121714000Y-57688112D01*
X121714000Y-56611888D01*
X121718565Y-56565534D01*
X121730296Y-56526863D01*
X121749348Y-56491221D01*
X121774983Y-56459983D01*
X121806221Y-56434348D01*
X121841863Y-56415296D01*
X121880534Y-56403565D01*
X121926888Y-56399000D01*
X122578112Y-56399000D01*
X122624466Y-56403565D01*
X122624466Y-56403565D01*
G37*
G36*
X124499466Y-56403565D02*
X124538137Y-56415296D01*
X124573779Y-56434348D01*
X124605017Y-56459983D01*
X124630652Y-56491221D01*
X124649704Y-56526863D01*
X124661435Y-56565534D01*
X124666000Y-56611888D01*
X124666000Y-57688112D01*
X124661435Y-57734466D01*
X124649704Y-57773137D01*
X124630652Y-57808779D01*
X124605017Y-57840017D01*
X124573779Y-57865652D01*
X124538137Y-57884704D01*
X124499466Y-57896435D01*
X124453112Y-57901000D01*
X123801888Y-57901000D01*
X123755534Y-57896435D01*
X123716863Y-57884704D01*
X123681221Y-57865652D01*
X123649983Y-57840017D01*
X123624348Y-57808779D01*
X123605296Y-57773137D01*
X123593565Y-57734466D01*
X123589000Y-57688112D01*
X123589000Y-56611888D01*
X123593565Y-56565534D01*
X123605296Y-56526863D01*
X123624348Y-56491221D01*
X123649983Y-56459983D01*
X123681221Y-56434348D01*
X123716863Y-56415296D01*
X123755534Y-56403565D01*
X123801888Y-56399000D01*
X124453112Y-56399000D01*
X124499466Y-56403565D01*
X124499466Y-56403565D01*
G37*
G36*
X113196000Y-57501000D02*
X111594000Y-57501000D01*
X111594000Y-56799000D01*
X113196000Y-56799000D01*
X113196000Y-57501000D01*
X113196000Y-57501000D01*
G37*
G36*
X118596000Y-57501000D02*
X116994000Y-57501000D01*
X116994000Y-56799000D01*
X118596000Y-56799000D01*
X118596000Y-57501000D01*
X118596000Y-57501000D01*
G37*
G36*
X107384466Y-55768565D02*
X107423137Y-55780296D01*
X107458779Y-55799348D01*
X107490017Y-55824983D01*
X107515652Y-55856221D01*
X107534704Y-55891863D01*
X107546435Y-55930534D01*
X107551000Y-55976888D01*
X107551000Y-57053112D01*
X107546435Y-57099466D01*
X107534704Y-57138137D01*
X107515652Y-57173779D01*
X107490017Y-57205017D01*
X107458779Y-57230652D01*
X107423137Y-57249704D01*
X107384466Y-57261435D01*
X107338112Y-57266000D01*
X106686888Y-57266000D01*
X106640534Y-57261435D01*
X106601863Y-57249704D01*
X106566221Y-57230652D01*
X106534983Y-57205017D01*
X106509348Y-57173779D01*
X106490296Y-57138137D01*
X106478565Y-57099466D01*
X106474000Y-57053112D01*
X106474000Y-55976888D01*
X106478565Y-55930534D01*
X106490296Y-55891863D01*
X106509348Y-55856221D01*
X106534983Y-55824983D01*
X106566221Y-55799348D01*
X106601863Y-55780296D01*
X106640534Y-55768565D01*
X106686888Y-55764000D01*
X107338112Y-55764000D01*
X107384466Y-55768565D01*
X107384466Y-55768565D01*
G37*
G36*
X109259466Y-55768565D02*
X109298137Y-55780296D01*
X109333779Y-55799348D01*
X109365017Y-55824983D01*
X109390652Y-55856221D01*
X109409704Y-55891863D01*
X109421435Y-55930534D01*
X109426000Y-55976888D01*
X109426000Y-57053112D01*
X109421435Y-57099466D01*
X109409704Y-57138137D01*
X109390652Y-57173779D01*
X109365017Y-57205017D01*
X109333779Y-57230652D01*
X109298137Y-57249704D01*
X109259466Y-57261435D01*
X109213112Y-57266000D01*
X108561888Y-57266000D01*
X108515534Y-57261435D01*
X108476863Y-57249704D01*
X108441221Y-57230652D01*
X108409983Y-57205017D01*
X108384348Y-57173779D01*
X108365296Y-57138137D01*
X108353565Y-57099466D01*
X108349000Y-57053112D01*
X108349000Y-55976888D01*
X108353565Y-55930534D01*
X108365296Y-55891863D01*
X108384348Y-55856221D01*
X108409983Y-55824983D01*
X108441221Y-55799348D01*
X108476863Y-55780296D01*
X108515534Y-55768565D01*
X108561888Y-55764000D01*
X109213112Y-55764000D01*
X109259466Y-55768565D01*
X109259466Y-55768565D01*
G37*
G36*
X127973413Y-53530525D02*
X128048456Y-53553290D01*
X128058425Y-53556314D01*
X128136774Y-53598193D01*
X128205448Y-53654552D01*
X128261807Y-53723226D01*
X128303686Y-53801575D01*
X128303687Y-53801579D01*
X128329475Y-53886587D01*
X128338182Y-53975000D01*
X128329475Y-54063413D01*
X128306710Y-54138456D01*
X128303686Y-54148425D01*
X128261807Y-54226774D01*
X128205448Y-54295448D01*
X128136774Y-54351807D01*
X128058425Y-54393686D01*
X128048456Y-54396710D01*
X127973413Y-54419475D01*
X127907158Y-54426000D01*
X127362842Y-54426000D01*
X127296587Y-54419475D01*
X127221544Y-54396710D01*
X127211575Y-54393686D01*
X127133226Y-54351807D01*
X127064552Y-54295448D01*
X127008193Y-54226774D01*
X126966314Y-54148425D01*
X126963290Y-54138456D01*
X126940525Y-54063413D01*
X126931818Y-53975000D01*
X126940525Y-53886587D01*
X126966313Y-53801579D01*
X126966314Y-53801575D01*
X127008193Y-53723226D01*
X127064552Y-53654552D01*
X127133226Y-53598193D01*
X127211575Y-53556314D01*
X127221544Y-53553290D01*
X127296587Y-53530525D01*
X127362842Y-53524000D01*
X127907158Y-53524000D01*
X127973413Y-53530525D01*
X127973413Y-53530525D01*
G37*
G36*
X128204683Y-52277725D02*
X128235144Y-52286966D01*
X128263223Y-52301975D01*
X128287831Y-52322169D01*
X128308025Y-52346777D01*
X128323034Y-52374856D01*
X128332275Y-52405317D01*
X128336000Y-52443140D01*
X128336000Y-53006860D01*
X128332275Y-53044683D01*
X128323034Y-53075144D01*
X128308025Y-53103223D01*
X128287831Y-53127831D01*
X128263223Y-53148025D01*
X128235144Y-53163034D01*
X128204683Y-53172275D01*
X128166860Y-53176000D01*
X127103140Y-53176000D01*
X127065317Y-53172275D01*
X127034856Y-53163034D01*
X127006777Y-53148025D01*
X126982169Y-53127831D01*
X126961975Y-53103223D01*
X126946966Y-53075144D01*
X126937725Y-53044683D01*
X126934000Y-53006860D01*
X126934000Y-52443140D01*
X126937725Y-52405317D01*
X126946966Y-52374856D01*
X126961975Y-52346777D01*
X126982169Y-52322169D01*
X127006777Y-52301975D01*
X127034856Y-52286966D01*
X127065317Y-52277725D01*
X127103140Y-52274000D01*
X128166860Y-52274000D01*
X128204683Y-52277725D01*
X128204683Y-52277725D01*
G37*
G36*
X107384466Y-50053565D02*
X107423137Y-50065296D01*
X107458779Y-50084348D01*
X107490017Y-50109983D01*
X107515652Y-50141221D01*
X107534704Y-50176863D01*
X107546435Y-50215534D01*
X107551000Y-50261888D01*
X107551000Y-51338112D01*
X107546435Y-51384466D01*
X107534704Y-51423137D01*
X107515652Y-51458779D01*
X107490017Y-51490017D01*
X107458779Y-51515652D01*
X107423137Y-51534704D01*
X107384466Y-51546435D01*
X107338112Y-51551000D01*
X106686888Y-51551000D01*
X106640534Y-51546435D01*
X106601863Y-51534704D01*
X106566221Y-51515652D01*
X106534983Y-51490017D01*
X106509348Y-51458779D01*
X106490296Y-51423137D01*
X106478565Y-51384466D01*
X106474000Y-51338112D01*
X106474000Y-50261888D01*
X106478565Y-50215534D01*
X106490296Y-50176863D01*
X106509348Y-50141221D01*
X106534983Y-50109983D01*
X106566221Y-50084348D01*
X106601863Y-50065296D01*
X106640534Y-50053565D01*
X106686888Y-50049000D01*
X107338112Y-50049000D01*
X107384466Y-50053565D01*
X107384466Y-50053565D01*
G37*
G36*
X109259466Y-50053565D02*
X109298137Y-50065296D01*
X109333779Y-50084348D01*
X109365017Y-50109983D01*
X109390652Y-50141221D01*
X109409704Y-50176863D01*
X109421435Y-50215534D01*
X109426000Y-50261888D01*
X109426000Y-51338112D01*
X109421435Y-51384466D01*
X109409704Y-51423137D01*
X109390652Y-51458779D01*
X109365017Y-51490017D01*
X109333779Y-51515652D01*
X109298137Y-51534704D01*
X109259466Y-51546435D01*
X109213112Y-51551000D01*
X108561888Y-51551000D01*
X108515534Y-51546435D01*
X108476863Y-51534704D01*
X108441221Y-51515652D01*
X108409983Y-51490017D01*
X108384348Y-51458779D01*
X108365296Y-51423137D01*
X108353565Y-51384466D01*
X108349000Y-51338112D01*
X108349000Y-50261888D01*
X108353565Y-50215534D01*
X108365296Y-50176863D01*
X108384348Y-50141221D01*
X108409983Y-50109983D01*
X108441221Y-50084348D01*
X108476863Y-50065296D01*
X108515534Y-50053565D01*
X108561888Y-50049000D01*
X109213112Y-50049000D01*
X109259466Y-50053565D01*
X109259466Y-50053565D01*
G37*
G36*
X102573413Y-50335525D02*
X102648456Y-50358290D01*
X102658425Y-50361314D01*
X102736774Y-50403193D01*
X102805448Y-50459552D01*
X102861807Y-50528226D01*
X102903686Y-50606575D01*
X102903687Y-50606579D01*
X102929475Y-50691587D01*
X102938182Y-50780000D01*
X102929475Y-50868413D01*
X102906710Y-50943456D01*
X102903686Y-50953425D01*
X102861807Y-51031774D01*
X102805448Y-51100448D01*
X102736774Y-51156807D01*
X102658425Y-51198686D01*
X102648456Y-51201710D01*
X102573413Y-51224475D01*
X102507158Y-51231000D01*
X101962842Y-51231000D01*
X101896587Y-51224475D01*
X101821544Y-51201710D01*
X101811575Y-51198686D01*
X101733226Y-51156807D01*
X101664552Y-51100448D01*
X101608193Y-51031774D01*
X101566314Y-50953425D01*
X101563290Y-50943456D01*
X101540525Y-50868413D01*
X101531818Y-50780000D01*
X101540525Y-50691587D01*
X101566313Y-50606579D01*
X101566314Y-50606575D01*
X101608193Y-50528226D01*
X101664552Y-50459552D01*
X101733226Y-50403193D01*
X101811575Y-50361314D01*
X101821544Y-50358290D01*
X101896587Y-50335525D01*
X101962842Y-50329000D01*
X102507158Y-50329000D01*
X102573413Y-50335525D01*
X102573413Y-50335525D01*
G37*
G36*
X118596000Y-51151000D02*
X116994000Y-51151000D01*
X116994000Y-50449000D01*
X118596000Y-50449000D01*
X118596000Y-51151000D01*
X118596000Y-51151000D01*
G37*
G36*
X113196000Y-51151000D02*
X111594000Y-51151000D01*
X111594000Y-50449000D01*
X113196000Y-50449000D01*
X113196000Y-51151000D01*
X113196000Y-51151000D01*
G37*
G36*
X124499466Y-48783565D02*
X124538137Y-48795296D01*
X124573779Y-48814348D01*
X124605017Y-48839983D01*
X124630652Y-48871221D01*
X124649704Y-48906863D01*
X124661435Y-48945534D01*
X124666000Y-48991888D01*
X124666000Y-50068112D01*
X124661435Y-50114466D01*
X124649704Y-50153137D01*
X124630652Y-50188779D01*
X124605017Y-50220017D01*
X124573779Y-50245652D01*
X124538137Y-50264704D01*
X124499466Y-50276435D01*
X124453112Y-50281000D01*
X123801888Y-50281000D01*
X123755534Y-50276435D01*
X123716863Y-50264704D01*
X123681221Y-50245652D01*
X123649983Y-50220017D01*
X123624348Y-50188779D01*
X123605296Y-50153137D01*
X123593565Y-50114466D01*
X123589000Y-50068112D01*
X123589000Y-48991888D01*
X123593565Y-48945534D01*
X123605296Y-48906863D01*
X123624348Y-48871221D01*
X123649983Y-48839983D01*
X123681221Y-48814348D01*
X123716863Y-48795296D01*
X123755534Y-48783565D01*
X123801888Y-48779000D01*
X124453112Y-48779000D01*
X124499466Y-48783565D01*
X124499466Y-48783565D01*
G37*
G36*
X122624466Y-48783565D02*
X122663137Y-48795296D01*
X122698779Y-48814348D01*
X122730017Y-48839983D01*
X122755652Y-48871221D01*
X122774704Y-48906863D01*
X122786435Y-48945534D01*
X122791000Y-48991888D01*
X122791000Y-50068112D01*
X122786435Y-50114466D01*
X122774704Y-50153137D01*
X122755652Y-50188779D01*
X122730017Y-50220017D01*
X122698779Y-50245652D01*
X122663137Y-50264704D01*
X122624466Y-50276435D01*
X122578112Y-50281000D01*
X121926888Y-50281000D01*
X121880534Y-50276435D01*
X121841863Y-50264704D01*
X121806221Y-50245652D01*
X121774983Y-50220017D01*
X121749348Y-50188779D01*
X121730296Y-50153137D01*
X121718565Y-50114466D01*
X121714000Y-50068112D01*
X121714000Y-48991888D01*
X121718565Y-48945534D01*
X121730296Y-48906863D01*
X121749348Y-48871221D01*
X121774983Y-48839983D01*
X121806221Y-48814348D01*
X121841863Y-48795296D01*
X121880534Y-48783565D01*
X121926888Y-48779000D01*
X122578112Y-48779000D01*
X122624466Y-48783565D01*
X122624466Y-48783565D01*
G37*
G36*
X102804683Y-49082725D02*
X102835144Y-49091966D01*
X102863223Y-49106975D01*
X102887831Y-49127169D01*
X102908025Y-49151777D01*
X102923034Y-49179856D01*
X102932275Y-49210317D01*
X102936000Y-49248140D01*
X102936000Y-49811860D01*
X102932275Y-49849683D01*
X102923034Y-49880144D01*
X102908025Y-49908223D01*
X102887831Y-49932831D01*
X102863223Y-49953025D01*
X102835144Y-49968034D01*
X102804683Y-49977275D01*
X102766860Y-49981000D01*
X101703140Y-49981000D01*
X101665317Y-49977275D01*
X101634856Y-49968034D01*
X101606777Y-49953025D01*
X101582169Y-49932831D01*
X101561975Y-49908223D01*
X101546966Y-49880144D01*
X101537725Y-49849683D01*
X101534000Y-49811860D01*
X101534000Y-49248140D01*
X101537725Y-49210317D01*
X101546966Y-49179856D01*
X101561975Y-49151777D01*
X101582169Y-49127169D01*
X101606777Y-49106975D01*
X101634856Y-49091966D01*
X101665317Y-49082725D01*
X101703140Y-49079000D01*
X102766860Y-49079000D01*
X102804683Y-49082725D01*
X102804683Y-49082725D01*
G37*
G36*
X113196000Y-49881000D02*
X111594000Y-49881000D01*
X111594000Y-49179000D01*
X113196000Y-49179000D01*
X113196000Y-49881000D01*
X113196000Y-49881000D01*
G37*
G36*
X118596000Y-49881000D02*
X116994000Y-49881000D01*
X116994000Y-49179000D01*
X118596000Y-49179000D01*
X118596000Y-49881000D01*
X118596000Y-49881000D01*
G37*
G36*
X107384466Y-48148565D02*
X107423137Y-48160296D01*
X107458779Y-48179348D01*
X107490017Y-48204983D01*
X107515652Y-48236221D01*
X107534704Y-48271863D01*
X107546435Y-48310534D01*
X107551000Y-48356888D01*
X107551000Y-49433112D01*
X107546435Y-49479466D01*
X107534704Y-49518137D01*
X107515652Y-49553779D01*
X107490017Y-49585017D01*
X107458779Y-49610652D01*
X107423137Y-49629704D01*
X107384466Y-49641435D01*
X107338112Y-49646000D01*
X106686888Y-49646000D01*
X106640534Y-49641435D01*
X106601863Y-49629704D01*
X106566221Y-49610652D01*
X106534983Y-49585017D01*
X106509348Y-49553779D01*
X106490296Y-49518137D01*
X106478565Y-49479466D01*
X106474000Y-49433112D01*
X106474000Y-48356888D01*
X106478565Y-48310534D01*
X106490296Y-48271863D01*
X106509348Y-48236221D01*
X106534983Y-48204983D01*
X106566221Y-48179348D01*
X106601863Y-48160296D01*
X106640534Y-48148565D01*
X106686888Y-48144000D01*
X107338112Y-48144000D01*
X107384466Y-48148565D01*
X107384466Y-48148565D01*
G37*
G36*
X109259466Y-48148565D02*
X109298137Y-48160296D01*
X109333779Y-48179348D01*
X109365017Y-48204983D01*
X109390652Y-48236221D01*
X109409704Y-48271863D01*
X109421435Y-48310534D01*
X109426000Y-48356888D01*
X109426000Y-49433112D01*
X109421435Y-49479466D01*
X109409704Y-49518137D01*
X109390652Y-49553779D01*
X109365017Y-49585017D01*
X109333779Y-49610652D01*
X109298137Y-49629704D01*
X109259466Y-49641435D01*
X109213112Y-49646000D01*
X108561888Y-49646000D01*
X108515534Y-49641435D01*
X108476863Y-49629704D01*
X108441221Y-49610652D01*
X108409983Y-49585017D01*
X108384348Y-49553779D01*
X108365296Y-49518137D01*
X108353565Y-49479466D01*
X108349000Y-49433112D01*
X108349000Y-48356888D01*
X108353565Y-48310534D01*
X108365296Y-48271863D01*
X108384348Y-48236221D01*
X108409983Y-48204983D01*
X108441221Y-48179348D01*
X108476863Y-48160296D01*
X108515534Y-48148565D01*
X108561888Y-48144000D01*
X109213112Y-48144000D01*
X109259466Y-48148565D01*
X109259466Y-48148565D01*
G37*
G36*
X127973413Y-47815525D02*
X128048456Y-47838290D01*
X128058425Y-47841314D01*
X128136774Y-47883193D01*
X128205448Y-47939552D01*
X128261807Y-48008226D01*
X128303686Y-48086575D01*
X128303687Y-48086579D01*
X128329475Y-48171587D01*
X128338182Y-48260000D01*
X128329475Y-48348413D01*
X128309806Y-48413250D01*
X128303686Y-48433425D01*
X128261807Y-48511774D01*
X128205448Y-48580448D01*
X128136774Y-48636807D01*
X128058425Y-48678686D01*
X128048456Y-48681710D01*
X127973413Y-48704475D01*
X127907158Y-48711000D01*
X127362842Y-48711000D01*
X127296587Y-48704475D01*
X127221544Y-48681710D01*
X127211575Y-48678686D01*
X127133226Y-48636807D01*
X127064552Y-48580448D01*
X127008193Y-48511774D01*
X126966314Y-48433425D01*
X126960194Y-48413250D01*
X126940525Y-48348413D01*
X126931818Y-48260000D01*
X126940525Y-48171587D01*
X126966313Y-48086579D01*
X126966314Y-48086575D01*
X127008193Y-48008226D01*
X127064552Y-47939552D01*
X127133226Y-47883193D01*
X127211575Y-47841314D01*
X127221544Y-47838290D01*
X127296587Y-47815525D01*
X127362842Y-47809000D01*
X127907158Y-47809000D01*
X127973413Y-47815525D01*
X127973413Y-47815525D01*
G37*
G36*
X118596000Y-48611000D02*
X116994000Y-48611000D01*
X116994000Y-47909000D01*
X118596000Y-47909000D01*
X118596000Y-48611000D01*
X118596000Y-48611000D01*
G37*
G36*
X113196000Y-48611000D02*
X111594000Y-48611000D01*
X111594000Y-47909000D01*
X113196000Y-47909000D01*
X113196000Y-48611000D01*
X113196000Y-48611000D01*
G37*
G36*
X124499466Y-46878565D02*
X124538137Y-46890296D01*
X124573779Y-46909348D01*
X124605017Y-46934983D01*
X124630652Y-46966221D01*
X124649704Y-47001863D01*
X124661435Y-47040534D01*
X124666000Y-47086888D01*
X124666000Y-48163112D01*
X124661435Y-48209466D01*
X124649704Y-48248137D01*
X124630652Y-48283779D01*
X124605017Y-48315017D01*
X124573779Y-48340652D01*
X124538137Y-48359704D01*
X124499466Y-48371435D01*
X124453112Y-48376000D01*
X123801888Y-48376000D01*
X123755534Y-48371435D01*
X123716863Y-48359704D01*
X123681221Y-48340652D01*
X123649983Y-48315017D01*
X123624348Y-48283779D01*
X123605296Y-48248137D01*
X123593565Y-48209466D01*
X123589000Y-48163112D01*
X123589000Y-47086888D01*
X123593565Y-47040534D01*
X123605296Y-47001863D01*
X123624348Y-46966221D01*
X123649983Y-46934983D01*
X123681221Y-46909348D01*
X123716863Y-46890296D01*
X123755534Y-46878565D01*
X123801888Y-46874000D01*
X124453112Y-46874000D01*
X124499466Y-46878565D01*
X124499466Y-46878565D01*
G37*
G36*
X122624466Y-46878565D02*
X122663137Y-46890296D01*
X122698779Y-46909348D01*
X122730017Y-46934983D01*
X122755652Y-46966221D01*
X122774704Y-47001863D01*
X122786435Y-47040534D01*
X122791000Y-47086888D01*
X122791000Y-48163112D01*
X122786435Y-48209466D01*
X122774704Y-48248137D01*
X122755652Y-48283779D01*
X122730017Y-48315017D01*
X122698779Y-48340652D01*
X122663137Y-48359704D01*
X122624466Y-48371435D01*
X122578112Y-48376000D01*
X121926888Y-48376000D01*
X121880534Y-48371435D01*
X121841863Y-48359704D01*
X121806221Y-48340652D01*
X121774983Y-48315017D01*
X121749348Y-48283779D01*
X121730296Y-48248137D01*
X121718565Y-48209466D01*
X121714000Y-48163112D01*
X121714000Y-47086888D01*
X121718565Y-47040534D01*
X121730296Y-47001863D01*
X121749348Y-46966221D01*
X121774983Y-46934983D01*
X121806221Y-46909348D01*
X121841863Y-46890296D01*
X121880534Y-46878565D01*
X121926888Y-46874000D01*
X122578112Y-46874000D01*
X122624466Y-46878565D01*
X122624466Y-46878565D01*
G37*
G36*
X109259466Y-46243565D02*
X109298137Y-46255296D01*
X109333779Y-46274348D01*
X109365017Y-46299983D01*
X109390652Y-46331221D01*
X109409704Y-46366863D01*
X109421435Y-46405534D01*
X109426000Y-46451888D01*
X109426000Y-47528112D01*
X109421435Y-47574466D01*
X109409704Y-47613137D01*
X109390652Y-47648779D01*
X109365017Y-47680017D01*
X109333779Y-47705652D01*
X109298137Y-47724704D01*
X109259466Y-47736435D01*
X109213112Y-47741000D01*
X108561888Y-47741000D01*
X108515534Y-47736435D01*
X108476863Y-47724704D01*
X108441221Y-47705652D01*
X108409983Y-47680017D01*
X108384348Y-47648779D01*
X108365296Y-47613137D01*
X108353565Y-47574466D01*
X108349000Y-47528112D01*
X108349000Y-46451888D01*
X108353565Y-46405534D01*
X108365296Y-46366863D01*
X108384348Y-46331221D01*
X108409983Y-46299983D01*
X108441221Y-46274348D01*
X108476863Y-46255296D01*
X108515534Y-46243565D01*
X108561888Y-46239000D01*
X109213112Y-46239000D01*
X109259466Y-46243565D01*
X109259466Y-46243565D01*
G37*
G36*
X107384466Y-46243565D02*
X107423137Y-46255296D01*
X107458779Y-46274348D01*
X107490017Y-46299983D01*
X107515652Y-46331221D01*
X107534704Y-46366863D01*
X107546435Y-46405534D01*
X107551000Y-46451888D01*
X107551000Y-47528112D01*
X107546435Y-47574466D01*
X107534704Y-47613137D01*
X107515652Y-47648779D01*
X107490017Y-47680017D01*
X107458779Y-47705652D01*
X107423137Y-47724704D01*
X107384466Y-47736435D01*
X107338112Y-47741000D01*
X106686888Y-47741000D01*
X106640534Y-47736435D01*
X106601863Y-47724704D01*
X106566221Y-47705652D01*
X106534983Y-47680017D01*
X106509348Y-47648779D01*
X106490296Y-47613137D01*
X106478565Y-47574466D01*
X106474000Y-47528112D01*
X106474000Y-46451888D01*
X106478565Y-46405534D01*
X106490296Y-46366863D01*
X106509348Y-46331221D01*
X106534983Y-46299983D01*
X106566221Y-46274348D01*
X106601863Y-46255296D01*
X106640534Y-46243565D01*
X106686888Y-46239000D01*
X107338112Y-46239000D01*
X107384466Y-46243565D01*
X107384466Y-46243565D01*
G37*
G36*
X128204683Y-46562725D02*
X128235144Y-46571966D01*
X128263223Y-46586975D01*
X128287831Y-46607169D01*
X128308025Y-46631777D01*
X128323034Y-46659856D01*
X128332275Y-46690317D01*
X128336000Y-46728140D01*
X128336000Y-47291860D01*
X128332275Y-47329683D01*
X128323034Y-47360144D01*
X128308025Y-47388223D01*
X128287831Y-47412831D01*
X128263223Y-47433025D01*
X128235144Y-47448034D01*
X128204683Y-47457275D01*
X128166860Y-47461000D01*
X127103140Y-47461000D01*
X127065317Y-47457275D01*
X127034856Y-47448034D01*
X127006777Y-47433025D01*
X126982169Y-47412831D01*
X126961975Y-47388223D01*
X126946966Y-47360144D01*
X126937725Y-47329683D01*
X126934000Y-47291860D01*
X126934000Y-46728140D01*
X126937725Y-46690317D01*
X126946966Y-46659856D01*
X126961975Y-46631777D01*
X126982169Y-46607169D01*
X127006777Y-46586975D01*
X127034856Y-46571966D01*
X127065317Y-46562725D01*
X127103140Y-46559000D01*
X128166860Y-46559000D01*
X128204683Y-46562725D01*
X128204683Y-46562725D01*
G37*
G36*
X113196000Y-47341000D02*
X111594000Y-47341000D01*
X111594000Y-46639000D01*
X113196000Y-46639000D01*
X113196000Y-47341000D01*
X113196000Y-47341000D01*
G37*
G36*
X118596000Y-47341000D02*
X116994000Y-47341000D01*
X116994000Y-46639000D01*
X118596000Y-46639000D01*
X118596000Y-47341000D01*
X118596000Y-47341000D01*
G37*
G36*
X122624466Y-44973565D02*
X122663137Y-44985296D01*
X122698779Y-45004348D01*
X122730017Y-45029983D01*
X122755652Y-45061221D01*
X122774704Y-45096863D01*
X122786435Y-45135534D01*
X122791000Y-45181888D01*
X122791000Y-46258112D01*
X122786435Y-46304466D01*
X122774704Y-46343137D01*
X122755652Y-46378779D01*
X122730017Y-46410017D01*
X122698779Y-46435652D01*
X122663137Y-46454704D01*
X122624466Y-46466435D01*
X122578112Y-46471000D01*
X121926888Y-46471000D01*
X121880534Y-46466435D01*
X121841863Y-46454704D01*
X121806221Y-46435652D01*
X121774983Y-46410017D01*
X121749348Y-46378779D01*
X121730296Y-46343137D01*
X121718565Y-46304466D01*
X121714000Y-46258112D01*
X121714000Y-45181888D01*
X121718565Y-45135534D01*
X121730296Y-45096863D01*
X121749348Y-45061221D01*
X121774983Y-45029983D01*
X121806221Y-45004348D01*
X121841863Y-44985296D01*
X121880534Y-44973565D01*
X121926888Y-44969000D01*
X122578112Y-44969000D01*
X122624466Y-44973565D01*
X122624466Y-44973565D01*
G37*
G36*
X124499466Y-44973565D02*
X124538137Y-44985296D01*
X124573779Y-45004348D01*
X124605017Y-45029983D01*
X124630652Y-45061221D01*
X124649704Y-45096863D01*
X124661435Y-45135534D01*
X124666000Y-45181888D01*
X124666000Y-46258112D01*
X124661435Y-46304466D01*
X124649704Y-46343137D01*
X124630652Y-46378779D01*
X124605017Y-46410017D01*
X124573779Y-46435652D01*
X124538137Y-46454704D01*
X124499466Y-46466435D01*
X124453112Y-46471000D01*
X123801888Y-46471000D01*
X123755534Y-46466435D01*
X123716863Y-46454704D01*
X123681221Y-46435652D01*
X123649983Y-46410017D01*
X123624348Y-46378779D01*
X123605296Y-46343137D01*
X123593565Y-46304466D01*
X123589000Y-46258112D01*
X123589000Y-45181888D01*
X123593565Y-45135534D01*
X123605296Y-45096863D01*
X123624348Y-45061221D01*
X123649983Y-45029983D01*
X123681221Y-45004348D01*
X123716863Y-44985296D01*
X123755534Y-44973565D01*
X123801888Y-44969000D01*
X124453112Y-44969000D01*
X124499466Y-44973565D01*
X124499466Y-44973565D01*
G37*
G36*
X113196000Y-46071000D02*
X111594000Y-46071000D01*
X111594000Y-45369000D01*
X113196000Y-45369000D01*
X113196000Y-46071000D01*
X113196000Y-46071000D01*
G37*
G36*
X118596000Y-46071000D02*
X116994000Y-46071000D01*
X116994000Y-45369000D01*
X118596000Y-45369000D01*
X118596000Y-46071000D01*
X118596000Y-46071000D01*
G37*
G36*
X107384466Y-44338565D02*
X107423137Y-44350296D01*
X107458779Y-44369348D01*
X107490017Y-44394983D01*
X107515652Y-44426221D01*
X107534704Y-44461863D01*
X107546435Y-44500534D01*
X107551000Y-44546888D01*
X107551000Y-45623112D01*
X107546435Y-45669466D01*
X107534704Y-45708137D01*
X107515652Y-45743779D01*
X107490017Y-45775017D01*
X107458779Y-45800652D01*
X107423137Y-45819704D01*
X107384466Y-45831435D01*
X107338112Y-45836000D01*
X106686888Y-45836000D01*
X106640534Y-45831435D01*
X106601863Y-45819704D01*
X106566221Y-45800652D01*
X106534983Y-45775017D01*
X106509348Y-45743779D01*
X106490296Y-45708137D01*
X106478565Y-45669466D01*
X106474000Y-45623112D01*
X106474000Y-44546888D01*
X106478565Y-44500534D01*
X106490296Y-44461863D01*
X106509348Y-44426221D01*
X106534983Y-44394983D01*
X106566221Y-44369348D01*
X106601863Y-44350296D01*
X106640534Y-44338565D01*
X106686888Y-44334000D01*
X107338112Y-44334000D01*
X107384466Y-44338565D01*
X107384466Y-44338565D01*
G37*
G36*
X109259466Y-44338565D02*
X109298137Y-44350296D01*
X109333779Y-44369348D01*
X109365017Y-44394983D01*
X109390652Y-44426221D01*
X109409704Y-44461863D01*
X109421435Y-44500534D01*
X109426000Y-44546888D01*
X109426000Y-45623112D01*
X109421435Y-45669466D01*
X109409704Y-45708137D01*
X109390652Y-45743779D01*
X109365017Y-45775017D01*
X109333779Y-45800652D01*
X109298137Y-45819704D01*
X109259466Y-45831435D01*
X109213112Y-45836000D01*
X108561888Y-45836000D01*
X108515534Y-45831435D01*
X108476863Y-45819704D01*
X108441221Y-45800652D01*
X108409983Y-45775017D01*
X108384348Y-45743779D01*
X108365296Y-45708137D01*
X108353565Y-45669466D01*
X108349000Y-45623112D01*
X108349000Y-44546888D01*
X108353565Y-44500534D01*
X108365296Y-44461863D01*
X108384348Y-44426221D01*
X108409983Y-44394983D01*
X108441221Y-44369348D01*
X108476863Y-44350296D01*
X108515534Y-44338565D01*
X108561888Y-44334000D01*
X109213112Y-44334000D01*
X109259466Y-44338565D01*
X109259466Y-44338565D01*
G37*
G36*
X102573413Y-44620525D02*
X102648456Y-44643290D01*
X102658425Y-44646314D01*
X102736774Y-44688193D01*
X102805448Y-44744552D01*
X102861807Y-44813226D01*
X102903686Y-44891575D01*
X102903687Y-44891579D01*
X102929475Y-44976587D01*
X102938182Y-45065000D01*
X102929475Y-45153413D01*
X102906710Y-45228456D01*
X102903686Y-45238425D01*
X102861807Y-45316774D01*
X102805448Y-45385448D01*
X102736774Y-45441807D01*
X102658425Y-45483686D01*
X102648456Y-45486710D01*
X102573413Y-45509475D01*
X102507158Y-45516000D01*
X101962842Y-45516000D01*
X101896587Y-45509475D01*
X101821544Y-45486710D01*
X101811575Y-45483686D01*
X101733226Y-45441807D01*
X101664552Y-45385448D01*
X101608193Y-45316774D01*
X101566314Y-45238425D01*
X101563290Y-45228456D01*
X101540525Y-45153413D01*
X101531818Y-45065000D01*
X101540525Y-44976587D01*
X101566313Y-44891579D01*
X101566314Y-44891575D01*
X101608193Y-44813226D01*
X101664552Y-44744552D01*
X101733226Y-44688193D01*
X101811575Y-44646314D01*
X101821544Y-44643290D01*
X101896587Y-44620525D01*
X101962842Y-44614000D01*
X102507158Y-44614000D01*
X102573413Y-44620525D01*
X102573413Y-44620525D01*
G37*
G36*
X113196000Y-44801000D02*
X111594000Y-44801000D01*
X111594000Y-44099000D01*
X113196000Y-44099000D01*
X113196000Y-44801000D01*
X113196000Y-44801000D01*
G37*
G36*
X118596000Y-44801000D02*
X116994000Y-44801000D01*
X116994000Y-44099000D01*
X118596000Y-44099000D01*
X118596000Y-44801000D01*
X118596000Y-44801000D01*
G37*
G36*
X124499466Y-43068565D02*
X124538137Y-43080296D01*
X124573779Y-43099348D01*
X124605017Y-43124983D01*
X124630652Y-43156221D01*
X124649704Y-43191863D01*
X124661435Y-43230534D01*
X124666000Y-43276888D01*
X124666000Y-44353112D01*
X124661435Y-44399466D01*
X124649704Y-44438137D01*
X124630652Y-44473779D01*
X124605017Y-44505017D01*
X124573779Y-44530652D01*
X124538137Y-44549704D01*
X124499466Y-44561435D01*
X124453112Y-44566000D01*
X123801888Y-44566000D01*
X123755534Y-44561435D01*
X123716863Y-44549704D01*
X123681221Y-44530652D01*
X123649983Y-44505017D01*
X123624348Y-44473779D01*
X123605296Y-44438137D01*
X123593565Y-44399466D01*
X123589000Y-44353112D01*
X123589000Y-43276888D01*
X123593565Y-43230534D01*
X123605296Y-43191863D01*
X123624348Y-43156221D01*
X123649983Y-43124983D01*
X123681221Y-43099348D01*
X123716863Y-43080296D01*
X123755534Y-43068565D01*
X123801888Y-43064000D01*
X124453112Y-43064000D01*
X124499466Y-43068565D01*
X124499466Y-43068565D01*
G37*
G36*
X122624466Y-43068565D02*
X122663137Y-43080296D01*
X122698779Y-43099348D01*
X122730017Y-43124983D01*
X122755652Y-43156221D01*
X122774704Y-43191863D01*
X122786435Y-43230534D01*
X122791000Y-43276888D01*
X122791000Y-44353112D01*
X122786435Y-44399466D01*
X122774704Y-44438137D01*
X122755652Y-44473779D01*
X122730017Y-44505017D01*
X122698779Y-44530652D01*
X122663137Y-44549704D01*
X122624466Y-44561435D01*
X122578112Y-44566000D01*
X121926888Y-44566000D01*
X121880534Y-44561435D01*
X121841863Y-44549704D01*
X121806221Y-44530652D01*
X121774983Y-44505017D01*
X121749348Y-44473779D01*
X121730296Y-44438137D01*
X121718565Y-44399466D01*
X121714000Y-44353112D01*
X121714000Y-43276888D01*
X121718565Y-43230534D01*
X121730296Y-43191863D01*
X121749348Y-43156221D01*
X121774983Y-43124983D01*
X121806221Y-43099348D01*
X121841863Y-43080296D01*
X121880534Y-43068565D01*
X121926888Y-43064000D01*
X122578112Y-43064000D01*
X122624466Y-43068565D01*
X122624466Y-43068565D01*
G37*
G36*
X102804683Y-43367725D02*
X102835144Y-43376966D01*
X102863223Y-43391975D01*
X102887831Y-43412169D01*
X102908025Y-43436777D01*
X102923034Y-43464856D01*
X102932275Y-43495317D01*
X102936000Y-43533140D01*
X102936000Y-44096860D01*
X102932275Y-44134683D01*
X102923034Y-44165144D01*
X102908025Y-44193223D01*
X102887831Y-44217831D01*
X102863223Y-44238025D01*
X102835144Y-44253034D01*
X102804683Y-44262275D01*
X102766860Y-44266000D01*
X101703140Y-44266000D01*
X101665317Y-44262275D01*
X101634856Y-44253034D01*
X101606777Y-44238025D01*
X101582169Y-44217831D01*
X101561975Y-44193223D01*
X101546966Y-44165144D01*
X101537725Y-44134683D01*
X101534000Y-44096860D01*
X101534000Y-43533140D01*
X101537725Y-43495317D01*
X101546966Y-43464856D01*
X101561975Y-43436777D01*
X101582169Y-43412169D01*
X101606777Y-43391975D01*
X101634856Y-43376966D01*
X101665317Y-43367725D01*
X101703140Y-43364000D01*
X102766860Y-43364000D01*
X102804683Y-43367725D01*
X102804683Y-43367725D01*
G37*
G36*
X109259466Y-42433565D02*
X109298137Y-42445296D01*
X109333779Y-42464348D01*
X109365017Y-42489983D01*
X109390652Y-42521221D01*
X109409704Y-42556863D01*
X109421435Y-42595534D01*
X109426000Y-42641888D01*
X109426000Y-43718112D01*
X109421435Y-43764466D01*
X109409704Y-43803137D01*
X109390652Y-43838779D01*
X109365017Y-43870017D01*
X109333779Y-43895652D01*
X109298137Y-43914704D01*
X109259466Y-43926435D01*
X109213112Y-43931000D01*
X108561888Y-43931000D01*
X108515534Y-43926435D01*
X108476863Y-43914704D01*
X108441221Y-43895652D01*
X108409983Y-43870017D01*
X108384348Y-43838779D01*
X108365296Y-43803137D01*
X108353565Y-43764466D01*
X108349000Y-43718112D01*
X108349000Y-42641888D01*
X108353565Y-42595534D01*
X108365296Y-42556863D01*
X108384348Y-42521221D01*
X108409983Y-42489983D01*
X108441221Y-42464348D01*
X108476863Y-42445296D01*
X108515534Y-42433565D01*
X108561888Y-42429000D01*
X109213112Y-42429000D01*
X109259466Y-42433565D01*
X109259466Y-42433565D01*
G37*
G36*
X107384466Y-42433565D02*
X107423137Y-42445296D01*
X107458779Y-42464348D01*
X107490017Y-42489983D01*
X107515652Y-42521221D01*
X107534704Y-42556863D01*
X107546435Y-42595534D01*
X107551000Y-42641888D01*
X107551000Y-43718112D01*
X107546435Y-43764466D01*
X107534704Y-43803137D01*
X107515652Y-43838779D01*
X107490017Y-43870017D01*
X107458779Y-43895652D01*
X107423137Y-43914704D01*
X107384466Y-43926435D01*
X107338112Y-43931000D01*
X106686888Y-43931000D01*
X106640534Y-43926435D01*
X106601863Y-43914704D01*
X106566221Y-43895652D01*
X106534983Y-43870017D01*
X106509348Y-43838779D01*
X106490296Y-43803137D01*
X106478565Y-43764466D01*
X106474000Y-43718112D01*
X106474000Y-42641888D01*
X106478565Y-42595534D01*
X106490296Y-42556863D01*
X106509348Y-42521221D01*
X106534983Y-42489983D01*
X106566221Y-42464348D01*
X106601863Y-42445296D01*
X106640534Y-42433565D01*
X106686888Y-42429000D01*
X107338112Y-42429000D01*
X107384466Y-42433565D01*
X107384466Y-42433565D01*
G37*
G36*
X113196000Y-43531000D02*
X111594000Y-43531000D01*
X111594000Y-42829000D01*
X113196000Y-42829000D01*
X113196000Y-43531000D01*
X113196000Y-43531000D01*
G37*
G36*
X118596000Y-43531000D02*
X116994000Y-43531000D01*
X116994000Y-42829000D01*
X118596000Y-42829000D01*
X118596000Y-43531000D01*
X118596000Y-43531000D01*
G37*
G36*
X127973413Y-42080525D02*
X128048456Y-42103290D01*
X128058425Y-42106314D01*
X128136774Y-42148193D01*
X128205448Y-42204552D01*
X128261807Y-42273226D01*
X128303686Y-42351575D01*
X128303687Y-42351579D01*
X128329475Y-42436587D01*
X128338182Y-42525000D01*
X128329475Y-42613413D01*
X128306710Y-42688456D01*
X128303686Y-42698425D01*
X128261807Y-42776774D01*
X128205448Y-42845448D01*
X128136774Y-42901807D01*
X128058425Y-42943686D01*
X128048456Y-42946710D01*
X127973413Y-42969475D01*
X127907158Y-42976000D01*
X127362842Y-42976000D01*
X127296587Y-42969475D01*
X127221544Y-42946710D01*
X127211575Y-42943686D01*
X127133226Y-42901807D01*
X127064552Y-42845448D01*
X127008193Y-42776774D01*
X126966314Y-42698425D01*
X126963290Y-42688456D01*
X126940525Y-42613413D01*
X126931818Y-42525000D01*
X126940525Y-42436587D01*
X126966313Y-42351579D01*
X126966314Y-42351575D01*
X127008193Y-42273226D01*
X127064552Y-42204552D01*
X127133226Y-42148193D01*
X127211575Y-42106314D01*
X127221544Y-42103290D01*
X127296587Y-42080525D01*
X127362842Y-42074000D01*
X127907158Y-42074000D01*
X127973413Y-42080525D01*
X127973413Y-42080525D01*
G37*
G36*
X124499466Y-41163565D02*
X124538137Y-41175296D01*
X124573779Y-41194348D01*
X124605017Y-41219983D01*
X124630652Y-41251221D01*
X124649704Y-41286863D01*
X124661435Y-41325534D01*
X124666000Y-41371888D01*
X124666000Y-42448112D01*
X124661435Y-42494466D01*
X124649704Y-42533137D01*
X124630652Y-42568779D01*
X124605017Y-42600017D01*
X124573779Y-42625652D01*
X124538137Y-42644704D01*
X124499466Y-42656435D01*
X124453112Y-42661000D01*
X123801888Y-42661000D01*
X123755534Y-42656435D01*
X123716863Y-42644704D01*
X123681221Y-42625652D01*
X123649983Y-42600017D01*
X123624348Y-42568779D01*
X123605296Y-42533137D01*
X123593565Y-42494466D01*
X123589000Y-42448112D01*
X123589000Y-41371888D01*
X123593565Y-41325534D01*
X123605296Y-41286863D01*
X123624348Y-41251221D01*
X123649983Y-41219983D01*
X123681221Y-41194348D01*
X123716863Y-41175296D01*
X123755534Y-41163565D01*
X123801888Y-41159000D01*
X124453112Y-41159000D01*
X124499466Y-41163565D01*
X124499466Y-41163565D01*
G37*
G36*
X122624466Y-41163565D02*
X122663137Y-41175296D01*
X122698779Y-41194348D01*
X122730017Y-41219983D01*
X122755652Y-41251221D01*
X122774704Y-41286863D01*
X122786435Y-41325534D01*
X122791000Y-41371888D01*
X122791000Y-42448112D01*
X122786435Y-42494466D01*
X122774704Y-42533137D01*
X122755652Y-42568779D01*
X122730017Y-42600017D01*
X122698779Y-42625652D01*
X122663137Y-42644704D01*
X122624466Y-42656435D01*
X122578112Y-42661000D01*
X121926888Y-42661000D01*
X121880534Y-42656435D01*
X121841863Y-42644704D01*
X121806221Y-42625652D01*
X121774983Y-42600017D01*
X121749348Y-42568779D01*
X121730296Y-42533137D01*
X121718565Y-42494466D01*
X121714000Y-42448112D01*
X121714000Y-41371888D01*
X121718565Y-41325534D01*
X121730296Y-41286863D01*
X121749348Y-41251221D01*
X121774983Y-41219983D01*
X121806221Y-41194348D01*
X121841863Y-41175296D01*
X121880534Y-41163565D01*
X121926888Y-41159000D01*
X122578112Y-41159000D01*
X122624466Y-41163565D01*
X122624466Y-41163565D01*
G37*
G36*
X118596000Y-42261000D02*
X116994000Y-42261000D01*
X116994000Y-41559000D01*
X118596000Y-41559000D01*
X118596000Y-42261000D01*
X118596000Y-42261000D01*
G37*
G36*
X113196000Y-42261000D02*
X111594000Y-42261000D01*
X111594000Y-41559000D01*
X113196000Y-41559000D01*
X113196000Y-42261000D01*
X113196000Y-42261000D01*
G37*
G36*
X109259466Y-40528565D02*
X109298137Y-40540296D01*
X109333779Y-40559348D01*
X109365017Y-40584983D01*
X109390652Y-40616221D01*
X109409704Y-40651863D01*
X109421435Y-40690534D01*
X109426000Y-40736888D01*
X109426000Y-41813112D01*
X109421435Y-41859466D01*
X109409704Y-41898137D01*
X109390652Y-41933779D01*
X109365017Y-41965017D01*
X109333779Y-41990652D01*
X109298137Y-42009704D01*
X109259466Y-42021435D01*
X109213112Y-42026000D01*
X108561888Y-42026000D01*
X108515534Y-42021435D01*
X108476863Y-42009704D01*
X108441221Y-41990652D01*
X108409983Y-41965017D01*
X108384348Y-41933779D01*
X108365296Y-41898137D01*
X108353565Y-41859466D01*
X108349000Y-41813112D01*
X108349000Y-40736888D01*
X108353565Y-40690534D01*
X108365296Y-40651863D01*
X108384348Y-40616221D01*
X108409983Y-40584983D01*
X108441221Y-40559348D01*
X108476863Y-40540296D01*
X108515534Y-40528565D01*
X108561888Y-40524000D01*
X109213112Y-40524000D01*
X109259466Y-40528565D01*
X109259466Y-40528565D01*
G37*
G36*
X107384466Y-40528565D02*
X107423137Y-40540296D01*
X107458779Y-40559348D01*
X107490017Y-40584983D01*
X107515652Y-40616221D01*
X107534704Y-40651863D01*
X107546435Y-40690534D01*
X107551000Y-40736888D01*
X107551000Y-41813112D01*
X107546435Y-41859466D01*
X107534704Y-41898137D01*
X107515652Y-41933779D01*
X107490017Y-41965017D01*
X107458779Y-41990652D01*
X107423137Y-42009704D01*
X107384466Y-42021435D01*
X107338112Y-42026000D01*
X106686888Y-42026000D01*
X106640534Y-42021435D01*
X106601863Y-42009704D01*
X106566221Y-41990652D01*
X106534983Y-41965017D01*
X106509348Y-41933779D01*
X106490296Y-41898137D01*
X106478565Y-41859466D01*
X106474000Y-41813112D01*
X106474000Y-40736888D01*
X106478565Y-40690534D01*
X106490296Y-40651863D01*
X106509348Y-40616221D01*
X106534983Y-40584983D01*
X106566221Y-40559348D01*
X106601863Y-40540296D01*
X106640534Y-40528565D01*
X106686888Y-40524000D01*
X107338112Y-40524000D01*
X107384466Y-40528565D01*
X107384466Y-40528565D01*
G37*
G36*
X128204683Y-40827725D02*
X128235144Y-40836966D01*
X128263223Y-40851975D01*
X128287831Y-40872169D01*
X128308025Y-40896777D01*
X128323034Y-40924856D01*
X128332275Y-40955317D01*
X128336000Y-40993140D01*
X128336000Y-41556860D01*
X128332275Y-41594683D01*
X128323034Y-41625144D01*
X128308025Y-41653223D01*
X128287831Y-41677831D01*
X128263223Y-41698025D01*
X128235144Y-41713034D01*
X128204683Y-41722275D01*
X128166860Y-41726000D01*
X127103140Y-41726000D01*
X127065317Y-41722275D01*
X127034856Y-41713034D01*
X127006777Y-41698025D01*
X126982169Y-41677831D01*
X126961975Y-41653223D01*
X126946966Y-41625144D01*
X126937725Y-41594683D01*
X126934000Y-41556860D01*
X126934000Y-40993140D01*
X126937725Y-40955317D01*
X126946966Y-40924856D01*
X126961975Y-40896777D01*
X126982169Y-40872169D01*
X127006777Y-40851975D01*
X127034856Y-40836966D01*
X127065317Y-40827725D01*
X127103140Y-40824000D01*
X128166860Y-40824000D01*
X128204683Y-40827725D01*
X128204683Y-40827725D01*
G37*
G36*
X102573413Y-38905525D02*
X102648456Y-38928290D01*
X102658425Y-38931314D01*
X102736774Y-38973193D01*
X102805448Y-39029552D01*
X102861807Y-39098226D01*
X102903686Y-39176575D01*
X102903687Y-39176579D01*
X102929475Y-39261587D01*
X102938182Y-39350000D01*
X102929475Y-39438413D01*
X102906710Y-39513456D01*
X102903686Y-39523425D01*
X102861807Y-39601774D01*
X102805448Y-39670448D01*
X102736774Y-39726807D01*
X102658425Y-39768686D01*
X102648456Y-39771710D01*
X102573413Y-39794475D01*
X102507158Y-39801000D01*
X101962842Y-39801000D01*
X101896587Y-39794475D01*
X101821544Y-39771710D01*
X101811575Y-39768686D01*
X101733226Y-39726807D01*
X101664552Y-39670448D01*
X101608193Y-39601774D01*
X101566314Y-39523425D01*
X101563290Y-39513456D01*
X101540525Y-39438413D01*
X101531818Y-39350000D01*
X101540525Y-39261587D01*
X101566313Y-39176579D01*
X101566314Y-39176575D01*
X101608193Y-39098226D01*
X101664552Y-39029552D01*
X101733226Y-38973193D01*
X101811575Y-38931314D01*
X101821544Y-38928290D01*
X101896587Y-38905525D01*
X101962842Y-38899000D01*
X102507158Y-38899000D01*
X102573413Y-38905525D01*
X102573413Y-38905525D01*
G37*
G36*
X123508433Y-36099893D02*
X123598657Y-36117839D01*
X123656904Y-36141966D01*
X123853621Y-36223449D01*
X124083089Y-36376774D01*
X124278226Y-36571911D01*
X124431551Y-36801379D01*
X124537161Y-37056344D01*
X124591000Y-37327012D01*
X124591000Y-37602988D01*
X124578433Y-37666165D01*
X124537161Y-37873657D01*
X124493415Y-37979267D01*
X124431551Y-38128621D01*
X124278226Y-38358089D01*
X124083089Y-38553226D01*
X123853621Y-38706551D01*
X123704267Y-38768415D01*
X123598657Y-38812161D01*
X123508433Y-38830107D01*
X123327988Y-38866000D01*
X123052012Y-38866000D01*
X122871567Y-38830107D01*
X122781343Y-38812161D01*
X122675733Y-38768415D01*
X122526379Y-38706551D01*
X122296911Y-38553226D01*
X122101774Y-38358089D01*
X121948449Y-38128621D01*
X121886585Y-37979267D01*
X121842839Y-37873657D01*
X121801567Y-37666165D01*
X121789000Y-37602988D01*
X121789000Y-37327012D01*
X121842839Y-37056344D01*
X121948449Y-36801379D01*
X122101774Y-36571911D01*
X122296911Y-36376774D01*
X122526379Y-36223449D01*
X122723096Y-36141966D01*
X122781343Y-36117839D01*
X122871567Y-36099893D01*
X123052012Y-36064000D01*
X123327988Y-36064000D01*
X123508433Y-36099893D01*
X123508433Y-36099893D01*
G37*
G36*
X102804683Y-37652725D02*
X102835144Y-37661966D01*
X102863223Y-37676975D01*
X102887831Y-37697169D01*
X102908025Y-37721777D01*
X102923034Y-37749856D01*
X102932275Y-37780317D01*
X102936000Y-37818140D01*
X102936000Y-38381860D01*
X102932275Y-38419683D01*
X102923034Y-38450144D01*
X102908025Y-38478223D01*
X102887831Y-38502831D01*
X102863223Y-38523025D01*
X102835144Y-38538034D01*
X102804683Y-38547275D01*
X102766860Y-38551000D01*
X101703140Y-38551000D01*
X101665317Y-38547275D01*
X101634856Y-38538034D01*
X101606777Y-38523025D01*
X101582169Y-38502831D01*
X101561975Y-38478223D01*
X101546966Y-38450144D01*
X101537725Y-38419683D01*
X101534000Y-38381860D01*
X101534000Y-37818140D01*
X101537725Y-37780317D01*
X101546966Y-37749856D01*
X101561975Y-37721777D01*
X101582169Y-37697169D01*
X101606777Y-37676975D01*
X101634856Y-37661966D01*
X101665317Y-37652725D01*
X101703140Y-37649000D01*
X102766860Y-37649000D01*
X102804683Y-37652725D01*
X102804683Y-37652725D01*
G37*
G36*
X107403413Y-36135525D02*
X107474121Y-36156975D01*
X107488425Y-36161314D01*
X107566774Y-36203193D01*
X107635448Y-36259552D01*
X107691807Y-36328226D01*
X107733686Y-36406575D01*
X107733687Y-36406579D01*
X107759475Y-36491587D01*
X107766000Y-36557842D01*
X107766000Y-37102158D01*
X107759475Y-37168413D01*
X107736710Y-37243456D01*
X107733686Y-37253425D01*
X107691807Y-37331774D01*
X107635450Y-37400446D01*
X107635446Y-37400450D01*
X107566777Y-37456805D01*
X107566773Y-37456807D01*
X107488424Y-37498686D01*
X107478455Y-37501710D01*
X107403412Y-37524475D01*
X107315000Y-37533182D01*
X107226587Y-37524475D01*
X107151544Y-37501710D01*
X107141575Y-37498686D01*
X107063226Y-37456807D01*
X106994552Y-37400448D01*
X106993924Y-37399683D01*
X106938195Y-37331777D01*
X106924150Y-37305500D01*
X106896314Y-37253424D01*
X106893290Y-37243455D01*
X106870525Y-37168412D01*
X106864000Y-37102157D01*
X106864000Y-36557842D01*
X106870525Y-36491587D01*
X106896313Y-36406577D01*
X106938193Y-36328227D01*
X106994553Y-36259552D01*
X107063226Y-36203194D01*
X107063225Y-36203194D01*
X107063227Y-36203193D01*
X107141576Y-36161314D01*
X107155880Y-36156975D01*
X107226588Y-36135525D01*
X107315000Y-36126818D01*
X107403413Y-36135525D01*
X107403413Y-36135525D01*
G37*
G36*
X116868413Y-36135525D02*
X116939121Y-36156975D01*
X116953425Y-36161314D01*
X117031774Y-36203193D01*
X117100448Y-36259552D01*
X117156807Y-36328226D01*
X117198686Y-36406575D01*
X117198687Y-36406579D01*
X117224475Y-36491587D01*
X117231000Y-36557842D01*
X117231000Y-37102158D01*
X117224475Y-37168413D01*
X117201710Y-37243456D01*
X117198686Y-37253425D01*
X117156807Y-37331774D01*
X117100450Y-37400446D01*
X117100446Y-37400450D01*
X117031777Y-37456805D01*
X117031773Y-37456807D01*
X116953424Y-37498686D01*
X116943455Y-37501710D01*
X116868412Y-37524475D01*
X116780000Y-37533182D01*
X116691587Y-37524475D01*
X116616544Y-37501710D01*
X116606575Y-37498686D01*
X116528226Y-37456807D01*
X116459552Y-37400448D01*
X116458924Y-37399683D01*
X116403195Y-37331777D01*
X116389150Y-37305500D01*
X116361314Y-37253424D01*
X116358290Y-37243455D01*
X116335525Y-37168412D01*
X116329000Y-37102157D01*
X116329000Y-36557842D01*
X116335525Y-36491587D01*
X116361313Y-36406577D01*
X116403193Y-36328227D01*
X116459553Y-36259552D01*
X116528226Y-36203194D01*
X116528225Y-36203194D01*
X116528227Y-36203193D01*
X116606576Y-36161314D01*
X116620880Y-36156975D01*
X116691588Y-36135525D01*
X116780000Y-36126818D01*
X116868413Y-36135525D01*
X116868413Y-36135525D01*
G37*
G36*
X115618413Y-36135525D02*
X115689121Y-36156975D01*
X115703425Y-36161314D01*
X115781774Y-36203193D01*
X115850448Y-36259552D01*
X115906807Y-36328226D01*
X115948686Y-36406575D01*
X115948687Y-36406579D01*
X115974475Y-36491587D01*
X115981000Y-36557842D01*
X115981000Y-37102158D01*
X115974475Y-37168413D01*
X115951710Y-37243456D01*
X115948686Y-37253425D01*
X115906807Y-37331774D01*
X115850450Y-37400446D01*
X115850446Y-37400450D01*
X115781777Y-37456805D01*
X115781773Y-37456807D01*
X115703424Y-37498686D01*
X115693455Y-37501710D01*
X115618412Y-37524475D01*
X115530000Y-37533182D01*
X115441587Y-37524475D01*
X115366544Y-37501710D01*
X115356575Y-37498686D01*
X115278226Y-37456807D01*
X115209552Y-37400448D01*
X115208924Y-37399683D01*
X115153195Y-37331777D01*
X115139150Y-37305500D01*
X115111314Y-37253424D01*
X115108290Y-37243455D01*
X115085525Y-37168412D01*
X115079000Y-37102157D01*
X115079000Y-36557842D01*
X115085525Y-36491587D01*
X115111313Y-36406577D01*
X115153193Y-36328227D01*
X115209553Y-36259552D01*
X115278226Y-36203194D01*
X115278225Y-36203194D01*
X115278227Y-36203193D01*
X115356576Y-36161314D01*
X115370880Y-36156975D01*
X115441588Y-36135525D01*
X115530000Y-36126818D01*
X115618413Y-36135525D01*
X115618413Y-36135525D01*
G37*
G36*
X114368413Y-36135525D02*
X114439121Y-36156975D01*
X114453425Y-36161314D01*
X114531774Y-36203193D01*
X114600448Y-36259552D01*
X114656807Y-36328226D01*
X114698686Y-36406575D01*
X114698687Y-36406579D01*
X114724475Y-36491587D01*
X114731000Y-36557842D01*
X114731000Y-37102158D01*
X114724475Y-37168413D01*
X114701710Y-37243456D01*
X114698686Y-37253425D01*
X114656807Y-37331774D01*
X114600450Y-37400446D01*
X114600446Y-37400450D01*
X114531777Y-37456805D01*
X114531773Y-37456807D01*
X114453424Y-37498686D01*
X114443455Y-37501710D01*
X114368412Y-37524475D01*
X114280000Y-37533182D01*
X114191587Y-37524475D01*
X114116544Y-37501710D01*
X114106575Y-37498686D01*
X114028226Y-37456807D01*
X113959552Y-37400448D01*
X113958924Y-37399683D01*
X113903195Y-37331777D01*
X113889150Y-37305500D01*
X113861314Y-37253424D01*
X113858290Y-37243455D01*
X113835525Y-37168412D01*
X113829000Y-37102157D01*
X113829000Y-36557842D01*
X113835525Y-36491587D01*
X113861313Y-36406577D01*
X113903193Y-36328227D01*
X113959553Y-36259552D01*
X114028226Y-36203194D01*
X114028225Y-36203194D01*
X114028227Y-36203193D01*
X114106576Y-36161314D01*
X114120880Y-36156975D01*
X114191588Y-36135525D01*
X114280000Y-36126818D01*
X114368413Y-36135525D01*
X114368413Y-36135525D01*
G37*
G36*
X113118413Y-36135525D02*
X113189121Y-36156975D01*
X113203425Y-36161314D01*
X113281774Y-36203193D01*
X113350448Y-36259552D01*
X113406807Y-36328226D01*
X113448686Y-36406575D01*
X113448687Y-36406579D01*
X113474475Y-36491587D01*
X113481000Y-36557842D01*
X113481000Y-37102158D01*
X113474475Y-37168413D01*
X113451710Y-37243456D01*
X113448686Y-37253425D01*
X113406807Y-37331774D01*
X113350450Y-37400446D01*
X113350446Y-37400450D01*
X113281777Y-37456805D01*
X113281773Y-37456807D01*
X113203424Y-37498686D01*
X113193455Y-37501710D01*
X113118412Y-37524475D01*
X113030000Y-37533182D01*
X112941587Y-37524475D01*
X112866544Y-37501710D01*
X112856575Y-37498686D01*
X112778226Y-37456807D01*
X112709552Y-37400448D01*
X112708924Y-37399683D01*
X112653195Y-37331777D01*
X112639150Y-37305500D01*
X112611314Y-37253424D01*
X112608290Y-37243455D01*
X112585525Y-37168412D01*
X112579000Y-37102157D01*
X112579000Y-36557842D01*
X112585525Y-36491587D01*
X112611313Y-36406577D01*
X112653193Y-36328227D01*
X112709553Y-36259552D01*
X112778226Y-36203194D01*
X112778225Y-36203194D01*
X112778227Y-36203193D01*
X112856576Y-36161314D01*
X112870880Y-36156975D01*
X112941588Y-36135525D01*
X113030000Y-36126818D01*
X113118413Y-36135525D01*
X113118413Y-36135525D01*
G37*
G36*
X108884683Y-36132725D02*
X108915144Y-36141966D01*
X108943223Y-36156975D01*
X108967831Y-36177169D01*
X108988025Y-36201777D01*
X109003034Y-36229856D01*
X109012275Y-36260317D01*
X109016000Y-36298140D01*
X109016000Y-37361860D01*
X109012275Y-37399683D01*
X109003034Y-37430144D01*
X108988025Y-37458223D01*
X108967831Y-37482831D01*
X108943223Y-37503025D01*
X108915144Y-37518034D01*
X108884683Y-37527275D01*
X108846860Y-37531000D01*
X108283140Y-37531000D01*
X108245317Y-37527275D01*
X108214856Y-37518034D01*
X108186777Y-37503025D01*
X108162169Y-37482831D01*
X108141975Y-37458223D01*
X108126966Y-37430144D01*
X108117725Y-37399683D01*
X108114000Y-37361860D01*
X108114000Y-36298140D01*
X108117725Y-36260317D01*
X108126966Y-36229856D01*
X108141975Y-36201777D01*
X108162169Y-36177169D01*
X108186777Y-36156975D01*
X108214856Y-36141966D01*
X108245317Y-36132725D01*
X108283140Y-36129000D01*
X108846860Y-36129000D01*
X108884683Y-36132725D01*
X108884683Y-36132725D01*
G37*
G36*
X118349683Y-36132725D02*
X118380144Y-36141966D01*
X118408223Y-36156975D01*
X118432831Y-36177169D01*
X118453025Y-36201777D01*
X118468034Y-36229856D01*
X118477275Y-36260317D01*
X118481000Y-36298140D01*
X118481000Y-37361860D01*
X118477275Y-37399683D01*
X118468034Y-37430144D01*
X118453025Y-37458223D01*
X118432831Y-37482831D01*
X118408223Y-37503025D01*
X118380144Y-37518034D01*
X118349683Y-37527275D01*
X118311860Y-37531000D01*
X117748140Y-37531000D01*
X117710317Y-37527275D01*
X117679856Y-37518034D01*
X117651777Y-37503025D01*
X117627169Y-37482831D01*
X117606975Y-37458223D01*
X117591966Y-37430144D01*
X117582725Y-37399683D01*
X117579000Y-37361860D01*
X117579000Y-36298140D01*
X117582725Y-36260317D01*
X117591966Y-36229856D01*
X117606975Y-36201777D01*
X117627169Y-36177169D01*
X117651777Y-36156975D01*
X117679856Y-36141966D01*
X117710317Y-36132725D01*
X117748140Y-36129000D01*
X118311860Y-36129000D01*
X118349683Y-36132725D01*
X118349683Y-36132725D01*
G37*
M02*
