M48
;DRILL file {KiCad (5.0.2)-1} date 12/27/2018 10:24:42 PM
;FORMAT={-:-/ absolute / inch / decimal}
FMAT,2
INCH,TZ
T1C0.0157
T2C0.0197
T3C0.1063
%
G90
G05
T1
X4.16Y-1.625
X4.16Y-1.7
X4.16Y-1.775
X4.16Y-2.225
X4.16Y-2.3
X4.16Y-2.3699
X4.16Y-2.825
X4.16Y-2.9
X4.16Y-2.9699
X4.345Y-2.85
X4.355Y-1.65
X4.355Y-1.8
X4.355Y-1.85
X4.355Y-1.9
X4.355Y-1.95
X4.355Y-2.
X4.355Y-2.25
X4.355Y-2.4
X4.355Y-2.45
X4.355Y-2.5
X4.355Y-2.55
X4.355Y-2.6
X4.355Y-3.
X4.355Y-3.05
X4.355Y-3.1
X4.355Y-3.15
X4.355Y-3.2
X4.5082Y-2.5478
X4.5129Y-1.9403
X4.57Y-1.95
X4.57Y-2.55
X4.57Y-3.15
X4.7Y-2.25
X4.715Y-2.3
X4.715Y-2.35
X4.715Y-2.4
X4.715Y-2.5
X4.715Y-2.9
X4.715Y-2.95
X4.715Y-3.
X4.72Y-1.9
X4.725Y-1.8
X4.73Y-1.65
X4.73Y-1.7
X4.73Y-2.82
X4.86Y-2.78
X4.865Y-2.175
X4.875Y-2.62
X4.935Y-1.8
X4.94Y-1.65
X4.94Y-1.975
X4.94Y-2.36
X4.94Y-2.925
X4.945Y-3.15
X4.945Y-3.225
T2
X4.025Y-2.9
X4.025Y-2.9492
X4.025Y-2.9984
X4.025Y-3.0476
X4.025Y-3.0969
X5.025Y-2.0758
X5.025Y-2.125
X5.025Y-2.3031
X5.025Y-2.3524
X5.025Y-2.4016
X5.025Y-2.4508
X5.025Y-2.5
X4.025Y-1.95
X4.025Y-1.9992
X5.025Y-2.9031
X5.025Y-2.9524
X5.025Y-3.0016
X5.025Y-3.0508
X5.025Y-3.1
X4.45Y-1.45
X4.4992Y-1.45
X4.5484Y-1.45
X4.5976Y-1.45
X4.6469Y-1.45
X4.025Y-1.725
X4.025Y-1.7742
X4.025Y-2.3
X4.025Y-2.3492
X4.025Y-2.3984
X4.025Y-2.4476
X4.025Y-2.4969
X4.025Y-1.5
X4.025Y-1.5492
X4.225Y-1.45
X4.2742Y-1.45
X5.025Y-1.625
X5.025Y-1.6742
X5.025Y-1.8508
X5.025Y-1.9
T3
X5.02Y-2.7
X4.85Y-1.475
X4.08Y-2.7
T0
M30
