G04 #@! TF.GenerationSoftware,KiCad,Pcbnew,(5.0.2)-1*
G04 #@! TF.CreationDate,2018-12-27T22:24:40-05:00*
G04 #@! TF.ProjectId,WarthoggitClone_4Layer,57617274-686f-4676-9769-74436c6f6e65,rev?*
G04 #@! TF.SameCoordinates,Original*
G04 #@! TF.FileFunction,Legend,Bot*
G04 #@! TF.FilePolarity,Positive*
%FSLAX46Y46*%
G04 Gerber Fmt 4.6, Leading zero omitted, Abs format (unit mm)*
G04 Created by KiCad (PCBNEW (5.0.2)-1) date 12/27/2018 10:24:40 PM*
%MOMM*%
%LPD*%
G01*
G04 APERTURE LIST*
%ADD10C,0.300000*%
G04 APERTURE END LIST*
D10*
X118542142Y-66983571D02*
X118542142Y-67983571D01*
X118899285Y-66412142D02*
X119256428Y-67483571D01*
X118327857Y-67483571D01*
X117756428Y-67412142D02*
X116613571Y-67412142D01*
X115185000Y-67983571D02*
X115899285Y-67983571D01*
X115899285Y-66483571D01*
X114042142Y-67983571D02*
X114042142Y-67197857D01*
X114113571Y-67055000D01*
X114256428Y-66983571D01*
X114542142Y-66983571D01*
X114685000Y-67055000D01*
X114042142Y-67912142D02*
X114185000Y-67983571D01*
X114542142Y-67983571D01*
X114685000Y-67912142D01*
X114756428Y-67769285D01*
X114756428Y-67626428D01*
X114685000Y-67483571D01*
X114542142Y-67412142D01*
X114185000Y-67412142D01*
X114042142Y-67340714D01*
X113470714Y-66983571D02*
X113113571Y-67983571D01*
X112756428Y-66983571D02*
X113113571Y-67983571D01*
X113256428Y-68340714D01*
X113327857Y-68412142D01*
X113470714Y-68483571D01*
X111613571Y-67912142D02*
X111756428Y-67983571D01*
X112042142Y-67983571D01*
X112185000Y-67912142D01*
X112256428Y-67769285D01*
X112256428Y-67197857D01*
X112185000Y-67055000D01*
X112042142Y-66983571D01*
X111756428Y-66983571D01*
X111613571Y-67055000D01*
X111542142Y-67197857D01*
X111542142Y-67340714D01*
X112256428Y-67483571D01*
X110899285Y-67983571D02*
X110899285Y-66983571D01*
X110899285Y-67269285D02*
X110827857Y-67126428D01*
X110756428Y-67055000D01*
X110613571Y-66983571D01*
X110470714Y-66983571D01*
X122399285Y-70533571D02*
X122399285Y-69033571D01*
X122042142Y-69033571D01*
X121827857Y-69105000D01*
X121685000Y-69247857D01*
X121613571Y-69390714D01*
X121542142Y-69676428D01*
X121542142Y-69890714D01*
X121613571Y-70176428D01*
X121685000Y-70319285D01*
X121827857Y-70462142D01*
X122042142Y-70533571D01*
X122399285Y-70533571D01*
X120327857Y-70462142D02*
X120470714Y-70533571D01*
X120756428Y-70533571D01*
X120899285Y-70462142D01*
X120970714Y-70319285D01*
X120970714Y-69747857D01*
X120899285Y-69605000D01*
X120756428Y-69533571D01*
X120470714Y-69533571D01*
X120327857Y-69605000D01*
X120256428Y-69747857D01*
X120256428Y-69890714D01*
X120970714Y-70033571D01*
X118970714Y-70462142D02*
X119113571Y-70533571D01*
X119399285Y-70533571D01*
X119542142Y-70462142D01*
X119613571Y-70390714D01*
X119685000Y-70247857D01*
X119685000Y-69819285D01*
X119613571Y-69676428D01*
X119542142Y-69605000D01*
X119399285Y-69533571D01*
X119113571Y-69533571D01*
X118970714Y-69605000D01*
X117256428Y-69176428D02*
X117185000Y-69105000D01*
X117042142Y-69033571D01*
X116685000Y-69033571D01*
X116542142Y-69105000D01*
X116470714Y-69176428D01*
X116399285Y-69319285D01*
X116399285Y-69462142D01*
X116470714Y-69676428D01*
X117327857Y-70533571D01*
X116399285Y-70533571D01*
X115899285Y-69033571D02*
X114899285Y-69033571D01*
X115542142Y-70533571D01*
X114256428Y-70462142D02*
X114256428Y-70533571D01*
X114327857Y-70676428D01*
X114399285Y-70747857D01*
X112542142Y-69176428D02*
X112470714Y-69105000D01*
X112327857Y-69033571D01*
X111970714Y-69033571D01*
X111827857Y-69105000D01*
X111756428Y-69176428D01*
X111685000Y-69319285D01*
X111685000Y-69462142D01*
X111756428Y-69676428D01*
X112613571Y-70533571D01*
X111685000Y-70533571D01*
X110756428Y-69033571D02*
X110613571Y-69033571D01*
X110470714Y-69105000D01*
X110399285Y-69176428D01*
X110327857Y-69319285D01*
X110256428Y-69605000D01*
X110256428Y-69962142D01*
X110327857Y-70247857D01*
X110399285Y-70390714D01*
X110470714Y-70462142D01*
X110613571Y-70533571D01*
X110756428Y-70533571D01*
X110899285Y-70462142D01*
X110970714Y-70390714D01*
X111042142Y-70247857D01*
X111113571Y-69962142D01*
X111113571Y-69605000D01*
X111042142Y-69319285D01*
X110970714Y-69176428D01*
X110899285Y-69105000D01*
X110756428Y-69033571D01*
X108827857Y-70533571D02*
X109685000Y-70533571D01*
X109256428Y-70533571D02*
X109256428Y-69033571D01*
X109399285Y-69247857D01*
X109542142Y-69390714D01*
X109685000Y-69462142D01*
X107970714Y-69676428D02*
X108113571Y-69605000D01*
X108185000Y-69533571D01*
X108256428Y-69390714D01*
X108256428Y-69319285D01*
X108185000Y-69176428D01*
X108113571Y-69105000D01*
X107970714Y-69033571D01*
X107685000Y-69033571D01*
X107542142Y-69105000D01*
X107470714Y-69176428D01*
X107399285Y-69319285D01*
X107399285Y-69390714D01*
X107470714Y-69533571D01*
X107542142Y-69605000D01*
X107685000Y-69676428D01*
X107970714Y-69676428D01*
X108113571Y-69747857D01*
X108185000Y-69819285D01*
X108256428Y-69962142D01*
X108256428Y-70247857D01*
X108185000Y-70390714D01*
X108113571Y-70462142D01*
X107970714Y-70533571D01*
X107685000Y-70533571D01*
X107542142Y-70462142D01*
X107470714Y-70390714D01*
X107399285Y-70247857D01*
X107399285Y-69962142D01*
X107470714Y-69819285D01*
X107542142Y-69747857D01*
X107685000Y-69676428D01*
X124363571Y-51878571D02*
X124006428Y-53378571D01*
X123720714Y-52307142D01*
X123435000Y-53378571D01*
X123077857Y-51878571D01*
X121863571Y-53378571D02*
X121863571Y-52592857D01*
X121935000Y-52450000D01*
X122077857Y-52378571D01*
X122363571Y-52378571D01*
X122506428Y-52450000D01*
X121863571Y-53307142D02*
X122006428Y-53378571D01*
X122363571Y-53378571D01*
X122506428Y-53307142D01*
X122577857Y-53164285D01*
X122577857Y-53021428D01*
X122506428Y-52878571D01*
X122363571Y-52807142D01*
X122006428Y-52807142D01*
X121863571Y-52735714D01*
X121149285Y-53378571D02*
X121149285Y-52378571D01*
X121149285Y-52664285D02*
X121077857Y-52521428D01*
X121006428Y-52450000D01*
X120863571Y-52378571D01*
X120720714Y-52378571D01*
X120435000Y-52378571D02*
X119863571Y-52378571D01*
X120220714Y-51878571D02*
X120220714Y-53164285D01*
X120149285Y-53307142D01*
X120006428Y-53378571D01*
X119863571Y-53378571D01*
X119363571Y-53378571D02*
X119363571Y-51878571D01*
X118720714Y-53378571D02*
X118720714Y-52592857D01*
X118792142Y-52450000D01*
X118935000Y-52378571D01*
X119149285Y-52378571D01*
X119292142Y-52450000D01*
X119363571Y-52521428D01*
X117792142Y-53378571D02*
X117935000Y-53307142D01*
X118006428Y-53235714D01*
X118077857Y-53092857D01*
X118077857Y-52664285D01*
X118006428Y-52521428D01*
X117935000Y-52450000D01*
X117792142Y-52378571D01*
X117577857Y-52378571D01*
X117435000Y-52450000D01*
X117363571Y-52521428D01*
X117292142Y-52664285D01*
X117292142Y-53092857D01*
X117363571Y-53235714D01*
X117435000Y-53307142D01*
X117577857Y-53378571D01*
X117792142Y-53378571D01*
X116006428Y-52378571D02*
X116006428Y-53592857D01*
X116077857Y-53735714D01*
X116149285Y-53807142D01*
X116292142Y-53878571D01*
X116506428Y-53878571D01*
X116649285Y-53807142D01*
X116006428Y-53307142D02*
X116149285Y-53378571D01*
X116435000Y-53378571D01*
X116577857Y-53307142D01*
X116649285Y-53235714D01*
X116720714Y-53092857D01*
X116720714Y-52664285D01*
X116649285Y-52521428D01*
X116577857Y-52450000D01*
X116435000Y-52378571D01*
X116149285Y-52378571D01*
X116006428Y-52450000D01*
X114649285Y-52378571D02*
X114649285Y-53592857D01*
X114720714Y-53735714D01*
X114792142Y-53807142D01*
X114935000Y-53878571D01*
X115149285Y-53878571D01*
X115292142Y-53807142D01*
X114649285Y-53307142D02*
X114792142Y-53378571D01*
X115077857Y-53378571D01*
X115220714Y-53307142D01*
X115292142Y-53235714D01*
X115363571Y-53092857D01*
X115363571Y-52664285D01*
X115292142Y-52521428D01*
X115220714Y-52450000D01*
X115077857Y-52378571D01*
X114792142Y-52378571D01*
X114649285Y-52450000D01*
X113935000Y-53378571D02*
X113935000Y-52378571D01*
X113935000Y-51878571D02*
X114006428Y-51950000D01*
X113935000Y-52021428D01*
X113863571Y-51950000D01*
X113935000Y-51878571D01*
X113935000Y-52021428D01*
X113435000Y-52378571D02*
X112863571Y-52378571D01*
X113220714Y-51878571D02*
X113220714Y-53164285D01*
X113149285Y-53307142D01*
X113006428Y-53378571D01*
X112863571Y-53378571D01*
X110363571Y-53235714D02*
X110435000Y-53307142D01*
X110649285Y-53378571D01*
X110792142Y-53378571D01*
X111006428Y-53307142D01*
X111149285Y-53164285D01*
X111220714Y-53021428D01*
X111292142Y-52735714D01*
X111292142Y-52521428D01*
X111220714Y-52235714D01*
X111149285Y-52092857D01*
X111006428Y-51950000D01*
X110792142Y-51878571D01*
X110649285Y-51878571D01*
X110435000Y-51950000D01*
X110363571Y-52021428D01*
X109506428Y-53378571D02*
X109649285Y-53307142D01*
X109720714Y-53164285D01*
X109720714Y-51878571D01*
X108720714Y-53378571D02*
X108863571Y-53307142D01*
X108935000Y-53235714D01*
X109006428Y-53092857D01*
X109006428Y-52664285D01*
X108935000Y-52521428D01*
X108863571Y-52450000D01*
X108720714Y-52378571D01*
X108506428Y-52378571D01*
X108363571Y-52450000D01*
X108292142Y-52521428D01*
X108220714Y-52664285D01*
X108220714Y-53092857D01*
X108292142Y-53235714D01*
X108363571Y-53307142D01*
X108506428Y-53378571D01*
X108720714Y-53378571D01*
X107577857Y-52378571D02*
X107577857Y-53378571D01*
X107577857Y-52521428D02*
X107506428Y-52450000D01*
X107363571Y-52378571D01*
X107149285Y-52378571D01*
X107006428Y-52450000D01*
X106935000Y-52592857D01*
X106935000Y-53378571D01*
X105649285Y-53307142D02*
X105792142Y-53378571D01*
X106077857Y-53378571D01*
X106220714Y-53307142D01*
X106292142Y-53164285D01*
X106292142Y-52592857D01*
X106220714Y-52450000D01*
X106077857Y-52378571D01*
X105792142Y-52378571D01*
X105649285Y-52450000D01*
X105577857Y-52592857D01*
X105577857Y-52735714D01*
X106292142Y-52878571D01*
X120042142Y-54428571D02*
X119685000Y-55928571D01*
X119399285Y-54857142D01*
X119113571Y-55928571D01*
X118756428Y-54428571D01*
X117613571Y-55857142D02*
X117756428Y-55928571D01*
X118042142Y-55928571D01*
X118185000Y-55857142D01*
X118256428Y-55714285D01*
X118256428Y-55142857D01*
X118185000Y-55000000D01*
X118042142Y-54928571D01*
X117756428Y-54928571D01*
X117613571Y-55000000D01*
X117542142Y-55142857D01*
X117542142Y-55285714D01*
X118256428Y-55428571D01*
X117113571Y-54928571D02*
X116542142Y-54928571D01*
X116899285Y-54428571D02*
X116899285Y-55714285D01*
X116827857Y-55857142D01*
X116685000Y-55928571D01*
X116542142Y-55928571D01*
X116042142Y-55928571D02*
X116042142Y-54928571D01*
X116042142Y-55071428D02*
X115970714Y-55000000D01*
X115827857Y-54928571D01*
X115613571Y-54928571D01*
X115470714Y-55000000D01*
X115399285Y-55142857D01*
X115399285Y-55928571D01*
X115399285Y-55142857D02*
X115327857Y-55000000D01*
X115185000Y-54928571D01*
X114970714Y-54928571D01*
X114827857Y-55000000D01*
X114756428Y-55142857D01*
X114756428Y-55928571D01*
X113470714Y-55857142D02*
X113613571Y-55928571D01*
X113899285Y-55928571D01*
X114042142Y-55857142D01*
X114113571Y-55714285D01*
X114113571Y-55142857D01*
X114042142Y-55000000D01*
X113899285Y-54928571D01*
X113613571Y-54928571D01*
X113470714Y-55000000D01*
X113399285Y-55142857D01*
X113399285Y-55285714D01*
X114113571Y-55428571D01*
X112542142Y-55928571D02*
X112685000Y-55857142D01*
X112756428Y-55714285D01*
X112756428Y-54428571D01*
X111756428Y-55928571D02*
X111899285Y-55857142D01*
X111970714Y-55785714D01*
X112042142Y-55642857D01*
X112042142Y-55214285D01*
X111970714Y-55071428D01*
X111899285Y-55000000D01*
X111756428Y-54928571D01*
X111542142Y-54928571D01*
X111399285Y-55000000D01*
X111327857Y-55071428D01*
X111256428Y-55214285D01*
X111256428Y-55642857D01*
X111327857Y-55785714D01*
X111399285Y-55857142D01*
X111542142Y-55928571D01*
X111756428Y-55928571D01*
X110613571Y-54928571D02*
X110613571Y-55928571D01*
X110613571Y-55071428D02*
X110542142Y-55000000D01*
X110399285Y-54928571D01*
X110185000Y-54928571D01*
X110042142Y-55000000D01*
X109970714Y-55142857D01*
X109970714Y-55928571D01*
M02*
