G04 #@! TF.GenerationSoftware,KiCad,Pcbnew,(5.0.2)-1*
G04 #@! TF.CreationDate,2018-12-27T22:24:39-05:00*
G04 #@! TF.ProjectId,WarthoggitClone_4Layer,57617274-686f-4676-9769-74436c6f6e65,rev?*
G04 #@! TF.SameCoordinates,Original*
G04 #@! TF.FileFunction,Copper,L4,Bot*
G04 #@! TF.FilePolarity,Positive*
%FSLAX46Y46*%
G04 Gerber Fmt 4.6, Leading zero omitted, Abs format (unit mm)*
G04 Created by KiCad (PCBNEW (5.0.2)-1) date 12/27/2018 10:24:39 PM*
%MOMM*%
%LPD*%
G01*
G04 APERTURE LIST*
G04 #@! TA.AperFunction,Conductor*
%ADD10C,0.100000*%
G04 #@! TD*
G04 #@! TA.AperFunction,ComponentPad*
%ADD11C,0.800000*%
G04 #@! TD*
G04 #@! TA.AperFunction,ComponentPad*
%ADD12O,1.300000X0.800000*%
G04 #@! TD*
G04 #@! TA.AperFunction,ComponentPad*
%ADD13O,0.800000X1.300000*%
G04 #@! TD*
G04 #@! TA.AperFunction,ViaPad*
%ADD14C,0.800000*%
G04 #@! TD*
G04 #@! TA.AperFunction,Conductor*
%ADD15C,0.250000*%
G04 #@! TD*
G04 #@! TA.AperFunction,Conductor*
%ADD16C,0.254000*%
G04 #@! TD*
G04 APERTURE END LIST*
D10*
G04 #@! TO.N,GND*
G04 #@! TO.C,J11*
G36*
X102704603Y-58020963D02*
X102724018Y-58023843D01*
X102743057Y-58028612D01*
X102761537Y-58035224D01*
X102779279Y-58043616D01*
X102796114Y-58053706D01*
X102811879Y-58065398D01*
X102826421Y-58078579D01*
X102839602Y-58093121D01*
X102851294Y-58108886D01*
X102861384Y-58125721D01*
X102869776Y-58143463D01*
X102876388Y-58161943D01*
X102881157Y-58180982D01*
X102884037Y-58200397D01*
X102885000Y-58220000D01*
X102885000Y-58620000D01*
X102884037Y-58639603D01*
X102881157Y-58659018D01*
X102876388Y-58678057D01*
X102869776Y-58696537D01*
X102861384Y-58714279D01*
X102851294Y-58731114D01*
X102839602Y-58746879D01*
X102826421Y-58761421D01*
X102811879Y-58774602D01*
X102796114Y-58786294D01*
X102779279Y-58796384D01*
X102761537Y-58804776D01*
X102743057Y-58811388D01*
X102724018Y-58816157D01*
X102704603Y-58819037D01*
X102685000Y-58820000D01*
X101785000Y-58820000D01*
X101765397Y-58819037D01*
X101745982Y-58816157D01*
X101726943Y-58811388D01*
X101708463Y-58804776D01*
X101690721Y-58796384D01*
X101673886Y-58786294D01*
X101658121Y-58774602D01*
X101643579Y-58761421D01*
X101630398Y-58746879D01*
X101618706Y-58731114D01*
X101608616Y-58714279D01*
X101600224Y-58696537D01*
X101593612Y-58678057D01*
X101588843Y-58659018D01*
X101585963Y-58639603D01*
X101585000Y-58620000D01*
X101585000Y-58220000D01*
X101585963Y-58200397D01*
X101588843Y-58180982D01*
X101593612Y-58161943D01*
X101600224Y-58143463D01*
X101608616Y-58125721D01*
X101618706Y-58108886D01*
X101630398Y-58093121D01*
X101643579Y-58078579D01*
X101658121Y-58065398D01*
X101673886Y-58053706D01*
X101690721Y-58043616D01*
X101708463Y-58035224D01*
X101726943Y-58028612D01*
X101745982Y-58023843D01*
X101765397Y-58020963D01*
X101785000Y-58020000D01*
X102685000Y-58020000D01*
X102704603Y-58020963D01*
X102704603Y-58020963D01*
G37*
D11*
G04 #@! TD*
G04 #@! TO.P,J11,1*
G04 #@! TO.N,GND*
X102235000Y-58420000D03*
D12*
G04 #@! TO.P,J11,2*
G04 #@! TO.N,/IN_12*
X102235000Y-59670000D03*
G04 #@! TO.P,J11,3*
G04 #@! TO.N,/IN_11*
X102235000Y-60920000D03*
G04 #@! TO.P,J11,4*
G04 #@! TO.N,/IN_10*
X102235000Y-62170000D03*
G04 #@! TO.P,J11,5*
G04 #@! TO.N,/IN_9*
X102235000Y-63420000D03*
G04 #@! TD*
D10*
G04 #@! TO.N,GND*
G04 #@! TO.C,J12*
G36*
X128104603Y-58100963D02*
X128124018Y-58103843D01*
X128143057Y-58108612D01*
X128161537Y-58115224D01*
X128179279Y-58123616D01*
X128196114Y-58133706D01*
X128211879Y-58145398D01*
X128226421Y-58158579D01*
X128239602Y-58173121D01*
X128251294Y-58188886D01*
X128261384Y-58205721D01*
X128269776Y-58223463D01*
X128276388Y-58241943D01*
X128281157Y-58260982D01*
X128284037Y-58280397D01*
X128285000Y-58300000D01*
X128285000Y-58700000D01*
X128284037Y-58719603D01*
X128281157Y-58739018D01*
X128276388Y-58758057D01*
X128269776Y-58776537D01*
X128261384Y-58794279D01*
X128251294Y-58811114D01*
X128239602Y-58826879D01*
X128226421Y-58841421D01*
X128211879Y-58854602D01*
X128196114Y-58866294D01*
X128179279Y-58876384D01*
X128161537Y-58884776D01*
X128143057Y-58891388D01*
X128124018Y-58896157D01*
X128104603Y-58899037D01*
X128085000Y-58900000D01*
X127185000Y-58900000D01*
X127165397Y-58899037D01*
X127145982Y-58896157D01*
X127126943Y-58891388D01*
X127108463Y-58884776D01*
X127090721Y-58876384D01*
X127073886Y-58866294D01*
X127058121Y-58854602D01*
X127043579Y-58841421D01*
X127030398Y-58826879D01*
X127018706Y-58811114D01*
X127008616Y-58794279D01*
X127000224Y-58776537D01*
X126993612Y-58758057D01*
X126988843Y-58739018D01*
X126985963Y-58719603D01*
X126985000Y-58700000D01*
X126985000Y-58300000D01*
X126985963Y-58280397D01*
X126988843Y-58260982D01*
X126993612Y-58241943D01*
X127000224Y-58223463D01*
X127008616Y-58205721D01*
X127018706Y-58188886D01*
X127030398Y-58173121D01*
X127043579Y-58158579D01*
X127058121Y-58145398D01*
X127073886Y-58133706D01*
X127090721Y-58123616D01*
X127108463Y-58115224D01*
X127126943Y-58108612D01*
X127145982Y-58103843D01*
X127165397Y-58100963D01*
X127185000Y-58100000D01*
X128085000Y-58100000D01*
X128104603Y-58100963D01*
X128104603Y-58100963D01*
G37*
D11*
G04 #@! TD*
G04 #@! TO.P,J12,1*
G04 #@! TO.N,GND*
X127635000Y-58500000D03*
D12*
G04 #@! TO.P,J12,2*
G04 #@! TO.N,/IN_16*
X127635000Y-59750000D03*
G04 #@! TO.P,J12,3*
G04 #@! TO.N,/IN_15*
X127635000Y-61000000D03*
G04 #@! TO.P,J12,4*
G04 #@! TO.N,/IN_14*
X127635000Y-62250000D03*
G04 #@! TO.P,J12,5*
G04 #@! TO.N,/IN_13*
X127635000Y-63500000D03*
G04 #@! TD*
D10*
G04 #@! TO.N,+5V*
G04 #@! TO.C,J8*
G36*
X118249603Y-36180963D02*
X118269018Y-36183843D01*
X118288057Y-36188612D01*
X118306537Y-36195224D01*
X118324279Y-36203616D01*
X118341114Y-36213706D01*
X118356879Y-36225398D01*
X118371421Y-36238579D01*
X118384602Y-36253121D01*
X118396294Y-36268886D01*
X118406384Y-36285721D01*
X118414776Y-36303463D01*
X118421388Y-36321943D01*
X118426157Y-36340982D01*
X118429037Y-36360397D01*
X118430000Y-36380000D01*
X118430000Y-37280000D01*
X118429037Y-37299603D01*
X118426157Y-37319018D01*
X118421388Y-37338057D01*
X118414776Y-37356537D01*
X118406384Y-37374279D01*
X118396294Y-37391114D01*
X118384602Y-37406879D01*
X118371421Y-37421421D01*
X118356879Y-37434602D01*
X118341114Y-37446294D01*
X118324279Y-37456384D01*
X118306537Y-37464776D01*
X118288057Y-37471388D01*
X118269018Y-37476157D01*
X118249603Y-37479037D01*
X118230000Y-37480000D01*
X117830000Y-37480000D01*
X117810397Y-37479037D01*
X117790982Y-37476157D01*
X117771943Y-37471388D01*
X117753463Y-37464776D01*
X117735721Y-37456384D01*
X117718886Y-37446294D01*
X117703121Y-37434602D01*
X117688579Y-37421421D01*
X117675398Y-37406879D01*
X117663706Y-37391114D01*
X117653616Y-37374279D01*
X117645224Y-37356537D01*
X117638612Y-37338057D01*
X117633843Y-37319018D01*
X117630963Y-37299603D01*
X117630000Y-37280000D01*
X117630000Y-36380000D01*
X117630963Y-36360397D01*
X117633843Y-36340982D01*
X117638612Y-36321943D01*
X117645224Y-36303463D01*
X117653616Y-36285721D01*
X117663706Y-36268886D01*
X117675398Y-36253121D01*
X117688579Y-36238579D01*
X117703121Y-36225398D01*
X117718886Y-36213706D01*
X117735721Y-36203616D01*
X117753463Y-36195224D01*
X117771943Y-36188612D01*
X117790982Y-36183843D01*
X117810397Y-36180963D01*
X117830000Y-36180000D01*
X118230000Y-36180000D01*
X118249603Y-36180963D01*
X118249603Y-36180963D01*
G37*
D11*
G04 #@! TD*
G04 #@! TO.P,J8,1*
G04 #@! TO.N,+5V*
X118030000Y-36830000D03*
D13*
G04 #@! TO.P,J8,2*
G04 #@! TO.N,/SPI_CS*
X116780000Y-36830000D03*
G04 #@! TO.P,J8,3*
G04 #@! TO.N,/SPI_CLK*
X115530000Y-36830000D03*
G04 #@! TO.P,J8,4*
G04 #@! TO.N,/SPI_MISO*
X114280000Y-36830000D03*
G04 #@! TO.P,J8,5*
G04 #@! TO.N,GND*
X113030000Y-36830000D03*
G04 #@! TD*
D10*
G04 #@! TO.N,GND*
G04 #@! TO.C,J9*
G36*
X102704603Y-73260963D02*
X102724018Y-73263843D01*
X102743057Y-73268612D01*
X102761537Y-73275224D01*
X102779279Y-73283616D01*
X102796114Y-73293706D01*
X102811879Y-73305398D01*
X102826421Y-73318579D01*
X102839602Y-73333121D01*
X102851294Y-73348886D01*
X102861384Y-73365721D01*
X102869776Y-73383463D01*
X102876388Y-73401943D01*
X102881157Y-73420982D01*
X102884037Y-73440397D01*
X102885000Y-73460000D01*
X102885000Y-73860000D01*
X102884037Y-73879603D01*
X102881157Y-73899018D01*
X102876388Y-73918057D01*
X102869776Y-73936537D01*
X102861384Y-73954279D01*
X102851294Y-73971114D01*
X102839602Y-73986879D01*
X102826421Y-74001421D01*
X102811879Y-74014602D01*
X102796114Y-74026294D01*
X102779279Y-74036384D01*
X102761537Y-74044776D01*
X102743057Y-74051388D01*
X102724018Y-74056157D01*
X102704603Y-74059037D01*
X102685000Y-74060000D01*
X101785000Y-74060000D01*
X101765397Y-74059037D01*
X101745982Y-74056157D01*
X101726943Y-74051388D01*
X101708463Y-74044776D01*
X101690721Y-74036384D01*
X101673886Y-74026294D01*
X101658121Y-74014602D01*
X101643579Y-74001421D01*
X101630398Y-73986879D01*
X101618706Y-73971114D01*
X101608616Y-73954279D01*
X101600224Y-73936537D01*
X101593612Y-73918057D01*
X101588843Y-73899018D01*
X101585963Y-73879603D01*
X101585000Y-73860000D01*
X101585000Y-73460000D01*
X101585963Y-73440397D01*
X101588843Y-73420982D01*
X101593612Y-73401943D01*
X101600224Y-73383463D01*
X101608616Y-73365721D01*
X101618706Y-73348886D01*
X101630398Y-73333121D01*
X101643579Y-73318579D01*
X101658121Y-73305398D01*
X101673886Y-73293706D01*
X101690721Y-73283616D01*
X101708463Y-73275224D01*
X101726943Y-73268612D01*
X101745982Y-73263843D01*
X101765397Y-73260963D01*
X101785000Y-73260000D01*
X102685000Y-73260000D01*
X102704603Y-73260963D01*
X102704603Y-73260963D01*
G37*
D11*
G04 #@! TD*
G04 #@! TO.P,J9,1*
G04 #@! TO.N,GND*
X102235000Y-73660000D03*
D12*
G04 #@! TO.P,J9,2*
G04 #@! TO.N,/IN_4*
X102235000Y-74910000D03*
G04 #@! TO.P,J9,3*
G04 #@! TO.N,/IN_3*
X102235000Y-76160000D03*
G04 #@! TO.P,J9,4*
G04 #@! TO.N,/IN_2*
X102235000Y-77410000D03*
G04 #@! TO.P,J9,5*
G04 #@! TO.N,/IN_1*
X102235000Y-78660000D03*
G04 #@! TD*
D10*
G04 #@! TO.N,GND*
G04 #@! TO.C,J10*
G36*
X128104603Y-73340963D02*
X128124018Y-73343843D01*
X128143057Y-73348612D01*
X128161537Y-73355224D01*
X128179279Y-73363616D01*
X128196114Y-73373706D01*
X128211879Y-73385398D01*
X128226421Y-73398579D01*
X128239602Y-73413121D01*
X128251294Y-73428886D01*
X128261384Y-73445721D01*
X128269776Y-73463463D01*
X128276388Y-73481943D01*
X128281157Y-73500982D01*
X128284037Y-73520397D01*
X128285000Y-73540000D01*
X128285000Y-73940000D01*
X128284037Y-73959603D01*
X128281157Y-73979018D01*
X128276388Y-73998057D01*
X128269776Y-74016537D01*
X128261384Y-74034279D01*
X128251294Y-74051114D01*
X128239602Y-74066879D01*
X128226421Y-74081421D01*
X128211879Y-74094602D01*
X128196114Y-74106294D01*
X128179279Y-74116384D01*
X128161537Y-74124776D01*
X128143057Y-74131388D01*
X128124018Y-74136157D01*
X128104603Y-74139037D01*
X128085000Y-74140000D01*
X127185000Y-74140000D01*
X127165397Y-74139037D01*
X127145982Y-74136157D01*
X127126943Y-74131388D01*
X127108463Y-74124776D01*
X127090721Y-74116384D01*
X127073886Y-74106294D01*
X127058121Y-74094602D01*
X127043579Y-74081421D01*
X127030398Y-74066879D01*
X127018706Y-74051114D01*
X127008616Y-74034279D01*
X127000224Y-74016537D01*
X126993612Y-73998057D01*
X126988843Y-73979018D01*
X126985963Y-73959603D01*
X126985000Y-73940000D01*
X126985000Y-73540000D01*
X126985963Y-73520397D01*
X126988843Y-73500982D01*
X126993612Y-73481943D01*
X127000224Y-73463463D01*
X127008616Y-73445721D01*
X127018706Y-73428886D01*
X127030398Y-73413121D01*
X127043579Y-73398579D01*
X127058121Y-73385398D01*
X127073886Y-73373706D01*
X127090721Y-73363616D01*
X127108463Y-73355224D01*
X127126943Y-73348612D01*
X127145982Y-73343843D01*
X127165397Y-73340963D01*
X127185000Y-73340000D01*
X128085000Y-73340000D01*
X128104603Y-73340963D01*
X128104603Y-73340963D01*
G37*
D11*
G04 #@! TD*
G04 #@! TO.P,J10,1*
G04 #@! TO.N,GND*
X127635000Y-73740000D03*
D12*
G04 #@! TO.P,J10,2*
G04 #@! TO.N,/IN_8*
X127635000Y-74990000D03*
G04 #@! TO.P,J10,3*
G04 #@! TO.N,/IN_7*
X127635000Y-76240000D03*
G04 #@! TO.P,J10,4*
G04 #@! TO.N,/IN_6*
X127635000Y-77490000D03*
G04 #@! TO.P,J10,5*
G04 #@! TO.N,/IN_5*
X127635000Y-78740000D03*
G04 #@! TD*
D10*
G04 #@! TO.N,GND*
G04 #@! TO.C,J2*
G36*
X128104603Y-52325963D02*
X128124018Y-52328843D01*
X128143057Y-52333612D01*
X128161537Y-52340224D01*
X128179279Y-52348616D01*
X128196114Y-52358706D01*
X128211879Y-52370398D01*
X128226421Y-52383579D01*
X128239602Y-52398121D01*
X128251294Y-52413886D01*
X128261384Y-52430721D01*
X128269776Y-52448463D01*
X128276388Y-52466943D01*
X128281157Y-52485982D01*
X128284037Y-52505397D01*
X128285000Y-52525000D01*
X128285000Y-52925000D01*
X128284037Y-52944603D01*
X128281157Y-52964018D01*
X128276388Y-52983057D01*
X128269776Y-53001537D01*
X128261384Y-53019279D01*
X128251294Y-53036114D01*
X128239602Y-53051879D01*
X128226421Y-53066421D01*
X128211879Y-53079602D01*
X128196114Y-53091294D01*
X128179279Y-53101384D01*
X128161537Y-53109776D01*
X128143057Y-53116388D01*
X128124018Y-53121157D01*
X128104603Y-53124037D01*
X128085000Y-53125000D01*
X127185000Y-53125000D01*
X127165397Y-53124037D01*
X127145982Y-53121157D01*
X127126943Y-53116388D01*
X127108463Y-53109776D01*
X127090721Y-53101384D01*
X127073886Y-53091294D01*
X127058121Y-53079602D01*
X127043579Y-53066421D01*
X127030398Y-53051879D01*
X127018706Y-53036114D01*
X127008616Y-53019279D01*
X127000224Y-53001537D01*
X126993612Y-52983057D01*
X126988843Y-52964018D01*
X126985963Y-52944603D01*
X126985000Y-52925000D01*
X126985000Y-52525000D01*
X126985963Y-52505397D01*
X126988843Y-52485982D01*
X126993612Y-52466943D01*
X127000224Y-52448463D01*
X127008616Y-52430721D01*
X127018706Y-52413886D01*
X127030398Y-52398121D01*
X127043579Y-52383579D01*
X127058121Y-52370398D01*
X127073886Y-52358706D01*
X127090721Y-52348616D01*
X127108463Y-52340224D01*
X127126943Y-52333612D01*
X127145982Y-52328843D01*
X127165397Y-52325963D01*
X127185000Y-52325000D01*
X128085000Y-52325000D01*
X128104603Y-52325963D01*
X128104603Y-52325963D01*
G37*
D11*
G04 #@! TD*
G04 #@! TO.P,J2,1*
G04 #@! TO.N,GND*
X127635000Y-52725000D03*
D12*
G04 #@! TO.P,J2,2*
G04 #@! TO.N,/IN_21*
X127635000Y-53975000D03*
G04 #@! TD*
D10*
G04 #@! TO.N,GND*
G04 #@! TO.C,J1*
G36*
X102704603Y-49130963D02*
X102724018Y-49133843D01*
X102743057Y-49138612D01*
X102761537Y-49145224D01*
X102779279Y-49153616D01*
X102796114Y-49163706D01*
X102811879Y-49175398D01*
X102826421Y-49188579D01*
X102839602Y-49203121D01*
X102851294Y-49218886D01*
X102861384Y-49235721D01*
X102869776Y-49253463D01*
X102876388Y-49271943D01*
X102881157Y-49290982D01*
X102884037Y-49310397D01*
X102885000Y-49330000D01*
X102885000Y-49730000D01*
X102884037Y-49749603D01*
X102881157Y-49769018D01*
X102876388Y-49788057D01*
X102869776Y-49806537D01*
X102861384Y-49824279D01*
X102851294Y-49841114D01*
X102839602Y-49856879D01*
X102826421Y-49871421D01*
X102811879Y-49884602D01*
X102796114Y-49896294D01*
X102779279Y-49906384D01*
X102761537Y-49914776D01*
X102743057Y-49921388D01*
X102724018Y-49926157D01*
X102704603Y-49929037D01*
X102685000Y-49930000D01*
X101785000Y-49930000D01*
X101765397Y-49929037D01*
X101745982Y-49926157D01*
X101726943Y-49921388D01*
X101708463Y-49914776D01*
X101690721Y-49906384D01*
X101673886Y-49896294D01*
X101658121Y-49884602D01*
X101643579Y-49871421D01*
X101630398Y-49856879D01*
X101618706Y-49841114D01*
X101608616Y-49824279D01*
X101600224Y-49806537D01*
X101593612Y-49788057D01*
X101588843Y-49769018D01*
X101585963Y-49749603D01*
X101585000Y-49730000D01*
X101585000Y-49330000D01*
X101585963Y-49310397D01*
X101588843Y-49290982D01*
X101593612Y-49271943D01*
X101600224Y-49253463D01*
X101608616Y-49235721D01*
X101618706Y-49218886D01*
X101630398Y-49203121D01*
X101643579Y-49188579D01*
X101658121Y-49175398D01*
X101673886Y-49163706D01*
X101690721Y-49153616D01*
X101708463Y-49145224D01*
X101726943Y-49138612D01*
X101745982Y-49133843D01*
X101765397Y-49130963D01*
X101785000Y-49130000D01*
X102685000Y-49130000D01*
X102704603Y-49130963D01*
X102704603Y-49130963D01*
G37*
D11*
G04 #@! TD*
G04 #@! TO.P,J1,1*
G04 #@! TO.N,GND*
X102235000Y-49530000D03*
D12*
G04 #@! TO.P,J1,2*
G04 #@! TO.N,/IN_17*
X102235000Y-50780000D03*
G04 #@! TD*
D10*
G04 #@! TO.N,GND*
G04 #@! TO.C,J3*
G36*
X102704603Y-43415963D02*
X102724018Y-43418843D01*
X102743057Y-43423612D01*
X102761537Y-43430224D01*
X102779279Y-43438616D01*
X102796114Y-43448706D01*
X102811879Y-43460398D01*
X102826421Y-43473579D01*
X102839602Y-43488121D01*
X102851294Y-43503886D01*
X102861384Y-43520721D01*
X102869776Y-43538463D01*
X102876388Y-43556943D01*
X102881157Y-43575982D01*
X102884037Y-43595397D01*
X102885000Y-43615000D01*
X102885000Y-44015000D01*
X102884037Y-44034603D01*
X102881157Y-44054018D01*
X102876388Y-44073057D01*
X102869776Y-44091537D01*
X102861384Y-44109279D01*
X102851294Y-44126114D01*
X102839602Y-44141879D01*
X102826421Y-44156421D01*
X102811879Y-44169602D01*
X102796114Y-44181294D01*
X102779279Y-44191384D01*
X102761537Y-44199776D01*
X102743057Y-44206388D01*
X102724018Y-44211157D01*
X102704603Y-44214037D01*
X102685000Y-44215000D01*
X101785000Y-44215000D01*
X101765397Y-44214037D01*
X101745982Y-44211157D01*
X101726943Y-44206388D01*
X101708463Y-44199776D01*
X101690721Y-44191384D01*
X101673886Y-44181294D01*
X101658121Y-44169602D01*
X101643579Y-44156421D01*
X101630398Y-44141879D01*
X101618706Y-44126114D01*
X101608616Y-44109279D01*
X101600224Y-44091537D01*
X101593612Y-44073057D01*
X101588843Y-44054018D01*
X101585963Y-44034603D01*
X101585000Y-44015000D01*
X101585000Y-43615000D01*
X101585963Y-43595397D01*
X101588843Y-43575982D01*
X101593612Y-43556943D01*
X101600224Y-43538463D01*
X101608616Y-43520721D01*
X101618706Y-43503886D01*
X101630398Y-43488121D01*
X101643579Y-43473579D01*
X101658121Y-43460398D01*
X101673886Y-43448706D01*
X101690721Y-43438616D01*
X101708463Y-43430224D01*
X101726943Y-43423612D01*
X101745982Y-43418843D01*
X101765397Y-43415963D01*
X101785000Y-43415000D01*
X102685000Y-43415000D01*
X102704603Y-43415963D01*
X102704603Y-43415963D01*
G37*
D11*
G04 #@! TD*
G04 #@! TO.P,J3,1*
G04 #@! TO.N,GND*
X102235000Y-43815000D03*
D12*
G04 #@! TO.P,J3,2*
G04 #@! TO.N,/IN_18*
X102235000Y-45065000D03*
G04 #@! TD*
D10*
G04 #@! TO.N,GND*
G04 #@! TO.C,J5*
G36*
X128104603Y-46610963D02*
X128124018Y-46613843D01*
X128143057Y-46618612D01*
X128161537Y-46625224D01*
X128179279Y-46633616D01*
X128196114Y-46643706D01*
X128211879Y-46655398D01*
X128226421Y-46668579D01*
X128239602Y-46683121D01*
X128251294Y-46698886D01*
X128261384Y-46715721D01*
X128269776Y-46733463D01*
X128276388Y-46751943D01*
X128281157Y-46770982D01*
X128284037Y-46790397D01*
X128285000Y-46810000D01*
X128285000Y-47210000D01*
X128284037Y-47229603D01*
X128281157Y-47249018D01*
X128276388Y-47268057D01*
X128269776Y-47286537D01*
X128261384Y-47304279D01*
X128251294Y-47321114D01*
X128239602Y-47336879D01*
X128226421Y-47351421D01*
X128211879Y-47364602D01*
X128196114Y-47376294D01*
X128179279Y-47386384D01*
X128161537Y-47394776D01*
X128143057Y-47401388D01*
X128124018Y-47406157D01*
X128104603Y-47409037D01*
X128085000Y-47410000D01*
X127185000Y-47410000D01*
X127165397Y-47409037D01*
X127145982Y-47406157D01*
X127126943Y-47401388D01*
X127108463Y-47394776D01*
X127090721Y-47386384D01*
X127073886Y-47376294D01*
X127058121Y-47364602D01*
X127043579Y-47351421D01*
X127030398Y-47336879D01*
X127018706Y-47321114D01*
X127008616Y-47304279D01*
X127000224Y-47286537D01*
X126993612Y-47268057D01*
X126988843Y-47249018D01*
X126985963Y-47229603D01*
X126985000Y-47210000D01*
X126985000Y-46810000D01*
X126985963Y-46790397D01*
X126988843Y-46770982D01*
X126993612Y-46751943D01*
X127000224Y-46733463D01*
X127008616Y-46715721D01*
X127018706Y-46698886D01*
X127030398Y-46683121D01*
X127043579Y-46668579D01*
X127058121Y-46655398D01*
X127073886Y-46643706D01*
X127090721Y-46633616D01*
X127108463Y-46625224D01*
X127126943Y-46618612D01*
X127145982Y-46613843D01*
X127165397Y-46610963D01*
X127185000Y-46610000D01*
X128085000Y-46610000D01*
X128104603Y-46610963D01*
X128104603Y-46610963D01*
G37*
D11*
G04 #@! TD*
G04 #@! TO.P,J5,1*
G04 #@! TO.N,GND*
X127635000Y-47010000D03*
D12*
G04 #@! TO.P,J5,2*
G04 #@! TO.N,/IN_23*
X127635000Y-48260000D03*
G04 #@! TD*
D10*
G04 #@! TO.N,/IN_24*
G04 #@! TO.C,J6*
G36*
X128104603Y-40875963D02*
X128124018Y-40878843D01*
X128143057Y-40883612D01*
X128161537Y-40890224D01*
X128179279Y-40898616D01*
X128196114Y-40908706D01*
X128211879Y-40920398D01*
X128226421Y-40933579D01*
X128239602Y-40948121D01*
X128251294Y-40963886D01*
X128261384Y-40980721D01*
X128269776Y-40998463D01*
X128276388Y-41016943D01*
X128281157Y-41035982D01*
X128284037Y-41055397D01*
X128285000Y-41075000D01*
X128285000Y-41475000D01*
X128284037Y-41494603D01*
X128281157Y-41514018D01*
X128276388Y-41533057D01*
X128269776Y-41551537D01*
X128261384Y-41569279D01*
X128251294Y-41586114D01*
X128239602Y-41601879D01*
X128226421Y-41616421D01*
X128211879Y-41629602D01*
X128196114Y-41641294D01*
X128179279Y-41651384D01*
X128161537Y-41659776D01*
X128143057Y-41666388D01*
X128124018Y-41671157D01*
X128104603Y-41674037D01*
X128085000Y-41675000D01*
X127185000Y-41675000D01*
X127165397Y-41674037D01*
X127145982Y-41671157D01*
X127126943Y-41666388D01*
X127108463Y-41659776D01*
X127090721Y-41651384D01*
X127073886Y-41641294D01*
X127058121Y-41629602D01*
X127043579Y-41616421D01*
X127030398Y-41601879D01*
X127018706Y-41586114D01*
X127008616Y-41569279D01*
X127000224Y-41551537D01*
X126993612Y-41533057D01*
X126988843Y-41514018D01*
X126985963Y-41494603D01*
X126985000Y-41475000D01*
X126985000Y-41075000D01*
X126985963Y-41055397D01*
X126988843Y-41035982D01*
X126993612Y-41016943D01*
X127000224Y-40998463D01*
X127008616Y-40980721D01*
X127018706Y-40963886D01*
X127030398Y-40948121D01*
X127043579Y-40933579D01*
X127058121Y-40920398D01*
X127073886Y-40908706D01*
X127090721Y-40898616D01*
X127108463Y-40890224D01*
X127126943Y-40883612D01*
X127145982Y-40878843D01*
X127165397Y-40875963D01*
X127185000Y-40875000D01*
X128085000Y-40875000D01*
X128104603Y-40875963D01*
X128104603Y-40875963D01*
G37*
D11*
G04 #@! TD*
G04 #@! TO.P,J6,1*
G04 #@! TO.N,/IN_24*
X127635000Y-41275000D03*
D12*
G04 #@! TO.P,J6,2*
G04 #@! TO.N,GND*
X127635000Y-42525000D03*
G04 #@! TD*
D10*
G04 #@! TO.N,GND*
G04 #@! TO.C,J4*
G36*
X102704603Y-37700963D02*
X102724018Y-37703843D01*
X102743057Y-37708612D01*
X102761537Y-37715224D01*
X102779279Y-37723616D01*
X102796114Y-37733706D01*
X102811879Y-37745398D01*
X102826421Y-37758579D01*
X102839602Y-37773121D01*
X102851294Y-37788886D01*
X102861384Y-37805721D01*
X102869776Y-37823463D01*
X102876388Y-37841943D01*
X102881157Y-37860982D01*
X102884037Y-37880397D01*
X102885000Y-37900000D01*
X102885000Y-38300000D01*
X102884037Y-38319603D01*
X102881157Y-38339018D01*
X102876388Y-38358057D01*
X102869776Y-38376537D01*
X102861384Y-38394279D01*
X102851294Y-38411114D01*
X102839602Y-38426879D01*
X102826421Y-38441421D01*
X102811879Y-38454602D01*
X102796114Y-38466294D01*
X102779279Y-38476384D01*
X102761537Y-38484776D01*
X102743057Y-38491388D01*
X102724018Y-38496157D01*
X102704603Y-38499037D01*
X102685000Y-38500000D01*
X101785000Y-38500000D01*
X101765397Y-38499037D01*
X101745982Y-38496157D01*
X101726943Y-38491388D01*
X101708463Y-38484776D01*
X101690721Y-38476384D01*
X101673886Y-38466294D01*
X101658121Y-38454602D01*
X101643579Y-38441421D01*
X101630398Y-38426879D01*
X101618706Y-38411114D01*
X101608616Y-38394279D01*
X101600224Y-38376537D01*
X101593612Y-38358057D01*
X101588843Y-38339018D01*
X101585963Y-38319603D01*
X101585000Y-38300000D01*
X101585000Y-37900000D01*
X101585963Y-37880397D01*
X101588843Y-37860982D01*
X101593612Y-37841943D01*
X101600224Y-37823463D01*
X101608616Y-37805721D01*
X101618706Y-37788886D01*
X101630398Y-37773121D01*
X101643579Y-37758579D01*
X101658121Y-37745398D01*
X101673886Y-37733706D01*
X101690721Y-37723616D01*
X101708463Y-37715224D01*
X101726943Y-37708612D01*
X101745982Y-37703843D01*
X101765397Y-37700963D01*
X101785000Y-37700000D01*
X102685000Y-37700000D01*
X102704603Y-37700963D01*
X102704603Y-37700963D01*
G37*
D11*
G04 #@! TD*
G04 #@! TO.P,J4,1*
G04 #@! TO.N,GND*
X102235000Y-38100000D03*
D12*
G04 #@! TO.P,J4,2*
G04 #@! TO.N,/IN_19*
X102235000Y-39350000D03*
G04 #@! TD*
D10*
G04 #@! TO.N,GND*
G04 #@! TO.C,J7*
G36*
X108784603Y-36180963D02*
X108804018Y-36183843D01*
X108823057Y-36188612D01*
X108841537Y-36195224D01*
X108859279Y-36203616D01*
X108876114Y-36213706D01*
X108891879Y-36225398D01*
X108906421Y-36238579D01*
X108919602Y-36253121D01*
X108931294Y-36268886D01*
X108941384Y-36285721D01*
X108949776Y-36303463D01*
X108956388Y-36321943D01*
X108961157Y-36340982D01*
X108964037Y-36360397D01*
X108965000Y-36380000D01*
X108965000Y-37280000D01*
X108964037Y-37299603D01*
X108961157Y-37319018D01*
X108956388Y-37338057D01*
X108949776Y-37356537D01*
X108941384Y-37374279D01*
X108931294Y-37391114D01*
X108919602Y-37406879D01*
X108906421Y-37421421D01*
X108891879Y-37434602D01*
X108876114Y-37446294D01*
X108859279Y-37456384D01*
X108841537Y-37464776D01*
X108823057Y-37471388D01*
X108804018Y-37476157D01*
X108784603Y-37479037D01*
X108765000Y-37480000D01*
X108365000Y-37480000D01*
X108345397Y-37479037D01*
X108325982Y-37476157D01*
X108306943Y-37471388D01*
X108288463Y-37464776D01*
X108270721Y-37456384D01*
X108253886Y-37446294D01*
X108238121Y-37434602D01*
X108223579Y-37421421D01*
X108210398Y-37406879D01*
X108198706Y-37391114D01*
X108188616Y-37374279D01*
X108180224Y-37356537D01*
X108173612Y-37338057D01*
X108168843Y-37319018D01*
X108165963Y-37299603D01*
X108165000Y-37280000D01*
X108165000Y-36380000D01*
X108165963Y-36360397D01*
X108168843Y-36340982D01*
X108173612Y-36321943D01*
X108180224Y-36303463D01*
X108188616Y-36285721D01*
X108198706Y-36268886D01*
X108210398Y-36253121D01*
X108223579Y-36238579D01*
X108238121Y-36225398D01*
X108253886Y-36213706D01*
X108270721Y-36203616D01*
X108288463Y-36195224D01*
X108306943Y-36188612D01*
X108325982Y-36183843D01*
X108345397Y-36180963D01*
X108365000Y-36180000D01*
X108765000Y-36180000D01*
X108784603Y-36180963D01*
X108784603Y-36180963D01*
G37*
D11*
G04 #@! TD*
G04 #@! TO.P,J7,1*
G04 #@! TO.N,GND*
X108565000Y-36830000D03*
D13*
G04 #@! TO.P,J7,2*
G04 #@! TO.N,/IN_20*
X107315000Y-36830000D03*
G04 #@! TD*
D14*
G04 #@! TO.N,+5V*
X105664000Y-41275000D03*
X105664000Y-45085000D03*
X105664000Y-56515000D03*
X105664000Y-71755000D03*
X105664000Y-75434990D03*
X125603000Y-81915000D03*
X119380000Y-57150000D03*
X105664000Y-60194990D03*
X120142000Y-71628000D03*
X125476000Y-74295000D03*
X125476000Y-59944000D03*
X120142000Y-41910000D03*
X125349000Y-45720000D03*
G04 #@! TO.N,GND*
X105664000Y-43180000D03*
X105664000Y-58420000D03*
X105664000Y-73660000D03*
X110617000Y-81280000D03*
X125603000Y-80010000D03*
X123825000Y-66548000D03*
X110617000Y-66040000D03*
X110617000Y-50800000D03*
X123444000Y-70612000D03*
X123571000Y-55245000D03*
X125476000Y-50165000D03*
X125476000Y-41910000D03*
G04 #@! TO.N,/IN_17*
X110617000Y-49530000D03*
G04 #@! TO.N,/IN_18*
X110617000Y-48260000D03*
G04 #@! TO.N,/IN_19*
X110617000Y-46990000D03*
G04 #@! TO.N,/IN_20*
X110617000Y-45720000D03*
G04 #@! TO.N,/IN_21*
X120015000Y-45720000D03*
G04 #@! TO.N,/IN_23*
X120142000Y-43180000D03*
G04 #@! TO.N,/IN_24*
X110617000Y-41910000D03*
G04 #@! TO.N,/SPI_CLK*
X116078000Y-49530000D03*
X116078000Y-64770000D03*
X116078000Y-80010000D03*
G04 #@! TO.N,/IN_1*
X110617000Y-80010000D03*
G04 #@! TO.N,/IN_2*
X110617000Y-78740000D03*
G04 #@! TO.N,/IN_3*
X110617000Y-77470000D03*
G04 #@! TO.N,/IN_4*
X110617000Y-76200000D03*
G04 #@! TO.N,/IN_8*
X110363000Y-72390000D03*
G04 #@! TO.N,/IN_7*
X119761000Y-73660000D03*
G04 #@! TO.N,/IN_6*
X119761000Y-74930000D03*
G04 #@! TO.N,/IN_5*
X119761000Y-76200000D03*
G04 #@! TO.N,/IN_9*
X110617000Y-64770000D03*
G04 #@! TO.N,/IN_10*
X110617000Y-63500000D03*
G04 #@! TO.N,/IN_11*
X110617000Y-62230000D03*
G04 #@! TO.N,/IN_12*
X110617000Y-60960000D03*
G04 #@! TO.N,/IN_16*
X110617000Y-57150000D03*
G04 #@! TO.N,/IN_15*
X119761000Y-58420000D03*
G04 #@! TO.N,/IN_14*
X119761000Y-59690000D03*
G04 #@! TO.N,/IN_13*
X119761000Y-60960000D03*
G04 #@! TO.N,/SER_2*
X119761000Y-63500000D03*
X114508415Y-64713508D03*
G04 #@! TO.N,/SER_3*
X119888000Y-48260000D03*
X114627989Y-49282437D03*
G04 #@! TD*
D15*
G04 #@! TO.N,/IN_17*
X102235000Y-50780000D02*
X109367000Y-50780000D01*
X109367000Y-50780000D02*
X110617000Y-49530000D01*
G04 #@! TO.N,/IN_18*
X105680000Y-48260000D02*
X110617000Y-48260000D01*
X102235000Y-45065000D02*
X102485000Y-45065000D01*
X102485000Y-45065000D02*
X105680000Y-48260000D01*
G04 #@! TO.N,/IN_19*
X102235000Y-40000000D02*
X103886000Y-41651000D01*
X102235000Y-39350000D02*
X102235000Y-40000000D01*
X103886000Y-41651000D02*
X103886000Y-45212000D01*
X103886000Y-45212000D02*
X105664000Y-46990000D01*
X105664000Y-46990000D02*
X110617000Y-46990000D01*
G04 #@! TO.N,/IN_20*
X107315000Y-36830000D02*
X107315000Y-42418000D01*
X107315000Y-42418000D02*
X110617000Y-45720000D01*
G04 #@! TO.N,/IN_21*
X120015000Y-46605000D02*
X120015000Y-45720000D01*
X127635000Y-53975000D02*
X127385000Y-53975000D01*
X127385000Y-53975000D02*
X120015000Y-46605000D01*
G04 #@! TO.N,/IN_23*
X127635000Y-48260000D02*
X125222000Y-48260000D01*
X125222000Y-48260000D02*
X120142000Y-43180000D01*
G04 #@! TO.N,/IN_24*
X111722710Y-40804290D02*
X111016999Y-41510001D01*
X111016999Y-41510001D02*
X110617000Y-41910000D01*
X127635000Y-41275000D02*
X127164290Y-40804290D01*
X127164290Y-40804290D02*
X111722710Y-40804290D01*
G04 #@! TO.N,/IN_1*
X102235000Y-78660000D02*
X109267000Y-78660000D01*
X109267000Y-78660000D02*
X110617000Y-80010000D01*
G04 #@! TO.N,/IN_2*
X102235000Y-77410000D02*
X109287000Y-77410000D01*
X109287000Y-77410000D02*
X110617000Y-78740000D01*
G04 #@! TO.N,/IN_3*
X109307000Y-76160000D02*
X110617000Y-77470000D01*
X102235000Y-76160000D02*
X109307000Y-76160000D01*
G04 #@! TO.N,/IN_4*
X103335011Y-74709989D02*
X109126989Y-74709989D01*
X109126989Y-74709989D02*
X110217001Y-75800001D01*
X103135000Y-74910000D02*
X103335011Y-74709989D01*
X102235000Y-74910000D02*
X103135000Y-74910000D01*
X110217001Y-75800001D02*
X110617000Y-76200000D01*
G04 #@! TO.N,/IN_8*
X127635000Y-74990000D02*
X127385000Y-74990000D01*
X110928685Y-72390000D02*
X110363000Y-72390000D01*
X124785000Y-72390000D02*
X110928685Y-72390000D01*
X127385000Y-74990000D02*
X124785000Y-72390000D01*
G04 #@! TO.N,/IN_7*
X127635000Y-76240000D02*
X122341000Y-76240000D01*
X122341000Y-76240000D02*
X119761000Y-73660000D01*
G04 #@! TO.N,/IN_6*
X127635000Y-77490000D02*
X122321000Y-77490000D01*
X122321000Y-77490000D02*
X119761000Y-74930000D01*
G04 #@! TO.N,/IN_5*
X127635000Y-78740000D02*
X122301000Y-78740000D01*
X122301000Y-78740000D02*
X119761000Y-76200000D01*
G04 #@! TO.N,/IN_9*
X102235000Y-63420000D02*
X109267000Y-63420000D01*
X109267000Y-63420000D02*
X110617000Y-64770000D01*
G04 #@! TO.N,/IN_10*
X102235000Y-62170000D02*
X109287000Y-62170000D01*
X109287000Y-62170000D02*
X110617000Y-63500000D01*
G04 #@! TO.N,/IN_11*
X102235000Y-60920000D02*
X109307000Y-60920000D01*
X109307000Y-60920000D02*
X110617000Y-62230000D01*
G04 #@! TO.N,/IN_12*
X103135000Y-59670000D02*
X103335011Y-59469989D01*
X109126989Y-59469989D02*
X110217001Y-60560001D01*
X110217001Y-60560001D02*
X110617000Y-60960000D01*
X103335011Y-59469989D02*
X109126989Y-59469989D01*
X102235000Y-59670000D02*
X103135000Y-59670000D01*
G04 #@! TO.N,/IN_16*
X126735000Y-59750000D02*
X122865000Y-55880000D01*
X127635000Y-59750000D02*
X126735000Y-59750000D01*
X122865000Y-55880000D02*
X111887000Y-55880000D01*
X111887000Y-55880000D02*
X110617000Y-57150000D01*
G04 #@! TO.N,/IN_15*
X127635000Y-61000000D02*
X122341000Y-61000000D01*
X122341000Y-61000000D02*
X119761000Y-58420000D01*
G04 #@! TO.N,/IN_14*
X127635000Y-62250000D02*
X122321000Y-62250000D01*
X122321000Y-62250000D02*
X119761000Y-59690000D01*
G04 #@! TO.N,/IN_13*
X127635000Y-63500000D02*
X122301000Y-63500000D01*
X122301000Y-63500000D02*
X119761000Y-60960000D01*
G04 #@! TO.N,/SER_2*
X114908414Y-64313509D02*
X114508415Y-64713508D01*
X115721923Y-63500000D02*
X114908414Y-64313509D01*
X119761000Y-63500000D02*
X115721923Y-63500000D01*
G04 #@! TO.N,/SER_3*
X119888000Y-48260000D02*
X115650426Y-48260000D01*
X115027988Y-48882438D02*
X114627989Y-49282437D01*
X115650426Y-48260000D02*
X115027988Y-48882438D01*
G04 #@! TD*
D16*
G04 #@! TO.N,GND*
G36*
X130354001Y-83364000D02*
X100786000Y-83364000D01*
X100786000Y-81759649D01*
X124822000Y-81759649D01*
X124822000Y-82070351D01*
X124940900Y-82357401D01*
X125160599Y-82577100D01*
X125447649Y-82696000D01*
X125758351Y-82696000D01*
X126045401Y-82577100D01*
X126265100Y-82357401D01*
X126384000Y-82070351D01*
X126384000Y-81759649D01*
X126265100Y-81472599D01*
X126045401Y-81252900D01*
X125758351Y-81134000D01*
X125447649Y-81134000D01*
X125160599Y-81252900D01*
X124940900Y-81472599D01*
X124822000Y-81759649D01*
X100786000Y-81759649D01*
X100786000Y-73945750D01*
X100950000Y-73945750D01*
X100950000Y-74186309D01*
X101046673Y-74419698D01*
X101225301Y-74598327D01*
X101248763Y-74608045D01*
X101188700Y-74910000D01*
X101249315Y-75214731D01*
X101421931Y-75473069D01*
X101514617Y-75535000D01*
X101421931Y-75596931D01*
X101249315Y-75855269D01*
X101188700Y-76160000D01*
X101249315Y-76464731D01*
X101421931Y-76723069D01*
X101514617Y-76785000D01*
X101421931Y-76846931D01*
X101249315Y-77105269D01*
X101188700Y-77410000D01*
X101249315Y-77714731D01*
X101421931Y-77973069D01*
X101514617Y-78035000D01*
X101421931Y-78096931D01*
X101249315Y-78355269D01*
X101188700Y-78660000D01*
X101249315Y-78964731D01*
X101421931Y-79223069D01*
X101680269Y-79395685D01*
X101908082Y-79441000D01*
X102561918Y-79441000D01*
X102789731Y-79395685D01*
X103048069Y-79223069D01*
X103086201Y-79166000D01*
X109057409Y-79166000D01*
X109836000Y-79944592D01*
X109836000Y-80165351D01*
X109954900Y-80452401D01*
X110174599Y-80672100D01*
X110461649Y-80791000D01*
X110772351Y-80791000D01*
X111059401Y-80672100D01*
X111279100Y-80452401D01*
X111398000Y-80165351D01*
X111398000Y-79854649D01*
X115297000Y-79854649D01*
X115297000Y-80165351D01*
X115415900Y-80452401D01*
X115635599Y-80672100D01*
X115922649Y-80791000D01*
X116233351Y-80791000D01*
X116520401Y-80672100D01*
X116740100Y-80452401D01*
X116859000Y-80165351D01*
X116859000Y-79854649D01*
X116740100Y-79567599D01*
X116520401Y-79347900D01*
X116233351Y-79229000D01*
X115922649Y-79229000D01*
X115635599Y-79347900D01*
X115415900Y-79567599D01*
X115297000Y-79854649D01*
X111398000Y-79854649D01*
X111279100Y-79567599D01*
X111086501Y-79375000D01*
X111279100Y-79182401D01*
X111398000Y-78895351D01*
X111398000Y-78584649D01*
X111279100Y-78297599D01*
X111086501Y-78105000D01*
X111279100Y-77912401D01*
X111398000Y-77625351D01*
X111398000Y-77314649D01*
X111279100Y-77027599D01*
X111086501Y-76835000D01*
X111279100Y-76642401D01*
X111398000Y-76355351D01*
X111398000Y-76044649D01*
X111279100Y-75757599D01*
X111059401Y-75537900D01*
X110772351Y-75419000D01*
X110551592Y-75419000D01*
X109520027Y-74387436D01*
X109491795Y-74345183D01*
X109324420Y-74233348D01*
X109176824Y-74203989D01*
X109176823Y-74203989D01*
X109126989Y-74194076D01*
X109077155Y-74203989D01*
X103512677Y-74203989D01*
X103520000Y-74186309D01*
X103520000Y-73945750D01*
X103361250Y-73787000D01*
X102362000Y-73787000D01*
X102362000Y-73807000D01*
X102108000Y-73807000D01*
X102108000Y-73787000D01*
X101108750Y-73787000D01*
X100950000Y-73945750D01*
X100786000Y-73945750D01*
X100786000Y-73133691D01*
X100950000Y-73133691D01*
X100950000Y-73374250D01*
X101108750Y-73533000D01*
X102108000Y-73533000D01*
X102108000Y-72783750D01*
X102362000Y-72783750D01*
X102362000Y-73533000D01*
X103361250Y-73533000D01*
X103520000Y-73374250D01*
X103520000Y-73133691D01*
X103423327Y-72900302D01*
X103244699Y-72721673D01*
X103011310Y-72625000D01*
X102520750Y-72625000D01*
X102362000Y-72783750D01*
X102108000Y-72783750D01*
X101949250Y-72625000D01*
X101458690Y-72625000D01*
X101225301Y-72721673D01*
X101046673Y-72900302D01*
X100950000Y-73133691D01*
X100786000Y-73133691D01*
X100786000Y-71599649D01*
X104883000Y-71599649D01*
X104883000Y-71910351D01*
X105001900Y-72197401D01*
X105221599Y-72417100D01*
X105508649Y-72536000D01*
X105819351Y-72536000D01*
X106106401Y-72417100D01*
X106288852Y-72234649D01*
X109582000Y-72234649D01*
X109582000Y-72545351D01*
X109700900Y-72832401D01*
X109920599Y-73052100D01*
X110207649Y-73171000D01*
X110518351Y-73171000D01*
X110805401Y-73052100D01*
X110961501Y-72896000D01*
X119564607Y-72896000D01*
X119318599Y-72997900D01*
X119098900Y-73217599D01*
X118980000Y-73504649D01*
X118980000Y-73815351D01*
X119098900Y-74102401D01*
X119291499Y-74295000D01*
X119098900Y-74487599D01*
X118980000Y-74774649D01*
X118980000Y-75085351D01*
X119098900Y-75372401D01*
X119291499Y-75565000D01*
X119098900Y-75757599D01*
X118980000Y-76044649D01*
X118980000Y-76355351D01*
X119098900Y-76642401D01*
X119318599Y-76862100D01*
X119605649Y-76981000D01*
X119826409Y-76981000D01*
X121907963Y-79062555D01*
X121936194Y-79104806D01*
X122103569Y-79216641D01*
X122251165Y-79246000D01*
X122300999Y-79255913D01*
X122350833Y-79246000D01*
X126783799Y-79246000D01*
X126821931Y-79303069D01*
X127080269Y-79475685D01*
X127308082Y-79521000D01*
X127961918Y-79521000D01*
X128189731Y-79475685D01*
X128448069Y-79303069D01*
X128620685Y-79044731D01*
X128681300Y-78740000D01*
X128620685Y-78435269D01*
X128448069Y-78176931D01*
X128355383Y-78115000D01*
X128448069Y-78053069D01*
X128620685Y-77794731D01*
X128681300Y-77490000D01*
X128620685Y-77185269D01*
X128448069Y-76926931D01*
X128355383Y-76865000D01*
X128448069Y-76803069D01*
X128620685Y-76544731D01*
X128681300Y-76240000D01*
X128620685Y-75935269D01*
X128448069Y-75676931D01*
X128355383Y-75615000D01*
X128448069Y-75553069D01*
X128620685Y-75294731D01*
X128681300Y-74990000D01*
X128621237Y-74688045D01*
X128644699Y-74678327D01*
X128823327Y-74499698D01*
X128920000Y-74266309D01*
X128920000Y-74025750D01*
X128761250Y-73867000D01*
X127762000Y-73867000D01*
X127762000Y-73887000D01*
X127508000Y-73887000D01*
X127508000Y-73867000D01*
X127488000Y-73867000D01*
X127488000Y-73613000D01*
X127508000Y-73613000D01*
X127508000Y-72863750D01*
X127762000Y-72863750D01*
X127762000Y-73613000D01*
X128761250Y-73613000D01*
X128920000Y-73454250D01*
X128920000Y-73213691D01*
X128823327Y-72980302D01*
X128644699Y-72801673D01*
X128411310Y-72705000D01*
X127920750Y-72705000D01*
X127762000Y-72863750D01*
X127508000Y-72863750D01*
X127349250Y-72705000D01*
X126858690Y-72705000D01*
X126625301Y-72801673D01*
X126446673Y-72980302D01*
X126350000Y-73213691D01*
X126350000Y-73239409D01*
X125178039Y-72067448D01*
X125149806Y-72025194D01*
X124982431Y-71913359D01*
X124834835Y-71884000D01*
X124834834Y-71884000D01*
X124785000Y-71874087D01*
X124735166Y-71884000D01*
X120881310Y-71884000D01*
X120923000Y-71783351D01*
X120923000Y-71472649D01*
X120804100Y-71185599D01*
X120584401Y-70965900D01*
X120297351Y-70847000D01*
X119986649Y-70847000D01*
X119699599Y-70965900D01*
X119479900Y-71185599D01*
X119361000Y-71472649D01*
X119361000Y-71783351D01*
X119402690Y-71884000D01*
X110961501Y-71884000D01*
X110805401Y-71727900D01*
X110518351Y-71609000D01*
X110207649Y-71609000D01*
X109920599Y-71727900D01*
X109700900Y-71947599D01*
X109582000Y-72234649D01*
X106288852Y-72234649D01*
X106326100Y-72197401D01*
X106445000Y-71910351D01*
X106445000Y-71599649D01*
X106326100Y-71312599D01*
X106106401Y-71092900D01*
X105819351Y-70974000D01*
X105508649Y-70974000D01*
X105221599Y-71092900D01*
X105001900Y-71312599D01*
X104883000Y-71599649D01*
X100786000Y-71599649D01*
X100786000Y-68235683D01*
X101901000Y-68235683D01*
X101901000Y-68924317D01*
X102164529Y-69560533D01*
X102651467Y-70047471D01*
X103287683Y-70311000D01*
X103976317Y-70311000D01*
X104612533Y-70047471D01*
X105099471Y-69560533D01*
X105363000Y-68924317D01*
X105363000Y-68235683D01*
X125777000Y-68235683D01*
X125777000Y-68924317D01*
X126040529Y-69560533D01*
X126527467Y-70047471D01*
X127163683Y-70311000D01*
X127852317Y-70311000D01*
X128488533Y-70047471D01*
X128975471Y-69560533D01*
X129239000Y-68924317D01*
X129239000Y-68235683D01*
X128975471Y-67599467D01*
X128488533Y-67112529D01*
X127852317Y-66849000D01*
X127163683Y-66849000D01*
X126527467Y-67112529D01*
X126040529Y-67599467D01*
X125777000Y-68235683D01*
X105363000Y-68235683D01*
X105099471Y-67599467D01*
X104612533Y-67112529D01*
X103976317Y-66849000D01*
X103287683Y-66849000D01*
X102651467Y-67112529D01*
X102164529Y-67599467D01*
X101901000Y-68235683D01*
X100786000Y-68235683D01*
X100786000Y-58705750D01*
X100950000Y-58705750D01*
X100950000Y-58946309D01*
X101046673Y-59179698D01*
X101225301Y-59358327D01*
X101248763Y-59368045D01*
X101188700Y-59670000D01*
X101249315Y-59974731D01*
X101421931Y-60233069D01*
X101514617Y-60295000D01*
X101421931Y-60356931D01*
X101249315Y-60615269D01*
X101188700Y-60920000D01*
X101249315Y-61224731D01*
X101421931Y-61483069D01*
X101514617Y-61545000D01*
X101421931Y-61606931D01*
X101249315Y-61865269D01*
X101188700Y-62170000D01*
X101249315Y-62474731D01*
X101421931Y-62733069D01*
X101514617Y-62795000D01*
X101421931Y-62856931D01*
X101249315Y-63115269D01*
X101188700Y-63420000D01*
X101249315Y-63724731D01*
X101421931Y-63983069D01*
X101680269Y-64155685D01*
X101908082Y-64201000D01*
X102561918Y-64201000D01*
X102789731Y-64155685D01*
X103048069Y-63983069D01*
X103086201Y-63926000D01*
X109057409Y-63926000D01*
X109836000Y-64704592D01*
X109836000Y-64925351D01*
X109954900Y-65212401D01*
X110174599Y-65432100D01*
X110461649Y-65551000D01*
X110772351Y-65551000D01*
X111059401Y-65432100D01*
X111279100Y-65212401D01*
X111398000Y-64925351D01*
X111398000Y-64614649D01*
X111374601Y-64558157D01*
X113727415Y-64558157D01*
X113727415Y-64868859D01*
X113846315Y-65155909D01*
X114066014Y-65375608D01*
X114353064Y-65494508D01*
X114663766Y-65494508D01*
X114950816Y-65375608D01*
X115170515Y-65155909D01*
X115289415Y-64868859D01*
X115289415Y-64648100D01*
X115297000Y-64640515D01*
X115297000Y-64925351D01*
X115415900Y-65212401D01*
X115635599Y-65432100D01*
X115922649Y-65551000D01*
X116233351Y-65551000D01*
X116520401Y-65432100D01*
X116740100Y-65212401D01*
X116859000Y-64925351D01*
X116859000Y-64614649D01*
X116740100Y-64327599D01*
X116520401Y-64107900D01*
X116274393Y-64006000D01*
X119162499Y-64006000D01*
X119318599Y-64162100D01*
X119605649Y-64281000D01*
X119916351Y-64281000D01*
X120203401Y-64162100D01*
X120423100Y-63942401D01*
X120542000Y-63655351D01*
X120542000Y-63344649D01*
X120423100Y-63057599D01*
X120203401Y-62837900D01*
X119916351Y-62719000D01*
X119605649Y-62719000D01*
X119318599Y-62837900D01*
X119162499Y-62994000D01*
X115771756Y-62994000D01*
X115721922Y-62984087D01*
X115672088Y-62994000D01*
X115524492Y-63023359D01*
X115357117Y-63135194D01*
X115328886Y-63177445D01*
X114585859Y-63920473D01*
X114585856Y-63920475D01*
X114573823Y-63932508D01*
X114353064Y-63932508D01*
X114066014Y-64051408D01*
X113846315Y-64271107D01*
X113727415Y-64558157D01*
X111374601Y-64558157D01*
X111279100Y-64327599D01*
X111086501Y-64135000D01*
X111279100Y-63942401D01*
X111398000Y-63655351D01*
X111398000Y-63344649D01*
X111279100Y-63057599D01*
X111086501Y-62865000D01*
X111279100Y-62672401D01*
X111398000Y-62385351D01*
X111398000Y-62074649D01*
X111279100Y-61787599D01*
X111086501Y-61595000D01*
X111279100Y-61402401D01*
X111398000Y-61115351D01*
X111398000Y-60804649D01*
X111279100Y-60517599D01*
X111059401Y-60297900D01*
X110772351Y-60179000D01*
X110551592Y-60179000D01*
X109520027Y-59147436D01*
X109491795Y-59105183D01*
X109324420Y-58993348D01*
X109176824Y-58963989D01*
X109176823Y-58963989D01*
X109126989Y-58954076D01*
X109077155Y-58963989D01*
X103512677Y-58963989D01*
X103520000Y-58946309D01*
X103520000Y-58705750D01*
X103361250Y-58547000D01*
X102362000Y-58547000D01*
X102362000Y-58567000D01*
X102108000Y-58567000D01*
X102108000Y-58547000D01*
X101108750Y-58547000D01*
X100950000Y-58705750D01*
X100786000Y-58705750D01*
X100786000Y-57893691D01*
X100950000Y-57893691D01*
X100950000Y-58134250D01*
X101108750Y-58293000D01*
X102108000Y-58293000D01*
X102108000Y-57543750D01*
X102362000Y-57543750D01*
X102362000Y-58293000D01*
X103361250Y-58293000D01*
X103520000Y-58134250D01*
X103520000Y-57893691D01*
X103423327Y-57660302D01*
X103244699Y-57481673D01*
X103011310Y-57385000D01*
X102520750Y-57385000D01*
X102362000Y-57543750D01*
X102108000Y-57543750D01*
X101949250Y-57385000D01*
X101458690Y-57385000D01*
X101225301Y-57481673D01*
X101046673Y-57660302D01*
X100950000Y-57893691D01*
X100786000Y-57893691D01*
X100786000Y-56359649D01*
X104883000Y-56359649D01*
X104883000Y-56670351D01*
X105001900Y-56957401D01*
X105221599Y-57177100D01*
X105508649Y-57296000D01*
X105819351Y-57296000D01*
X106106401Y-57177100D01*
X106288852Y-56994649D01*
X109836000Y-56994649D01*
X109836000Y-57305351D01*
X109954900Y-57592401D01*
X110174599Y-57812100D01*
X110461649Y-57931000D01*
X110772351Y-57931000D01*
X111059401Y-57812100D01*
X111279100Y-57592401D01*
X111398000Y-57305351D01*
X111398000Y-57084591D01*
X112096592Y-56386000D01*
X119183607Y-56386000D01*
X118937599Y-56487900D01*
X118717900Y-56707599D01*
X118599000Y-56994649D01*
X118599000Y-57305351D01*
X118717900Y-57592401D01*
X118937599Y-57812100D01*
X119168681Y-57907818D01*
X119098900Y-57977599D01*
X118980000Y-58264649D01*
X118980000Y-58575351D01*
X119098900Y-58862401D01*
X119291499Y-59055000D01*
X119098900Y-59247599D01*
X118980000Y-59534649D01*
X118980000Y-59845351D01*
X119098900Y-60132401D01*
X119291499Y-60325000D01*
X119098900Y-60517599D01*
X118980000Y-60804649D01*
X118980000Y-61115351D01*
X119098900Y-61402401D01*
X119318599Y-61622100D01*
X119605649Y-61741000D01*
X119826409Y-61741000D01*
X121907963Y-63822555D01*
X121936194Y-63864806D01*
X122103569Y-63976641D01*
X122251165Y-64006000D01*
X122300999Y-64015913D01*
X122350833Y-64006000D01*
X126783799Y-64006000D01*
X126821931Y-64063069D01*
X127080269Y-64235685D01*
X127308082Y-64281000D01*
X127961918Y-64281000D01*
X128189731Y-64235685D01*
X128448069Y-64063069D01*
X128620685Y-63804731D01*
X128681300Y-63500000D01*
X128620685Y-63195269D01*
X128448069Y-62936931D01*
X128355383Y-62875000D01*
X128448069Y-62813069D01*
X128620685Y-62554731D01*
X128681300Y-62250000D01*
X128620685Y-61945269D01*
X128448069Y-61686931D01*
X128355383Y-61625000D01*
X128448069Y-61563069D01*
X128620685Y-61304731D01*
X128681300Y-61000000D01*
X128620685Y-60695269D01*
X128448069Y-60436931D01*
X128355383Y-60375000D01*
X128448069Y-60313069D01*
X128620685Y-60054731D01*
X128681300Y-59750000D01*
X128621237Y-59448045D01*
X128644699Y-59438327D01*
X128823327Y-59259698D01*
X128920000Y-59026309D01*
X128920000Y-58785750D01*
X128761250Y-58627000D01*
X127762000Y-58627000D01*
X127762000Y-58647000D01*
X127508000Y-58647000D01*
X127508000Y-58627000D01*
X126508750Y-58627000D01*
X126418171Y-58717579D01*
X125674283Y-57973691D01*
X126350000Y-57973691D01*
X126350000Y-58214250D01*
X126508750Y-58373000D01*
X127508000Y-58373000D01*
X127508000Y-57623750D01*
X127762000Y-57623750D01*
X127762000Y-58373000D01*
X128761250Y-58373000D01*
X128920000Y-58214250D01*
X128920000Y-57973691D01*
X128823327Y-57740302D01*
X128644699Y-57561673D01*
X128411310Y-57465000D01*
X127920750Y-57465000D01*
X127762000Y-57623750D01*
X127508000Y-57623750D01*
X127349250Y-57465000D01*
X126858690Y-57465000D01*
X126625301Y-57561673D01*
X126446673Y-57740302D01*
X126350000Y-57973691D01*
X125674283Y-57973691D01*
X123258039Y-55557448D01*
X123229806Y-55515194D01*
X123062431Y-55403359D01*
X122914835Y-55374000D01*
X122914834Y-55374000D01*
X122865000Y-55364087D01*
X122815166Y-55374000D01*
X111936833Y-55374000D01*
X111886999Y-55364087D01*
X111837165Y-55374000D01*
X111689569Y-55403359D01*
X111522194Y-55515194D01*
X111493963Y-55557445D01*
X110682409Y-56369000D01*
X110461649Y-56369000D01*
X110174599Y-56487900D01*
X109954900Y-56707599D01*
X109836000Y-56994649D01*
X106288852Y-56994649D01*
X106326100Y-56957401D01*
X106445000Y-56670351D01*
X106445000Y-56359649D01*
X106326100Y-56072599D01*
X106106401Y-55852900D01*
X105819351Y-55734000D01*
X105508649Y-55734000D01*
X105221599Y-55852900D01*
X105001900Y-56072599D01*
X104883000Y-56359649D01*
X100786000Y-56359649D01*
X100786000Y-49003691D01*
X100950000Y-49003691D01*
X100950000Y-49244250D01*
X101108750Y-49403000D01*
X102108000Y-49403000D01*
X102108000Y-48653750D01*
X102362000Y-48653750D01*
X102362000Y-49403000D01*
X103361250Y-49403000D01*
X103520000Y-49244250D01*
X103520000Y-49003691D01*
X103423327Y-48770302D01*
X103244699Y-48591673D01*
X103011310Y-48495000D01*
X102520750Y-48495000D01*
X102362000Y-48653750D01*
X102108000Y-48653750D01*
X101949250Y-48495000D01*
X101458690Y-48495000D01*
X101225301Y-48591673D01*
X101046673Y-48770302D01*
X100950000Y-49003691D01*
X100786000Y-49003691D01*
X100786000Y-43288691D01*
X100950000Y-43288691D01*
X100950000Y-43529250D01*
X101108750Y-43688000D01*
X102108000Y-43688000D01*
X102108000Y-42938750D01*
X101949250Y-42780000D01*
X101458690Y-42780000D01*
X101225301Y-42876673D01*
X101046673Y-43055302D01*
X100950000Y-43288691D01*
X100786000Y-43288691D01*
X100786000Y-38385750D01*
X100950000Y-38385750D01*
X100950000Y-38626309D01*
X101046673Y-38859698D01*
X101225301Y-39038327D01*
X101248763Y-39048045D01*
X101188700Y-39350000D01*
X101249315Y-39654731D01*
X101421931Y-39913069D01*
X101680269Y-40085685D01*
X101738433Y-40097255D01*
X101745146Y-40131000D01*
X101758360Y-40197431D01*
X101870195Y-40364806D01*
X101912445Y-40393037D01*
X103380000Y-41860592D01*
X103380000Y-43011975D01*
X103244699Y-42876673D01*
X103011310Y-42780000D01*
X102520750Y-42780000D01*
X102362000Y-42938750D01*
X102362000Y-43688000D01*
X102382000Y-43688000D01*
X102382000Y-43942000D01*
X102362000Y-43942000D01*
X102362000Y-43962000D01*
X102108000Y-43962000D01*
X102108000Y-43942000D01*
X101108750Y-43942000D01*
X100950000Y-44100750D01*
X100950000Y-44341309D01*
X101046673Y-44574698D01*
X101225301Y-44753327D01*
X101248763Y-44763045D01*
X101188700Y-45065000D01*
X101249315Y-45369731D01*
X101421931Y-45628069D01*
X101680269Y-45800685D01*
X101908082Y-45846000D01*
X102550409Y-45846000D01*
X105286963Y-48582555D01*
X105315194Y-48624806D01*
X105482569Y-48736641D01*
X105630165Y-48766000D01*
X105679999Y-48775913D01*
X105729833Y-48766000D01*
X110018499Y-48766000D01*
X110147499Y-48895000D01*
X109954900Y-49087599D01*
X109836000Y-49374649D01*
X109836000Y-49595408D01*
X109157409Y-50274000D01*
X103429829Y-50274000D01*
X103520000Y-50056309D01*
X103520000Y-49815750D01*
X103361250Y-49657000D01*
X102362000Y-49657000D01*
X102362000Y-49677000D01*
X102108000Y-49677000D01*
X102108000Y-49657000D01*
X101108750Y-49657000D01*
X100950000Y-49815750D01*
X100950000Y-50056309D01*
X101046673Y-50289698D01*
X101225301Y-50468327D01*
X101248763Y-50478045D01*
X101188700Y-50780000D01*
X101249315Y-51084731D01*
X101421931Y-51343069D01*
X101680269Y-51515685D01*
X101908082Y-51561000D01*
X102561918Y-51561000D01*
X102789731Y-51515685D01*
X103048069Y-51343069D01*
X103086201Y-51286000D01*
X109317166Y-51286000D01*
X109367000Y-51295913D01*
X109416834Y-51286000D01*
X109416835Y-51286000D01*
X109564431Y-51256641D01*
X109731806Y-51144806D01*
X109760038Y-51102553D01*
X110551592Y-50311000D01*
X110772351Y-50311000D01*
X111059401Y-50192100D01*
X111279100Y-49972401D01*
X111398000Y-49685351D01*
X111398000Y-49374649D01*
X111295457Y-49127086D01*
X113846989Y-49127086D01*
X113846989Y-49437788D01*
X113965889Y-49724838D01*
X114185588Y-49944537D01*
X114472638Y-50063437D01*
X114783340Y-50063437D01*
X115070390Y-49944537D01*
X115290089Y-49724838D01*
X115301723Y-49696752D01*
X115415900Y-49972401D01*
X115635599Y-50192100D01*
X115922649Y-50311000D01*
X116233351Y-50311000D01*
X116520401Y-50192100D01*
X116740100Y-49972401D01*
X116859000Y-49685351D01*
X116859000Y-49374649D01*
X116740100Y-49087599D01*
X116520401Y-48867900D01*
X116274393Y-48766000D01*
X119289499Y-48766000D01*
X119445599Y-48922100D01*
X119732649Y-49041000D01*
X120043351Y-49041000D01*
X120330401Y-48922100D01*
X120550100Y-48702401D01*
X120669000Y-48415351D01*
X120669000Y-48104649D01*
X120577035Y-47882626D01*
X126602090Y-53907682D01*
X126588700Y-53975000D01*
X126649315Y-54279731D01*
X126821931Y-54538069D01*
X127080269Y-54710685D01*
X127308082Y-54756000D01*
X127961918Y-54756000D01*
X128189731Y-54710685D01*
X128448069Y-54538069D01*
X128620685Y-54279731D01*
X128681300Y-53975000D01*
X128621237Y-53673045D01*
X128644699Y-53663327D01*
X128823327Y-53484698D01*
X128920000Y-53251309D01*
X128920000Y-53010750D01*
X128761250Y-52852000D01*
X127762000Y-52852000D01*
X127762000Y-52872000D01*
X127508000Y-52872000D01*
X127508000Y-52852000D01*
X127488000Y-52852000D01*
X127488000Y-52598000D01*
X127508000Y-52598000D01*
X127508000Y-51848750D01*
X127762000Y-51848750D01*
X127762000Y-52598000D01*
X128761250Y-52598000D01*
X128920000Y-52439250D01*
X128920000Y-52198691D01*
X128823327Y-51965302D01*
X128644699Y-51786673D01*
X128411310Y-51690000D01*
X127920750Y-51690000D01*
X127762000Y-51848750D01*
X127508000Y-51848750D01*
X127349250Y-51690000D01*
X126858690Y-51690000D01*
X126625301Y-51786673D01*
X126446673Y-51965302D01*
X126350000Y-52198691D01*
X126350000Y-52224408D01*
X120521000Y-46395409D01*
X120521000Y-46318501D01*
X120677100Y-46162401D01*
X120796000Y-45875351D01*
X120796000Y-45564649D01*
X120677100Y-45277599D01*
X120457401Y-45057900D01*
X120170351Y-44939000D01*
X119859649Y-44939000D01*
X119572599Y-45057900D01*
X119352900Y-45277599D01*
X119234000Y-45564649D01*
X119234000Y-45875351D01*
X119352900Y-46162401D01*
X119509000Y-46318501D01*
X119509000Y-46555165D01*
X119499087Y-46605000D01*
X119509000Y-46654834D01*
X119538359Y-46802430D01*
X119650194Y-46969806D01*
X119692448Y-46998039D01*
X120265374Y-47570965D01*
X120043351Y-47479000D01*
X119732649Y-47479000D01*
X119445599Y-47597900D01*
X119289499Y-47754000D01*
X115700259Y-47754000D01*
X115650425Y-47744087D01*
X115600591Y-47754000D01*
X115452995Y-47783359D01*
X115285620Y-47895194D01*
X115257389Y-47937445D01*
X114705433Y-48489402D01*
X114705430Y-48489404D01*
X114693397Y-48501437D01*
X114472638Y-48501437D01*
X114185588Y-48620337D01*
X113965889Y-48840036D01*
X113846989Y-49127086D01*
X111295457Y-49127086D01*
X111279100Y-49087599D01*
X111086501Y-48895000D01*
X111279100Y-48702401D01*
X111398000Y-48415351D01*
X111398000Y-48104649D01*
X111279100Y-47817599D01*
X111086501Y-47625000D01*
X111279100Y-47432401D01*
X111398000Y-47145351D01*
X111398000Y-46834649D01*
X111279100Y-46547599D01*
X111086501Y-46355000D01*
X111279100Y-46162401D01*
X111398000Y-45875351D01*
X111398000Y-45564649D01*
X111279100Y-45277599D01*
X111059401Y-45057900D01*
X110772351Y-44939000D01*
X110551592Y-44939000D01*
X107821000Y-42208409D01*
X107821000Y-41754649D01*
X109836000Y-41754649D01*
X109836000Y-42065351D01*
X109954900Y-42352401D01*
X110174599Y-42572100D01*
X110461649Y-42691000D01*
X110772351Y-42691000D01*
X111059401Y-42572100D01*
X111279100Y-42352401D01*
X111398000Y-42065351D01*
X111398000Y-41844592D01*
X111410033Y-41832559D01*
X111410035Y-41832556D01*
X111932302Y-41310290D01*
X119637209Y-41310290D01*
X119479900Y-41467599D01*
X119361000Y-41754649D01*
X119361000Y-42065351D01*
X119479900Y-42352401D01*
X119672499Y-42545000D01*
X119479900Y-42737599D01*
X119361000Y-43024649D01*
X119361000Y-43335351D01*
X119479900Y-43622401D01*
X119699599Y-43842100D01*
X119986649Y-43961000D01*
X120207409Y-43961000D01*
X124828963Y-48582555D01*
X124857194Y-48624806D01*
X125024569Y-48736641D01*
X125172165Y-48766000D01*
X125172166Y-48766000D01*
X125222000Y-48775913D01*
X125271834Y-48766000D01*
X126783799Y-48766000D01*
X126821931Y-48823069D01*
X127080269Y-48995685D01*
X127308082Y-49041000D01*
X127961918Y-49041000D01*
X128189731Y-48995685D01*
X128448069Y-48823069D01*
X128620685Y-48564731D01*
X128681300Y-48260000D01*
X128621237Y-47958045D01*
X128644699Y-47948327D01*
X128823327Y-47769698D01*
X128920000Y-47536309D01*
X128920000Y-47295750D01*
X128761250Y-47137000D01*
X127762000Y-47137000D01*
X127762000Y-47157000D01*
X127508000Y-47157000D01*
X127508000Y-47137000D01*
X126508750Y-47137000D01*
X126350000Y-47295750D01*
X126350000Y-47536309D01*
X126440171Y-47754000D01*
X125431592Y-47754000D01*
X123242241Y-45564649D01*
X124568000Y-45564649D01*
X124568000Y-45875351D01*
X124686900Y-46162401D01*
X124906599Y-46382100D01*
X125193649Y-46501000D01*
X125504351Y-46501000D01*
X125546138Y-46483691D01*
X126350000Y-46483691D01*
X126350000Y-46724250D01*
X126508750Y-46883000D01*
X127508000Y-46883000D01*
X127508000Y-46133750D01*
X127762000Y-46133750D01*
X127762000Y-46883000D01*
X128761250Y-46883000D01*
X128920000Y-46724250D01*
X128920000Y-46483691D01*
X128823327Y-46250302D01*
X128644699Y-46071673D01*
X128411310Y-45975000D01*
X127920750Y-45975000D01*
X127762000Y-46133750D01*
X127508000Y-46133750D01*
X127349250Y-45975000D01*
X126858690Y-45975000D01*
X126625301Y-46071673D01*
X126446673Y-46250302D01*
X126350000Y-46483691D01*
X125546138Y-46483691D01*
X125791401Y-46382100D01*
X126011100Y-46162401D01*
X126130000Y-45875351D01*
X126130000Y-45564649D01*
X126011100Y-45277599D01*
X125791401Y-45057900D01*
X125504351Y-44939000D01*
X125193649Y-44939000D01*
X124906599Y-45057900D01*
X124686900Y-45277599D01*
X124568000Y-45564649D01*
X123242241Y-45564649D01*
X120923000Y-43245409D01*
X120923000Y-43024649D01*
X120834555Y-42811123D01*
X126390334Y-42811123D01*
X126400013Y-42887969D01*
X126613893Y-43237278D01*
X126945167Y-43478149D01*
X127343402Y-43573912D01*
X127508000Y-43408756D01*
X127508000Y-42652000D01*
X127762000Y-42652000D01*
X127762000Y-43408756D01*
X127926598Y-43573912D01*
X128324833Y-43478149D01*
X128656107Y-43237278D01*
X128869987Y-42887969D01*
X128879666Y-42811123D01*
X128751998Y-42652000D01*
X127762000Y-42652000D01*
X127508000Y-42652000D01*
X126518002Y-42652000D01*
X126390334Y-42811123D01*
X120834555Y-42811123D01*
X120804100Y-42737599D01*
X120611501Y-42545000D01*
X120804100Y-42352401D01*
X120923000Y-42065351D01*
X120923000Y-41754649D01*
X120804100Y-41467599D01*
X120646791Y-41310290D01*
X126596536Y-41310290D01*
X126596536Y-41475000D01*
X126641330Y-41700195D01*
X126682962Y-41762502D01*
X126613893Y-41812722D01*
X126400013Y-42162031D01*
X126390334Y-42238877D01*
X126518002Y-42398000D01*
X127508000Y-42398000D01*
X127508000Y-42378000D01*
X127762000Y-42378000D01*
X127762000Y-42398000D01*
X128751998Y-42398000D01*
X128879666Y-42238877D01*
X128869987Y-42162031D01*
X128656107Y-41812722D01*
X128587038Y-41762502D01*
X128628670Y-41700195D01*
X128673464Y-41475000D01*
X128673464Y-41075000D01*
X128628670Y-40849805D01*
X128501107Y-40658893D01*
X128310195Y-40531330D01*
X128085000Y-40486536D01*
X127562127Y-40486536D01*
X127557328Y-40481737D01*
X127529096Y-40439484D01*
X127361721Y-40327649D01*
X127214125Y-40298290D01*
X127214124Y-40298290D01*
X127164290Y-40288377D01*
X127114456Y-40298290D01*
X111772543Y-40298290D01*
X111722709Y-40288377D01*
X111672875Y-40298290D01*
X111525279Y-40327649D01*
X111357904Y-40439484D01*
X111329673Y-40481735D01*
X110694444Y-41116965D01*
X110694441Y-41116967D01*
X110682408Y-41129000D01*
X110461649Y-41129000D01*
X110174599Y-41247900D01*
X109954900Y-41467599D01*
X109836000Y-41754649D01*
X107821000Y-41754649D01*
X107821000Y-38024829D01*
X108038691Y-38115000D01*
X108279250Y-38115000D01*
X108438000Y-37956250D01*
X108438000Y-36957000D01*
X108692000Y-36957000D01*
X108692000Y-37956250D01*
X108850750Y-38115000D01*
X109091309Y-38115000D01*
X109324698Y-38018327D01*
X109503327Y-37839699D01*
X109600000Y-37606310D01*
X109600000Y-37121598D01*
X111981088Y-37121598D01*
X112076851Y-37519833D01*
X112317722Y-37851107D01*
X112667031Y-38064987D01*
X112743877Y-38074666D01*
X112903000Y-37946998D01*
X112903000Y-36957000D01*
X112146244Y-36957000D01*
X111981088Y-37121598D01*
X109600000Y-37121598D01*
X109600000Y-37115750D01*
X109441250Y-36957000D01*
X108692000Y-36957000D01*
X108438000Y-36957000D01*
X108418000Y-36957000D01*
X108418000Y-36703000D01*
X108438000Y-36703000D01*
X108438000Y-35703750D01*
X108692000Y-35703750D01*
X108692000Y-36703000D01*
X109441250Y-36703000D01*
X109600000Y-36544250D01*
X109600000Y-36538402D01*
X111981088Y-36538402D01*
X112146244Y-36703000D01*
X112903000Y-36703000D01*
X112903000Y-35713002D01*
X113157000Y-35713002D01*
X113157000Y-36703000D01*
X113177000Y-36703000D01*
X113177000Y-36957000D01*
X113157000Y-36957000D01*
X113157000Y-37946998D01*
X113316123Y-38074666D01*
X113392969Y-38064987D01*
X113742278Y-37851107D01*
X113835795Y-37722491D01*
X113975269Y-37815685D01*
X114280000Y-37876300D01*
X114584730Y-37815685D01*
X114843069Y-37643069D01*
X114905000Y-37550383D01*
X114966931Y-37643069D01*
X115225269Y-37815685D01*
X115530000Y-37876300D01*
X115834730Y-37815685D01*
X116093069Y-37643069D01*
X116155000Y-37550383D01*
X116216931Y-37643069D01*
X116475269Y-37815685D01*
X116780000Y-37876300D01*
X117084730Y-37815685D01*
X117343069Y-37643069D01*
X117360762Y-37616590D01*
X117413893Y-37696107D01*
X117604805Y-37823670D01*
X117830000Y-37868464D01*
X118230000Y-37868464D01*
X118455195Y-37823670D01*
X118646107Y-37696107D01*
X118773670Y-37505195D01*
X118818464Y-37280000D01*
X118818464Y-37120683D01*
X121459000Y-37120683D01*
X121459000Y-37809317D01*
X121722529Y-38445533D01*
X122209467Y-38932471D01*
X122845683Y-39196000D01*
X123534317Y-39196000D01*
X124170533Y-38932471D01*
X124657471Y-38445533D01*
X124921000Y-37809317D01*
X124921000Y-37120683D01*
X124657471Y-36484467D01*
X124170533Y-35997529D01*
X123534317Y-35734000D01*
X122845683Y-35734000D01*
X122209467Y-35997529D01*
X121722529Y-36484467D01*
X121459000Y-37120683D01*
X118818464Y-37120683D01*
X118818464Y-36380000D01*
X118773670Y-36154805D01*
X118646107Y-35963893D01*
X118455195Y-35836330D01*
X118230000Y-35791536D01*
X117830000Y-35791536D01*
X117604805Y-35836330D01*
X117413893Y-35963893D01*
X117360762Y-36043410D01*
X117343069Y-36016931D01*
X117084731Y-35844315D01*
X116780000Y-35783700D01*
X116475270Y-35844315D01*
X116216932Y-36016931D01*
X116155000Y-36109618D01*
X116093069Y-36016931D01*
X115834731Y-35844315D01*
X115530000Y-35783700D01*
X115225270Y-35844315D01*
X114966932Y-36016931D01*
X114905000Y-36109618D01*
X114843069Y-36016931D01*
X114584731Y-35844315D01*
X114280000Y-35783700D01*
X113975270Y-35844315D01*
X113835795Y-35937509D01*
X113742278Y-35808893D01*
X113392969Y-35595013D01*
X113316123Y-35585334D01*
X113157000Y-35713002D01*
X112903000Y-35713002D01*
X112743877Y-35585334D01*
X112667031Y-35595013D01*
X112317722Y-35808893D01*
X112076851Y-36140167D01*
X111981088Y-36538402D01*
X109600000Y-36538402D01*
X109600000Y-36053690D01*
X109503327Y-35820301D01*
X109324698Y-35641673D01*
X109091309Y-35545000D01*
X108850750Y-35545000D01*
X108692000Y-35703750D01*
X108438000Y-35703750D01*
X108279250Y-35545000D01*
X108038691Y-35545000D01*
X107805302Y-35641673D01*
X107626673Y-35820301D01*
X107616955Y-35843763D01*
X107315000Y-35783700D01*
X107010270Y-35844315D01*
X106751932Y-36016931D01*
X106579315Y-36275269D01*
X106534000Y-36503082D01*
X106534000Y-37156917D01*
X106579315Y-37384730D01*
X106751931Y-37643069D01*
X106809000Y-37681201D01*
X106809001Y-42368161D01*
X106799087Y-42418000D01*
X106829741Y-42572100D01*
X106838360Y-42615431D01*
X106950195Y-42782806D01*
X106992446Y-42811037D01*
X109836000Y-45654592D01*
X109836000Y-45875351D01*
X109954900Y-46162401D01*
X110147499Y-46355000D01*
X110018499Y-46484000D01*
X105873592Y-46484000D01*
X104392000Y-45002409D01*
X104392000Y-44929649D01*
X104883000Y-44929649D01*
X104883000Y-45240351D01*
X105001900Y-45527401D01*
X105221599Y-45747100D01*
X105508649Y-45866000D01*
X105819351Y-45866000D01*
X106106401Y-45747100D01*
X106326100Y-45527401D01*
X106445000Y-45240351D01*
X106445000Y-44929649D01*
X106326100Y-44642599D01*
X106106401Y-44422900D01*
X105819351Y-44304000D01*
X105508649Y-44304000D01*
X105221599Y-44422900D01*
X105001900Y-44642599D01*
X104883000Y-44929649D01*
X104392000Y-44929649D01*
X104392000Y-41700835D01*
X104401913Y-41651000D01*
X104362641Y-41453569D01*
X104347127Y-41430351D01*
X104250806Y-41286194D01*
X104208556Y-41257964D01*
X104070241Y-41119649D01*
X104883000Y-41119649D01*
X104883000Y-41430351D01*
X105001900Y-41717401D01*
X105221599Y-41937100D01*
X105508649Y-42056000D01*
X105819351Y-42056000D01*
X106106401Y-41937100D01*
X106326100Y-41717401D01*
X106445000Y-41430351D01*
X106445000Y-41119649D01*
X106326100Y-40832599D01*
X106106401Y-40612900D01*
X105819351Y-40494000D01*
X105508649Y-40494000D01*
X105221599Y-40612900D01*
X105001900Y-40832599D01*
X104883000Y-41119649D01*
X104070241Y-41119649D01*
X102937524Y-39986933D01*
X103048069Y-39913069D01*
X103220685Y-39654731D01*
X103281300Y-39350000D01*
X103221237Y-39048045D01*
X103244699Y-39038327D01*
X103423327Y-38859698D01*
X103520000Y-38626309D01*
X103520000Y-38385750D01*
X103361250Y-38227000D01*
X102362000Y-38227000D01*
X102362000Y-38247000D01*
X102108000Y-38247000D01*
X102108000Y-38227000D01*
X101108750Y-38227000D01*
X100950000Y-38385750D01*
X100786000Y-38385750D01*
X100786000Y-37573691D01*
X100950000Y-37573691D01*
X100950000Y-37814250D01*
X101108750Y-37973000D01*
X102108000Y-37973000D01*
X102108000Y-37223750D01*
X102362000Y-37223750D01*
X102362000Y-37973000D01*
X103361250Y-37973000D01*
X103520000Y-37814250D01*
X103520000Y-37573691D01*
X103423327Y-37340302D01*
X103244699Y-37161673D01*
X103011310Y-37065000D01*
X102520750Y-37065000D01*
X102362000Y-37223750D01*
X102108000Y-37223750D01*
X101949250Y-37065000D01*
X101458690Y-37065000D01*
X101225301Y-37161673D01*
X101046673Y-37340302D01*
X100950000Y-37573691D01*
X100786000Y-37573691D01*
X100786000Y-34746000D01*
X130354000Y-34746000D01*
X130354001Y-83364000D01*
X130354001Y-83364000D01*
G37*
X130354001Y-83364000D02*
X100786000Y-83364000D01*
X100786000Y-81759649D01*
X124822000Y-81759649D01*
X124822000Y-82070351D01*
X124940900Y-82357401D01*
X125160599Y-82577100D01*
X125447649Y-82696000D01*
X125758351Y-82696000D01*
X126045401Y-82577100D01*
X126265100Y-82357401D01*
X126384000Y-82070351D01*
X126384000Y-81759649D01*
X126265100Y-81472599D01*
X126045401Y-81252900D01*
X125758351Y-81134000D01*
X125447649Y-81134000D01*
X125160599Y-81252900D01*
X124940900Y-81472599D01*
X124822000Y-81759649D01*
X100786000Y-81759649D01*
X100786000Y-73945750D01*
X100950000Y-73945750D01*
X100950000Y-74186309D01*
X101046673Y-74419698D01*
X101225301Y-74598327D01*
X101248763Y-74608045D01*
X101188700Y-74910000D01*
X101249315Y-75214731D01*
X101421931Y-75473069D01*
X101514617Y-75535000D01*
X101421931Y-75596931D01*
X101249315Y-75855269D01*
X101188700Y-76160000D01*
X101249315Y-76464731D01*
X101421931Y-76723069D01*
X101514617Y-76785000D01*
X101421931Y-76846931D01*
X101249315Y-77105269D01*
X101188700Y-77410000D01*
X101249315Y-77714731D01*
X101421931Y-77973069D01*
X101514617Y-78035000D01*
X101421931Y-78096931D01*
X101249315Y-78355269D01*
X101188700Y-78660000D01*
X101249315Y-78964731D01*
X101421931Y-79223069D01*
X101680269Y-79395685D01*
X101908082Y-79441000D01*
X102561918Y-79441000D01*
X102789731Y-79395685D01*
X103048069Y-79223069D01*
X103086201Y-79166000D01*
X109057409Y-79166000D01*
X109836000Y-79944592D01*
X109836000Y-80165351D01*
X109954900Y-80452401D01*
X110174599Y-80672100D01*
X110461649Y-80791000D01*
X110772351Y-80791000D01*
X111059401Y-80672100D01*
X111279100Y-80452401D01*
X111398000Y-80165351D01*
X111398000Y-79854649D01*
X115297000Y-79854649D01*
X115297000Y-80165351D01*
X115415900Y-80452401D01*
X115635599Y-80672100D01*
X115922649Y-80791000D01*
X116233351Y-80791000D01*
X116520401Y-80672100D01*
X116740100Y-80452401D01*
X116859000Y-80165351D01*
X116859000Y-79854649D01*
X116740100Y-79567599D01*
X116520401Y-79347900D01*
X116233351Y-79229000D01*
X115922649Y-79229000D01*
X115635599Y-79347900D01*
X115415900Y-79567599D01*
X115297000Y-79854649D01*
X111398000Y-79854649D01*
X111279100Y-79567599D01*
X111086501Y-79375000D01*
X111279100Y-79182401D01*
X111398000Y-78895351D01*
X111398000Y-78584649D01*
X111279100Y-78297599D01*
X111086501Y-78105000D01*
X111279100Y-77912401D01*
X111398000Y-77625351D01*
X111398000Y-77314649D01*
X111279100Y-77027599D01*
X111086501Y-76835000D01*
X111279100Y-76642401D01*
X111398000Y-76355351D01*
X111398000Y-76044649D01*
X111279100Y-75757599D01*
X111059401Y-75537900D01*
X110772351Y-75419000D01*
X110551592Y-75419000D01*
X109520027Y-74387436D01*
X109491795Y-74345183D01*
X109324420Y-74233348D01*
X109176824Y-74203989D01*
X109176823Y-74203989D01*
X109126989Y-74194076D01*
X109077155Y-74203989D01*
X103512677Y-74203989D01*
X103520000Y-74186309D01*
X103520000Y-73945750D01*
X103361250Y-73787000D01*
X102362000Y-73787000D01*
X102362000Y-73807000D01*
X102108000Y-73807000D01*
X102108000Y-73787000D01*
X101108750Y-73787000D01*
X100950000Y-73945750D01*
X100786000Y-73945750D01*
X100786000Y-73133691D01*
X100950000Y-73133691D01*
X100950000Y-73374250D01*
X101108750Y-73533000D01*
X102108000Y-73533000D01*
X102108000Y-72783750D01*
X102362000Y-72783750D01*
X102362000Y-73533000D01*
X103361250Y-73533000D01*
X103520000Y-73374250D01*
X103520000Y-73133691D01*
X103423327Y-72900302D01*
X103244699Y-72721673D01*
X103011310Y-72625000D01*
X102520750Y-72625000D01*
X102362000Y-72783750D01*
X102108000Y-72783750D01*
X101949250Y-72625000D01*
X101458690Y-72625000D01*
X101225301Y-72721673D01*
X101046673Y-72900302D01*
X100950000Y-73133691D01*
X100786000Y-73133691D01*
X100786000Y-71599649D01*
X104883000Y-71599649D01*
X104883000Y-71910351D01*
X105001900Y-72197401D01*
X105221599Y-72417100D01*
X105508649Y-72536000D01*
X105819351Y-72536000D01*
X106106401Y-72417100D01*
X106288852Y-72234649D01*
X109582000Y-72234649D01*
X109582000Y-72545351D01*
X109700900Y-72832401D01*
X109920599Y-73052100D01*
X110207649Y-73171000D01*
X110518351Y-73171000D01*
X110805401Y-73052100D01*
X110961501Y-72896000D01*
X119564607Y-72896000D01*
X119318599Y-72997900D01*
X119098900Y-73217599D01*
X118980000Y-73504649D01*
X118980000Y-73815351D01*
X119098900Y-74102401D01*
X119291499Y-74295000D01*
X119098900Y-74487599D01*
X118980000Y-74774649D01*
X118980000Y-75085351D01*
X119098900Y-75372401D01*
X119291499Y-75565000D01*
X119098900Y-75757599D01*
X118980000Y-76044649D01*
X118980000Y-76355351D01*
X119098900Y-76642401D01*
X119318599Y-76862100D01*
X119605649Y-76981000D01*
X119826409Y-76981000D01*
X121907963Y-79062555D01*
X121936194Y-79104806D01*
X122103569Y-79216641D01*
X122251165Y-79246000D01*
X122300999Y-79255913D01*
X122350833Y-79246000D01*
X126783799Y-79246000D01*
X126821931Y-79303069D01*
X127080269Y-79475685D01*
X127308082Y-79521000D01*
X127961918Y-79521000D01*
X128189731Y-79475685D01*
X128448069Y-79303069D01*
X128620685Y-79044731D01*
X128681300Y-78740000D01*
X128620685Y-78435269D01*
X128448069Y-78176931D01*
X128355383Y-78115000D01*
X128448069Y-78053069D01*
X128620685Y-77794731D01*
X128681300Y-77490000D01*
X128620685Y-77185269D01*
X128448069Y-76926931D01*
X128355383Y-76865000D01*
X128448069Y-76803069D01*
X128620685Y-76544731D01*
X128681300Y-76240000D01*
X128620685Y-75935269D01*
X128448069Y-75676931D01*
X128355383Y-75615000D01*
X128448069Y-75553069D01*
X128620685Y-75294731D01*
X128681300Y-74990000D01*
X128621237Y-74688045D01*
X128644699Y-74678327D01*
X128823327Y-74499698D01*
X128920000Y-74266309D01*
X128920000Y-74025750D01*
X128761250Y-73867000D01*
X127762000Y-73867000D01*
X127762000Y-73887000D01*
X127508000Y-73887000D01*
X127508000Y-73867000D01*
X127488000Y-73867000D01*
X127488000Y-73613000D01*
X127508000Y-73613000D01*
X127508000Y-72863750D01*
X127762000Y-72863750D01*
X127762000Y-73613000D01*
X128761250Y-73613000D01*
X128920000Y-73454250D01*
X128920000Y-73213691D01*
X128823327Y-72980302D01*
X128644699Y-72801673D01*
X128411310Y-72705000D01*
X127920750Y-72705000D01*
X127762000Y-72863750D01*
X127508000Y-72863750D01*
X127349250Y-72705000D01*
X126858690Y-72705000D01*
X126625301Y-72801673D01*
X126446673Y-72980302D01*
X126350000Y-73213691D01*
X126350000Y-73239409D01*
X125178039Y-72067448D01*
X125149806Y-72025194D01*
X124982431Y-71913359D01*
X124834835Y-71884000D01*
X124834834Y-71884000D01*
X124785000Y-71874087D01*
X124735166Y-71884000D01*
X120881310Y-71884000D01*
X120923000Y-71783351D01*
X120923000Y-71472649D01*
X120804100Y-71185599D01*
X120584401Y-70965900D01*
X120297351Y-70847000D01*
X119986649Y-70847000D01*
X119699599Y-70965900D01*
X119479900Y-71185599D01*
X119361000Y-71472649D01*
X119361000Y-71783351D01*
X119402690Y-71884000D01*
X110961501Y-71884000D01*
X110805401Y-71727900D01*
X110518351Y-71609000D01*
X110207649Y-71609000D01*
X109920599Y-71727900D01*
X109700900Y-71947599D01*
X109582000Y-72234649D01*
X106288852Y-72234649D01*
X106326100Y-72197401D01*
X106445000Y-71910351D01*
X106445000Y-71599649D01*
X106326100Y-71312599D01*
X106106401Y-71092900D01*
X105819351Y-70974000D01*
X105508649Y-70974000D01*
X105221599Y-71092900D01*
X105001900Y-71312599D01*
X104883000Y-71599649D01*
X100786000Y-71599649D01*
X100786000Y-68235683D01*
X101901000Y-68235683D01*
X101901000Y-68924317D01*
X102164529Y-69560533D01*
X102651467Y-70047471D01*
X103287683Y-70311000D01*
X103976317Y-70311000D01*
X104612533Y-70047471D01*
X105099471Y-69560533D01*
X105363000Y-68924317D01*
X105363000Y-68235683D01*
X125777000Y-68235683D01*
X125777000Y-68924317D01*
X126040529Y-69560533D01*
X126527467Y-70047471D01*
X127163683Y-70311000D01*
X127852317Y-70311000D01*
X128488533Y-70047471D01*
X128975471Y-69560533D01*
X129239000Y-68924317D01*
X129239000Y-68235683D01*
X128975471Y-67599467D01*
X128488533Y-67112529D01*
X127852317Y-66849000D01*
X127163683Y-66849000D01*
X126527467Y-67112529D01*
X126040529Y-67599467D01*
X125777000Y-68235683D01*
X105363000Y-68235683D01*
X105099471Y-67599467D01*
X104612533Y-67112529D01*
X103976317Y-66849000D01*
X103287683Y-66849000D01*
X102651467Y-67112529D01*
X102164529Y-67599467D01*
X101901000Y-68235683D01*
X100786000Y-68235683D01*
X100786000Y-58705750D01*
X100950000Y-58705750D01*
X100950000Y-58946309D01*
X101046673Y-59179698D01*
X101225301Y-59358327D01*
X101248763Y-59368045D01*
X101188700Y-59670000D01*
X101249315Y-59974731D01*
X101421931Y-60233069D01*
X101514617Y-60295000D01*
X101421931Y-60356931D01*
X101249315Y-60615269D01*
X101188700Y-60920000D01*
X101249315Y-61224731D01*
X101421931Y-61483069D01*
X101514617Y-61545000D01*
X101421931Y-61606931D01*
X101249315Y-61865269D01*
X101188700Y-62170000D01*
X101249315Y-62474731D01*
X101421931Y-62733069D01*
X101514617Y-62795000D01*
X101421931Y-62856931D01*
X101249315Y-63115269D01*
X101188700Y-63420000D01*
X101249315Y-63724731D01*
X101421931Y-63983069D01*
X101680269Y-64155685D01*
X101908082Y-64201000D01*
X102561918Y-64201000D01*
X102789731Y-64155685D01*
X103048069Y-63983069D01*
X103086201Y-63926000D01*
X109057409Y-63926000D01*
X109836000Y-64704592D01*
X109836000Y-64925351D01*
X109954900Y-65212401D01*
X110174599Y-65432100D01*
X110461649Y-65551000D01*
X110772351Y-65551000D01*
X111059401Y-65432100D01*
X111279100Y-65212401D01*
X111398000Y-64925351D01*
X111398000Y-64614649D01*
X111374601Y-64558157D01*
X113727415Y-64558157D01*
X113727415Y-64868859D01*
X113846315Y-65155909D01*
X114066014Y-65375608D01*
X114353064Y-65494508D01*
X114663766Y-65494508D01*
X114950816Y-65375608D01*
X115170515Y-65155909D01*
X115289415Y-64868859D01*
X115289415Y-64648100D01*
X115297000Y-64640515D01*
X115297000Y-64925351D01*
X115415900Y-65212401D01*
X115635599Y-65432100D01*
X115922649Y-65551000D01*
X116233351Y-65551000D01*
X116520401Y-65432100D01*
X116740100Y-65212401D01*
X116859000Y-64925351D01*
X116859000Y-64614649D01*
X116740100Y-64327599D01*
X116520401Y-64107900D01*
X116274393Y-64006000D01*
X119162499Y-64006000D01*
X119318599Y-64162100D01*
X119605649Y-64281000D01*
X119916351Y-64281000D01*
X120203401Y-64162100D01*
X120423100Y-63942401D01*
X120542000Y-63655351D01*
X120542000Y-63344649D01*
X120423100Y-63057599D01*
X120203401Y-62837900D01*
X119916351Y-62719000D01*
X119605649Y-62719000D01*
X119318599Y-62837900D01*
X119162499Y-62994000D01*
X115771756Y-62994000D01*
X115721922Y-62984087D01*
X115672088Y-62994000D01*
X115524492Y-63023359D01*
X115357117Y-63135194D01*
X115328886Y-63177445D01*
X114585859Y-63920473D01*
X114585856Y-63920475D01*
X114573823Y-63932508D01*
X114353064Y-63932508D01*
X114066014Y-64051408D01*
X113846315Y-64271107D01*
X113727415Y-64558157D01*
X111374601Y-64558157D01*
X111279100Y-64327599D01*
X111086501Y-64135000D01*
X111279100Y-63942401D01*
X111398000Y-63655351D01*
X111398000Y-63344649D01*
X111279100Y-63057599D01*
X111086501Y-62865000D01*
X111279100Y-62672401D01*
X111398000Y-62385351D01*
X111398000Y-62074649D01*
X111279100Y-61787599D01*
X111086501Y-61595000D01*
X111279100Y-61402401D01*
X111398000Y-61115351D01*
X111398000Y-60804649D01*
X111279100Y-60517599D01*
X111059401Y-60297900D01*
X110772351Y-60179000D01*
X110551592Y-60179000D01*
X109520027Y-59147436D01*
X109491795Y-59105183D01*
X109324420Y-58993348D01*
X109176824Y-58963989D01*
X109176823Y-58963989D01*
X109126989Y-58954076D01*
X109077155Y-58963989D01*
X103512677Y-58963989D01*
X103520000Y-58946309D01*
X103520000Y-58705750D01*
X103361250Y-58547000D01*
X102362000Y-58547000D01*
X102362000Y-58567000D01*
X102108000Y-58567000D01*
X102108000Y-58547000D01*
X101108750Y-58547000D01*
X100950000Y-58705750D01*
X100786000Y-58705750D01*
X100786000Y-57893691D01*
X100950000Y-57893691D01*
X100950000Y-58134250D01*
X101108750Y-58293000D01*
X102108000Y-58293000D01*
X102108000Y-57543750D01*
X102362000Y-57543750D01*
X102362000Y-58293000D01*
X103361250Y-58293000D01*
X103520000Y-58134250D01*
X103520000Y-57893691D01*
X103423327Y-57660302D01*
X103244699Y-57481673D01*
X103011310Y-57385000D01*
X102520750Y-57385000D01*
X102362000Y-57543750D01*
X102108000Y-57543750D01*
X101949250Y-57385000D01*
X101458690Y-57385000D01*
X101225301Y-57481673D01*
X101046673Y-57660302D01*
X100950000Y-57893691D01*
X100786000Y-57893691D01*
X100786000Y-56359649D01*
X104883000Y-56359649D01*
X104883000Y-56670351D01*
X105001900Y-56957401D01*
X105221599Y-57177100D01*
X105508649Y-57296000D01*
X105819351Y-57296000D01*
X106106401Y-57177100D01*
X106288852Y-56994649D01*
X109836000Y-56994649D01*
X109836000Y-57305351D01*
X109954900Y-57592401D01*
X110174599Y-57812100D01*
X110461649Y-57931000D01*
X110772351Y-57931000D01*
X111059401Y-57812100D01*
X111279100Y-57592401D01*
X111398000Y-57305351D01*
X111398000Y-57084591D01*
X112096592Y-56386000D01*
X119183607Y-56386000D01*
X118937599Y-56487900D01*
X118717900Y-56707599D01*
X118599000Y-56994649D01*
X118599000Y-57305351D01*
X118717900Y-57592401D01*
X118937599Y-57812100D01*
X119168681Y-57907818D01*
X119098900Y-57977599D01*
X118980000Y-58264649D01*
X118980000Y-58575351D01*
X119098900Y-58862401D01*
X119291499Y-59055000D01*
X119098900Y-59247599D01*
X118980000Y-59534649D01*
X118980000Y-59845351D01*
X119098900Y-60132401D01*
X119291499Y-60325000D01*
X119098900Y-60517599D01*
X118980000Y-60804649D01*
X118980000Y-61115351D01*
X119098900Y-61402401D01*
X119318599Y-61622100D01*
X119605649Y-61741000D01*
X119826409Y-61741000D01*
X121907963Y-63822555D01*
X121936194Y-63864806D01*
X122103569Y-63976641D01*
X122251165Y-64006000D01*
X122300999Y-64015913D01*
X122350833Y-64006000D01*
X126783799Y-64006000D01*
X126821931Y-64063069D01*
X127080269Y-64235685D01*
X127308082Y-64281000D01*
X127961918Y-64281000D01*
X128189731Y-64235685D01*
X128448069Y-64063069D01*
X128620685Y-63804731D01*
X128681300Y-63500000D01*
X128620685Y-63195269D01*
X128448069Y-62936931D01*
X128355383Y-62875000D01*
X128448069Y-62813069D01*
X128620685Y-62554731D01*
X128681300Y-62250000D01*
X128620685Y-61945269D01*
X128448069Y-61686931D01*
X128355383Y-61625000D01*
X128448069Y-61563069D01*
X128620685Y-61304731D01*
X128681300Y-61000000D01*
X128620685Y-60695269D01*
X128448069Y-60436931D01*
X128355383Y-60375000D01*
X128448069Y-60313069D01*
X128620685Y-60054731D01*
X128681300Y-59750000D01*
X128621237Y-59448045D01*
X128644699Y-59438327D01*
X128823327Y-59259698D01*
X128920000Y-59026309D01*
X128920000Y-58785750D01*
X128761250Y-58627000D01*
X127762000Y-58627000D01*
X127762000Y-58647000D01*
X127508000Y-58647000D01*
X127508000Y-58627000D01*
X126508750Y-58627000D01*
X126418171Y-58717579D01*
X125674283Y-57973691D01*
X126350000Y-57973691D01*
X126350000Y-58214250D01*
X126508750Y-58373000D01*
X127508000Y-58373000D01*
X127508000Y-57623750D01*
X127762000Y-57623750D01*
X127762000Y-58373000D01*
X128761250Y-58373000D01*
X128920000Y-58214250D01*
X128920000Y-57973691D01*
X128823327Y-57740302D01*
X128644699Y-57561673D01*
X128411310Y-57465000D01*
X127920750Y-57465000D01*
X127762000Y-57623750D01*
X127508000Y-57623750D01*
X127349250Y-57465000D01*
X126858690Y-57465000D01*
X126625301Y-57561673D01*
X126446673Y-57740302D01*
X126350000Y-57973691D01*
X125674283Y-57973691D01*
X123258039Y-55557448D01*
X123229806Y-55515194D01*
X123062431Y-55403359D01*
X122914835Y-55374000D01*
X122914834Y-55374000D01*
X122865000Y-55364087D01*
X122815166Y-55374000D01*
X111936833Y-55374000D01*
X111886999Y-55364087D01*
X111837165Y-55374000D01*
X111689569Y-55403359D01*
X111522194Y-55515194D01*
X111493963Y-55557445D01*
X110682409Y-56369000D01*
X110461649Y-56369000D01*
X110174599Y-56487900D01*
X109954900Y-56707599D01*
X109836000Y-56994649D01*
X106288852Y-56994649D01*
X106326100Y-56957401D01*
X106445000Y-56670351D01*
X106445000Y-56359649D01*
X106326100Y-56072599D01*
X106106401Y-55852900D01*
X105819351Y-55734000D01*
X105508649Y-55734000D01*
X105221599Y-55852900D01*
X105001900Y-56072599D01*
X104883000Y-56359649D01*
X100786000Y-56359649D01*
X100786000Y-49003691D01*
X100950000Y-49003691D01*
X100950000Y-49244250D01*
X101108750Y-49403000D01*
X102108000Y-49403000D01*
X102108000Y-48653750D01*
X102362000Y-48653750D01*
X102362000Y-49403000D01*
X103361250Y-49403000D01*
X103520000Y-49244250D01*
X103520000Y-49003691D01*
X103423327Y-48770302D01*
X103244699Y-48591673D01*
X103011310Y-48495000D01*
X102520750Y-48495000D01*
X102362000Y-48653750D01*
X102108000Y-48653750D01*
X101949250Y-48495000D01*
X101458690Y-48495000D01*
X101225301Y-48591673D01*
X101046673Y-48770302D01*
X100950000Y-49003691D01*
X100786000Y-49003691D01*
X100786000Y-43288691D01*
X100950000Y-43288691D01*
X100950000Y-43529250D01*
X101108750Y-43688000D01*
X102108000Y-43688000D01*
X102108000Y-42938750D01*
X101949250Y-42780000D01*
X101458690Y-42780000D01*
X101225301Y-42876673D01*
X101046673Y-43055302D01*
X100950000Y-43288691D01*
X100786000Y-43288691D01*
X100786000Y-38385750D01*
X100950000Y-38385750D01*
X100950000Y-38626309D01*
X101046673Y-38859698D01*
X101225301Y-39038327D01*
X101248763Y-39048045D01*
X101188700Y-39350000D01*
X101249315Y-39654731D01*
X101421931Y-39913069D01*
X101680269Y-40085685D01*
X101738433Y-40097255D01*
X101745146Y-40131000D01*
X101758360Y-40197431D01*
X101870195Y-40364806D01*
X101912445Y-40393037D01*
X103380000Y-41860592D01*
X103380000Y-43011975D01*
X103244699Y-42876673D01*
X103011310Y-42780000D01*
X102520750Y-42780000D01*
X102362000Y-42938750D01*
X102362000Y-43688000D01*
X102382000Y-43688000D01*
X102382000Y-43942000D01*
X102362000Y-43942000D01*
X102362000Y-43962000D01*
X102108000Y-43962000D01*
X102108000Y-43942000D01*
X101108750Y-43942000D01*
X100950000Y-44100750D01*
X100950000Y-44341309D01*
X101046673Y-44574698D01*
X101225301Y-44753327D01*
X101248763Y-44763045D01*
X101188700Y-45065000D01*
X101249315Y-45369731D01*
X101421931Y-45628069D01*
X101680269Y-45800685D01*
X101908082Y-45846000D01*
X102550409Y-45846000D01*
X105286963Y-48582555D01*
X105315194Y-48624806D01*
X105482569Y-48736641D01*
X105630165Y-48766000D01*
X105679999Y-48775913D01*
X105729833Y-48766000D01*
X110018499Y-48766000D01*
X110147499Y-48895000D01*
X109954900Y-49087599D01*
X109836000Y-49374649D01*
X109836000Y-49595408D01*
X109157409Y-50274000D01*
X103429829Y-50274000D01*
X103520000Y-50056309D01*
X103520000Y-49815750D01*
X103361250Y-49657000D01*
X102362000Y-49657000D01*
X102362000Y-49677000D01*
X102108000Y-49677000D01*
X102108000Y-49657000D01*
X101108750Y-49657000D01*
X100950000Y-49815750D01*
X100950000Y-50056309D01*
X101046673Y-50289698D01*
X101225301Y-50468327D01*
X101248763Y-50478045D01*
X101188700Y-50780000D01*
X101249315Y-51084731D01*
X101421931Y-51343069D01*
X101680269Y-51515685D01*
X101908082Y-51561000D01*
X102561918Y-51561000D01*
X102789731Y-51515685D01*
X103048069Y-51343069D01*
X103086201Y-51286000D01*
X109317166Y-51286000D01*
X109367000Y-51295913D01*
X109416834Y-51286000D01*
X109416835Y-51286000D01*
X109564431Y-51256641D01*
X109731806Y-51144806D01*
X109760038Y-51102553D01*
X110551592Y-50311000D01*
X110772351Y-50311000D01*
X111059401Y-50192100D01*
X111279100Y-49972401D01*
X111398000Y-49685351D01*
X111398000Y-49374649D01*
X111295457Y-49127086D01*
X113846989Y-49127086D01*
X113846989Y-49437788D01*
X113965889Y-49724838D01*
X114185588Y-49944537D01*
X114472638Y-50063437D01*
X114783340Y-50063437D01*
X115070390Y-49944537D01*
X115290089Y-49724838D01*
X115301723Y-49696752D01*
X115415900Y-49972401D01*
X115635599Y-50192100D01*
X115922649Y-50311000D01*
X116233351Y-50311000D01*
X116520401Y-50192100D01*
X116740100Y-49972401D01*
X116859000Y-49685351D01*
X116859000Y-49374649D01*
X116740100Y-49087599D01*
X116520401Y-48867900D01*
X116274393Y-48766000D01*
X119289499Y-48766000D01*
X119445599Y-48922100D01*
X119732649Y-49041000D01*
X120043351Y-49041000D01*
X120330401Y-48922100D01*
X120550100Y-48702401D01*
X120669000Y-48415351D01*
X120669000Y-48104649D01*
X120577035Y-47882626D01*
X126602090Y-53907682D01*
X126588700Y-53975000D01*
X126649315Y-54279731D01*
X126821931Y-54538069D01*
X127080269Y-54710685D01*
X127308082Y-54756000D01*
X127961918Y-54756000D01*
X128189731Y-54710685D01*
X128448069Y-54538069D01*
X128620685Y-54279731D01*
X128681300Y-53975000D01*
X128621237Y-53673045D01*
X128644699Y-53663327D01*
X128823327Y-53484698D01*
X128920000Y-53251309D01*
X128920000Y-53010750D01*
X128761250Y-52852000D01*
X127762000Y-52852000D01*
X127762000Y-52872000D01*
X127508000Y-52872000D01*
X127508000Y-52852000D01*
X127488000Y-52852000D01*
X127488000Y-52598000D01*
X127508000Y-52598000D01*
X127508000Y-51848750D01*
X127762000Y-51848750D01*
X127762000Y-52598000D01*
X128761250Y-52598000D01*
X128920000Y-52439250D01*
X128920000Y-52198691D01*
X128823327Y-51965302D01*
X128644699Y-51786673D01*
X128411310Y-51690000D01*
X127920750Y-51690000D01*
X127762000Y-51848750D01*
X127508000Y-51848750D01*
X127349250Y-51690000D01*
X126858690Y-51690000D01*
X126625301Y-51786673D01*
X126446673Y-51965302D01*
X126350000Y-52198691D01*
X126350000Y-52224408D01*
X120521000Y-46395409D01*
X120521000Y-46318501D01*
X120677100Y-46162401D01*
X120796000Y-45875351D01*
X120796000Y-45564649D01*
X120677100Y-45277599D01*
X120457401Y-45057900D01*
X120170351Y-44939000D01*
X119859649Y-44939000D01*
X119572599Y-45057900D01*
X119352900Y-45277599D01*
X119234000Y-45564649D01*
X119234000Y-45875351D01*
X119352900Y-46162401D01*
X119509000Y-46318501D01*
X119509000Y-46555165D01*
X119499087Y-46605000D01*
X119509000Y-46654834D01*
X119538359Y-46802430D01*
X119650194Y-46969806D01*
X119692448Y-46998039D01*
X120265374Y-47570965D01*
X120043351Y-47479000D01*
X119732649Y-47479000D01*
X119445599Y-47597900D01*
X119289499Y-47754000D01*
X115700259Y-47754000D01*
X115650425Y-47744087D01*
X115600591Y-47754000D01*
X115452995Y-47783359D01*
X115285620Y-47895194D01*
X115257389Y-47937445D01*
X114705433Y-48489402D01*
X114705430Y-48489404D01*
X114693397Y-48501437D01*
X114472638Y-48501437D01*
X114185588Y-48620337D01*
X113965889Y-48840036D01*
X113846989Y-49127086D01*
X111295457Y-49127086D01*
X111279100Y-49087599D01*
X111086501Y-48895000D01*
X111279100Y-48702401D01*
X111398000Y-48415351D01*
X111398000Y-48104649D01*
X111279100Y-47817599D01*
X111086501Y-47625000D01*
X111279100Y-47432401D01*
X111398000Y-47145351D01*
X111398000Y-46834649D01*
X111279100Y-46547599D01*
X111086501Y-46355000D01*
X111279100Y-46162401D01*
X111398000Y-45875351D01*
X111398000Y-45564649D01*
X111279100Y-45277599D01*
X111059401Y-45057900D01*
X110772351Y-44939000D01*
X110551592Y-44939000D01*
X107821000Y-42208409D01*
X107821000Y-41754649D01*
X109836000Y-41754649D01*
X109836000Y-42065351D01*
X109954900Y-42352401D01*
X110174599Y-42572100D01*
X110461649Y-42691000D01*
X110772351Y-42691000D01*
X111059401Y-42572100D01*
X111279100Y-42352401D01*
X111398000Y-42065351D01*
X111398000Y-41844592D01*
X111410033Y-41832559D01*
X111410035Y-41832556D01*
X111932302Y-41310290D01*
X119637209Y-41310290D01*
X119479900Y-41467599D01*
X119361000Y-41754649D01*
X119361000Y-42065351D01*
X119479900Y-42352401D01*
X119672499Y-42545000D01*
X119479900Y-42737599D01*
X119361000Y-43024649D01*
X119361000Y-43335351D01*
X119479900Y-43622401D01*
X119699599Y-43842100D01*
X119986649Y-43961000D01*
X120207409Y-43961000D01*
X124828963Y-48582555D01*
X124857194Y-48624806D01*
X125024569Y-48736641D01*
X125172165Y-48766000D01*
X125172166Y-48766000D01*
X125222000Y-48775913D01*
X125271834Y-48766000D01*
X126783799Y-48766000D01*
X126821931Y-48823069D01*
X127080269Y-48995685D01*
X127308082Y-49041000D01*
X127961918Y-49041000D01*
X128189731Y-48995685D01*
X128448069Y-48823069D01*
X128620685Y-48564731D01*
X128681300Y-48260000D01*
X128621237Y-47958045D01*
X128644699Y-47948327D01*
X128823327Y-47769698D01*
X128920000Y-47536309D01*
X128920000Y-47295750D01*
X128761250Y-47137000D01*
X127762000Y-47137000D01*
X127762000Y-47157000D01*
X127508000Y-47157000D01*
X127508000Y-47137000D01*
X126508750Y-47137000D01*
X126350000Y-47295750D01*
X126350000Y-47536309D01*
X126440171Y-47754000D01*
X125431592Y-47754000D01*
X123242241Y-45564649D01*
X124568000Y-45564649D01*
X124568000Y-45875351D01*
X124686900Y-46162401D01*
X124906599Y-46382100D01*
X125193649Y-46501000D01*
X125504351Y-46501000D01*
X125546138Y-46483691D01*
X126350000Y-46483691D01*
X126350000Y-46724250D01*
X126508750Y-46883000D01*
X127508000Y-46883000D01*
X127508000Y-46133750D01*
X127762000Y-46133750D01*
X127762000Y-46883000D01*
X128761250Y-46883000D01*
X128920000Y-46724250D01*
X128920000Y-46483691D01*
X128823327Y-46250302D01*
X128644699Y-46071673D01*
X128411310Y-45975000D01*
X127920750Y-45975000D01*
X127762000Y-46133750D01*
X127508000Y-46133750D01*
X127349250Y-45975000D01*
X126858690Y-45975000D01*
X126625301Y-46071673D01*
X126446673Y-46250302D01*
X126350000Y-46483691D01*
X125546138Y-46483691D01*
X125791401Y-46382100D01*
X126011100Y-46162401D01*
X126130000Y-45875351D01*
X126130000Y-45564649D01*
X126011100Y-45277599D01*
X125791401Y-45057900D01*
X125504351Y-44939000D01*
X125193649Y-44939000D01*
X124906599Y-45057900D01*
X124686900Y-45277599D01*
X124568000Y-45564649D01*
X123242241Y-45564649D01*
X120923000Y-43245409D01*
X120923000Y-43024649D01*
X120834555Y-42811123D01*
X126390334Y-42811123D01*
X126400013Y-42887969D01*
X126613893Y-43237278D01*
X126945167Y-43478149D01*
X127343402Y-43573912D01*
X127508000Y-43408756D01*
X127508000Y-42652000D01*
X127762000Y-42652000D01*
X127762000Y-43408756D01*
X127926598Y-43573912D01*
X128324833Y-43478149D01*
X128656107Y-43237278D01*
X128869987Y-42887969D01*
X128879666Y-42811123D01*
X128751998Y-42652000D01*
X127762000Y-42652000D01*
X127508000Y-42652000D01*
X126518002Y-42652000D01*
X126390334Y-42811123D01*
X120834555Y-42811123D01*
X120804100Y-42737599D01*
X120611501Y-42545000D01*
X120804100Y-42352401D01*
X120923000Y-42065351D01*
X120923000Y-41754649D01*
X120804100Y-41467599D01*
X120646791Y-41310290D01*
X126596536Y-41310290D01*
X126596536Y-41475000D01*
X126641330Y-41700195D01*
X126682962Y-41762502D01*
X126613893Y-41812722D01*
X126400013Y-42162031D01*
X126390334Y-42238877D01*
X126518002Y-42398000D01*
X127508000Y-42398000D01*
X127508000Y-42378000D01*
X127762000Y-42378000D01*
X127762000Y-42398000D01*
X128751998Y-42398000D01*
X128879666Y-42238877D01*
X128869987Y-42162031D01*
X128656107Y-41812722D01*
X128587038Y-41762502D01*
X128628670Y-41700195D01*
X128673464Y-41475000D01*
X128673464Y-41075000D01*
X128628670Y-40849805D01*
X128501107Y-40658893D01*
X128310195Y-40531330D01*
X128085000Y-40486536D01*
X127562127Y-40486536D01*
X127557328Y-40481737D01*
X127529096Y-40439484D01*
X127361721Y-40327649D01*
X127214125Y-40298290D01*
X127214124Y-40298290D01*
X127164290Y-40288377D01*
X127114456Y-40298290D01*
X111772543Y-40298290D01*
X111722709Y-40288377D01*
X111672875Y-40298290D01*
X111525279Y-40327649D01*
X111357904Y-40439484D01*
X111329673Y-40481735D01*
X110694444Y-41116965D01*
X110694441Y-41116967D01*
X110682408Y-41129000D01*
X110461649Y-41129000D01*
X110174599Y-41247900D01*
X109954900Y-41467599D01*
X109836000Y-41754649D01*
X107821000Y-41754649D01*
X107821000Y-38024829D01*
X108038691Y-38115000D01*
X108279250Y-38115000D01*
X108438000Y-37956250D01*
X108438000Y-36957000D01*
X108692000Y-36957000D01*
X108692000Y-37956250D01*
X108850750Y-38115000D01*
X109091309Y-38115000D01*
X109324698Y-38018327D01*
X109503327Y-37839699D01*
X109600000Y-37606310D01*
X109600000Y-37121598D01*
X111981088Y-37121598D01*
X112076851Y-37519833D01*
X112317722Y-37851107D01*
X112667031Y-38064987D01*
X112743877Y-38074666D01*
X112903000Y-37946998D01*
X112903000Y-36957000D01*
X112146244Y-36957000D01*
X111981088Y-37121598D01*
X109600000Y-37121598D01*
X109600000Y-37115750D01*
X109441250Y-36957000D01*
X108692000Y-36957000D01*
X108438000Y-36957000D01*
X108418000Y-36957000D01*
X108418000Y-36703000D01*
X108438000Y-36703000D01*
X108438000Y-35703750D01*
X108692000Y-35703750D01*
X108692000Y-36703000D01*
X109441250Y-36703000D01*
X109600000Y-36544250D01*
X109600000Y-36538402D01*
X111981088Y-36538402D01*
X112146244Y-36703000D01*
X112903000Y-36703000D01*
X112903000Y-35713002D01*
X113157000Y-35713002D01*
X113157000Y-36703000D01*
X113177000Y-36703000D01*
X113177000Y-36957000D01*
X113157000Y-36957000D01*
X113157000Y-37946998D01*
X113316123Y-38074666D01*
X113392969Y-38064987D01*
X113742278Y-37851107D01*
X113835795Y-37722491D01*
X113975269Y-37815685D01*
X114280000Y-37876300D01*
X114584730Y-37815685D01*
X114843069Y-37643069D01*
X114905000Y-37550383D01*
X114966931Y-37643069D01*
X115225269Y-37815685D01*
X115530000Y-37876300D01*
X115834730Y-37815685D01*
X116093069Y-37643069D01*
X116155000Y-37550383D01*
X116216931Y-37643069D01*
X116475269Y-37815685D01*
X116780000Y-37876300D01*
X117084730Y-37815685D01*
X117343069Y-37643069D01*
X117360762Y-37616590D01*
X117413893Y-37696107D01*
X117604805Y-37823670D01*
X117830000Y-37868464D01*
X118230000Y-37868464D01*
X118455195Y-37823670D01*
X118646107Y-37696107D01*
X118773670Y-37505195D01*
X118818464Y-37280000D01*
X118818464Y-37120683D01*
X121459000Y-37120683D01*
X121459000Y-37809317D01*
X121722529Y-38445533D01*
X122209467Y-38932471D01*
X122845683Y-39196000D01*
X123534317Y-39196000D01*
X124170533Y-38932471D01*
X124657471Y-38445533D01*
X124921000Y-37809317D01*
X124921000Y-37120683D01*
X124657471Y-36484467D01*
X124170533Y-35997529D01*
X123534317Y-35734000D01*
X122845683Y-35734000D01*
X122209467Y-35997529D01*
X121722529Y-36484467D01*
X121459000Y-37120683D01*
X118818464Y-37120683D01*
X118818464Y-36380000D01*
X118773670Y-36154805D01*
X118646107Y-35963893D01*
X118455195Y-35836330D01*
X118230000Y-35791536D01*
X117830000Y-35791536D01*
X117604805Y-35836330D01*
X117413893Y-35963893D01*
X117360762Y-36043410D01*
X117343069Y-36016931D01*
X117084731Y-35844315D01*
X116780000Y-35783700D01*
X116475270Y-35844315D01*
X116216932Y-36016931D01*
X116155000Y-36109618D01*
X116093069Y-36016931D01*
X115834731Y-35844315D01*
X115530000Y-35783700D01*
X115225270Y-35844315D01*
X114966932Y-36016931D01*
X114905000Y-36109618D01*
X114843069Y-36016931D01*
X114584731Y-35844315D01*
X114280000Y-35783700D01*
X113975270Y-35844315D01*
X113835795Y-35937509D01*
X113742278Y-35808893D01*
X113392969Y-35595013D01*
X113316123Y-35585334D01*
X113157000Y-35713002D01*
X112903000Y-35713002D01*
X112743877Y-35585334D01*
X112667031Y-35595013D01*
X112317722Y-35808893D01*
X112076851Y-36140167D01*
X111981088Y-36538402D01*
X109600000Y-36538402D01*
X109600000Y-36053690D01*
X109503327Y-35820301D01*
X109324698Y-35641673D01*
X109091309Y-35545000D01*
X108850750Y-35545000D01*
X108692000Y-35703750D01*
X108438000Y-35703750D01*
X108279250Y-35545000D01*
X108038691Y-35545000D01*
X107805302Y-35641673D01*
X107626673Y-35820301D01*
X107616955Y-35843763D01*
X107315000Y-35783700D01*
X107010270Y-35844315D01*
X106751932Y-36016931D01*
X106579315Y-36275269D01*
X106534000Y-36503082D01*
X106534000Y-37156917D01*
X106579315Y-37384730D01*
X106751931Y-37643069D01*
X106809000Y-37681201D01*
X106809001Y-42368161D01*
X106799087Y-42418000D01*
X106829741Y-42572100D01*
X106838360Y-42615431D01*
X106950195Y-42782806D01*
X106992446Y-42811037D01*
X109836000Y-45654592D01*
X109836000Y-45875351D01*
X109954900Y-46162401D01*
X110147499Y-46355000D01*
X110018499Y-46484000D01*
X105873592Y-46484000D01*
X104392000Y-45002409D01*
X104392000Y-44929649D01*
X104883000Y-44929649D01*
X104883000Y-45240351D01*
X105001900Y-45527401D01*
X105221599Y-45747100D01*
X105508649Y-45866000D01*
X105819351Y-45866000D01*
X106106401Y-45747100D01*
X106326100Y-45527401D01*
X106445000Y-45240351D01*
X106445000Y-44929649D01*
X106326100Y-44642599D01*
X106106401Y-44422900D01*
X105819351Y-44304000D01*
X105508649Y-44304000D01*
X105221599Y-44422900D01*
X105001900Y-44642599D01*
X104883000Y-44929649D01*
X104392000Y-44929649D01*
X104392000Y-41700835D01*
X104401913Y-41651000D01*
X104362641Y-41453569D01*
X104347127Y-41430351D01*
X104250806Y-41286194D01*
X104208556Y-41257964D01*
X104070241Y-41119649D01*
X104883000Y-41119649D01*
X104883000Y-41430351D01*
X105001900Y-41717401D01*
X105221599Y-41937100D01*
X105508649Y-42056000D01*
X105819351Y-42056000D01*
X106106401Y-41937100D01*
X106326100Y-41717401D01*
X106445000Y-41430351D01*
X106445000Y-41119649D01*
X106326100Y-40832599D01*
X106106401Y-40612900D01*
X105819351Y-40494000D01*
X105508649Y-40494000D01*
X105221599Y-40612900D01*
X105001900Y-40832599D01*
X104883000Y-41119649D01*
X104070241Y-41119649D01*
X102937524Y-39986933D01*
X103048069Y-39913069D01*
X103220685Y-39654731D01*
X103281300Y-39350000D01*
X103221237Y-39048045D01*
X103244699Y-39038327D01*
X103423327Y-38859698D01*
X103520000Y-38626309D01*
X103520000Y-38385750D01*
X103361250Y-38227000D01*
X102362000Y-38227000D01*
X102362000Y-38247000D01*
X102108000Y-38247000D01*
X102108000Y-38227000D01*
X101108750Y-38227000D01*
X100950000Y-38385750D01*
X100786000Y-38385750D01*
X100786000Y-37573691D01*
X100950000Y-37573691D01*
X100950000Y-37814250D01*
X101108750Y-37973000D01*
X102108000Y-37973000D01*
X102108000Y-37223750D01*
X102362000Y-37223750D01*
X102362000Y-37973000D01*
X103361250Y-37973000D01*
X103520000Y-37814250D01*
X103520000Y-37573691D01*
X103423327Y-37340302D01*
X103244699Y-37161673D01*
X103011310Y-37065000D01*
X102520750Y-37065000D01*
X102362000Y-37223750D01*
X102108000Y-37223750D01*
X101949250Y-37065000D01*
X101458690Y-37065000D01*
X101225301Y-37161673D01*
X101046673Y-37340302D01*
X100950000Y-37573691D01*
X100786000Y-37573691D01*
X100786000Y-34746000D01*
X130354000Y-34746000D01*
X130354001Y-83364000D01*
G04 #@! TD*
M02*
